<?xml version="1.0" encoding="UTF-8"?>
<svg version="1.1" xmlns="http://www.w3.org/2000/svg" width="1024" height="1024">
<path d="M0 0 C8.50859537 0.46517299 16.62308539 2.76240445 24.83984375 4.875 C26.41925003 5.27639665 27.99878738 5.67727784 29.57844543 6.0776825 C33.82071414 7.15466551 38.06101725 8.23920288 42.3009491 9.32534409 C46.71618653 10.45514061 51.13312445 11.57825254 55.54980469 12.70239258 C65.48944392 15.233976 75.42609682 17.7771503 85.36186981 20.32386017 C87.95165504 20.98760942 90.54151956 21.6510484 93.13140869 22.31439209 C104.00570995 25.09984284 114.87865558 27.89053109 125.75 30.6875 C126.46608807 30.87169495 127.18217613 31.05588989 127.91996384 31.2456665 C132.62947477 32.45726222 137.33834726 33.67130761 142.046875 34.88671875 C143.22433792 35.18994553 144.40180084 35.4931723 145.61494446 35.80558777 C146.68399521 36.08203629 147.75304596 36.3584848 148.85449219 36.64331055 C149.78203308 36.88276901 150.70957397 37.12222748 151.66522217 37.36894226 C153.46032391 37.85413311 155.23590806 38.41196935 157 39 C157.05649009 139.39639525 156.99907907 239.79213803 156.61941843 404.28524141 C156.57785794 421.33916273 156.53932366 438.39308892 156.50268555 455.44702148 C156.29768726 550.66733282 156.05229308 645.88520183 155 771 C147.70314817 773.28694309 140.41580755 775.5078295 132.99584961 777.35913086 C132.1889717 777.56339471 131.38209379 777.76765856 130.55076504 777.97811222 C127.91875431 778.64355875 125.2855745 779.30424314 122.65234375 779.96484375 C120.77024255 780.43965617 118.88821503 780.91476069 117.0062561 781.39013672 C112.0118809 782.650755 107.01645591 783.90716121 102.02074051 785.16245651 C96.86677666 786.45802399 91.71360122 787.75672063 86.56030273 789.05493164 C78.42976464 791.10267597 70.29857245 793.14780469 62.16699219 795.19140625 C53.94876203 797.25692253 45.73231808 799.32937771 37.51737976 801.40794373 C32.62301824 802.64626244 27.72753137 803.88010663 22.83181763 805.11306763 C20.66434536 805.65964478 18.49724615 806.20770362 16.33053589 806.7572937 C13.41024913 807.49755798 10.48857283 808.23204148 7.56640625 808.96484375 C6.73855621 809.17616943 5.91070618 809.38749512 5.05776978 809.60522461 C1.56847985 810.47421114 -1.38000953 811 -5 811 C-5.01732371 760.83313069 -5.03321229 710.66626117 -5.04234314 660.49938965 C-5.04255023 659.36462774 -5.04255023 659.36462774 -5.04276149 658.20694134 C-5.04576251 641.71998226 -5.0485315 625.23302314 -5.05106533 608.74606398 C-5.0523114 600.64727832 -5.05360813 592.54849267 -5.05493164 584.44970703 C-5.0550624 583.64427754 -5.05519316 582.83884804 -5.05532788 582.00901159 C-5.05911814 558.79278772 -5.06528672 535.57656573 -5.0737354 512.3603431 C-5.12891253 360.702222 -5.12891253 360.702222 -4.59018397 140.37852287 C-4.56911101 135.92122067 -4.54861074 131.46391649 -4.52869725 127.00660896 C-4.47327476 114.60410188 -4.41328391 102.20163583 -4.344661 89.79919434 C-4.32447178 86.14076838 -4.30592121 82.48234084 -4.28900599 78.82389832 C-4.21101503 62.27561225 -4.07319136 45.7364833 -3.54286194 29.19567871 C-3.50482151 27.98893446 -3.46678109 26.78219022 -3.42758793 25.53887796 C-2.60538529 2.60538529 -2.60538529 2.60538529 0 0 Z " fill="#77E6DC" transform="translate(825,128)"/>
<path d="M0 0 C21.9527451 4.69534419 43.73155533 10.0393006 65.51715088 15.44732666 C69.05960234 16.32575968 72.60291784 17.20067466 76.14628339 18.07541192 C96.4158847 23.08136866 116.66243658 28.17256296 136.88964844 33.34716797 C139.05262881 33.90003345 141.21562314 34.45284434 143.37863159 35.00559998 C148.58591445 36.33644121 153.79302835 37.66794171 159 39 C159.0524679 149.27223755 159.08881057 259.54451212 158.59428024 585.62944794 C158.56753131 591.36461445 158.54237547 597.09978669 158.51765215 602.83496225 C158.46348222 615.36808807 158.40103225 627.9011464 158.33133316 640.43419504 C158.31669336 643.16519018 158.30357059 645.89618849 158.29090881 648.62719345 C158.27155676 652.7438308 158.24752163 656.86041272 158.21950519 660.977 C158.21024279 662.43973773 158.20253274 663.90248634 158.19658196 665.36524129 C158.16582365 672.65478205 157.98454667 679.77293957 157 687 C140.22098329 691.87093596 123.24607553 695.98651829 106.2926445 700.19634628 C98.68095993 702.08735213 91.07093056 703.98501318 83.4609375 705.8828125 C82.60823462 706.09538633 81.75553173 706.30796017 80.87698936 706.52697563 C68.6098937 709.58602076 56.3517696 712.67871565 44.1015625 715.8046875 C43.36255644 715.9931468 42.62355038 716.1816061 41.86215019 716.37577629 C34.83734054 718.16728948 27.81331399 719.96177268 20.79174423 721.76594543 C17.66258459 722.56912397 14.53234745 723.36808687 11.40234375 724.16796875 C9.72037399 724.60246841 9.72037399 724.60246841 8.00442505 725.04574585 C6.9858139 725.30546173 5.96720276 725.56517761 4.91772461 725.83276367 C3.59278236 726.17315926 3.59278236 726.17315926 2.24107361 726.52043152 C0 727 0 727 -3 727 C-3.01726031 677.93188558 -3.03315991 628.86377095 -3.04234314 579.7956543 C-3.0424812 579.05991519 -3.04261925 578.32417609 -3.04276149 577.56614186 C-3.04576006 561.54533147 -3.04852941 545.52452104 -3.05106533 529.50371057 C-3.05231178 521.63789037 -3.05360846 513.77207018 -3.05493164 505.90625 C-3.0550624 505.12384362 -3.05519316 504.34143724 -3.05532788 503.53532158 C-3.05914027 480.84984384 -3.06533484 458.16436799 -3.0737354 435.47889149 C-3.13256794 276.56495398 -3.13256794 276.56495398 -2.57424363 106.56007719 C-2.55879298 104.40281698 -2.54369471 102.24555457 -2.52869725 100.08829117 C-2.34728187 74.11078066 -2.08929813 48.13645136 -1.52758789 22.1640625 C-1.50888984 21.24650555 -1.49019178 20.32894859 -1.47092712 19.38358688 C-1.41797778 16.84883693 -1.35862753 14.3143314 -1.29676819 11.77978516 C-1.27435749 10.67367323 -1.27435749 10.67367323 -1.25149405 9.54521561 C-1.16287886 6.23746906 -1.00729676 3.16710499 0 0 Z " fill="#3259B4" transform="translate(45,170)"/>
<path d="M0 0 C1.0611243 19.05453648 1.34424986 38.10908041 1.55859375 57.1875 C1.56901852 58.08497955 1.5794433 58.98245911 1.59018397 59.90713501 C2.34885091 125.47810891 2.11338193 191.05956881 2.07202756 256.63372993 C2.06399888 269.50630783 2.05860602 282.37888499 2.05493164 295.25146484 C2.05466892 296.16924878 2.05440619 297.08703272 2.05413551 298.0326283 C2.05282967 302.6407949 2.05156615 307.24896152 2.05032361 311.85712814 C2.04010042 349.57142272 2.02261972 387.28571091 2 425 C0.56668184 425.01218125 -0.86666645 425.02084887 -2.30001831 425.02804565 C-3.09820921 425.03325163 -3.89640011 425.0384576 -4.71877861 425.04382133 C-7.66510321 424.98722364 -10.38092393 424.51165817 -13.2578125 423.8828125 C-14.48612793 423.61500977 -15.71444336 423.34720703 -16.97998047 423.07128906 C-18.36188051 422.75685474 -19.74354326 422.44137626 -21.125 422.125 C-21.85575745 421.96060425 -22.58651489 421.7962085 -23.3394165 421.62683105 C-41.59857734 417.50809405 -59.73332148 412.85313791 -77.875 408.25 C-78.96281643 407.97402859 -78.96281643 407.97402859 -80.07260895 407.69248199 C-106.74824478 400.92133427 -133.36931821 393.94713438 -160 387 C-160 272.16 -160 157.32 -160 39 C-149.87485071 35.62495024 -149.87485071 35.62495024 -145.38946533 34.4960022 C-144.37250076 34.23826523 -143.35553619 33.98052826 -142.30775452 33.71498108 C-141.2229631 33.44374924 -140.13817169 33.1725174 -139.02050781 32.89306641 C-137.85323654 32.5982991 -136.68596527 32.3035318 -135.48332214 31.99983215 C-132.30342338 31.19758441 -129.12277638 30.39839304 -125.94173908 29.60067415 C-122.58376148 28.75787325 -119.22672743 27.91132946 -115.86956787 27.0652771 C-110.22140737 25.64243295 -104.5725965 24.22219632 -98.92333984 22.80371094 C-92.44893345 21.17802168 -85.97535399 19.54907575 -79.50226903 17.91813338 C-72.54829614 16.16603927 -65.59379423 14.41605265 -58.63909817 12.66683149 C-56.66745051 12.17081117 -54.69588809 11.6744533 -52.72434235 11.17802811 C-45.56328801 9.37579835 -38.4002633 7.58191207 -31.23323059 5.8035965 C-29.10249357 5.27401695 -26.97237887 4.74192629 -24.84294128 4.20714569 C-21.94636746 3.48081285 -19.04739852 2.76501144 -16.14746094 2.05224609 C-14.89765127 1.73567016 -14.89765127 1.73567016 -13.62259293 1.41269875 C-8.94850247 0.27840738 -4.81036739 -0.21070486 0 0 Z " fill="#00C8D2" transform="translate(724,388)"/>
<path d="M0 0 C7.95537049 0.63776324 15.48357855 2.43340469 23.2109375 4.3671875 C24.63075236 4.71807985 26.05068269 5.06850523 27.47071838 5.41850281 C31.30834808 6.36609404 35.1440736 7.32118669 38.97941208 8.27800369 C42.18894158 9.07783961 45.39948275 9.87357301 48.60999966 10.66943455 C72.89991847 16.69203413 97.16997425 22.79478038 121.4318924 28.9291153 C123.94047116 29.56325107 126.44920199 30.19678262 128.95794678 30.83026123 C132.89651001 31.82514929 136.83438609 32.82271295 140.77171135 33.82248878 C142.22135325 34.19027601 143.67118577 34.55731281 145.12121773 34.92355919 C147.09691613 35.42281872 149.07179774 35.92530726 151.04663086 36.42797852 C152.15437363 36.70899918 153.26211639 36.99001984 154.40342712 37.27955627 C157 38 157 38 159 39 C158.89318813 68.059119 158.78307069 97.11822419 158.66888306 126.17731515 C158.65512809 129.67843136 158.64139883 133.17954768 158.62768555 136.68066406 C158.62495724 137.37711255 158.62222894 138.07356104 158.61941796 138.79111403 C158.58166204 148.44243393 158.54526721 158.09375805 158.51004235 167.7450875 C158.24571707 240.16624214 157.80094269 312.58257009 157 385 C155.75025076 385.47841443 154.49953799 385.95431221 153.24843979 386.42918777 C152.55205642 386.69448076 151.85567306 386.95977374 151.13818717 387.2331059 C147.74232088 388.45108619 144.27832211 389.33459049 140.78222656 390.21386719 C139.99850426 390.41481774 139.21478195 390.6157683 138.40731049 390.82280827 C135.81949595 391.48514687 133.23009945 392.14105876 130.640625 392.796875 C128.79582674 393.2675176 126.95112257 393.73852911 125.10650635 394.20988464 C120.17431774 395.46889234 115.2406801 396.72212773 110.30667114 397.97397995 C106.23100691 399.00869943 102.15613855 400.04653404 98.08125305 401.0843153 C73.23186524 407.41224163 48.37325769 413.70403671 23.5 419.9375 C22.23224731 420.25577759 20.96449463 420.57405518 19.6583252 420.90197754 C16.15830874 421.77983033 12.65747185 422.6543127 9.15625 423.52734375 C8.13984436 423.7824321 7.12343872 424.03752045 6.07623291 424.30033875 C4.70528473 424.64074944 4.70528473 424.64074944 3.30664062 424.98803711 C2.51664673 425.18513779 1.72665283 425.38223846 0.91271973 425.58531189 C-1 426 -1 426 -3 426 C-3.02315961 387.44510822 -3.04064395 348.89021753 -3.05106533 310.33532013 C-3.05231524 305.72818542 -3.05360964 301.12105071 -3.05493164 296.51391602 C-3.05519395 295.59715936 -3.05545626 294.68040271 -3.05572652 293.73586556 C-3.0594873 280.91329697 -3.06563703 268.09073152 -3.0737354 255.26816498 C-3.16487638 110.8302728 -3.16487638 110.8302728 -2.55859375 60.91796875 C-2.54872791 60.08123383 -2.53886206 59.24449891 -2.52869725 58.38240838 C-2.34741349 43.08550648 -2.09449083 27.79352645 -1.52758789 12.50512695 C-1.49047668 11.45856776 -1.45336546 10.41200857 -1.41512966 9.33373547 C-1.37607038 8.38924195 -1.33701109 7.44474844 -1.29676819 6.47163391 C-1.26366578 5.65062352 -1.23056337 4.82961313 -1.19645786 3.98372364 C-1 2 -1 2 0 0 Z " fill="#3B8CFF" transform="translate(301,493)"/>
</svg>
