<?xml version="1.0" encoding="UTF-8"?>
<svg version="1.1" xmlns="http://www.w3.org/2000/svg" width="1024" height="1024">
<path d="M0 0 C1.55253857 -0.0025864 3.10507647 -0.00560032 4.65761346 -0.0090034 C8.91265526 -0.01704475 13.16768016 -0.01886137 17.42272866 -0.01960087 C22.01672764 -0.02145649 26.61071797 -0.0290065 31.20471191 -0.03573608 C41.24651478 -0.04930079 51.28831364 -0.05534157 61.33012414 -0.05974674 C67.6065703 -0.062513 73.88301494 -0.06675112 80.15946007 -0.07125092 C97.55408411 -0.08344245 114.94870693 -0.09374115 132.34333515 -0.09712601 C133.45603156 -0.09734557 134.56872796 -0.09756514 135.71514244 -0.09779136 C137.38808016 -0.09811878 137.38808016 -0.09811878 139.0948146 -0.09845281 C141.35464752 -0.09889626 143.61448044 -0.09934283 145.87431335 -0.09979248 C147.55573006 -0.10012463 147.55573006 -0.10012463 149.27111479 -0.10046348 C167.41579533 -0.10440762 185.56043562 -0.12185045 203.70510063 -0.145152 C222.35630192 -0.16890963 241.00748304 -0.18132991 259.65869969 -0.18249393 C270.12151132 -0.18340835 280.58427052 -0.18910157 291.04706764 -0.20731354 C299.96047633 -0.22277434 308.87381639 -0.2278 317.78723595 -0.21957543 C322.32831962 -0.21568965 326.86926536 -0.21649611 331.41033173 -0.23063278 C366.38883662 -0.33330601 366.38883662 -0.33330601 381.81547546 3.14044189 C382.88165257 3.37739651 383.94782969 3.61435112 385.04631519 3.85848618 C387.52019717 4.4384767 389.94327771 5.1020535 392.37797546 5.82794189 C393.24309753 6.08140381 394.1082196 6.33486572 394.9995575 6.5960083 C403.96944615 9.32911091 412.41481678 13.00133033 420.81547546 17.14044189 C421.47773132 17.46270752 422.13998718 17.78497314 422.8223114 18.11700439 C443.42843152 28.25014892 463.02477404 43.43744168 477.12797546 61.64044189 C477.59308533 62.23937256 478.05819519 62.83830322 478.53739929 63.4553833 C507.96927531 101.83092234 520.56939455 148.07979079 514.29374695 196.11456299 C508.89555805 233.07208106 491.53319311 265.41497669 465.81547546 292.14044189 C465.19930359 292.81977783 464.58313171 293.49911377 463.94828796 294.19903564 C438.61123733 321.28152754 401.68318152 335.69303728 365.81547546 341.14044189 C369.66467507 342.29000015 373.50135789 343.31898081 377.42485046 344.18341064 C403.09013228 349.84957672 427.1127047 359.65011429 447.81547546 376.14044189 C448.64184509 376.79762207 448.64184509 376.79762207 449.48490906 377.46807861 C479.21322611 401.37642975 500.11671937 433.25928124 509.56547546 470.26544189 C509.76423279 471.03984619 509.96299011 471.81425049 510.16777039 472.61212158 C513.32882736 485.64656997 514.1948507 498.48153009 514.12797546 511.82794189 C514.12548798 512.62268921 514.12300049 513.41743652 514.12043762 514.23626709 C514.06306808 526.09462628 513.73988407 537.58914785 510.81547546 549.14044189 C510.57909363 550.0774292 510.34271179 551.0144165 510.09916687 551.97979736 C498.57373927 596.36224508 471.98758081 634.84224945 432.44047546 658.89044189 C391.67199944 682.79727659 344.16710851 689.49652609 298.25297546 677.95294189 C267.50163748 669.62532198 242.15558164 653.48054807 219.81547546 631.14044189 C218.91635437 630.31093018 218.91635437 630.31093018 217.99906921 629.46466064 C206.97394407 619.13014737 198.7253025 606.21741006 191.75444031 592.91583252 C190.93473988 591.36594653 190.07557365 589.83706253 189.21000671 588.31231689 C182.91426638 576.76731317 178.57719192 563.28280734 175.76133728 550.45079041 C175.58352848 549.64285884 175.40571968 548.83492727 175.22252274 548.00251293 C175.08819714 547.38802949 174.95387154 546.77354605 174.81547546 546.14044189 C174.81487838 546.82151444 174.81428129 547.50258698 174.81366611 548.20429808 C174.77769809 588.65536686 174.72094591 629.10635942 174.63755451 669.55735943 C174.62753819 674.4246529 174.61769387 679.29194669 174.60795593 684.15924072 C174.60504387 685.61260164 174.60504387 685.61260164 174.60207298 687.09532338 C174.571132 702.74170906 174.55409447 718.38808011 174.54228124 734.03449059 C174.52982859 750.11358958 174.50223498 766.19261232 174.4608624 782.27166313 C174.43584421 792.1769659 174.42234959 802.08214206 174.42404589 811.98747688 C174.42407586 818.79879799 174.40927371 825.60999104 174.38331118 832.42126215 C174.36880017 836.33903219 174.36034405 840.25653972 174.36967278 844.17433167 C174.41519132 865.74857365 173.45773122 886.86637245 166.12797546 907.39044189 C165.61315613 908.87181641 165.61315613 908.87181641 165.0879364 910.38311768 C149.47700598 954.14872072 117.36186965 989.16943203 75.56547546 1009.39044189 C56.41847559 1018.29512994 34.79126055 1024.21184777 13.60844421 1024.34356689 C12.47038078 1024.35415634 12.47038078 1024.35415634 11.30932617 1024.36495972 C-20.31143535 1024.59243122 -20.31143535 1024.59243122 -34.18452454 1021.14044189 C-35.01226379 1020.94176514 -35.84000305 1020.74308838 -36.69282532 1020.53839111 C-49.48748272 1017.3933225 -61.3728177 1012.94751661 -73.18452454 1007.14044189 C-73.84146301 1006.82349365 -74.49840149 1006.50654541 -75.17524719 1006.17999268 C-90.89164665 998.52999657 -104.23121873 987.76669292 -117.18452454 976.14044189 C-117.85870422 975.53973877 -118.53288391 974.93903564 -119.22749329 974.32012939 C-149.64683703 945.56265003 -166.99573078 900.91882476 -168.34468079 859.64434814 C-169.44973924 810.65342317 -151.4787264 766.9656245 -118.00556946 731.62481689 C-90.67177462 703.56648959 -55.9714599 689.981576 -18.18452454 683.14044189 C-20.10071594 682.71505127 -20.10071594 682.71505127 -22.05561829 682.28106689 C-22.88045715 682.09737549 -23.70529602 681.91368408 -24.55513 681.72442627 C-26.24891504 681.34823929 -27.94321518 680.97436036 -29.63813782 680.60333252 C-47.71068878 676.62313247 -63.9058749 670.95753495 -80.18452454 662.14044189 C-80.81213684 661.80174072 -81.43974915 661.46303955 -82.08638 661.11407471 C-110.93080541 645.2988287 -134.20361079 620.24259324 -149.18452454 591.14044189 C-149.70224426 590.15769287 -149.70224426 590.15769287 -150.23042297 589.15509033 C-159.38424572 571.62960247 -164.70123678 552.70874944 -167.18452454 533.14044189 C-167.31471985 532.21102783 -167.44491516 531.28161377 -167.57905579 530.32403564 C-170.37827783 506.47466382 -167.35105021 481.96084727 -160.18452454 459.14044189 C-159.97489075 458.47029053 -159.76525696 457.80013916 -159.54927063 457.10968018 C-154.00523088 439.93126601 -145.10387558 423.47457182 -134.18452454 409.14044189 C-133.21386047 407.83719971 -133.21386047 407.83719971 -132.22358704 406.50762939 C-103.25434428 369.32488487 -63.56147823 350.05644048 -18.18452454 341.14044189 C-18.84758606 341.02039795 -19.51064758 340.900354 -20.19380188 340.77667236 C-52.55426208 334.83451151 -82.13937404 324.19106353 -107.18452454 302.14044189 C-108.03530579 301.39923096 -108.88608704 300.65802002 -109.76264954 299.89434814 C-112.26924035 297.67609217 -114.73306865 295.41937306 -117.18452454 293.14044189 C-117.89995422 292.49075439 -118.61538391 291.84106689 -119.35249329 291.17169189 C-149.54313357 262.57582132 -166.54395232 219.67171918 -168.29292297 178.59454346 C-169.32946845 135.2805366 -156.22949807 91.96126199 -127.18452454 59.14044189 C-126.54063782 58.40615967 -126.54063782 58.40615967 -125.88374329 57.65704346 C-111.33088413 41.12256299 -94.73098469 28.22532455 -75.18452454 18.14044189 C-74.5660968 17.82091553 -73.94766907 17.50138916 -73.3105011 17.17218018 C-50.30474944 5.4736148 -25.71710292 -0.01716031 0 0 Z M173.81547546 342.14044189 C173.81547546 388.67044189 173.81547546 435.20044189 173.81547546 483.14044189 C174.14547546 483.14044189 174.47547546 483.14044189 174.81547546 483.14044189 C174.93028259 482.60378906 175.04508972 482.06713623 175.16337585 481.51422119 C182.2597083 448.8613852 195.87513991 416.34075404 220.81547546 393.14044189 C221.64047546 392.31544189 222.46547546 391.49044189 223.31547546 390.64044189 C224.14047546 389.81544189 224.96547546 388.99044189 225.81547546 388.14044189 C226.25633484 387.65317627 226.69719421 387.16591064 227.15141296 386.66387939 C250.41472308 361.74733912 285.97020037 348.57781583 318.81547546 343.14044189 C318.81547546 342.81044189 318.81547546 342.48044189 318.81547546 342.14044189 C270.96547546 342.14044189 223.11547546 342.14044189 173.81547546 342.14044189 Z " fill="#874FFE" transform="translate(338.1845245361328,-0.14044189453125)"/>
<path d="M0 0 C1.55253857 -0.0025864 3.10507647 -0.00560032 4.65761346 -0.0090034 C8.91265526 -0.01704475 13.16768016 -0.01886137 17.42272866 -0.01960087 C22.01672764 -0.02145649 26.61071797 -0.0290065 31.20471191 -0.03573608 C41.24651478 -0.04930079 51.28831364 -0.05534157 61.33012414 -0.05974674 C67.6065703 -0.062513 73.88301494 -0.06675112 80.15946007 -0.07125092 C97.55408411 -0.08344245 114.94870693 -0.09374115 132.34333515 -0.09712601 C133.45603156 -0.09734557 134.56872796 -0.09756514 135.71514244 -0.09779136 C137.38808016 -0.09811878 137.38808016 -0.09811878 139.0948146 -0.09845281 C141.35464752 -0.09889626 143.61448044 -0.09934283 145.87431335 -0.09979248 C147.55573006 -0.10012463 147.55573006 -0.10012463 149.27111479 -0.10046348 C167.41579533 -0.10440762 185.56043562 -0.12185045 203.70510063 -0.145152 C222.35630192 -0.16890963 241.00748304 -0.18132991 259.65869969 -0.18249393 C270.12151132 -0.18340835 280.58427052 -0.18910157 291.04706764 -0.20731354 C299.96047633 -0.22277434 308.87381639 -0.2278 317.78723595 -0.21957543 C322.32831962 -0.21568965 326.86926536 -0.21649611 331.41033173 -0.23063278 C366.38883662 -0.33330601 366.38883662 -0.33330601 381.81547546 3.14044189 C382.88165257 3.37739651 383.94782969 3.61435112 385.04631519 3.85848618 C387.52019717 4.4384767 389.94327771 5.1020535 392.37797546 5.82794189 C393.24309753 6.08140381 394.1082196 6.33486572 394.9995575 6.5960083 C403.96944615 9.32911091 412.41481678 13.00133033 420.81547546 17.14044189 C421.47773132 17.46270752 422.13998718 17.78497314 422.8223114 18.11700439 C443.42843152 28.25014892 463.02477404 43.43744168 477.12797546 61.64044189 C477.59308533 62.23937256 478.05819519 62.83830322 478.53739929 63.4553833 C507.96927531 101.83092234 520.56939455 148.07979079 514.29374695 196.11456299 C508.89555805 233.07208106 491.53319311 265.41497669 465.81547546 292.14044189 C465.19930359 292.81977783 464.58313171 293.49911377 463.94828796 294.19903564 C438.0446639 321.88713159 396.52904254 339.90290519 358.93388367 341.51348877 C356.22365026 341.59695554 353.51443336 341.67127 350.80375671 341.73419189 C350.03799128 341.75356686 349.27222584 341.77294182 348.48325539 341.7929039 C320.15122542 342.49035684 291.79578503 342.29466064 263.45698071 342.26770067 C260.99364675 342.26543331 258.53031274 342.26346488 256.06697845 342.26159286 C235.5616043 342.24588438 215.05627567 342.21596333 194.55093431 342.17642176 C180.18896863 342.14887293 165.82702013 342.13217694 151.46503294 342.12103605 C130.65598847 342.10469775 109.84709238 342.06826252 89.03813457 342.0051384 C78.33216888 341.9730559 67.6263202 341.94876165 56.92030334 341.94543457 C47.74985045 341.94247742 38.57963258 341.92204435 29.4092719 341.88011795 C24.70520393 341.85910845 20.00146881 341.8457527 15.29735374 341.85425377 C-29.89876921 341.92263571 -72.33833396 332.82024012 -107.18452454 302.14044189 C-108.03530579 301.39923096 -108.88608704 300.65802002 -109.76264954 299.89434814 C-112.26924035 297.67609217 -114.73306865 295.41937306 -117.18452454 293.14044189 C-117.89995422 292.49075439 -118.61538391 291.84106689 -119.35249329 291.17169189 C-149.54313357 262.57582132 -166.54395232 219.67171918 -168.29292297 178.59454346 C-169.32946845 135.2805366 -156.22949807 91.96126199 -127.18452454 59.14044189 C-126.54063782 58.40615967 -126.54063782 58.40615967 -125.88374329 57.65704346 C-111.33088413 41.12256299 -94.73098469 28.22532455 -75.18452454 18.14044189 C-74.5660968 17.82091553 -73.94766907 17.50138916 -73.3105011 17.17218018 C-50.30474944 5.4736148 -25.71710292 -0.01716031 0 0 Z " fill="#FF7136" transform="translate(338.1845245361328,-0.14044189453125)"/>
<path d="M0 0 C1.16514885 -0.00128403 1.16514885 -0.00128403 2.35383606 -0.00259399 C4.94278316 -0.00423803 7.53166436 0.00125618 10.12060547 0.00672913 C12.01390582 0.0070357 13.90720629 0.00690156 15.80050659 0.00636387 C20.85747237 0.00613868 25.91441434 0.0119225 30.97137451 0.0189743 C35.72163974 0.02468133 40.47189926 0.02493808 45.22216797 0.02565002 C59.10237944 0.03089137 72.98258651 0.04485257 86.86279297 0.05775452 C117.88279297 0.07837952 148.90279297 0.09900452 180.86279297 0.12025452 C180.86279297 112.65025452 180.86279297 225.18025452 180.86279297 341.12025452 C149.69841797 341.22337952 118.53404297 341.32650452 86.42529297 341.43275452 C71.73106812 341.50103455 71.73106812 341.50103455 56.73999023 341.57069397 C44.66540527 341.59327698 44.66540527 341.59327698 38.99107361 341.59747314 C35.07535785 341.60208252 31.15999005 341.62062051 27.24436951 341.64813232 C-15.79452479 341.93711488 -15.79452479 341.93711488 -36.13720703 336.12025452 C-36.9831587 335.88111643 -37.82911037 335.64197834 -38.70069695 335.39559364 C-61.27622973 328.89565193 -82.49400548 317.65394284 -100.13720703 302.12025452 C-100.98798828 301.37904358 -101.83876953 300.63783264 -102.71533203 299.87416077 C-105.22192284 297.65590479 -107.68575115 295.39918568 -110.13720703 293.12025452 C-110.85263672 292.47056702 -111.56806641 291.82087952 -112.30517578 291.15150452 C-142.49581606 262.55563394 -159.49663481 219.6515318 -161.24560547 178.57435608 C-162.28215094 135.26034922 -149.18218056 91.94107461 -120.13720703 59.12025452 C-119.49332031 58.38597229 -119.49332031 58.38597229 -118.83642578 57.63685608 C-104.28356663 41.10237562 -87.68366719 28.20513717 -68.13720703 18.12025452 C-67.5187793 17.80072815 -66.90035156 17.48120178 -66.26318359 17.1519928 C-46.03698728 6.86684831 -22.80823805 -0.09332018 0 0 Z " fill="#FF3636" transform="translate(331.13720703125,-0.1202545166015625)"/>
<path d="M0 0 C5.31431372 0.03166798 10.62864803 0.03422561 15.94304156 0.04012704 C25.96506133 0.05554842 35.9868021 0.09641515 46.00870007 0.14687449 C57.43586678 0.20313656 68.86304817 0.23034632 80.29031932 0.25535166 C103.75862167 0.30734401 127.22667797 0.39505375 150.69476581 0.50696969 C150.78858551 24.75224369 150.85892824 48.99749012 150.90201449 73.24290967 C150.92256003 84.50278537 150.95052579 95.76254768 150.99652362 107.02235055 C151.0366384 116.84680315 151.06225666 126.67117355 151.07111979 136.49570578 C151.07629319 141.68829049 151.0882815 146.88064025 151.11768603 152.07314897 C151.3856184 201.29672136 151.3856184 201.29672136 143.00726581 224.75696969 C142.49244647 226.2383442 142.49244647 226.2383442 141.96722674 227.74964547 C126.35629632 271.51524851 94.24115999 306.53595983 52.44476581 326.75696969 C33.29776594 335.66165774 11.67055089 341.57837557 -9.51226544 341.71009469 C-10.2709744 341.71715432 -11.02968335 341.72421395 -11.81138349 341.73148751 C-43.43214501 341.95895902 -43.43214501 341.95895902 -57.30523419 338.50696969 C-58.54684308 338.20895455 -58.54684308 338.20895455 -59.81353498 337.90491891 C-72.60819238 334.7598503 -84.49352735 330.31404441 -96.30523419 324.50696969 C-96.96217267 324.19002145 -97.61911115 323.87307321 -98.29595685 323.54652047 C-114.01235631 315.89652437 -127.35192838 305.13322071 -140.30523419 293.50696969 C-140.97941388 292.90626657 -141.65359357 292.30556344 -142.34820294 291.68665719 C-172.76754669 262.92917783 -190.11644044 218.28535255 -191.46539044 177.01087594 C-192.5704489 128.01995097 -174.59943606 84.3321523 -141.12627912 48.99134469 C-120.71654655 28.04061466 -94.26189671 13.54069321 -66.30523419 5.50696969 C-65.51157012 5.27857211 -64.71790605 5.05017453 -63.90019155 4.81485581 C-42.88620253 -0.91136634 -21.58426054 -0.15074242 0 0 Z " fill="#23CB70" transform="translate(361.3052341938019,682.4930303096771)"/>
<path d="M0 0 C26.37365222 23.05879869 44.77560778 53.37385895 53.43652344 87.29443359 C53.63528076 88.06883789 53.83403809 88.84324219 54.03881836 89.64111328 C57.19987533 102.67556167 58.06589868 115.51052179 57.99902344 128.85693359 C57.99653595 129.65168091 57.99404846 130.44642822 57.9914856 131.26525879 C57.93411605 143.12361798 57.61093204 154.61813955 54.68652344 166.16943359 C54.4501416 167.1064209 54.21375977 168.0434082 53.97021484 169.00878906 C42.44478724 213.39123678 15.85862878 251.87124115 -23.68847656 275.91943359 C-64.45695258 299.82626829 -111.96184352 306.52551779 -157.87597656 294.98193359 C-188.62731455 286.65431368 -213.97337038 270.50953977 -236.31347656 248.16943359 C-236.91289063 247.61642578 -237.51230469 247.06341797 -238.12988281 246.49365234 C-249.15500796 236.15913907 -257.40364952 223.24640176 -264.37451172 209.94482422 C-265.19421215 208.39493823 -266.05337838 206.86605423 -266.91894531 205.34130859 C-270.58717151 198.61458817 -273.05359391 191.53221197 -275.50097656 184.29443359 C-275.83427979 183.31410156 -276.16758301 182.33376953 -276.51098633 181.32373047 C-277.5067416 178.28761628 -278.42370499 175.23820306 -279.31347656 172.16943359 C-279.60625488 171.22173096 -279.8990332 170.27402832 -280.20068359 169.29760742 C-283.29393442 157.59797111 -282.83572845 145.50181194 -282.81445312 133.48657227 C-282.81348485 129.63985352 -282.8551202 125.79516059 -282.89941406 121.94873047 C-283.09029934 82.63856104 -268.02830768 44.09180302 -241.30175781 14.97802734 C-239.66931691 13.33850427 -238.00745695 11.74492313 -236.31347656 10.16943359 C-235.50910156 9.36505859 -234.70472656 8.56068359 -233.87597656 7.73193359 C-233.03035156 6.88630859 -232.18472656 6.04068359 -231.31347656 5.16943359 C-230.79914062 4.60869141 -230.28480469 4.04794922 -229.75488281 3.47021484 C-169.98756938 -59.89599058 -62.80896158 -53.81200222 0 0 Z " fill="#00B6FE" transform="translate(794.3134765625,382.83056640625)"/>
</svg>
