<?xml version="1.0" encoding="UTF-8"?>
<svg version="1.1" xmlns="http://www.w3.org/2000/svg" width="1024" height="1024">
<path d="M0 0 C3.40145234 3.14291308 5.90724032 6.6315869 8.40234375 10.5 C9.04027107 11.47573219 9.04027107 11.47573219 9.69108582 12.47117615 C10.61952598 13.8924741 11.54575207 15.31522024 12.47003174 16.73922729 C13.97360709 19.05562637 15.48285169 21.36823933 16.99365234 23.67993164 C18.61987835 26.16834993 20.24574237 28.65699708 21.86993408 31.14674377 C27.65373442 40.01183155 33.47951029 48.84907443 39.30865479 57.68438721 C42.38513419 62.34753975 45.46008807 67.01169803 48.53515625 71.67578125 C49.1519928 72.61125793 49.76882935 73.54673462 50.40435791 74.51055908 C54.70924271 81.03991311 59.00975246 87.57213464 63.30859375 94.10546875 C65.72622988 97.77886487 68.14424607 101.45201056 70.5625 105.125 C71.15537811 106.0256015 71.74825623 106.926203 72.35910034 107.85409546 C79.10782197 118.10255413 85.87939128 128.33515124 92.6953125 138.5390625 C93.64285652 139.95791245 93.64285652 139.95791245 94.60954285 141.40542603 C97.61608185 145.90588797 100.62586093 150.40413339 103.64086914 154.89892578 C109.00519332 162.90932473 114.27088614 170.95924119 119.34396362 179.15734863 C123.52770155 185.8978796 127.92769503 192.48729213 132.35046387 199.0725708 C134.97011564 202.97405185 137.58074801 206.88155994 140.19140625 210.7890625 C140.7427121 211.61405243 141.29401794 212.43904236 141.86203003 213.28903198 C148.37022494 223.03765833 154.80880029 232.83204088 161.25 242.625 C168.70651167 253.96143851 176.17738894 265.28747475 183.71484375 276.5703125 C184.34530609 277.51423859 184.97576843 278.45816467 185.62533569 279.43069458 C188.62629681 283.92201903 191.63061254 288.41105435 194.63964844 292.89697266 C200.00431353 300.90806504 205.27048271 308.95858926 210.34396362 317.15734863 C214.52770155 323.8978796 218.92769503 330.48729213 223.35046387 337.0725708 C225.97011564 340.97405185 228.58074801 344.88155994 231.19140625 348.7890625 C231.7427121 349.61405243 232.29401794 350.43904236 232.86203003 351.28903198 C239.37022494 361.03765833 245.80880029 370.83204088 252.25 380.625 C259.70651167 391.96143851 267.17738894 403.28747475 274.71484375 414.5703125 C275.34530609 415.51423859 275.97576843 416.45816467 276.62533569 417.43069458 C279.62629681 421.92201903 282.63061254 426.41105435 285.63964844 430.89697266 C291.00431353 438.90806504 296.27048271 446.95858926 301.34396362 455.15734863 C305.52770155 461.8978796 309.92769503 468.48729213 314.35046387 475.0725708 C316.97011564 478.97405185 319.58074801 482.88155994 322.19140625 486.7890625 C322.7427121 487.61405243 323.29401794 488.43904236 323.86203003 489.28903198 C330.37022494 499.03765833 336.80880029 508.83204088 343.25 518.625 C350.70651167 529.96143851 358.17738894 541.28747475 365.71484375 552.5703125 C366.34530609 553.51423859 366.97576843 554.45816467 367.62533569 555.43069458 C370.62629681 559.92201903 373.63061254 564.41105435 376.63964844 568.89697266 C382.00431353 576.90806504 387.27048271 584.95858926 392.34396362 593.15734863 C396.52770155 599.8978796 400.92769503 606.48729213 405.35046387 613.0725708 C407.97011564 616.97405185 410.58074801 620.88155994 413.19140625 624.7890625 C413.7427121 625.61405243 414.29401794 626.43904236 414.86203003 627.28903198 C421.37022494 637.03765833 427.80880029 646.83204088 434.25 656.625 C441.70651167 667.96143851 449.17738894 679.28747475 456.71484375 690.5703125 C457.34530609 691.51423859 457.97576843 692.45816467 458.62533569 693.43069458 C461.62629681 697.92201903 464.63061254 702.41105435 467.63964844 706.89697266 C472.96356254 714.8473001 478.1882743 722.83578134 483.21707153 730.97607422 C486.43396036 736.15703389 489.78763485 741.23703334 493.19140625 746.296875 C493.71405563 747.07415955 494.23670502 747.85144409 494.77519226 748.65228271 C496.91929832 751.83643976 499.06673768 755.018296 501.2199707 758.19628906 C502.81970036 760.55976826 504.41226571 762.92794368 506.00390625 765.296875 C506.73656456 766.37180206 506.73656456 766.37180206 507.48402405 767.46844482 C507.93216965 768.1372467 508.38031525 768.80604858 508.84204102 769.49511719 C509.23601578 770.0775116 509.62999054 770.65990601 510.03590393 771.25994873 C511.08524742 773.15385903 511.5117396 774.90009433 512 777 C499.79704982 777.62925178 487.59802288 778.10703045 475.38208199 778.39892864 C469.70669125 778.53915225 464.04248232 778.72864284 458.37353516 779.03686523 C420.79309318 781.02569863 420.79309318 781.02569863 412.3352356 774.60012817 C406.17443563 768.8483162 402.76840035 761.16485521 399.5625 753.51303101 C397.26349909 748.34409566 394.15543786 743.90095853 390.91796875 739.28515625 C389.8003073 737.60076185 388.68831293 735.91259332 387.58203125 734.22070312 C387.0298291 733.381604 386.47762695 732.54250488 385.90869141 731.67797852 C385.05670166 730.38331665 385.05670166 730.38331665 384.1875 729.0625 C382.94799701 727.18028563 381.70841135 725.2981257 380.46875 723.41601562 C377.91293466 719.53552569 375.35746206 715.65481041 372.80224609 711.77392578 C367.3048379 703.42502128 361.80302981 695.07901715 356.30142212 686.73287964 C353.28408874 682.15538008 350.26706027 677.57767957 347.25 673 C346.04166812 671.16666571 344.83333478 669.33333238 343.625 667.5 C283.8125 576.75 224 486 75.375 260.5 C74.47788048 259.13885574 74.47788048 259.13885574 73.56263733 257.75021362 C72.35383979 255.91617246 71.14504869 254.08212705 69.93626404 252.24807739 C66.9225859 247.67553901 63.9087971 243.10307364 60.89477539 238.53076172 C55.37189235 230.15222994 49.84996635 221.77307337 44.3319397 213.39134216 C32.66995588 195.67714401 21.0066928 177.96404642 9.25 160.3125 C8.82467987 159.67322571 8.39935974 159.03395142 7.96115112 158.37530518 C6.79313071 156.62041141 5.62348271 154.86661683 4.453125 153.11328125 C3.80504883 152.14173096 3.15697266 151.17018066 2.48925781 150.16918945 C1.17668441 148.11577655 1.17668441 148.11577655 0 147 C-0.31951126 147.49294052 -0.63902252 147.98588104 -0.96821594 148.49375916 C-9.65269354 161.88666411 -18.39923098 175.23751007 -27.1875 188.5625 C-27.8202887 189.52243866 -28.45307739 190.48237732 -29.1050415 191.47140503 C-36.49937717 202.68791725 -43.90882753 213.89366225 -51.375 225.0625 C-57.90042634 234.82415031 -64.36906149 244.62161011 -70.8125 254.4375 C-71.28495148 255.15720978 -71.75740295 255.87691956 -72.24417114 256.61843872 C-73.21617648 258.09919396 -74.18817652 259.57995269 -75.16017151 261.06071472 C-75.65387741 261.8128273 -76.14758331 262.56493988 -76.65625 263.33984375 C-77.40992104 264.48801323 -77.40992104 264.48801323 -78.17881775 265.65937805 C-84.71354759 275.61272284 -91.26143179 285.55740319 -97.8125 295.5 C-98.43599335 296.44631287 -99.05948669 297.39262573 -99.70187378 298.36761475 C-107.59252786 310.34126161 -115.51321251 322.29358643 -123.48242188 334.21508789 C-130.26550822 344.3732764 -136.96970341 354.58267344 -143.67211914 364.79418945 C-144.65640074 366.29379044 -145.64069458 367.7933834 -146.625 369.29296875 C-147.12579575 370.05593765 -147.62659149 370.81890656 -148.14256287 371.60499573 C-154.218911 380.86005943 -160.30945539 390.10576937 -166.40170288 399.35037231 C-167.65677717 401.25494299 -168.91168554 403.159623 -170.16641235 405.06442261 C-175.75788373 413.55266334 -181.34922143 422.04066549 -186.99609375 430.4921875 C-192.6696098 438.98387932 -198.27732984 447.51878465 -203.89099121 456.05010986 C-213.46832989 470.60352657 -223.06956834 485.13993353 -232.75 499.625 C-239.56874549 509.83003199 -246.33766135 520.06455902 -253.0402832 530.34643555 C-260.13998734 541.23165455 -267.28619981 552.08612347 -274.4375 562.9375 C-275.38923599 564.38171326 -275.38923599 564.38171326 -276.36019897 565.85510254 C-284.36460752 577.99859576 -292.39813705 590.1214567 -300.48095703 602.21289062 C-306.299876 610.92717481 -312.06226331 619.67779365 -317.8125 628.4375 C-318.27996643 629.14956604 -318.74743286 629.86163208 -319.22906494 630.59527588 C-320.19031859 632.05953259 -321.15156105 633.52379665 -322.11279297 634.98806763 C-322.60279785 635.73450531 -323.09280273 636.48094299 -323.59765625 637.25 C-324.09700684 638.01069794 -324.59635742 638.77139587 -325.11083984 639.55514526 C-331.32892221 649.02627342 -337.55511697 658.4920569 -343.78622437 667.95462036 C-345.08946491 669.93417934 -346.39222417 671.91405528 -347.69448853 673.89425659 C-349.5190791 676.66858101 -351.34528037 679.44183851 -353.171875 682.21484375 C-353.71770737 683.04552368 -354.26353973 683.87620361 -354.82591248 684.73205566 C-355.33292191 685.50102173 -355.83993134 686.26998779 -356.36230469 687.06225586 C-356.80145203 687.72946152 -357.24059937 688.39666718 -357.6930542 689.08409119 C-359.07058851 691.10347878 -360.52809673 693.04870372 -362 695 C-360.91917155 694.985788 -359.83834309 694.97157599 -358.72476226 694.95693332 C-311.03313655 694.33267598 -263.34127781 693.76269806 -215.64640808 693.46525574 C-214.92298716 693.46072902 -214.19956625 693.4562023 -213.45422348 693.45153841 C-197.72781319 693.35345333 -182.00136254 693.264974 -166.27484309 693.1863731 C-158.5612302 693.14776219 -150.84762917 693.10703131 -143.1340332 693.06518555 C-142.36648639 693.06105775 -141.59893957 693.05692995 -140.80813376 693.05267707 C-115.98186903 692.91817178 -91.15956395 692.64402327 -66.33544362 692.29650086 C-40.79951329 691.93975811 -15.26619466 691.72579577 10.27229309 691.68839153 C13.88908007 691.68302853 17.50586227 691.67605378 21.12264442 691.66809654 C21.83439481 691.6665805 22.54614519 691.66506446 23.27946376 691.66350249 C34.68411103 691.63508159 46.08177013 691.45867226 57.48386036 691.22517988 C68.98246688 690.99293227 80.47083673 690.92416993 91.97207233 691.00561056 C98.19524988 691.04503727 104.39747192 691.01721978 110.61732864 690.79678917 C145.85512316 689.61305341 145.85512316 689.61305341 156.43730143 697.91125223 C166.81976006 707.90024051 173.65436895 720.78925879 180.12213671 733.50350797 C182.96040482 739.04431888 186.16159591 744.29881016 189.51793194 749.53867817 C190.01212784 750.31024097 190.50632375 751.08180377 191.01549529 751.87674726 C194.53437151 757.33203598 198.10314915 762.75436445 201.75 768.125 C202.76768397 769.62621043 203.78343265 771.12873536 204.796875 772.6328125 C205.22323242 773.26074707 205.64958984 773.88868164 206.08886719 774.53564453 C207 776 207 776 207 777 C-30.27 777 -267.54 777 -512 777 C-510.24004111 772.60010277 -508.19421351 768.8565658 -505.67578125 764.890625 C-505.01779289 763.84687714 -505.01779289 763.84687714 -504.34651184 762.78204346 C-499.34065107 754.88769251 -494.14361657 747.12073377 -488.93670654 739.35818481 C-485.86481601 734.77778905 -482.80148959 730.19167371 -479.73828125 725.60546875 C-478.78659058 724.180886 -478.78659058 724.180886 -477.81567383 722.7275238 C-470.79024802 712.20229785 -463.83051137 701.63400336 -456.875 691.0625 C-449.1563375 679.33300475 -441.43004176 667.60972749 -433.625 655.9375 C-426.13399161 644.73177713 -418.72402916 633.47426804 -411.32788086 622.20581055 C-410.34359926 620.70620956 -409.35930542 619.2066166 -408.375 617.70703125 C-407.87420425 616.94406235 -407.37340851 616.18109344 -406.85743713 615.39500427 C-400.781089 606.13994057 -394.69054461 596.89423063 -388.59829712 587.64962769 C-387.34322283 585.74505701 -386.08831446 583.840377 -384.83358765 581.93557739 C-379.24211627 573.44733666 -373.65077857 564.95933451 -368.00390625 556.5078125 C-362.3303902 548.01612068 -356.72267016 539.48121535 -351.10900879 530.94989014 C-341.53167011 516.39647343 -331.93043166 501.86006647 -322.25 487.375 C-315.43712641 477.17875597 -308.67321367 466.95356759 -301.97729492 456.67993164 C-294.70840149 445.53372594 -287.38562879 434.42312502 -280.0625 423.3125 C-279.43971161 422.36724457 -278.81692322 421.42198914 -278.17526245 420.4480896 C-266.73620404 403.08704996 -266.73620404 403.08704996 -260.98046875 394.47265625 C-255.31492919 385.99297324 -249.71529323 377.46999718 -244.10955811 368.95071411 C-234.57330923 354.45979127 -225.01400467 339.98529566 -215.375 325.5625 C-208.47088029 315.22986409 -201.61285302 304.86929121 -194.8132019 294.46762085 C-187.04657736 282.58674159 -179.24788133 270.72715984 -171.4375 258.875 C-170.80655426 257.91750854 -170.17560852 256.96001709 -169.52554321 255.97351074 C-161.55917372 243.88681696 -153.56338203 231.82098365 -145.51855469 219.78637695 C-138.73514589 209.62769794 -132.03061869 199.4178173 -125.32788086 189.20581055 C-124.34359926 187.70620956 -123.35930542 186.2066166 -122.375 184.70703125 C-121.87420425 183.94406235 -121.37340851 183.18109344 -120.85743713 182.39500427 C-114.781089 173.13994057 -108.69054461 163.89423063 -102.59829712 154.64962769 C-101.34322283 152.74505701 -100.08831446 150.840377 -98.83358765 148.93557739 C-93.24211627 140.44733666 -87.65077857 131.95933451 -82.00390625 123.5078125 C-76.3303902 115.01612068 -70.72267016 106.48121535 -65.10900879 97.94989014 C-55.08827937 82.72271107 -45.03480717 67.51870987 -34.90557861 52.36349487 C-28.08374975 42.1545636 -21.32464881 31.9068677 -14.62597656 21.61669922 C-1.58333333 1.58333333 -1.58333333 1.58333333 0 0 Z " fill="#000000" transform="translate(512,106)"/>
<path d="M0 0 C12.11741205 -0.25519035 24.23418224 -0.45047961 36.35373688 -0.56993389 C41.98190908 -0.62727631 47.60823949 -0.70500742 53.23535156 -0.82983398 C58.66904191 -0.94961155 64.10096457 -1.01517692 69.53587341 -1.04364967 C71.606113 -1.06393098 73.67625876 -1.10354036 75.7457428 -1.16303062 C91.95751371 -1.61040383 91.95751371 -1.61040383 96.98904419 2.35671997 C99.0629149 5.16467092 100.54721155 7.83487094 102 11 C102.99637918 12.58168536 104.01093092 14.15229546 105.0546875 15.703125 C105.9981197 17.21668064 106.93818331 18.73234079 107.875 20.25 C111.44673551 25.96881839 115.04900473 31.65529747 118.8125 37.25 C122.99068602 43.46576482 127.10003976 49.72419253 131.1875 56 C131.82679443 56.98154053 132.46608887 57.96308105 133.12475586 58.97436523 C134.43444782 60.98587043 135.74393527 62.99750879 137.05322266 65.00927734 C140.15784808 69.77873577 143.26627827 74.54571088 146.375 79.3125 C147.29478638 80.72305664 147.29478638 80.72305664 148.2331543 82.16210938 C153.70295189 90.54861257 159.18287068 98.92848283 164.66357422 107.30786133 C169.89445167 115.30631391 175.11692016 123.31021156 180.3359375 131.31640625 C185.05110628 138.54832124 189.77429787 145.77496443 194.5 153 C200.45256079 162.1007563 206.39742623 171.20647725 212.3359375 180.31640625 C217.05110628 187.54832124 221.77429787 194.77496443 226.5 202 C232.45256079 211.1007563 238.39742623 220.20647725 244.3359375 229.31640625 C249.05110628 236.54832124 253.77429787 243.77496443 258.5 251 C264.45256079 260.1007563 270.39742623 269.20647725 276.3359375 278.31640625 C281.05110628 285.54832124 285.77429787 292.77496443 290.5 300 C296.44533309 309.089706 302.38378244 318.18384974 308.31396484 327.28344727 C311.71687492 332.50374863 315.12498499 337.72059239 318.5390625 342.93359375 C319.31055123 344.11197631 320.08203563 345.29036172 320.85351562 346.46875 C322.32786919 348.72064992 323.80328644 350.97184071 325.27929688 353.22265625 C327.19238921 356.14446999 329.09884319 359.07040889 331 362 C331.79229004 363.21647217 331.79229004 363.21647217 332.60058594 364.45751953 C336 369.76179825 336 369.76179825 336 372 C323.78729747 372.37151468 311.57594789 372.65539198 299.35873604 372.82899475 C293.684712 372.91234255 288.01456523 373.02525552 282.34277344 373.20703125 C276.86348674 373.38152839 271.3879145 373.47666565 265.90606308 373.51803589 C263.82041788 373.54749236 261.73496577 373.60502866 259.65091324 373.69168091 C243.76621141 374.32557891 243.76621141 374.32557891 239.1792469 370.46927643 C236.01392561 366.70176403 233.92558482 362.54087553 231.96377563 358.0555563 C230.4085062 354.73845243 228.37854231 351.82738887 226.32421875 348.796875 C225.55630371 347.63196373 224.78997372 346.4660046 224.02587891 345.29858398 C223.45320282 344.42953934 223.45320282 344.42953934 222.86895752 343.54293823 C221.2226755 341.04459875 219.58048837 338.54357626 217.93804932 336.04270935 C217.1128341 334.78621061 216.28743796 333.52983068 215.46185303 332.27357483 C212.00030455 327.00521429 208.55737118 321.72491881 205.125 316.4375 C204.61074463 315.64545166 204.09648926 314.85340332 203.56665039 314.03735352 C202.55077896 312.47227509 201.53507004 310.90709116 200.51953125 309.34179688 C197.88987865 305.28915745 195.25756728 301.23824648 192.625 297.1875 C192.09342285 296.36950928 191.5618457 295.55151855 191.01416016 294.70874023 C186.21294116 287.322968 181.40006597 279.94481915 176.58642578 272.56713867 C172.02132937 265.56924147 167.46562009 258.56530185 162.9140625 251.55859375 C158.78318008 245.20106495 154.64291828 238.8496909 150.5 232.5 C143.12495982 221.19606792 135.7683968 209.88020149 128.41601562 198.56152344 C121.4834346 187.88978277 114.54027461 177.2250343 107.58642578 166.56713867 C103.02132937 159.56924147 98.46562009 152.56530185 93.9140625 145.55859375 C89.78318008 139.20106495 85.64291828 132.8496909 81.5 126.5 C74.12495982 115.19606792 66.7683968 103.88020149 59.41601562 92.56152344 C52.4834346 81.88978277 45.54027461 71.2250343 38.58642578 60.56713867 C34.02676728 53.5775773 29.47395402 46.58361127 24.93164062 39.58276367 C21.97765875 35.03234172 19.01104618 30.4905988 16.03125 25.95703125 C15.36029297 24.93416016 14.68933594 23.91128906 13.99804688 22.85742188 C12.70505858 20.88697344 11.40964417 18.91811397 10.11132812 16.95117188 C9.51771484 16.04560547 8.92410156 15.14003906 8.3125 14.20703125 C7.79300781 13.4178833 7.27351562 12.62873535 6.73828125 11.81567383 C4.35360797 7.95297202 2.17901227 3.98143999 0 0 Z " fill="#000000" transform="translate(536,511)"/>
<path d="M0 0 C3.21622595 1.36087462 4.76610974 2.66192997 6.65600586 5.58374023 C7.38780312 6.69929543 7.38780312 6.69929543 8.13438416 7.83738708 C8.65593582 8.65288528 9.17748749 9.46838348 9.71484375 10.30859375 C10.55294334 11.59293053 10.55294334 11.59293053 11.40797424 12.9032135 C12.62104044 14.76392514 13.82993371 16.62736235 15.03515625 18.49316406 C18.29458668 23.53791907 21.58494319 28.56247097 24.87109375 33.58984375 C25.54768036 34.62672333 26.22426697 35.66360291 26.9213562 36.73190308 C33.09304823 46.17748206 39.38855796 55.53602754 45.72036743 64.87475586 C55.98905141 80.02271557 66.1898122 95.21521435 76.28930664 110.4765625 C77.58793326 112.43768112 78.88852687 114.39749877 80.19116211 116.35595703 C81.99253697 119.06560185 83.78638564 121.78007111 85.578125 124.49609375 C86.11516052 125.30126938 86.65219604 126.10644501 87.20550537 126.9360199 C87.6935968 127.6795723 88.18168823 128.42312469 88.68457031 129.18920898 C89.11006165 129.832285 89.53555298 130.47536102 89.97393799 131.13792419 C91 133 91 133 92 137 C31.94 137 -28.12 137 -90 137 C-88.60736123 133.51840308 -87.55776679 131.08369098 -85.57104492 128.07568359 C-85.08302902 127.33220673 -84.59501312 126.58872986 -84.09220886 125.82272339 C-83.56033463 125.02270905 -83.02846039 124.2226947 -82.48046875 123.3984375 C-81.63812431 122.12046799 -81.63812431 122.12046799 -80.77876282 120.81668091 C-78.91972872 117.99963612 -77.0538116 115.1872277 -75.1875 112.375 C-73.87483345 110.39008409 -72.5623361 108.40505627 -71.25 106.41992188 C-61.82526929 92.18144083 -52.29587668 78.01473413 -42.72311401 63.87548828 C-31.65240434 47.52195827 -20.75776612 31.0561184 -9.92382812 14.54492188 C-9.3311615 13.6423465 -8.73849487 12.73977112 -8.12786865 11.80984497 C-7.01556643 10.11536589 -5.90438698 8.42014911 -4.79449463 6.72409058 C-4.3064032 5.98031158 -3.81831177 5.23653259 -3.31542969 4.47021484 C-2.88993835 3.82047699 -2.46444702 3.17073914 -2.02606201 2.50131226 C-1 1 -1 1 0 0 Z " fill="#000000" transform="translate(932,362)"/>
<path d="M0 0 C4.43157665 4.07004263 7.55857228 8.56043988 10.8125 13.6015625 C11.64861313 14.87973595 11.64861313 14.87973595 12.50161743 16.18373108 C13.70728395 18.02763003 14.91036932 19.87321874 16.11114502 21.7203064 C19.36024686 26.71679656 22.62972024 31.69992246 25.8984375 36.68359375 C26.57151947 37.71057877 27.24460144 38.73756378 27.93807983 39.79566956 C34.7391974 50.15717364 41.67304002 60.42687092 48.625 70.6875 C58.61155061 85.44068842 68.50791183 100.25020962 78.3125 115.125 C78.90951721 116.02914642 79.50653442 116.93329285 80.12164307 117.86483765 C81.78817802 120.38992663 83.45139542 122.91716199 85.11328125 125.4453125 C85.61172043 126.20033554 86.11015961 126.95535858 86.623703 127.73326111 C90 132.88456382 90 132.88456382 90 134 C31.26 134 -27.48 134 -88 134 C-86.36906567 129.92266417 -84.8653141 127.06891103 -82.44921875 123.49609375 C-82.08782806 122.95818207 -81.72643738 122.42027039 -81.35409546 121.86605835 C-80.55916131 120.68360552 -79.76217391 119.50253111 -78.96340942 118.32266235 C-76.69730556 114.97448292 -74.44724045 111.61553552 -72.1953125 108.2578125 C-71.4587719 107.1607473 -71.4587719 107.1607473 -70.70735168 106.04151917 C-66.85451814 100.29539717 -63.04095121 94.52417158 -59.2421875 88.7421875 C-58.66055847 87.85690872 -58.07892944 86.97162994 -57.47967529 86.05952454 C-56.28171332 84.23578124 -55.08381777 82.41199431 -53.88598633 80.58816528 C-40.244382 59.82325635 -26.4041669 39.19745997 -12.4757843 18.62406921 C-8.28803895 12.43528841 -4.13033305 6.22724725 0 0 Z " fill="#000000" transform="translate(432,580)"/>
</svg>
