<?xml version="1.0" encoding="UTF-8"?>
<svg version="1.1" xmlns="http://www.w3.org/2000/svg" width="180" height="180">
<path d="M0 0 C2.1507987 -0.00961036 4.30060107 -0.04061049 6.45117188 -0.07226562 C19.70315106 -0.17490129 30.64516104 2.78765965 42.68554688 8.24023438 C43.38164062 8.53542969 44.07773438 8.830625 44.79492188 9.13476562 C63.14120702 17.4360806 78.80666497 34.93330636 86.62695312 53.33398438 C88.64501084 58.8743347 90.2033134 64.53654185 91.68554688 70.24023438 C91.95141602 71.10950562 91.95141602 71.10950562 92.22265625 71.99633789 C93.26843965 77.06585013 92.91186209 82.39067957 92.92578125 87.5546875 C92.93539161 89.7054862 92.96639174 91.85528857 92.99804688 94.00585938 C93.10068254 107.25783856 90.1381216 118.19984854 84.68554688 130.24023438 C84.39035156 130.93632812 84.09515625 131.63242188 83.79101562 132.34960938 C75.48970065 150.69589452 57.99247489 166.36135247 39.59179688 174.18164062 C34.05144655 176.19969834 28.3892394 177.7580009 22.68554688 179.24023438 C22.10603271 179.41748047 21.52651855 179.59472656 20.92944336 179.77734375 C15.85993112 180.82312715 10.53510168 180.46654959 5.37109375 180.48046875 C3.22029505 180.49007911 1.07049268 180.52107924 -1.08007812 180.55273438 C-14.33205731 180.65537004 -25.27406729 177.6928091 -37.31445312 172.24023438 C-38.01054688 171.94503906 -38.70664062 171.64984375 -39.42382812 171.34570312 C-57.77011327 163.04438815 -73.43557122 145.54716239 -81.25585938 127.14648438 C-83.27391709 121.60613405 -84.83221965 115.9439269 -86.31445312 110.24023438 C-86.49169922 109.66072021 -86.66894531 109.08120605 -86.8515625 108.48413086 C-87.8973459 103.41461862 -87.54076834 98.08978918 -87.5546875 92.92578125 C-87.56429786 90.77498255 -87.59529799 88.62518018 -87.62695312 86.47460938 C-87.72958879 73.22263019 -84.76702785 62.28062021 -79.31445312 50.24023438 C-79.01925781 49.54414062 -78.7240625 48.84804688 -78.41992188 48.13085938 C-70.1186069 29.78457423 -52.62138114 14.11911628 -34.22070312 6.29882812 C-28.6803528 4.28077041 -23.01814565 2.72246785 -17.31445312 1.24023438 C-16.73493896 1.06298828 -16.1554248 0.88574219 -15.55834961 0.703125 C-10.48883737 -0.3426584 -5.16400793 0.01391916 0 0 Z " fill="#060606" transform="translate(87.314453125,-0.240234375)"/>
<path d="M0 0 C2.1507987 -0.00961036 4.30060107 -0.04061049 6.45117188 -0.07226562 C19.70315106 -0.17490129 30.64516104 2.78765965 42.68554688 8.24023438 C43.38164062 8.53542969 44.07773438 8.830625 44.79492188 9.13476562 C63.14120702 17.4360806 78.80666497 34.93330636 86.62695312 53.33398438 C88.64501084 58.8743347 90.2033134 64.53654185 91.68554688 70.24023438 C91.95141602 71.10950562 91.95141602 71.10950562 92.22265625 71.99633789 C93.26843965 77.06585013 92.91186209 82.39067957 92.92578125 87.5546875 C92.93539161 89.7054862 92.96639174 91.85528857 92.99804688 94.00585938 C93.10068254 107.25783856 90.1381216 118.19984854 84.68554688 130.24023438 C84.39035156 130.93632812 84.09515625 131.63242188 83.79101562 132.34960938 C75.48970065 150.69589452 57.99247489 166.36135247 39.59179688 174.18164062 C34.05144655 176.19969834 28.3892394 177.7580009 22.68554688 179.24023438 C22.10603271 179.41748047 21.52651855 179.59472656 20.92944336 179.77734375 C15.85993112 180.82312715 10.53510168 180.46654959 5.37109375 180.48046875 C3.22029505 180.49007911 1.07049268 180.52107924 -1.08007812 180.55273438 C-14.33205731 180.65537004 -25.27406729 177.6928091 -37.31445312 172.24023438 C-38.01054688 171.94503906 -38.70664062 171.64984375 -39.42382812 171.34570312 C-57.77011327 163.04438815 -73.43557122 145.54716239 -81.25585938 127.14648438 C-83.27391709 121.60613405 -84.83221965 115.9439269 -86.31445312 110.24023438 C-86.49169922 109.66072021 -86.66894531 109.08120605 -86.8515625 108.48413086 C-87.8973459 103.41461862 -87.54076834 98.08978918 -87.5546875 92.92578125 C-87.56429786 90.77498255 -87.59529799 88.62518018 -87.62695312 86.47460938 C-87.72958879 73.22263019 -84.76702785 62.28062021 -79.31445312 50.24023438 C-79.01925781 49.54414062 -78.7240625 48.84804688 -78.41992188 48.13085938 C-70.1186069 29.78457423 -52.62138114 14.11911628 -34.22070312 6.29882812 C-28.6803528 4.28077041 -23.01814565 2.72246785 -17.31445312 1.24023438 C-16.73493896 1.06298828 -16.1554248 0.88574219 -15.55834961 0.703125 C-10.48883737 -0.3426584 -5.16400793 0.01391916 0 0 Z M-13.31445312 18.24023438 C-14.23355469 18.47355469 -15.15265625 18.706875 -16.09960938 18.94726562 C-35.54912207 24.55918035 -52.63211021 40.2971691 -62.51074219 57.62304688 C-70.09379338 71.51008039 -71.90942187 83.58925105 -71.31445312 99.24023438 C-70.65445313 99.24023438 -69.99445313 99.24023438 -69.31445312 99.24023438 C-69.25257812 100.43648438 -69.19070312 101.63273437 -69.12695312 102.86523438 C-67.66828605 115.2541801 -62.28400485 124.87342358 -54.31445312 134.24023438 C-53.52039063 135.17351562 -52.72632812 136.10679687 -51.90820312 137.06835938 C-48.29253012 141.1902266 -44.76412017 144.99875507 -40.31445312 148.24023438 C-39.65445313 148.24023438 -38.99445312 148.24023438 -38.31445312 148.24023438 C-37.98445313 149.23023438 -37.65445313 150.22023437 -37.31445312 151.24023438 C-20.92307914 161.58967167 -4.37184512 166.84768471 15.02929688 163.69726562 C17.66756903 163.02658127 20.14788377 162.22117978 22.68554688 161.24023438 C23.40097656 160.985 24.11640625 160.72976562 24.85351562 160.46679688 C46.9501924 151.69252449 62.93914413 134.17101853 72.31445312 112.71679688 C73.95473662 108.55767349 74.92757899 104.6364481 75.68554688 100.24023438 C76.01554688 99.91023438 76.34554687 99.58023438 76.68554688 99.24023438 C77.15724039 90.73878146 76.96528652 82.47628802 74.68554688 74.24023438 C74.45222656 73.32113281 74.21890625 72.40203125 73.97851562 71.45507812 C68.43514995 52.24313955 53.24132027 35.5413405 36.02172852 25.91894531 C30.09050986 22.73219818 24.17530181 20.06586871 17.68554688 18.24023438 C16.76386719 17.8921875 15.8421875 17.54414063 14.89257812 17.18554688 C6.04548324 14.5777552 -4.52457519 15.80719616 -13.31445312 18.24023438 Z " fill="#020202" transform="translate(87.314453125,-0.240234375)"/>
<path d="M0 0 C6.20560875 -0.12358146 11.52512094 -0.14751154 17.39453125 2.1171875 C18.39871094 2.47296875 19.40289062 2.82875 20.4375 3.1953125 C32.71577128 7.77106577 42.56566248 13.41293851 52.39453125 22.1171875 C53.03132813 22.67019531 53.668125 23.22320312 54.32421875 23.79296875 C66.27938451 34.89419409 75.36489301 51.76854138 76.39453125 68.1171875 C76.90799389 82.60305769 76.90799389 82.60305769 74.39453125 89.1171875 C73.86085937 90.62345703 73.86085937 90.62345703 73.31640625 92.16015625 C65.80787998 112.30803507 53.86528017 127.80856571 35.39453125 139.1171875 C34.65074219 139.6121875 33.90695313 140.1071875 33.140625 140.6171875 C29.63849543 142.53015728 26.08473902 143.61638849 22.26953125 144.7421875 C20.8502409 145.17181053 19.43096933 145.60149562 18.01171875 146.03125 C16.81804687 146.38960937 15.624375 146.74796875 14.39453125 147.1171875 C13.40453125 147.4471875 12.41453125 147.7771875 11.39453125 148.1171875 C-6.90001184 149.39270345 -22.21943049 145.19188105 -37.60546875 135.1171875 C-37.93546875 134.1271875 -38.26546875 133.1371875 -38.60546875 132.1171875 C-40.26327265 131.42877741 -41.93137875 130.76498754 -43.60546875 130.1171875 C-56.60441022 119.84066585 -65.69544454 105.07074621 -69.60546875 89.1171875 C-69.75 85.62109375 -69.75 85.62109375 -69.60546875 83.1171875 C-70.26546875 83.1171875 -70.92546875 83.1171875 -71.60546875 83.1171875 C-72.2093903 70.64956261 -71.70972028 60.705218 -66.60546875 49.1171875 C-66.34266113 48.50423828 -66.07985352 47.89128906 -65.80908203 47.25976562 C-58.90362946 31.54362608 -46.77079855 19.5393752 -32.60546875 10.1171875 C-32.00863281 9.70339844 -31.41179688 9.28960937 -30.796875 8.86328125 C-21.57780595 3.00078098 -10.76244243 0.34980853 0 0 Z M-22.60546875 9.1171875 C-23.36988281 9.40464844 -24.13429687 9.69210938 -24.921875 9.98828125 C-41.65755856 17.29048973 -56.91871916 34.29145946 -63.60546875 51.1171875 C-63.97542969 52.01050781 -64.34539062 52.90382812 -64.7265625 53.82421875 C-70.22728509 68.95596429 -68.79016216 84.49312763 -62.60546875 99.1171875 C-52.84836965 119.40614294 -36.42069554 133.97308784 -15.60546875 142.1171875 C-0.03711531 147.14819229 16.20268926 144.49942177 30.66796875 137.54296875 C45.50717687 129.3604234 55.71886285 118.43204037 64.39453125 104.1171875 C65.11640625 103.0240625 65.83828125 101.9309375 66.58203125 100.8046875 C73.27786223 88.51450423 74.51102259 73.03772175 71.39453125 59.4921875 C64.48716615 38.51187294 51.19223804 23.40736163 32.39453125 12.1171875 C31.30140625 11.3953125 30.20828125 10.6734375 29.08203125 9.9296875 C12.55025602 0.9229892 -5.71607388 2.48137715 -22.60546875 9.1171875 Z " fill="#DEDEDE" transform="translate(87.60546875,15.8828125)"/>
<path d="M0 0 C13.95426299 9.50759159 25.5422259 22.90214777 28.85693359 39.88745117 C30.66002566 56.6647935 25.20168938 69.88211522 14.85693359 82.88745117 C9.01492334 89.97703651 1.84826359 94.47170404 -6.14306641 98.88745117 C-7.29162109 99.57581055 -7.29162109 99.57581055 -8.46337891 100.27807617 C-14.31466 103.25614755 -20.26878835 103.26245818 -26.70556641 103.32495117 C-28.03587891 103.34041992 -28.03587891 103.34041992 -29.39306641 103.35620117 C-35.47973074 103.27480447 -40.50337076 102.14091171 -46.14306641 99.88745117 C-47.01576172 99.55745117 -47.88845703 99.22745117 -48.78759766 98.88745117 C-59.17534768 94.0959845 -67.95729439 85.43741499 -74.14306641 75.88745117 C-74.76181641 74.93870117 -75.38056641 73.98995117 -76.01806641 73.01245117 C-77.14306641 70.88745117 -77.14306641 70.88745117 -77.14306641 68.88745117 C-77.80306641 68.88745117 -78.46306641 68.88745117 -79.14306641 68.88745117 C-83.47735761 57.76148045 -85.89466474 44.97348808 -81.45556641 33.44995117 C-80.70651585 31.91827192 -79.93587812 30.39694368 -79.14306641 28.88745117 C-78.81564453 28.09467773 -78.48822266 27.3019043 -78.15087891 26.48510742 C-71.88535312 12.01037085 -58.31336413 1.0671497 -44.14306641 -5.11254883 C-43.45986328 -5.43352539 -42.77666016 -5.75450195 -42.07275391 -6.08520508 C-28.0566963 -11.81420201 -12.24956657 -7.88629703 0 0 Z M-68.14306641 16.88745117 C-70.47721288 19.84595044 -70.47721288 19.84595044 -72.14306641 22.88745117 C-72.56201172 23.5397168 -72.98095703 24.19198242 -73.41259766 24.86401367 C-79.22415421 34.34338257 -80.85079468 46.30575783 -78.67822266 57.22338867 C-77.97448476 59.53031645 -77.11236635 61.67877916 -76.14306641 63.88745117 C-75.57458984 65.27383789 -75.57458984 65.27383789 -74.99462891 66.68823242 C-68.11039841 82.02852638 -55.68218073 92.83105724 -40.14306641 98.88745117 C-31.33716039 101.84757603 -19.41030966 100.75628565 -11.14306641 96.88745117 C-10.21236328 96.49686523 -9.28166016 96.1062793 -8.32275391 95.70385742 C7.04868098 88.7650895 16.82795463 76.90475867 22.91162109 61.45385742 C26.97858599 50.41255189 25.45289861 38.5479144 20.85693359 27.88745117 C13.16933948 12.91058388 -0.14760596 1.74062434 -16.20556641 -3.48754883 C-37.17810882 -7.94979189 -54.54262721 1.60605882 -68.14306641 16.88745117 Z " fill="#E0E0E0" transform="translate(117.14306640625,42.112548828125)"/>
<path d="M0 0 C4.11461494 3.11897972 7.03628721 6.0495011 9.75 10.4375 C10.32234375 11.34371094 10.8946875 12.24992187 11.484375 13.18359375 C14.45232491 18.69877902 15.35987817 23.59411549 15.3125 29.8125 C15.31121094 30.51375 15.30992188 31.215 15.30859375 31.9375 C15.2051711 37.53266523 14.19028639 41.88933176 12 47 C11.34 47 10.68 47 10 47 C9.63261719 48.09634766 9.63261719 48.09634766 9.2578125 49.21484375 C5.83863256 56.78588505 -1.43295486 62.0316266 -9 65 C-9.74378906 65.35449219 -10.48757812 65.70898438 -11.25390625 66.07421875 C-19.21055265 68.7566159 -30.14357818 68.05491141 -37.6953125 64.45703125 C-46.32046766 59.00417892 -55.24677629 50.46336047 -58.52734375 40.5234375 C-60.60136881 29.45054338 -59.52070247 19.24271695 -53.52734375 9.640625 C-49.31371585 3.70369302 -44.24516961 -0.3246131 -38 -4 C-37.38769531 -4.36222656 -36.77539062 -4.72445312 -36.14453125 -5.09765625 C-23.89698096 -10.91051125 -10.62686052 -6.95454037 0 0 Z M-51 12 C-55.73558279 20.00666254 -57.55290132 27.99921535 -55.5234375 37.1484375 C-52.19352605 47.29864951 -44.80214488 56.09261904 -35.5859375 61.38671875 C-28.21586426 64.7207995 -21.31651108 64.68155438 -13.4375 63.4375 C-2.16165501 58.72214664 6.43646321 50.26166879 11.109375 38.984375 C13.45991447 31.1080059 12.92394612 24.1357554 9.5 16.6875 C3.53678516 6.19665908 -4.73779339 0.01103187 -16 -4 C-30.37874061 -6.7491219 -42.41274453 0.86953541 -51 12 Z " fill="#DFDFDF" transform="translate(112,60)"/>
<path d="M0 0 C6.20256276 -0.1235208 11.52296503 -0.14303188 17.39453125 2.1171875 C18.50828125 2.4884375 19.62203125 2.8596875 20.76953125 3.2421875 C21.63578125 3.5309375 22.50203125 3.8196875 23.39453125 4.1171875 C23.39453125 5.4371875 23.39453125 6.7571875 23.39453125 8.1171875 C22.40839844 7.79234375 22.40839844 7.79234375 21.40234375 7.4609375 C6.05851559 2.97006096 -7.90514837 4.34146025 -22.60546875 10.1171875 C-23.36988281 10.40464844 -24.13429687 10.69210938 -24.921875 10.98828125 C-43.88371759 19.26182008 -57.11753095 37.52719164 -64.60546875 56.1171875 C-65.04567598 57.58376026 -65.45248736 59.06180757 -65.79296875 60.5546875 C-66.06109375 61.7303125 -66.32921875 62.9059375 -66.60546875 64.1171875 C-67.26546875 64.1171875 -67.92546875 64.1171875 -68.60546875 64.1171875 C-69.78578113 67.96560098 -69.93782226 71.8754665 -70.16796875 75.8671875 C-70.21115234 76.56457031 -70.25433594 77.26195313 -70.29882812 77.98046875 C-70.40436471 79.69250672 -70.50536785 81.40482311 -70.60546875 83.1171875 C-70.93546875 83.1171875 -71.26546875 83.1171875 -71.60546875 83.1171875 C-72.2093903 70.64956261 -71.70972028 60.705218 -66.60546875 49.1171875 C-66.34266113 48.50423828 -66.07985352 47.89128906 -65.80908203 47.25976562 C-58.90362946 31.54362608 -46.77079855 19.5393752 -32.60546875 10.1171875 C-32.00863281 9.70339844 -31.41179688 9.28960937 -30.796875 8.86328125 C-21.57780595 3.00078098 -10.76244243 0.34980853 0 0 Z " fill="#DCDCDC" transform="translate(87.60546875,15.8828125)"/>
<path d="M0 0 C0.33 0 0.66 0 1 0 C1.01417969 1.258125 1.02835938 2.51625 1.04296875 3.8125 C1.57201469 26.83730265 8.79469092 45.41231305 25.78515625 61.6640625 C41.69031588 75.53654692 58.49036573 80.25058114 79 82 C75.80406331 85.19593669 72.04200618 84.42800099 67.6875 84.4375 C53.01703661 84.40622525 42.24811874 78.40028764 30 71 C30 70.34 30 69.68 30 69 C29.26007812 68.74605469 28.52015625 68.49210937 27.7578125 68.23046875 C17.26226709 63.54761209 7.3065378 48.93703407 3.00390625 38.46484375 C-0.22590345 29.82249664 -2.14069095 21.71505325 -2.1875 12.4375 C-2.20167969 11.15746094 -2.21585938 9.87742187 -2.23046875 8.55859375 C-2.0137158 5.21178124 -1.45213997 2.99037519 0 0 Z " fill="#DFDFDF" transform="translate(19,79)"/>
<path d="M0 0 C14.37545942 8.67036153 27.7570859 20.70708414 32.609375 37.41015625 C33.75389774 44.99834201 33.79562355 53.52788909 32 61 C31.34 61 30.68 61 30 61 C29.97421875 59.92363281 29.9484375 58.84726563 29.921875 57.73828125 C29.33576686 40.63887137 25.20370808 26.01284978 12.35546875 13.91015625 C7.56872962 10.02837277 2.40930971 6.93166425 -3 4 C-3.82757813 3.54109375 -4.65515625 3.0821875 -5.5078125 2.609375 C-14.89690039 -1.67760404 -25.91855997 -0.34685383 -36 0 C-35 -2 -35 -2 -32.48046875 -3.1015625 C-22.01676907 -5.80262976 -9.518019 -5.22998976 0 0 Z " fill="#DDDDDD" transform="translate(112,39)"/>
<path d="M0 0 C0 0.33 0 0.66 0 1 C-1.51980469 1.07347656 -1.51980469 1.07347656 -3.0703125 1.1484375 C-4.42189911 1.22352564 -5.77346038 1.29907081 -7.125 1.375 C-7.79015625 1.4059375 -8.4553125 1.436875 -9.140625 1.46875 C-13.39821262 1.71919633 -17.02085783 2.47528197 -21 4 C-20.34 4.66 -19.68 5.32 -19 6 C-19.66644531 6.1959375 -20.33289063 6.391875 -21.01953125 6.59375 C-33.88313799 10.76767554 -45.01235009 19.35391682 -52 31 C-52.4228125 31.65613281 -52.845625 32.31226563 -53.28125 32.98828125 C-60.31657692 44.50249362 -59.9977228 58.01480177 -58 71 C-58.66 71 -59.32 71 -60 71 C-59.67 72.98 -59.34 74.96 -59 77 C-64.87354817 68.18967775 -65.14295504 57.25815077 -64 47 C-63.10818833 43.36083302 -61.73614648 40.30557691 -60 37 C-59.67257813 36.20722656 -59.34515625 35.41445312 -59.0078125 34.59765625 C-52.74228672 20.12291968 -39.17029773 9.17969853 -25 3 C-24.31679687 2.67902344 -23.63359375 2.35804687 -22.9296875 2.02734375 C-15.60135837 -0.96807595 -7.76668335 -0.25730117 0 0 Z " fill="#E5E5E5" transform="translate(98,34)"/>
<path d="M0 0 C0.66 0.33 1.32 0.66 2 1 C1.505 1.433125 1.01 1.86625 0.5 2.3125 C-1.33218192 3.99740483 -1.33218192 3.99740483 -1 7 C-2.390625 8.69140625 -2.390625 8.69140625 -4.25 10.5625 C-10.31896053 17.30852509 -12.71085277 24.34670416 -12.31640625 33.40625 C-11.07473487 43.58488946 -4.76982764 52.1353888 2.96484375 58.55859375 C5.85082429 60.60259916 8.67218747 61.82139973 12 63 C11.01 63.495 11.01 63.495 10 64 C10.33 64.99 10.66 65.98 11 67 C5.41711304 65.78967488 1.9956688 63.82421689 -2.125 59.8125 C-2.64634521 59.31709717 -3.16769043 58.82169434 -3.70483398 58.3112793 C-11.26070711 51.00071899 -15.96311004 43.9488644 -16.40478516 33.23632812 C-16.59190997 21.15979525 -13.12784557 12.9079736 -5 4 C-2.0625 1.4375 -2.0625 1.4375 0 0 Z " fill="#E6E6E6" transform="translate(69,59)"/>
<path d="M0 0 C4.81826218 0.84530916 6.34029694 1.93125503 9.5625 5.625 C10.33402986 9.94556721 10.08997866 11.81619939 7.6875 15.5 C4.98843031 18.19906969 4.07148995 18.55777491 0.25 19.0625 C-3.4375 18.625 -3.4375 18.625 -6.375 16.0625 C-8.16611311 13.53947024 -8.50218531 12.25629375 -9.0625 9.0625 C-8.04270823 3.45364528 -5.60885472 1.01979177 0 0 Z " fill="#EFEFEF" transform="translate(89.4375,80.375)"/>
<path d="M0 0 C0.33 0 0.66 0 1 0 C2.06967197 18.30327599 -3.36891433 31.31217324 -14.90234375 45.30859375 C-21.91557076 52.9149055 -31.41240894 58.29492617 -41 62 C-41.99 62 -42.98 62 -44 62 C-44 61.34 -44 60.68 -44 60 C-45.32 59.67 -46.64 59.34 -48 59 C-46.7625 58.62875 -45.525 58.2575 -44.25 57.875 C-29.495669 52.87196154 -17.79683035 44.7240126 -10 31 C-8.56963831 27.8882025 -7.26501047 24.76540283 -6.04296875 21.56640625 C-5 19 -5 19 -3 16 C-3 16.66 -3 17.32 -3 18 C-2.34 18 -1.68 18 -1 18 C-0.67 12.06 -0.34 6.12 0 0 Z " fill="#D5D5D5" transform="translate(145,82)"/>
<path d="M0 0 C11.76797982 1.40723227 21.43070734 9.31527949 30 17 C30.95132813 17.82757813 30.95132813 17.82757813 31.921875 18.671875 C39.72985921 25.90679615 48.5041512 37.06641925 49.1875 48 C49.125625 48.66 49.06375 49.32 49 50 C48.01 50.495 48.01 50.495 47 51 C46.27296875 49.45892578 46.27296875 49.45892578 45.53125 47.88671875 C36.44796268 28.96205836 25.29911649 16.88864331 7.08203125 6.3046875 C6.16808594 5.77101563 5.25414063 5.23734375 4.3125 4.6875 C3.48363281 4.21699219 2.65476562 3.74648438 1.80078125 3.26171875 C1.20652344 2.84535156 0.61226563 2.42898437 0 2 C0 1.34 0 0.68 0 0 Z " fill="#DEDEDE" transform="translate(110,21)"/>
<path d="M0 0 C0.99 0 1.98 0 3 0 C2.42981381 3.87451823 1.30403711 6.47070707 -0.8125 9.75 C-5.23545621 16.89885489 -8.20820579 23.78760987 -10 32 C-10.66 32 -11.32 32 -12 32 C-13.18031238 35.84841348 -13.33235351 39.758279 -13.5625 43.75 C-13.60568359 44.44738281 -13.64886719 45.14476562 -13.69335938 45.86328125 C-13.79889596 47.57531922 -13.8998991 49.28763561 -14 51 C-14.33 51 -14.66 51 -15 51 C-15.91407923 32.12934217 -11.69164097 18.15273495 -2 2 C-1.34 1.34 -0.68 0.68 0 0 Z " fill="#DDDDDD" transform="translate(31,48)"/>
<path d="M0 0 C0.93423645 3.01031744 1.04449911 3.86650268 0 7 C0.66 7 1.32 7 2 7 C2.33 6.34 2.66 5.68 3 5 C2.835 6.0725 2.67 7.145 2.5 8.25 C1.47369976 16.51904763 1.73523322 24.77901594 3 33 C2.34 33 1.68 33 1 33 C1.33 34.98 1.66 36.96 2 39 C-3.9024839 30.14627415 -4.01419554 19.29798549 -3 9 C-2.28050498 5.72505717 -1.34571838 3.08393796 0 0 Z " fill="#A7A7A7" transform="translate(37,72)"/>
<path d="M0 0 C0.66 0.33 1.32 0.66 2 1 C0.33292133 4.88116753 -0.71665425 5.88113886 -4.6875 7.546875 C-6.11954574 7.96697698 -7.55744417 8.36754303 -9 8.75 C-9.72445312 8.95753906 -10.44890625 9.16507813 -11.1953125 9.37890625 C-13.1268161 9.93127352 -15.06318499 10.46655519 -17 11 C-17.99 11.33 -18.98 11.66 -20 12 C-21.48123547 12.0806622 -22.96582204 12.10761193 -24.44921875 12.09765625 C-25.29677734 12.09443359 -26.14433594 12.09121094 -27.01757812 12.08789062 C-27.89865234 12.07951172 -28.77972656 12.07113281 -29.6875 12.0625 C-30.58017578 12.05798828 -31.47285156 12.05347656 -32.39257812 12.04882812 C-34.59511987 12.03704983 -36.79752599 12.02060164 -39 12 C-39 11.67 -39 11.34 -39 11 C-31.08 10.505 -31.08 10.505 -23 10 C-26.3 9.67 -29.6 9.34 -33 9 C-33 8.67 -33 8.34 -33 8 C-32.2471875 7.98582031 -31.494375 7.97164062 -30.71875 7.95703125 C-20.78721299 7.51107631 -10.55611145 5.4258145 -1.66015625 0.77734375 C-1.11230469 0.52082031 -0.56445312 0.26429688 0 0 Z " fill="#DEDEDE" transform="translate(119,152)"/>
<path d="M0 0 C-0.33 0.66 -0.66 1.32 -1 2 C-2.23234375 1.93039063 -3.4646875 1.86078125 -4.734375 1.7890625 C-14.31778735 1.41588421 -21.29239819 1.50170422 -29.65234375 6.58984375 C-31.83095957 7.89846323 -33.52110525 8.54563182 -36 9 C-32.84976005 3.53958408 -30.08474692 0.75460622 -24.09375 -1.34765625 C-16.41590524 -2.96659574 -7.16077627 -3.46265777 0 0 Z " fill="#DFDFDF" transform="translate(103,55)"/>
<path d="M0 0 C8.95227562 2.82564452 14.88672137 9.75127654 19.6015625 17.515625 C19.94703125 18.28132813 20.2925 19.04703125 20.6484375 19.8359375 C20.3184375 20.4959375 19.9884375 21.1559375 19.6484375 21.8359375 C18.6584375 21.8359375 17.6684375 21.8359375 16.6484375 21.8359375 C15.32421875 20.11328125 15.32421875 20.11328125 13.9609375 17.7734375 C9.0372859 10.04148092 2.94222816 5.53852262 -5.3515625 1.8359375 C-2.3515625 -0.1640625 -2.3515625 -0.1640625 0 0 Z " fill="#DFDFDF" transform="translate(104.3515625,56.1640625)"/>
<path d="M0 0 C-1.38307908 3.03602724 -3.03187255 5.33954804 -5.1875 7.875 C-9.8400773 13.71027026 -12.85421989 20.27816591 -16 27 C-16.66 27 -17.32 27 -18 27 C-17.1126783 17.63785064 -14.08880645 9.71072243 -7.0546875 3.19921875 C-2.74700704 0 -2.74700704 0 0 0 Z " fill="#D9D9D9" transform="translate(55,52)"/>
<path d="M0 0 C3.41251711 -0.33024359 5.42794426 0.15957244 8.6875 1.375 C16.10531037 4.04591807 24.20305866 4.2850701 32 5 C29.19046604 7.80953396 27.11254051 7.31407859 23.26855469 7.37890625 C21.92905762 7.37697266 21.92905762 7.37697266 20.5625 7.375 C19.66047852 7.37628906 18.75845703 7.37757813 17.82910156 7.37890625 C10.96082594 7.27023882 5.16896588 6.16937697 -1 3 C-0.67 2.01 -0.34 1.02 0 0 Z " fill="#D7D7D7" transform="translate(66,156)"/>
<path d="M0 0 C1.875 0.625 1.875 0.625 4 2 C6.03121209 6.67815747 6.27662004 11.03894417 6.1875 16.0625 C6.18685547 16.75666016 6.18621094 17.45082031 6.18554688 18.16601562 C6.15367563 21.89495089 5.88337649 25.37462288 5 29 C4.34 29 3.68 29 3 29 C2.95101562 27.865625 2.90203125 26.73125 2.8515625 25.5625 C2.7764586 24.04164602 2.70091416 22.52081375 2.625 21 C2.5940625 20.25621094 2.563125 19.51242188 2.53125 18.74609375 C2.33209092 14.9288781 1.93469029 11.39016493 0.9609375 7.6875 C0 4 0 4 0 0 Z " fill="#E9E9E9" transform="translate(139,71)"/>
<path d="M0 0 C0.66 0.33 1.32 0.66 2 1 C1.505 1.433125 1.01 1.86625 0.5 2.3125 C-1.33218192 3.99740483 -1.33218192 3.99740483 -1 7 C-2.390625 8.69140625 -2.390625 8.69140625 -4.25 10.5625 C-8.24558994 14.91469431 -10.16540324 19.43923465 -12 25 C-12.33 24.01 -12.66 23.02 -13 22 C-13.33 21.67 -13.66 21.34 -14 21 C-14 13.93888365 -9.75413865 8.80168004 -5 4 C-3.3719908 2.61973133 -1.71956118 1.26438322 0 0 Z " fill="#D3D3D3" transform="translate(69,59)"/>
<path d="M0 0 C0.33 0 0.66 0 1 0 C1.71286213 12.19786304 1.21439952 24.07527096 -7 34 C-7.99 33.67 -8.98 33.34 -10 33 C-8.02 27.39 -6.04 21.78 -4 16 C-3.67 16.66 -3.34 17.32 -3 18 C-2.34 18 -1.68 18 -1 18 C-0.505 9.09 -0.505 9.09 0 0 Z " fill="#C2C2C2" transform="translate(145,82)"/>
<path d="M0 0 C0.98043964 2.94131891 1.11621202 4.82501665 1.09765625 7.88671875 C1.09282227 9.2934082 1.09282227 9.2934082 1.08789062 10.72851562 C1.07951172 11.70498047 1.07113281 12.68144531 1.0625 13.6875 C1.05798828 14.67556641 1.05347656 15.66363281 1.04882812 16.68164062 C1.03704303 19.12115474 1.02059011 21.56054689 1 24 C0.34 24.33 -0.32 24.66 -1 25 C-3.12362203 20.67661012 -3.33417225 16.66638395 -3.3125 11.9375 C-3.32861328 11.23044922 -3.34472656 10.52339844 -3.36132812 9.79492188 C-3.3652924 5.57297324 -3.00699038 3.05459445 0 0 Z " fill="#EDEDED" transform="translate(56,78)"/>
<path d="M0 0 C1.9375 0.8125 1.9375 0.8125 4 2 C5.25433458 5.76300374 5.10695422 9.27210909 5.0625 13.1875 C5.05798828 13.93708984 5.05347656 14.68667969 5.04882812 15.45898438 C5.03706354 17.30602383 5.01912865 19.15302213 5 21 C4.01 21 3.02 21 2 21 C1.93941406 19.98679687 1.87882812 18.97359375 1.81640625 17.9296875 C1.73193296 16.57811486 1.64728843 15.22655291 1.5625 13.875 C1.50352539 12.87726563 1.50352539 12.87726563 1.44335938 11.859375 C1.187848 7.84981183 0.73217587 3.95005804 0 0 Z " fill="#DDDDDD" transform="translate(122,77)"/>
<path d="M0 0 C0.33 0.66 0.66 1.32 1 2 C1.66 2 2.32 2 3 2 C2.34 4.97 1.68 7.94 1 11 C0.34 11 -0.32 11 -1 11 C-1.66 12.65 -2.32 14.3 -3 16 C-3.99 16 -4.98 16 -6 16 C-8.15028304 16.94978897 -8.15028304 16.94978897 -10 18 C-9.29423828 16.93072266 -9.29423828 16.93072266 -8.57421875 15.83984375 C-5.22147067 10.68230375 -2.17615654 5.76041438 0 0 Z " fill="#D4D4D4" transform="translate(123,96)"/>
<path d="M0 0 C6.93 0 13.86 0 21 0 C21 0.99 21 1.98 21 3 C14.07 3 7.14 3 0 3 C0 2.01 0 1.02 0 0 Z " fill="#F0F0F0" transform="translate(80,142)"/>
<path d="M0 0 C0.33 0 0.66 0 1 0 C1 7.59 1 15.18 1 23 C0.34 23 -0.32 23 -1 23 C-2.19960669 19.40117994 -2.16886729 16.41862018 -2.1875 12.625 C-2.20167969 11.31789063 -2.21585938 10.01078125 -2.23046875 8.6640625 C-2.0164804 5.26201037 -1.48144811 3.03316253 0 0 Z " fill="#F2F2F2" transform="translate(19,79)"/>
<path d="M0 0 C0.25 6.625 0.25 6.625 -2 10 C-4.3595722 13.70062402 -4.43127496 17.47997713 -4.625 21.75 C-4.66367187 22.44738281 -4.70234375 23.14476563 -4.7421875 23.86328125 C-4.83598624 25.57510818 -4.91906174 27.28751682 -5 29 C-5.33 29 -5.66 29 -6 29 C-6.08184423 26.02026385 -6.14089764 23.04283168 -6.1875 20.0625 C-6.21263672 19.23169922 -6.23777344 18.40089844 -6.26367188 17.54492188 C-6.33234025 11.66233072 -5.63279559 6.33633662 -3 1 C-1 0 -1 0 0 0 Z " fill="#B1B1B1" transform="translate(22,70)"/>
<path d="M0 0 C1.02867188 -0.01417969 2.05734375 -0.02835938 3.1171875 -0.04296875 C6.17963488 0.19168631 8.35748861 0.89565428 11.125 2.1875 C10.795 2.8475 10.465 3.5075 10.125 4.1875 C3.525 3.8575 -3.075 3.5275 -9.875 3.1875 C-7.93696083 -0.68857834 -3.85486419 0.02403282 0 0 Z " fill="#E1E1E1" transform="translate(91.875,52.8125)"/>
<path d="M0 0 C-2.625 3.875 -2.625 3.875 -6 5 C-7.48123547 5.0806622 -8.96582204 5.10761193 -10.44921875 5.09765625 C-11.29677734 5.09443359 -12.14433594 5.09121094 -13.01757812 5.08789062 C-13.89865234 5.07951172 -14.77972656 5.07113281 -15.6875 5.0625 C-16.58017578 5.05798828 -17.47285156 5.05347656 -18.39257812 5.04882812 C-20.59511987 5.03704983 -22.79752599 5.02060164 -25 5 C-25 4.67 -25 4.34 -25 4 C-17.08 3.505 -17.08 3.505 -9 3 C-12.3 2.67 -15.6 2.34 -19 2 C-19 1.67 -19 1.34 -19 1 C-18.08476563 0.93941406 -17.16953125 0.87882813 -16.2265625 0.81640625 C-14.44378906 0.69072266 -14.44378906 0.69072266 -12.625 0.5625 C-11.44164063 0.48128906 -10.25828125 0.40007812 -9.0390625 0.31640625 C-1.54580153 -0.46374046 -1.54580153 -0.46374046 0 0 Z " fill="#B0B0B0" transform="translate(105,159)"/>
<path d="M0 0 C0.66 0.99 1.32 1.98 2 3 C0.94116236 7.4706478 -1.60046472 10.02540663 -5 13 C-5.66 13 -6.32 13 -7 13 C-8.34882408 13.63474075 -9.6846659 14.29848848 -11 15 C-10.62488281 14.50371094 -10.24976562 14.00742188 -9.86328125 13.49609375 C-6.50836081 9.04258476 -3.22288764 4.54995902 0 0 Z " fill="#E2E2E2" transform="translate(135,113)"/>
<path d="M0 0 C0 0.33 0 0.66 0 1 C-1.51980469 1.07347656 -1.51980469 1.07347656 -3.0703125 1.1484375 C-4.42189911 1.22352564 -5.77346038 1.29907081 -7.125 1.375 C-7.79015625 1.4059375 -8.4553125 1.436875 -9.140625 1.46875 C-13.39821262 1.71919633 -17.02085783 2.47528197 -21 4 C-20.34 4.66 -19.68 5.32 -19 6 C-21.90600261 7.25664978 -23.79604584 8 -27 8 C-27.33 6.68 -27.66 5.36 -28 4 C-18.45098425 -0.05109759 -10.16150945 -0.4642314 0 0 Z " fill="#B0B0B0" transform="translate(98,34)"/>
<path d="M0 0 C0.99 0.33 1.98 0.66 3 1 C2.42365861 5.75481646 0.44931479 8.97048212 -2 13 C-5 13 -5 13 -7 12 C-6.57847656 11.30132812 -6.15695313 10.60265625 -5.72265625 9.8828125 C-5.17480469 8.97273438 -4.62695312 8.06265625 -4.0625 7.125 C-3.51722656 6.22007813 -2.97195312 5.31515625 -2.41015625 4.3828125 C-1.56101983 2.94798364 -0.74562276 1.49124552 0 0 Z " fill="#DADADA" transform="translate(153,116)"/>
<path d="M0 0 C0.66 0.66 1.32 1.32 2 2 C-0.18652739 2.33965474 -2.37428025 2.67142477 -4.5625 3 C-6.38974609 3.2784375 -6.38974609 3.2784375 -8.25390625 3.5625 C-11.87627848 3.98555077 -15.35712046 4.07501425 -19 4 C-18 2 -18 2 -15.6875 0.875 C-10.50312481 -0.35519072 -5.30522428 -0.54005277 0 0 Z " fill="#F6F6F6" transform="translate(95,35)"/>
<path d="M0 0 C6.27 0.33 12.54 0.66 19 1 C17 3 17 3 13.0859375 3.1953125 C11.51550649 3.18200376 9.94513779 3.15813602 8.375 3.125 C7.57320313 3.11597656 6.77140625 3.10695312 5.9453125 3.09765625 C3.96341477 3.07406223 1.98167019 3.03819065 0 3 C0 2.01 0 1.02 0 0 Z " fill="#FDFDFD" transform="translate(79,160)"/>
<path d="M0 0 C3.76610404 5.64915606 4.22755952 10.40077399 4 17 C3.67 17 3.34 17 3 17 C3 15.02 3 13.04 3 11 C2.34 11 1.68 11 1 11 C0.67 11.99 0.34 12.98 0 14 C-0.19627391 12.41773035 -0.38165538 10.83410729 -0.5625 9.25 C-0.66691406 8.36828125 -0.77132812 7.4865625 -0.87890625 6.578125 C-0.99456676 4.11567549 -0.73638695 2.33461936 0 0 Z " fill="#CECECE" transform="translate(159,67)"/>
<path d="M0 0 C5.27315333 0.4452885 10.01770224 1.08373163 15 3 C15 3.33 15 3.66 15 4 C13.06280622 4.05406122 11.12518079 4.09282025 9.1875 4.125 C8.10855469 4.14820312 7.02960938 4.17140625 5.91796875 4.1953125 C3 4 3 4 0 2 C0 1.34 0 0.68 0 0 Z " fill="#F2F2F2" transform="translate(79,123)"/>
<path d="M0 0 C0.33 0.99 0.66 1.98 1 3 C-0.61949042 4.50594681 -2.24575974 6.00460668 -3.875 7.5 C-4.77992187 8.3353125 -5.68484375 9.170625 -6.6171875 10.03125 C-9 12 -9 12 -11 12 C-8.55297854 6.72949225 -6.12585137 3.83270733 -1 1 C-0.67 0.67 -0.34 0.34 0 0 Z " fill="#EDEDED" transform="translate(129,124)"/>
<path d="M0 0 C0.57234375 0.21527344 1.1446875 0.43054687 1.734375 0.65234375 C-2.61677004 5.36608421 -2.61677004 5.36608421 -5.390625 6.58984375 C-7.265625 6.65234375 -7.265625 6.65234375 -10.265625 4.65234375 C-9.02618224 3.78292881 -7.77355441 2.93228918 -6.515625 2.08984375 C-5.81953125 1.61417969 -5.1234375 1.13851562 -4.40625 0.6484375 C-2.265625 -0.34765625 -2.265625 -0.34765625 0 0 Z " fill="#CFCFCF" transform="translate(70.265625,39.34765625)"/>
<path d="M0 0 C-1.55603771 3.81936528 -3.95604931 6.26044438 -7 9 C-7.66 9 -8.32 9 -9 9 C-9.99 9.66 -10.98 10.32 -12 11 C-9.65309602 5.94512988 -6.30702353 0 0 0 Z " fill="#DBDBDB" transform="translate(55,52)"/>
<path d="M0 0 C0.33 0 0.66 0 1 0 C0.67 5.94 0.34 11.88 0 18 C-2.83360193 13.74959711 -2.41305774 9.98846654 -2 5 C-1 1.875 -1 1.875 0 0 Z " fill="#FCFCFC" transform="translate(37,80)"/>
<path d="M0 0 C0 0.99 0 1.98 0 3 C-2.90600261 4.25664978 -4.79604584 5 -8 5 C-8 4.34 -8 3.68 -8 3 C-9.32 2.67 -10.64 2.34 -12 2 C-10.7625 1.67 -9.525 1.34 -8.25 1 C-7.55390625 0.814375 -6.8578125 0.62875 -6.140625 0.4375 C-4 0 -4 0 0 0 Z " fill="#DBDBDB" transform="translate(109,139)"/>
<path d="M0 0 C0.66 0 1.32 0 2 0 C5.22265625 5.2734375 5.22265625 5.2734375 6 7 C5.67 7.66 5.34 8.32 5 9 C4.34 8.67 3.68 8.34 3 8 C2.67 8.66 2.34 9.32 2 10 C-1.07692308 4.58461538 -1.07692308 4.58461538 -0.6875 1.625 C-0.460625 1.08875 -0.23375 0.5525 0 0 Z " fill="#D9D9D9" transform="translate(136,63)"/>
<path d="M0 0 C0.66 0.33 1.32 0.66 2 1 C2 4.96 2 8.92 2 13 C1.01 13 0.02 13 -1 13 C-0.67 8.71 -0.34 4.42 0 0 Z " fill="#F4F4F4" transform="translate(125,85)"/>
<path d="M0 0 C0.88336837 2.4667645 1.1312406 3.63859372 0.22265625 6.140625 C-0.16019531 6.83671875 -0.54304688 7.5328125 -0.9375 8.25 C-1.31777344 8.95640625 -1.69804688 9.6628125 -2.08984375 10.390625 C-2.39019531 10.92171875 -2.69054688 11.4528125 -3 12 C-3.66 12 -4.32 12 -5 12 C-4.50769231 4.61538462 -4.50769231 4.61538462 -1.9375 1.5 C-1.298125 1.005 -0.65875 0.51 0 0 Z " fill="#F0F0F0" transform="translate(42,67)"/>
<path d="M0 0 C2.4375 0.75 2.4375 0.75 4.4375 2.75 C4.1075 4.07 3.7775 5.39 3.4375 6.75 C0.4675 5.1 -2.5025 3.45 -5.5625 1.75 C-2.5625 -0.25 -2.5625 -0.25 0 0 Z " fill="#D5D5D5" transform="translate(104.5625,56.25)"/>
<path d="M0 0 C0.99 0 1.98 0 3 0 C2.63287028 2.71675995 2.27255401 4.61063713 0.6875 6.875 C-0.1478125 7.431875 -0.1478125 7.431875 -1 8 C-3.10546875 7.5703125 -3.10546875 7.5703125 -5 7 C-4.24172908 5.82512964 -3.46792245 4.66027408 -2.6875 3.5 C-2.25824219 2.8503125 -1.82898438 2.200625 -1.38671875 1.53125 C-0.70029297 0.77328125 -0.70029297 0.77328125 0 0 Z " fill="#D6D6D6" transform="translate(31,48)"/>
<path d="M0 0 C0 0.99 0 1.98 0 3 C-2.8125 5.25 -2.8125 5.25 -6 7 C-6.99 6.67 -7.98 6.34 -9 6 C-4.5 0 -4.5 0 0 0 Z " fill="#E8E8E8" transform="translate(76,57)"/>
<path d="M0 0 C1 3 1 3 -0.4375 6.1875 C-1.2109375 7.5796875 -1.2109375 7.5796875 -2 9 C-2.99 9 -3.98 9 -5 9 C-5.33 8.34 -5.66 7.68 -6 7 C-4.31525278 3.63050557 -3.1808342 2.12055614 0 0 Z " fill="#E3E3E3" transform="translate(29,54)"/>
<path d="M0 0 C1.485 0.99 1.485 0.99 3 2 C3 3.32 3 4.64 3 6 C2.34 6 1.68 6 1 6 C1 9.96 1 13.92 1 18 C0.67 18 0.34 18 0 18 C0 12.06 0 6.12 0 0 Z " fill="#E9E9E9" transform="translate(142,79)"/>
<path d="M0 0 C0.66 0.66 1.32 1.32 2 2 C-2.62 2.33 -7.24 2.66 -12 3 C-9.83236701 -1.33526598 -4.16720314 -0.19843824 0 0 Z " fill="#FAFAFA" transform="translate(94,53)"/>
<path d="M0 0 C1.9451 2.91765 2.45276317 4.62537285 3 8 C2.01 8 1.02 8 0 8 C-1.74627478 5.38058783 -2.38722388 3.96175123 -3 1 C-2.01 0.67 -1.02 0.34 0 0 Z " fill="#D7D7D7" transform="translate(23,109)"/>
<path d="M0 0 C0.33 0.66 0.66 1.32 1 2 C0.67 2.66 0.34 3.32 0 4 C0.99 4 1.98 4 3 4 C1.25 9.75 1.25 9.75 -1 12 C-1 10.35 -1 8.7 -1 7 C-1.99 7.495 -1.99 7.495 -3 8 C-1.125 1.125 -1.125 1.125 0 0 Z " fill="#B4B4B4" transform="translate(57,72)"/>
<path d="M0 0 C0.6875 1.75 0.6875 1.75 1 4 C-0.3125 6.25 -0.3125 6.25 -2 8 C-2.66 8 -3.32 8 -4 8 C-3.50168276 4.31245243 -2.89932357 2.39509338 0 0 Z " fill="#E9E9E9" transform="translate(158,110)"/>
<path d="M0 0 C0.33 0 0.66 0 1 0 C1 4.62 1 9.24 1 14 C0.01 14 -0.98 14 -2 14 C-2 12.02 -2 10.04 -2 8 C-1.67 8 -1.34 8 -1 8 C-0.67 5.36 -0.34 2.72 0 0 Z " fill="#DCDCDC" transform="translate(37,87)"/>
<path d="M0 0 C1.65 0.33 3.3 0.66 5 1 C5.33 1.99 5.66 2.98 6 4 C-0.93 3.505 -0.93 3.505 -8 3 C-8 2.67 -8 2.34 -8 2 C-5.36 1.67 -2.72 1.34 0 1 C0 0.67 0 0.34 0 0 Z " fill="#E3E3E3" transform="translate(95,35)"/>
<path d="M0 0 C-0.33 0.99 -0.66 1.98 -1 3 C-6 2 -6 2 -11 1 C-11 0.67 -11 0.34 -11 0 C-3.57142857 -1.28571429 -3.57142857 -1.28571429 0 0 Z " fill="#D8D8D8" transform="translate(99,124)"/>
<path d="M0 0 C0.33 0 0.66 0 1 0 C1.125 2.875 1.125 2.875 1 6 C0.34 6.66 -0.32 7.32 -1 8 C-1.99 8 -2.98 8 -4 8 C-2.25 2.25 -2.25 2.25 0 0 Z " fill="#E1E1E1" transform="translate(142,101)"/>
<path d="M0 0 C0.66 0.99 1.32 1.98 2 3 C1.34 4.32 0.68 5.64 0 7 C-0.66 7 -1.32 7 -2 7 C-3.98 7.99 -3.98 7.99 -6 9 C-4.02 6.03 -2.04 3.06 0 0 Z " fill="#C9C9C9" transform="translate(135,113)"/>
<path d="M0 0 C0.33 0.99 0.66 1.98 1 3 C-0.65 4.65 -2.3 6.3 -4 8 C-4.99 7.67 -5.98 7.34 -7 7 C-4.69 4.69 -2.38 2.38 0 0 Z " fill="#EAEAEA" transform="translate(142,136)"/>
<path d="M0 0 C1 3 1 3 -0.25 5.6875 C-0.8275 6.450625 -1.405 7.21375 -2 8 C-2.99 8 -3.98 8 -5 8 C-3.8141763 4.62496331 -2.72426311 2.35277269 0 0 Z " fill="#F5F5F5" transform="translate(62,68)"/>
<path d="M0 0 C2.475 0.99 2.475 0.99 5 2 C4.01 2.495 4.01 2.495 3 3 C3.33 3.99 3.66 4.98 4 6 C1.64828869 5.40138258 -0.6859378 4.73075648 -3 4 C-3.33 3.34 -3.66 2.68 -4 2 C-1.525 2.495 -1.525 2.495 1 3 C0.67 2.01 0.34 1.02 0 0 Z " fill="#B1B1B1" transform="translate(76,120)"/>
<path d="M0 0 C2.64 0 5.28 0 8 0 C8 0.99 8 1.98 8 3 C5.125 3.1875 5.125 3.1875 2 3 C1.34 2.01 0.68 1.02 0 0 Z " fill="#E8E8E8" transform="translate(93,142)"/>
<path d="M0 0 C1.5625 1.8125 1.5625 1.8125 3 4 C2.02391783 6.92824652 0.89213369 8.61426621 -1 11 C-1.125 3.375 -1.125 3.375 0 0 Z " fill="#BFBFBF" transform="translate(18,73)"/>
<path d="M0 0 C-0.33 0.99 -0.66 1.98 -1 3 C-2.98 3 -4.96 3 -7 3 C-7 2.34 -7 1.68 -7 1 C-4.53721199 -0.231394 -2.7204945 -0.07159196 0 0 Z " fill="#F0F0F0" transform="translate(71,21)"/>
<path d="M0 0 C2.31 0 4.62 0 7 0 C6.01 1.485 6.01 1.485 5 3 C2.375 3.1875 2.375 3.1875 0 3 C0 2.01 0 1.02 0 0 Z " fill="#EBEBEB" transform="translate(79,160)"/>
<path d="M0 0 C2.18975773 3.28463659 2.99806563 6.20696275 4 10 C3.01 9.67 2.02 9.34 1 9 C0.67 9.66 0.34 10.32 0 11 C0 7.37 0 3.74 0 0 Z " fill="#C1C1C1" transform="translate(56,95)"/>
<path d="M0 0 C1.32 0.33 2.64 0.66 4 1 C2.68 2.32 1.36 3.64 0 5 C-0.99 4.67 -1.98 4.34 -3 4 C-2.01 2.68 -1.02 1.36 0 0 Z " fill="#ECECEC" transform="translate(68,39)"/>
<path d="M0 0 C0.66 0.33 1.32 0.66 2 1 C0.7260411 3.03833424 -0.61061923 5.03852126 -2 7 C-2.66 7 -3.32 7 -4 7 C-3.6875 4.625 -3.6875 4.625 -3 2 C-2.01 1.34 -1.02 0.68 0 0 Z " fill="#D7D7D7" transform="translate(128,146)"/>
<path d="M0 0 C1.32 0 2.64 0 4 0 C3.67 0.99 3.34 1.98 3 3 C1.35 3.33 -0.3 3.66 -2 4 C-1.34 2.68 -0.68 1.36 0 0 Z " fill="#F4F4F4" transform="translate(100,122)"/>
<path d="M0 0 C1.875 0.25 1.875 0.25 4 1 C5.25 3.0625 5.25 3.0625 6 5 C4.35 5 2.7 5 1 5 C0.67 3.35 0.34 1.7 0 0 Z " fill="#DADADA" transform="translate(57,104)"/>
<path d="M0 0 C0.33 0 0.66 0 1 0 C1.33 2.97 1.66 5.94 2 9 C1.01 9.495 1.01 9.495 0 10 C-1.125 3.375 -1.125 3.375 0 0 Z " fill="#F5F5F5" transform="translate(55,93)"/>
<path d="M0 0 C1.98 0.99 1.98 0.99 4 2 C4 2.99 4 3.98 4 5 C3.01 5.33 2.02 5.66 1 6 C0.67 4.02 0.34 2.04 0 0 Z " fill="#E9E9E9" transform="translate(122,77)"/>
<path d="M0 0 C0.99 0.33 1.98 0.66 3 1 C3 2.65 3 4.3 3 6 C2.01 6.495 2.01 6.495 1 7 C0.67 4.69 0.34 2.38 0 0 Z " fill="#EEEEEE" transform="translate(156,65)"/>
<path d="M0 0 C0.66 0 1.32 0 2 0 C2 0.66 2 1.32 2 2 C3.32 2.33 4.64 2.66 6 3 C3.69 3.66 1.38 4.32 -1 5 C-0.67 3.35 -0.34 1.7 0 0 Z " fill="#CCCCCC" transform="translate(62,22)"/>
<path d="M0 0 C0.99 0.66 1.98 1.32 3 2 C1.02 2.33 -0.96 2.66 -3 3 C-3 2.34 -3 1.68 -3 1 C-4.32 0.67 -5.64 0.34 -7 0 C-3.8195064 -1.06016453 -3.04021693 -1.04507457 0 0 Z " fill="#C7C7C7" transform="translate(74,20)"/>
</svg>
