<?xml version="1.0" encoding="UTF-8"?>
<svg version="1.1" xmlns="http://www.w3.org/2000/svg" width="800" height="138">
<path d="M0 0 C9.62827669 6.95021298 16.09360575 16.92198794 18.03466797 28.74145508 C18.7393869 34.77509289 18.63967728 40.83588756 18.66015625 46.90234375 C18.67741214 48.86772232 18.69469145 50.83310101 18.71335888 52.79846668 C18.75871906 57.61407281 18.79674901 62.4295524 18.81030273 67.24536133 C18.81843796 69.95974476 18.83699643 72.67366639 18.86723328 75.38789368 C18.8953582 77.93642375 18.90829681 80.48517701 18.90437317 83.03385925 C18.92910957 84.76639702 18.92910957 84.76639702 18.9543457 86.53393555 C18.96021194 87.54683151 18.96607819 88.55972748 18.97212219 89.60331726 C19.62003558 93.12879133 21.03671033 94.8205887 23.484375 97.390625 C25.89365011 98.59526255 27.19049034 98.46955971 29.859375 98.265625 C30.63023437 98.22179687 31.40109375 98.17796875 32.1953125 98.1328125 C35.52122111 97.05444623 36.56899377 95.27082114 38.484375 92.390625 C39.06804373 89.44399456 39.06804373 89.44399456 38.96679688 86.24609375 C38.97700867 84.41763916 38.97700867 84.41763916 38.98742676 82.55224609 C38.97044739 80.58505615 38.97044739 80.58505615 38.953125 78.578125 C38.9579588 77.20392885 38.9651195 75.82973912 38.9744873 74.45556641 C39.00403324 69.36904369 38.99105177 64.28279226 38.97930908 59.19622803 C38.97102651 54.90285343 38.97938249 50.61009193 39.00843811 46.31680298 C39.01541795 44.3247191 38.99873189 42.33259621 38.98132324 40.34057617 C39.05485308 26.90245497 42.15689977 15.14002778 51.51953125 5.23828125 C62.23920538 -4.91421435 72.474911 -7.10580625 86.6953125 -6.88671875 C98.44340622 -6.42605413 106.71784442 -0.69067894 114.671875 7.515625 C122.62882292 16.75696215 124.6445534 27.2670419 124.59790039 39.04614258 C124.59804642 40.0124762 124.59819244 40.97880981 124.5983429 41.97442627 C124.59764748 45.16135927 124.5898724 48.34823348 124.58203125 51.53515625 C124.58016575 53.74761422 124.57874247 55.9600726 124.57774353 58.17253113 C124.57392872 63.99056136 124.56410725 69.80856656 124.55303955 75.62658691 C124.54280318 81.56550762 124.53824114 87.50443238 124.53320312 93.44335938 C124.52248407 105.09246068 124.50489563 116.74153684 124.484375 128.390625 C113.924375 128.390625 103.364375 128.390625 92.484375 128.390625 C92.48026611 125.47839111 92.47615723 122.56615723 92.47192383 119.56567383 C92.45473057 109.94630514 92.41023592 100.32720253 92.35228443 90.70799732 C92.31798593 84.8755103 92.29289995 79.04328601 92.28881836 73.21069336 C92.28454163 67.58242489 92.25613021 61.9547494 92.21094322 56.32666588 C92.1979483 54.17890564 92.19366756 52.03107452 92.19822121 49.8832798 C92.20311286 46.87571721 92.17709759 43.86989729 92.14379883 40.86254883 C92.15242447 39.97350357 92.16105011 39.08445831 92.16993713 38.16847229 C92.08849217 33.78364267 91.90962222 31.94368542 89.15800476 28.36503601 C85.75971461 25.8554808 83.70601046 25.31656122 79.484375 25.390625 C75.22639124 27.62042168 75.22639124 27.62042168 72.484375 31.390625 C72.3796407 33.29781746 72.33835611 35.20862209 72.32666016 37.11865234 C72.31639801 38.3210556 72.30613586 39.52345886 72.29556274 40.76229858 C72.28826141 42.07050568 72.28096008 43.37871277 72.2734375 44.7265625 C72.26046583 46.08502 72.24664886 47.44346968 72.23202515 48.8019104 C72.17056149 54.56985275 72.11669131 60.33778047 72.08300781 66.10595703 C72.06184322 69.63573094 72.02635629 73.16513231 71.98225021 76.6946907 C71.96150065 78.67287429 71.95607666 80.65119998 71.95108032 82.62948608 C71.75704264 97.08204972 68.73701629 108.79780878 58.859375 119.640625 C50.76050112 127.29042175 40.18943927 131.20950653 29.171875 131.703125 C17.8799427 131.36869495 8.08052201 127.3649779 -0.328125 119.890625 C-1.4109375 118.653125 -1.4109375 118.653125 -2.515625 117.390625 C-3.36125 116.4625 -4.206875 115.534375 -5.078125 114.578125 C-13.40351651 104.31537824 -13.80315633 92.86097716 -13.82421875 80.125 C-13.83533992 78.75977518 -13.84773783 77.39456023 -13.86134338 76.02935791 C-13.91634195 70.27389234 -13.94751363 64.51836378 -13.97192383 58.76269531 C-13.98782182 55.22490499 -14.01804568 51.68746002 -14.05668831 48.14984894 C-14.07391852 46.15967768 -14.07439269 44.16938402 -14.0745697 42.17913818 C-14.09457787 40.36134857 -14.09457787 40.36134857 -14.11499023 38.50683594 C-14.12006088 37.4436615 -14.12513153 36.38048706 -14.13035583 35.28509521 C-14.65914513 31.3123795 -16.09757695 28.50480561 -19.265625 26.015625 C-22.70394718 25.06053551 -25.07960188 25.48640839 -28.515625 26.390625 C-31.25417358 28.39910589 -33.19198568 29.98838072 -33.97889137 33.39783669 C-34.17216332 35.8982301 -34.19938015 38.35471846 -34.17504883 40.86254883 C-34.19077438 42.28278854 -34.19077438 42.28278854 -34.20681763 43.73171997 C-34.23556535 46.85403219 -34.22927625 49.9752354 -34.22265625 53.09765625 C-34.23577141 55.26528819 -34.25107506 57.4329079 -34.26847839 59.60050964 C-34.30836223 65.30022618 -34.31852107 70.99962326 -34.32250977 76.69946289 C-34.33183474 82.51783968 -34.36924436 88.33602826 -34.40429688 94.15429688 C-34.46890761 105.5664417 -34.4995233 116.97830852 -34.515625 128.390625 C-45.075625 128.390625 -55.635625 128.390625 -66.515625 128.390625 C-66.5835223 115.52495766 -66.63851132 102.65941019 -66.67106152 89.7936039 C-66.68668747 83.8188776 -66.70786973 77.84428073 -66.74194336 71.86962891 C-66.77464616 66.09893911 -66.79250109 60.32837346 -66.80025673 54.55759811 C-66.80578064 52.36088483 -66.81656735 50.16417799 -66.83281517 47.96751785 C-66.85473443 44.88005374 -66.85758586 41.79309636 -66.85620117 38.70556641 C-66.866987 37.80644531 -66.87777283 36.90732422 -66.8888855 35.98095703 C-66.82945457 23.65720294 -62.1768223 13.20203826 -53.890625 4.140625 C-39.2376997 -9.80511279 -16.56743313 -10.59904107 0 0 Z " fill="#002152" transform="translate(545.515625,6.609375)"/>
<path d="M0 0 C9.29982312 6.68707726 16.80866918 16.02612524 19.56436157 27.31115723 C20.05440941 30.33582517 20.13950265 33.2069798 20.15771484 36.27148438 C20.16797699 37.51627563 20.17823914 38.76106689 20.18881226 40.0435791 C20.19225018 40.70344315 20.1956881 41.36330719 20.19923019 42.04316711 C20.21108817 44.12014042 20.23055589 46.19691218 20.25234985 48.27380371 C20.31375021 54.17611981 20.36803402 60.07841007 20.40136719 65.98095703 C20.42234041 69.59844902 20.45765588 73.21556386 20.50212479 76.83283997 C20.51625458 78.20745909 20.52500041 79.58214482 20.52817917 80.95683289 C20.53310124 82.8808092 20.55789279 84.80470338 20.58349609 86.72851562 C20.59158295 87.82151978 20.5996698 88.91452393 20.60800171 90.04064941 C21.05180236 93.3910766 22.02890299 95.28030982 24 98 C27.21522137 100.32826375 30.10830425 100.39711181 34 100 C37.09378627 98.66404684 38.59346099 97.8030373 40.12565613 94.77648926 C41.11761124 91.62652412 41.24484058 89.06474524 41.23950195 85.76367188 C41.24323318 84.5246814 41.24696442 83.28569092 41.25080872 82.00915527 C41.24735412 81.02262215 41.24735412 81.02262215 41.24382973 80.01615906 C41.2381949 77.93688597 41.24746575 75.85816235 41.2610321 73.77893066 C41.29796282 67.86919819 41.31679689 61.95964959 41.30541992 56.04980469 C41.29950314 52.42568117 41.31814774 48.80232662 41.35130882 45.17835999 C41.36294057 43.1530692 41.34804582 41.12768037 41.33235168 39.10241699 C41.4594944 26.91419323 44.648462 16.54697904 52.69921875 7.22265625 C56.70194633 3.35584471 61.08096027 0.56645551 66 -2 C67.02480469 -2.54140625 67.02480469 -2.54140625 68.0703125 -3.09375 C77.05490042 -6.89898724 89.94699302 -6.44778726 99.0625 -3.375 C111.1385798 1.91406405 118.83535901 9.38659373 124.0546875 21.484375 C125.44908634 25.19508927 126.12514091 28.38557759 126.12025452 32.35333252 C126.12231651 33.64894608 126.12231651 33.64894608 126.12442017 34.97073364 C126.12082489 35.91012787 126.11722961 36.84952209 126.11352539 37.81738281 C126.11367142 38.81283112 126.11381744 39.80827942 126.1139679 40.83389282 C126.11327132 44.12365906 126.1054908 47.41336865 126.09765625 50.703125 C126.09579117 52.98427296 126.09436769 55.26542132 126.09336853 57.54656982 C126.08955048 63.5503856 126.07972624 69.55417718 126.06866455 75.5579834 C126.05843515 81.6844856 126.05386763 87.81099172 126.04882812 93.9375 C126.03810336 105.95834567 126.02051229 117.97916704 126 130 C115.77 130 105.54 130 95 130 C94.98018066 127.15358887 94.96036133 124.30717773 94.93994141 121.37451172 C94.87301496 111.96675752 94.7953756 102.55911366 94.71247292 93.15148735 C94.66254115 87.44802149 94.61621067 81.74457387 94.578125 76.04101562 C94.54123303 70.53609999 94.49486213 65.03133812 94.44193649 59.52655411 C94.4234134 57.4270612 94.40829775 55.32753535 94.39665604 53.22799301 C94.37975811 50.28578721 94.35071407 47.34393198 94.31884766 44.40185547 C94.31668747 43.53510696 94.31452728 42.66835846 94.31230164 41.77534485 C94.24868108 37.17288397 93.95518398 33.26144767 92 29 C87.52048598 26.60398087 83.85629813 26.74095975 79 28 C76.13057887 30.26533247 75.16092388 31.51722837 74 35 C73.9027535 37.01187801 73.86454233 39.02679886 73.8581543 41.04101562 C73.85111984 42.28661255 73.84408539 43.53220947 73.83683777 44.81555176 C73.83502188 45.48147842 73.83320599 46.14740509 73.83133507 46.83351135 C73.8241414 48.92878073 73.8084494 51.02381971 73.78999329 53.11901855 C73.73768964 59.076382 73.68965869 65.03362331 73.67407227 70.99121094 C73.66390518 74.63891455 73.63435662 78.28604275 73.59275246 81.93351746 C73.58055271 83.31434241 73.57530074 84.69524909 73.57755089 86.0761261 C73.59417682 99.62105045 70.60277123 110.87289972 61.1875 120.9375 C52.12457192 129.41572304 41.03062332 133.58676659 28.6640625 133.2421875 C15.61464619 132.05587693 5.13558096 126.5439809 -3.27734375 116.47265625 C-8.35006826 109.19139863 -11.10523552 101.68200362 -11.15771484 92.85791016 C-11.16797699 91.61627106 -11.17823914 90.37463196 -11.18881226 89.09536743 C-11.19225018 88.43462849 -11.1956881 87.77388954 -11.19923019 87.0931282 C-11.21106918 85.01595965 -11.23053421 82.93899437 -11.25234985 80.86190796 C-11.31379974 74.95781256 -11.36797295 69.05374027 -11.40136719 63.14941406 C-11.42236747 59.53307117 -11.45770997 55.91710356 -11.50212479 52.3009758 C-11.51623926 50.92718307 -11.52499691 49.55332399 -11.52817917 48.17946243 C-11.53311367 46.25318599 -11.55792691 44.32699196 -11.58349609 42.40087891 C-11.59158295 41.30707916 -11.5996698 40.21327942 -11.60800171 39.08633423 C-12.19396966 34.47281174 -13.71501743 31.10651277 -17.25 28.0625 C-21.7590148 26.32038064 -25.54262013 27.51420671 -30 29 C-32.37299931 34.03000929 -32.30528435 38.95974426 -32.31884766 44.40185547 C-32.33391609 45.79305351 -32.33391609 45.79305351 -32.34928894 47.21235657 C-32.3800667 50.26396084 -32.39714113 53.31547759 -32.4140625 56.3671875 C-32.43277848 58.48854319 -32.45235222 60.60989148 -32.4727478 62.73123169 C-32.52402943 68.30423612 -32.56367649 73.87726467 -32.60089111 79.45037842 C-32.64095557 85.14145863 -32.6920368 90.83243882 -32.7421875 96.5234375 C-32.8388999 107.68222832 -32.92230119 118.84106057 -33 130 C-43.56 130 -54.12 130 -65 130 C-65.04531731 117.95117357 -65.08195435 105.90240444 -65.10362434 93.85351181 C-65.1140287 88.25777755 -65.12812633 82.662105 -65.15087891 77.06640625 C-65.1727272 71.65880991 -65.18459377 66.25127266 -65.18975449 60.84363556 C-65.19342882 58.78814007 -65.20060346 56.73264753 -65.21146011 54.67717743 C-65.30300967 36.61378351 -65.16549676 19.71939194 -51.9765625 5.74609375 C-48.32229749 2.51791892 -44.34855347 0.17427673 -40 -2 C-39.33742188 -2.34160156 -38.67484375 -2.68320312 -37.9921875 -3.03515625 C-26.33744451 -7.94843025 -10.68879837 -6.17159421 0 0 Z " fill="#002152" transform="translate(331,5)"/>
<path d="M0 0 C1.31761322 0.0028299 2.63522644 0.00565979 3.99276733 0.00857544 C7.46152621 0.01613806 10.9301122 0.0357212 14.39880371 0.0579834 C17.95204285 0.0786026 21.50531132 0.08772153 25.05859375 0.09765625 C32.00536001 0.11790921 38.95165422 0.15707333 45.8984375 0.1953125 C45.8984375 10.4253125 45.8984375 20.6553125 45.8984375 31.1953125 C41.98355469 31.22109375 38.06867188 31.246875 34.03515625 31.2734375 C30.21566787 31.31192277 26.39631153 31.35706237 22.5769043 31.40283203 C19.93601862 31.43094203 17.29505036 31.45220578 14.65405273 31.46630859 C10.84316026 31.48787561 7.0332503 31.53459952 3.22265625 31.5859375 C2.05449875 31.58716614 0.88634125 31.58839478 -0.31721497 31.58966064 C-11.19097519 31.78104657 -21.17117761 34.39905674 -29.1015625 42.1953125 C-36.24735894 50.37631486 -39.48852424 58.75685513 -39.1640625 69.6328125 C-38.17873563 78.71730965 -34.24838006 87.33125707 -27.1015625 93.1953125 C-26.3590625 93.8759375 -25.6165625 94.5565625 -24.8515625 95.2578125 C-18.07615542 100.03139476 -11.03634919 102.17459024 -2.80078125 102.51171875 C-1.91994873 102.54982666 -1.03911621 102.58793457 -0.1315918 102.62719727 C0.97144287 102.67030029 2.07447754 102.71340332 3.2109375 102.7578125 C8.50125 102.974375 8.50125 102.974375 13.8984375 103.1953125 C13.8984375 95.9353125 13.8984375 88.6753125 13.8984375 81.1953125 C4.6584375 81.1953125 -4.5815625 81.1953125 -14.1015625 81.1953125 C-14.1015625 71.6253125 -14.1015625 62.0553125 -14.1015625 52.1953125 C5.6984375 52.1953125 25.4984375 52.1953125 45.8984375 52.1953125 C45.8984375 79.2553125 45.8984375 106.3153125 45.8984375 134.1953125 C37.2978125 134.2365625 28.6971875 134.2778125 19.8359375 134.3203125 C15.81200806 134.34762451 15.81200806 134.34762451 11.70678711 134.37548828 C-13.28305922 134.47619295 -35.94877594 132.51378489 -54.8515625 114.1328125 C-67.31783106 101.44416174 -73.89823564 85.30192973 -74.2890625 67.5078125 C-74.05515139 48.72475001 -66.84726721 32.49295227 -53.99609375 18.87109375 C-38.7768153 4.80199019 -20.33489812 -0.16648645 0 0 Z " fill="#002152" transform="translate(74.1015625,0.8046875)"/>
<path d="M0 0 C11.35939074 8.10718161 19.4580512 19.43500713 22.8515625 33.03515625 C23.02469467 33.72381271 23.19782684 34.41246918 23.37620544 35.12199402 C24.00567673 38.97962472 23.98249221 42.78453492 23.96508789 46.6809082 C23.96523392 47.53995255 23.96537994 48.39899689 23.9655304 49.28407288 C23.96483562 52.11388707 23.95706361 54.94363485 23.94921875 57.7734375 C23.94735302 59.73927271 23.94592985 61.70510838 23.94493103 63.67094421 C23.94111803 68.83795461 23.93129812 74.00493677 23.92022705 79.17193604 C23.90998677 84.44730243 23.9054278 89.7226734 23.90039062 94.99804688 C23.88967476 105.34376438 23.87208781 115.68945355 23.8515625 126.03515625 C13.6215625 126.03515625 3.3915625 126.03515625 -7.1484375 126.03515625 C-7.1484375 112.83515625 -7.1484375 99.63515625 -7.1484375 86.03515625 C-23.6484375 86.03515625 -40.1484375 86.03515625 -57.1484375 86.03515625 C-57.1484375 99.23515625 -57.1484375 112.43515625 -57.1484375 126.03515625 C-67.3784375 126.03515625 -77.6084375 126.03515625 -88.1484375 126.03515625 C-88.2392439 114.95083825 -88.3124431 103.8667722 -88.35568619 92.78216457 C-88.37645335 87.63368716 -88.40456947 82.48548009 -88.45019531 77.3371582 C-88.49404447 72.35746207 -88.51765607 67.37802397 -88.52794647 62.39814949 C-88.53526839 60.50977588 -88.54956369 58.62141443 -88.57135773 56.73315239 C-88.79146787 36.8497906 -85.62633837 21.31832418 -71.5546875 6.35546875 C-51.94105928 -12.55767275 -22.70447778 -14.10792748 0 0 Z M-51.1484375 30.03515625 C-57.37084027 39.43602962 -57.1484375 44.82564307 -57.1484375 57.03515625 C-40.6484375 57.03515625 -24.1484375 57.03515625 -7.1484375 57.03515625 C-6.92810138 41.79239549 -6.92810138 41.79239549 -13.4609375 29.72265625 C-18.76322137 24.42037238 -24.41188229 21.92821145 -31.8984375 21.78515625 C-39.4493522 21.88509483 -46.06679912 24.19270761 -51.1484375 30.03515625 Z " fill="#002152" transform="translate(225.1484375,8.96484375)"/>
<path d="M0 0 C12.35461555 9.61920947 21.04918645 21.40853743 24 37 C24.2544738 40.03065579 24.25425624 43.03825832 24.22705078 46.078125 C24.22734283 46.94736099 24.22763489 47.81659698 24.22793579 48.71217346 C24.22655299 51.55822057 24.21104162 54.40399916 24.1953125 57.25 C24.19157863 59.23396664 24.18873343 61.21793514 24.18673706 63.2019043 C24.17913003 68.40343386 24.15950687 73.60485032 24.1373291 78.80633545 C24.11680736 84.12217682 24.10772185 89.43803661 24.09765625 94.75390625 C24.07625806 105.16932832 24.04109996 115.58463702 24 126 C13.77 126 3.54 126 -7 126 C-7 112.8 -7 99.6 -7 86 C-23.5 86 -40 86 -57 86 C-57 99.2 -57 112.4 -57 126 C-67.23 126 -77.46 126 -88 126 C-88.06800994 114.99424834 -88.12295063 103.98863822 -88.15543652 92.98272324 C-88.17103486 87.87121468 -88.19216564 82.75985843 -88.22631836 77.6484375 C-88.25912099 72.70766979 -88.27689677 67.76704778 -88.28463173 62.8261795 C-88.29013794 60.94929972 -88.30088934 59.07242712 -88.31719017 57.19561005 C-88.48268236 37.33604632 -85.17060714 20.22351548 -70.7890625 5.47265625 C-51.14938862 -11.9389874 -21.97737657 -14.79122558 0 0 Z M-52.59375 32.8515625 C-57.93417183 41.01054029 -57 47.84004095 -57 58 C-40.5 58 -24 58 -7 58 C-6.33628403 41.70637619 -6.33628403 41.70637619 -13.609375 29.171875 C-18.86576247 24.20482996 -24.69662022 21.9268833 -31.875 21.5 C-40.502843 21.81807716 -47.33294167 26.17629155 -52.59375 32.8515625 Z " fill="#002152" transform="translate(775,9)"/>
</svg>
