<?xml version="1.0" encoding="UTF-8"?>
<svg version="1.1" xmlns="http://www.w3.org/2000/svg" width="400" height="400">
<path d="M0 0 C132 0 264 0 400 0 C400 132 400 264 400 400 C268 400 136 400 0 400 C0 268 0 136 0 0 Z " fill="#FEFEFE" transform="translate(0,0)"/>
<path d="M0 0 C1.15822266 0.98613281 1.15822266 0.98613281 2.33984375 1.9921875 C3.28730469 2.79398438 4.23476563 3.59578125 5.2109375 4.421875 C26.52585716 22.929948 38.043682 47.39166631 42.33984375 74.9921875 C42.51239182 75.87740082 42.68493988 76.76261414 42.86271667 77.6746521 C43.43399116 81.6468084 43.50308714 85.55744868 43.5168457 89.56103516 C43.5234169 90.40095001 43.5299881 91.24086487 43.53675842 92.10623169 C43.55639142 94.87290555 43.56813281 97.63952533 43.578125 100.40625 C43.58220053 101.35663525 43.58627605 102.30702049 43.59047508 103.28620529 C43.61129512 108.3185682 43.62561333 113.35090419 43.63500977 118.38330078 C43.64605446 123.55444828 43.68044383 128.72516319 43.72018147 133.89615822 C43.74645212 137.89587143 43.75471093 141.89548324 43.75829124 145.89527512 C43.76313166 147.80007213 43.77467207 149.70486539 43.79332924 151.60957718 C43.93499594 167.03307395 42.45508113 180.07561057 31.5625 191.92578125 C22.82966447 200.23001136 12.7815396 203.13632115 0.99560547 203.15332031 C0.16708069 203.15828522 -0.66144409 203.16325012 -1.51507568 203.16836548 C-4.25354861 203.18295219 -6.99196335 203.18978815 -9.73046875 203.1953125 C-10.67303402 203.19813988 -11.61559929 203.20096725 -12.58672714 203.20388031 C-17.58825713 203.21886948 -22.58975837 203.2280969 -27.59130859 203.23242188 C-32.70678956 203.23786388 -37.82199858 203.26180116 -42.9373951 203.29039383 C-46.91165876 203.30923067 -50.88586016 203.31423714 -54.86016464 203.31575775 C-56.74241475 203.3187446 -58.62466484 203.32663488 -60.50687027 203.33994293 C-76.09947439 203.44219584 -92.08917471 202.63196764 -106.91015625 197.3046875 C-108.00481201 196.92340698 -108.00481201 196.92340698 -109.12158203 196.53442383 C-138.51308716 185.87705259 -160.90364847 163.4346659 -174.41015625 135.6171875 C-177.55317711 128.31972384 -179.67591655 120.67200113 -181.66015625 112.9921875 C-182.03527344 111.54972656 -182.03527344 111.54972656 -182.41796875 110.078125 C-187.8543234 84.12144576 -182.1524453 56.05487497 -169.66015625 32.9921875 C-169.00015625 32.9921875 -168.34015625 32.9921875 -167.66015625 32.9921875 C-167.47453125 32.0228125 -167.28890625 31.0534375 -167.09765625 30.0546875 C-165.02197911 22.7453387 -158.96070538 17.14947855 -153.66015625 11.9921875 C-152.76296875 10.82429688 -152.76296875 10.82429688 -151.84765625 9.6328125 C-148.06426446 5.06571813 -143.3127267 1.63505117 -138.66015625 -2.0078125 C-137.96792969 -2.554375 -137.27570313 -3.1009375 -136.5625 -3.6640625 C-133.33628608 -6.10322203 -130.72864515 -7.63794987 -126.66015625 -8.0078125 C-126.66015625 -8.6678125 -126.66015625 -9.3278125 -126.66015625 -10.0078125 C-87.21445133 -32.40662987 -35.27891525 -28.70797805 0 0 Z " fill="#CF62A0" transform="translate(270.66015625,111.0078125)"/>
<path d="M0 0 C1.15177734 -0.020625 2.30355469 -0.04125 3.49023438 -0.0625 C23.90944132 -0.15411731 42.32020024 7.40351149 57.9375 20.25 C58.59492188 20.74886719 59.25234375 21.24773437 59.9296875 21.76171875 C76.04766946 34.61079272 85.33321213 56.25103469 87.9375 76.25 C89.76523618 108.23179943 89.76523618 108.23179943 80.9375 119.25 C77.6875 120.125 77.6875 120.125 74.9375 120.25 C72.00314803 116.14190725 71.42466456 112.53099371 71.0625 107.625 C68.9107883 85.77593191 61.70281652 64.4029416 44.33203125 49.91015625 C34.59127092 43.15677429 22.83840793 37.96870492 10.9375 37.25 C9.64779297 37.15332031 9.64779297 37.15332031 8.33203125 37.0546875 C-8.25132758 36.38329645 -25.15621045 42.41994697 -37.5 53.5 C-47.36939445 62.86541172 -55.33368126 76.40244386 -56.0625 90.25 C-56.1553125 91.78914063 -56.1553125 91.78914063 -56.25 93.359375 C-56.69239489 106.02292882 -53.2279575 115.88986749 -46.0625 126.25 C-45.62292969 126.88679688 -45.18335938 127.52359375 -44.73046875 128.1796875 C-37.64161374 137.37272714 -26.33925673 142.64103347 -15.0625 144.25 C-3.29887586 145.19294491 8.19152286 143.24520378 17.875 136.125 C26.42191282 128.35507926 30.8342994 118.73085461 32.3125 107.3671875 C32.73945806 98.00079509 29.61046399 89.28399856 23.6953125 82.03125 C14.11111827 72.31926651 3.04028734 70.79051328 -10.0625 70.25 C-10.3925 68.93 -10.7225 67.61 -11.0625 66.25 C-5.56607771 62.58571847 2.48063072 63.64991921 8.9375 64.25 C20.63702107 66.72489869 31.30845566 74.21686949 37.85546875 84.1640625 C44.9399911 96.40494854 46.60838838 109.42458488 43.80859375 123.23046875 C39.61851271 137.75483039 30.54738557 149.18971391 17.51953125 156.82421875 C16.66746094 157.29472656 15.81539063 157.76523437 14.9375 158.25 C14.26074219 158.64832031 13.58398438 159.04664063 12.88671875 159.45703125 C-0.37925291 166.79039446 -18.5017227 167.74768676 -33 163.75 C-52.89924723 156.37133856 -68.67984968 142.13482842 -77.875 122.9375 C-87.51963105 101.82298806 -89.06432029 78.20495915 -81.0612793 56.35229492 C-78.22771374 49.10623863 -74.5787959 42.58480443 -70.0625 36.25 C-69.54171875 35.49460938 -69.0209375 34.73921875 -68.484375 33.9609375 C-55.93909764 16.72640599 -37.15927223 4.74793094 -16.22436523 0.70141602 C-10.83046564 -0.06866509 -5.44024941 0.02379551 0 0 Z " fill="#FDFBFB" transform="translate(199.0625,113.75)"/>
<path d="M0 0 C0 0.66 0 1.32 0 2 C-7.68603381 2.94805703 -15.25048536 3.07483344 -22.97998047 2.875 C-24.98684635 2.84397266 -26.99472608 2.91426879 -29 3 C-29.66 3.66 -30.32 4.32 -31 5 C-31.845625 5.33 -32.69125 5.66 -33.5625 6 C-36.14841441 6.74870114 -36.14841441 6.74870114 -37 9 C-40.33333333 9 -43.66666667 9 -47 9 C-51.0499705 10.16999148 -54.55762823 11.54116302 -58 14 C-58.33 14.99 -58.66 15.98 -59 17 C-59.7425 16.79375 -60.485 16.5875 -61.25 16.375 C-64.39102902 15.94667786 -65.45855941 16.15964647 -68 18 C-68.309375 18.680625 -68.61875 19.36125 -68.9375 20.0625 C-69.288125 20.701875 -69.63875 21.34125 -70 22 C-70.763125 22.144375 -71.52625 22.28875 -72.3125 22.4375 C-76.02669363 23.21488936 -77.41827294 25.28918659 -80 28 C-81.65661761 29.01656081 -83.32111559 30.02065076 -85 31 C-85.33 31.66 -85.66 32.32 -86 33 C-87.2065625 33.680625 -87.2065625 33.680625 -88.4375 34.375 C-91.08268187 35.73688961 -91.08268187 35.73688961 -91.9375 37.9375 C-93 40 -93 40 -95.875 41.8125 C-100.41247305 44.98873113 -102.10222142 48.6235273 -104.0625 53.8125 C-105 56 -105 56 -108 58 C-108.55917108 62.02603178 -107.39737627 65.24455129 -106 69 C-109.46432627 72.07065283 -111.53430776 73.88357694 -116 75 C-118.05132705 78.11187709 -118.0919879 79.97148432 -117.375 83.5625 C-117.02734375 85.9375 -117.02734375 85.9375 -117 88 C-118.9375 90.0625 -118.9375 90.0625 -121 91 C-120.83395264 91.87180908 -120.66790527 92.74361816 -120.49682617 93.6418457 C-119.72660172 98.84795741 -120.0842667 103.944387 -120.3125 109.1875 C-120.36567383 110.8262207 -120.36567383 110.8262207 -120.41992188 112.49804688 C-120.46310547 113.54412109 -120.50628906 114.59019531 -120.55078125 115.66796875 C-120.58856689 116.61953857 -120.62635254 117.5711084 -120.6652832 118.55151367 C-121 121 -121 121 -123 124 C-122.77642248 126.98103359 -122.4014177 128.53435547 -120.4375 130.8125 C-119.963125 131.204375 -119.48875 131.59625 -119 132 C-119.99 133.98 -119.99 133.98 -121 136 C-119.68 136.33 -118.36 136.66 -117 137 C-117.02320312 137.90363281 -117.04640625 138.80726563 -117.0703125 139.73828125 C-117.08835937 140.91777344 -117.10640625 142.09726563 -117.125 143.3125 C-117.14820312 144.48425781 -117.17140625 145.65601563 -117.1953125 146.86328125 C-117.25320618 150.16393661 -117.25320618 150.16393661 -115 153 C-111.91634129 153.2502157 -111.91634129 153.2502157 -109 153 C-109.33 153.99 -109.66 154.98 -110 156 C-109.67 156.33 -109.34 156.66 -109 157 C-108.92773498 158.85287502 -108.9161878 160.70833878 -108.9375 162.5625 C-108.94652344 163.57441406 -108.95554687 164.58632812 -108.96484375 165.62890625 C-108.97644531 166.41136719 -108.98804687 167.19382813 -109 168 C-107.8553125 168.2165625 -107.8553125 168.2165625 -106.6875 168.4375 C-104 169 -104 169 -101 170 C-101.165 170.556875 -101.33 171.11375 -101.5 171.6875 C-102.04041351 174.18691249 -102.07082065 176.45045662 -102 179 C-102.8971875 178.0409375 -102.8971875 178.0409375 -103.8125 177.0625 C-105.90810337 174.79689611 -105.90810337 174.79689611 -109 174 C-110.59248086 171.58246239 -111.97203973 169.2415013 -113.3125 166.6875 C-113.70767822 165.93637939 -114.10285645 165.18525879 -114.51000977 164.41137695 C-118.93085561 155.6496721 -121.62458388 146.4908965 -124 137 C-124.26683594 135.98035156 -124.53367187 134.96070313 -124.80859375 133.91015625 C-130.30324886 108.10422433 -124.41204024 79.91453582 -112 57 C-111.34 57 -110.68 57 -110 57 C-109.814375 56.030625 -109.62875 55.06125 -109.4375 54.0625 C-107.36182286 46.7531512 -101.30054913 41.15729105 -96 36 C-95.1028125 34.83210938 -95.1028125 34.83210938 -94.1875 33.640625 C-90.40410821 29.07353063 -85.65257045 25.64286367 -81 22 C-80.30777344 21.4534375 -79.61554688 20.906875 -78.90234375 20.34375 C-75.67612983 17.90459047 -73.0684889 16.36986263 -69 16 C-69 15.34 -69 14.68 -69 14 C-47.28174303 1.66752242 -24.48349521 -0.60288945 0 0 Z " fill="#F6CE26" transform="translate(213,87)"/>
<path d="M0 0 C1.84569653 0.25852108 1.84569653 0.25852108 3.8203125 0.21875 C3.8203125 1.20875 3.8203125 2.19875 3.8203125 3.21875 C4.2328125 2.703125 4.6453125 2.1875 5.0703125 1.65625 C5.6478125 1.181875 6.2253125 0.7075 6.8203125 0.21875 C8.7578125 0.59375 8.7578125 0.59375 10.8203125 1.21875 C12.15814643 0.90396554 13.49234959 0.57287344 14.8203125 0.21875 C16.8203125 1.21875 16.8203125 1.21875 17.8203125 3.21875 C21.2853125 2.72375 21.2853125 2.72375 24.8203125 2.21875 C24.4903125 3.53875 24.1603125 4.85875 23.8203125 6.21875 C19.01374624 7.48363586 15.36880896 6.90746309 10.63647461 5.84667969 C1.56027241 3.82292658 -7.05271969 2.83049569 -16.3671875 2.84375 C-17.55175537 2.84536133 -18.73632324 2.84697266 -19.95678711 2.84863281 C-29.28836492 2.97865411 -37.36451916 4.13875142 -46.1796875 7.21875 C-47.12585938 7.53070313 -48.07203125 7.84265625 -49.046875 8.1640625 C-70.4658265 15.91134283 -86.12965893 35.05675975 -95.828125 54.89453125 C-104.13811636 75.33326722 -104.11834961 96.88427682 -97.0234375 117.59375 C-96.13676071 120.35230003 -96.15510332 121.55483114 -97.1796875 124.21875 C-98.1078125 123.2596875 -98.1078125 123.2596875 -99.0546875 122.28125 C-101.00566362 120.17991416 -101.00566362 120.17991416 -103.1796875 119.21875 C-103.1796875 117.21875 -103.1796875 117.21875 -101.1796875 115.21875 C-101.1796875 114.55875 -101.1796875 113.89875 -101.1796875 113.21875 C-102.1696875 113.21875 -103.1596875 113.21875 -104.1796875 113.21875 C-104.16808594 112.08695312 -104.15648438 110.95515625 -104.14453125 109.7890625 C-104.13515296 108.30729331 -104.1260528 106.82552235 -104.1171875 105.34375 C-104.10880859 104.59738281 -104.10042969 103.85101563 -104.09179688 103.08203125 C-103.97280666 99.02029422 -103.97280666 99.02029422 -105.1796875 95.21875 C-105.28063547 92.81084399 -105.32049758 90.43889872 -105.3046875 88.03125 C-105.30275391 87.32742187 -105.30082031 86.62359375 -105.29882812 85.8984375 C-105.24067014 78.64807579 -104.76106441 71.44443443 -104.1796875 64.21875 C-103.5196875 64.21875 -102.8596875 64.21875 -102.1796875 64.21875 C-102.2003125 62.94 -102.2209375 61.66125 -102.2421875 60.34375 C-102.3046875 56.46875 -102.3046875 56.46875 -101.1796875 54.21875 C-100.95500919 52.68206135 -100.77171945 51.13906946 -100.6171875 49.59375 C-100.53339844 48.77648437 -100.44960937 47.95921875 -100.36328125 47.1171875 C-100.30269531 46.49070313 -100.24210937 45.86421875 -100.1796875 45.21875 C-98.6946875 44.72375 -98.6946875 44.72375 -97.1796875 44.21875 C-96.31720322 41.89004244 -96.07250059 39.5488318 -95.6796875 37.09375 C-95.1796875 34.21875 -95.1796875 34.21875 -94.1796875 32.21875 C-92.8596875 32.87875 -91.5396875 33.53875 -90.1796875 34.21875 C-89.8496875 33.22875 -89.5196875 32.23875 -89.1796875 31.21875 C-87.1996875 30.88875 -85.2196875 30.55875 -83.1796875 30.21875 C-83.1796875 29.55875 -83.1796875 28.89875 -83.1796875 28.21875 C-82.5196875 27.88875 -81.8596875 27.55875 -81.1796875 27.21875 C-80.8496875 26.22875 -80.5196875 25.23875 -80.1796875 24.21875 C-79.3959375 23.80625 -78.6121875 23.39375 -77.8046875 22.96875 C-74.29304155 20.6276527 -73.77380134 18.07119179 -72.1796875 14.21875 C-69.6171875 11.28125 -69.6171875 11.28125 -67.1796875 9.21875 C-66.5196875 9.21875 -65.8596875 9.21875 -65.1796875 9.21875 C-64.6846875 10.20875 -64.6846875 10.20875 -64.1796875 11.21875 C-62.5296875 10.88875 -60.8796875 10.55875 -59.1796875 10.21875 C-58.8496875 8.23875 -58.5196875 6.25875 -58.1796875 4.21875 C-60.1596875 4.21875 -62.1396875 4.21875 -64.1796875 4.21875 C-64.1796875 3.55875 -64.1796875 2.89875 -64.1796875 2.21875 C-57.79259073 -0.24899194 -57.79259073 -0.24899194 -54.1796875 1.21875 C-52.16442581 2.18762581 -50.16134784 3.1828821 -48.1796875 4.21875 C-48.1796875 3.55875 -48.1796875 2.89875 -48.1796875 2.21875 C-32.25851395 -0.68884021 -16.12409791 -1.96768652 0 0 Z " fill="#F9A21A" transform="translate(216.1796875,111.78125)"/>
<path d="M0 0 C0 0.66 0 1.32 0 2 C0.61488281 2.12117187 1.22976562 2.24234375 1.86328125 2.3671875 C2.67152344 2.53476563 3.47976562 2.70234375 4.3125 2.875 C5.11300781 3.03742188 5.91351563 3.19984375 6.73828125 3.3671875 C9 4 9 4 12 6 C12 6.66 12 7.32 12 8 C9.36 8 6.72 8 4 8 C3.505 7.01 3.505 7.01 3 6 C2.360625 5.855625 1.72125 5.71125 1.0625 5.5625 C-1 5 -1 5 -3 2 C-6.26809072 1.3698564 -6.26809072 1.3698564 -10.0625 1.25 C-11.07098999 1.19598022 -11.07098999 1.19598022 -12.09985352 1.14086914 C-17.19372065 0.91514115 -21.97422393 1.20645641 -27 2 C-26.505 3.485 -26.505 3.485 -26 5 C-26.33 5.66 -26.66 6.32 -27 7 C-28.98 7 -30.96 7 -33 7 C-33 6.01 -33 5.02 -33 4 C-34.051875 4.6496875 -34.051875 4.6496875 -35.125 5.3125 C-38 7 -38 7 -41.1875 8.4375 C-44.11856434 10.06586908 -44.9295699 10.89575271 -46 14 C-46.66 14 -47.32 14 -48 14 C-48 14.66 -48 15.32 -48 16 C-50.5 17.625 -50.5 17.625 -53 19 C-53.33 18.01 -53.66 17.02 -54 16 C-55.98 17.65 -57.96 19.3 -60 21 C-59.81566406 21.57234375 -59.63132813 22.1446875 -59.44140625 22.734375 C-58.71836274 26.44557179 -59.97932313 29.39761105 -61 33 C-62.485 32.505 -62.485 32.505 -64 32 C-64.495 30.515 -64.495 30.515 -65 29 C-65.47179687 30.12148437 -65.47179687 30.12148437 -65.953125 31.265625 C-66.38109375 32.25046875 -66.8090625 33.2353125 -67.25 34.25 C-67.87648437 35.71179688 -67.87648437 35.71179688 -68.515625 37.203125 C-70 40 -70 40 -72.125 41.8515625 C-74.85443287 44.97903767 -74.67411932 48.1570909 -74.75 52.125 C-74.77892334 52.87966553 -74.80784668 53.63433105 -74.83764648 54.41186523 C-75.03245509 59.94052171 -75.08779798 65.46872743 -75 71 C-72.69 71.33 -70.38 71.66 -68 72 C-68.33 72.680625 -68.66 73.36125 -69 74.0625 C-70.17307315 77.50840238 -70.14180493 80.38397422 -70 84 C-72.50247275 80.97558293 -73.84593265 78.13873818 -75.125 74.4375 C-75.45757812 73.48746094 -75.79015625 72.53742188 -76.1328125 71.55859375 C-80.48846288 58.70746313 -77.88861642 45.17480938 -72.53125 33.01171875 C-64.81908581 17.84315092 -52.08640577 6.81058182 -36.00830078 1.31982422 C-23.77127462 -2.50479682 -12.48529708 -3.09370193 0 0 Z " fill="#EC7B62" transform="translate(220,152)"/>
<path d="M0 0 C0.33 0 0.66 0 1 0 C1.09302055 11.26645507 1.16392697 22.53281753 1.20724869 33.79957962 C1.22804968 39.03221533 1.25622942 44.26458669 1.30175781 49.49707031 C1.345484 54.5545585 1.36919331 59.61179373 1.37950897 64.66945648 C1.38685256 66.59101081 1.40119184 68.5125526 1.42292023 70.43399811 C1.59109613 85.93394884 0.17503597 99.01836746 -10.77734375 110.93359375 C-19.62169455 119.34386598 -29.72346616 122.16677985 -41.64575195 122.11352539 C-42.5047963 122.11367142 -43.36384064 122.11381744 -44.24891663 122.1139679 C-47.07873082 122.11327312 -49.9084786 122.10550111 -52.73828125 122.09765625 C-54.70411646 122.09579052 -56.66995213 122.09436735 -58.63578796 122.09336853 C-63.80279836 122.08955553 -68.96978052 122.07973562 -74.13677979 122.06866455 C-79.41214618 122.05842427 -84.68751715 122.0538653 -89.96289062 122.04882812 C-100.30860614 122.03811227 -110.65430072 122.02105045 -121 122 C-121 121.67 -121 121.34 -121 121 C-119.3439978 120.96241577 -119.3439978 120.96241577 -117.65454102 120.92407227 C-113.52260549 120.82924637 -109.39080898 120.72921543 -105.2590332 120.62768555 C-103.47749098 120.58461884 -101.69591493 120.54292654 -99.91430664 120.50268555 C-97.33990323 120.44429107 -94.76566568 120.3808037 -92.19140625 120.31640625 C-91.40665421 120.29969376 -90.62190216 120.28298126 -89.81336975 120.26576233 C-85.2161331 120.14513104 -80.71956793 119.76499171 -76.15440369 119.22038269 C-72.89225416 118.88668419 -69.65235718 118.87015612 -66.375 118.8671875 C-65.36554321 118.86575241 -65.36554321 118.86575241 -64.33569336 118.86428833 C-62.93424382 118.86361542 -61.53279099 118.86540671 -60.13134766 118.86962891 C-57.97681874 118.87505842 -55.8224919 118.86961952 -53.66796875 118.86328125 C-52.29947871 118.86394087 -50.93098879 118.86521961 -49.5625 118.8671875 C-48.32628906 118.86831543 -47.09007812 118.86944336 -45.81640625 118.87060547 C-43 119 -43 119 -42 120 C-37.20875922 120.34223148 -33.50653726 119.44209192 -29 118 C-30.32 117.01 -31.64 116.02 -33 115 C-28.67265609 112.77076223 -25.71599818 113.07529447 -21 114 C-20.67 113.34 -20.34 112.68 -20 112 C-18.02 112.495 -18.02 112.495 -16 113 C-15.855625 112.21625 -15.71125 111.4325 -15.5625 110.625 C-15 108 -15 108 -14 106 C-12.35 105.34 -10.7 104.68 -9 104 C-8.34 98.72 -7.68 93.44 -7 88 C-5.02 88.495 -5.02 88.495 -3 89 C-0.39178061 85.16438326 -1.35891812 82.4376008 -2 78 C-2.14437699 74.9254404 -2.14040963 71.85488184 -2.1328125 68.77734375 C-2.13376923 67.91363663 -2.13472595 67.0499295 -2.13571167 66.16004944 C-2.1363888 64.34392219 -2.13456724 62.52779245 -2.13037109 60.71166992 C-2.12500966 57.94249003 -2.13033533 55.17347182 -2.13671875 52.40429688 C-2.13605801 50.63281214 -2.13477694 48.86132751 -2.1328125 47.08984375 C-2.13483673 46.26781967 -2.13686096 45.44579559 -2.13894653 44.59886169 C-2.12140199 40.26981585 -1.75217758 36.27358935 -1 32 C-0.85663053 29.47321972 -0.75442963 26.9439154 -0.68359375 24.4140625 C-0.6524221 23.36138687 -0.6524221 23.36138687 -0.62062073 22.28744507 C-0.55573676 20.06672042 -0.4965277 17.84588724 -0.4375 15.625 C-0.39425646 14.11066629 -0.3506404 12.59634317 -0.30664062 11.08203125 C-0.20011914 7.38813345 -0.09868323 3.69411646 0 0 Z " fill="#766CE0" transform="translate(313,192)"/>
<path d="M0 0 C3.11166034 1.02604317 3.94220068 1.89610571 5.5625 4.80859375 C10.64412824 17.6369433 14.14856618 31.02141261 14.7265625 44.87109375 C15.0337335 47.26263937 15.81354264 48.91658088 17 51 C19.9042893 50.89207179 19.9042893 50.89207179 23 50 C30.73901563 39.80115056 29.61390571 22.24850849 30 10 C30.66 10 31.32 10 32 10 C32.02929981 13.83331699 32.04689897 17.66660471 32.0625 21.5 C32.07087891 22.57765625 32.07925781 23.6553125 32.08789062 24.765625 C32.10574867 30.62306419 31.85396378 36.20706663 31 42 C30.77658474 44.59941882 30.57088359 47.19887553 30.37890625 49.80078125 C30 52 30 52 28 55 C24.33326306 57.38764266 22.5398476 58.0435361 18.125 57.6875 C17.09375 57.460625 16.0625 57.23375 15 57 C14.67 54.03 14.34 51.06 14 48 C12.68 48 11.36 48 10 48 C10 46.35 10 44.7 10 43 C9.34 43 8.68 43 8 43 C8.66 40.36 9.32 37.72 10 35 C9.34 35 8.68 35 8 35 C8 32.03 8 29.06 8 26 C7.34 26 6.68 26 6 26 C5.34 24.02 4.68 22.04 4 20 C3.34 20.33 2.68 20.66 2 21 C0.79727181 18.59454362 0.89928528 17.05003047 0.9375 14.375 C0.94652344 13.55773437 0.95554687 12.74046875 0.96484375 11.8984375 C0.97644531 11.27195313 0.98804688 10.64546875 1 10 C0.34 10 -0.32 10 -1 10 C-0.7215625 8.824375 -0.7215625 8.824375 -0.4375 7.625 C0.25962266 5.02910225 0.25962266 5.02910225 -1 3 C-0.67 2.01 -0.34 1.02 0 0 Z " fill="#C043C1" transform="translate(257,182)"/>
<path d="M0 0 C0.33 0 0.66 0 1 0 C0.97905273 1.16047852 0.95810547 2.32095703 0.93652344 3.51660156 C0.86408193 7.82523238 0.81818529 12.13380945 0.78027344 16.44287109 C0.76016739 18.30722101 0.7328782 20.17150794 0.69824219 22.03564453 C0.64967879 24.71662948 0.62702162 27.39678023 0.609375 30.078125 C0.58872986 30.91055725 0.56808472 31.7429895 0.54681396 32.60064697 C0.51913208 37.46450656 0.51913208 37.46450656 3.02441406 41.55761719 C3.67635742 42.03360352 4.32830078 42.50958984 5 43 C4.34 44.32 3.68 45.64 3 47 C4.32 47.33 5.64 47.66 7 48 C6.96519531 49.35544922 6.96519531 49.35544922 6.9296875 50.73828125 C6.91164063 51.91777344 6.89359375 53.09726563 6.875 54.3125 C6.85179688 55.48425781 6.82859375 56.65601563 6.8046875 57.86328125 C6.74679382 61.16393661 6.74679382 61.16393661 9 64 C12.08365871 64.2502157 12.08365871 64.2502157 15 64 C14.67 64.99 14.34 65.98 14 67 C14.495 67.495 14.495 67.495 15 68 C15.07226502 69.85287502 15.0838122 71.70833878 15.0625 73.5625 C15.05347656 74.57441406 15.04445313 75.58632812 15.03515625 76.62890625 C15.02355469 77.41136719 15.01195313 78.19382812 15 79 C16.1446875 79.2165625 16.1446875 79.2165625 17.3125 79.4375 C20 80 20 80 23 81 C22.835 81.556875 22.67 82.11375 22.5 82.6875 C21.95958649 85.18691249 21.92917935 87.45045662 22 90 C21.1028125 89.0409375 21.1028125 89.0409375 20.1875 88.0625 C18.09189663 85.79689611 18.09189663 85.79689611 15 85 C13.40751914 82.58246239 12.02796027 80.2415013 10.6875 77.6875 C10.29232178 76.93637939 9.89714355 76.18525879 9.48999023 75.41137695 C5.06914439 66.6496721 2.37541612 57.4908965 0 48 C-0.26683594 46.98035156 -0.53367187 45.96070313 -0.80859375 44.91015625 C-3.79049822 30.90548767 -3.41778876 13.91528281 0 0 Z " fill="#EE7A5A" transform="translate(89,176)"/>
<path d="M0 0 C1.98 0 3.96 0 6 0 C5.7215625 1.670625 5.7215625 1.670625 5.4375 3.375 C4.68319343 6.82568861 4.68319343 6.82568861 6 9 C5.34 9.66 4.68 10.32 4 11 C3.34 10.67 2.68 10.34 2 10 C2 10.66 2 11.32 2 12 C1.01 12.33 0.02 12.66 -1 13 C-2.25127376 15.90002412 -2.25127376 15.90002412 -1.4375 18.5625 C-1.293125 19.366875 -1.14875 20.17125 -1 21 C-1.66 21.66 -2.32 22.32 -3 23 C-3.99 23 -4.98 23 -6 23 C-6.0928125 23.8353125 -6.0928125 23.8353125 -6.1875 24.6875 C-7.33874823 27.96412957 -9.48159664 29.66587006 -12 32 C-12.66 32.66 -13.32 33.32 -14 34 C-14.33 33.34 -14.66 32.68 -15 32 C-15.66 33.32 -16.32 34.64 -17 36 C-18.485 35.505 -18.485 35.505 -20 35 C-24.23481604 37.33347006 -25.79795605 38.59591211 -28 43 C-33.94 43 -39.88 43 -46 43 C-43.74159038 40.74159038 -42.72327928 40.55281279 -39.6875 39.8125 C-25.14570893 35.59475108 -13.24470052 26.85343562 -5.47265625 13.86328125 C-3.17608853 9.39807133 -1.4910517 4.78803557 0 0 Z " fill="#BE42D8" transform="translate(242,236)"/>
<path d="M0 0 C6.37545549 6.80048586 6.47572489 14.62611395 6.3046875 23.5390625 C5.39716028 33.84764093 -0.42414105 42.07888206 -8.0625 48.8203125 C-14.93836391 53.85081588 -24.17947249 57.80616826 -32.8125 56.75 C-33.864375 56.5025 -34.91625 56.255 -36 56 C-34 54 -34 54 -30.8125 53.9375 C-29.554375 53.958125 -28.29625 53.97875 -27 54 C-24.66175408 53.70307988 -22.32622311 53.37979153 -20 53 C-19.34 50.69 -18.68 48.38 -18 46 C-16.02 46 -14.04 46 -12 46 C-12 45.01 -12 44.02 -12 43 C-11.01 43 -10.02 43 -9 43 C-9 42.01 -9 41.02 -9 40 C-5.77208445 37.8480563 -4.71599191 37.79913557 -1 38 C-0.90912109 36.77023438 -0.90912109 36.77023438 -0.81640625 35.515625 C-0.73261719 34.43796875 -0.64882812 33.3603125 -0.5625 32.25 C-0.48128906 31.18265625 -0.40007812 30.1153125 -0.31640625 29.015625 C0 26 0 26 0.5234375 23.94921875 C1.1333218 21.45469198 1.16970506 19.12852976 1.1875 16.5625 C1.20167969 15.63566406 1.21585938 14.70882812 1.23046875 13.75390625 C0.98447936 10.81454146 0.10889773 8.71163654 -1 6 C-0.625 2.6875 -0.625 2.6875 0 0 Z " fill="#D640C3" transform="translate(225,202)"/>
<path d="M0 0 C5.88812016 3.59286953 8.23977307 6.26715268 10.25 12.8125 C10.47945313 13.46669922 10.70890625 14.12089844 10.9453125 14.79492188 C15.69001164 29.12231394 16.41410955 43.06942387 16.1875 58 C16.17240252 59.75780083 16.15872321 61.51561444 16.14648438 63.2734375 C16.11393333 67.51594953 16.06244141 71.757827 16 76 C15.34 75.67 14.68 75.34 14 75 C14.00523682 74.31075439 14.01047363 73.62150879 14.01586914 72.91137695 C14.06626376 65.27372091 14.06400549 57.63757769 14 50 C13.99419922 49.23606934 13.98839844 48.47213867 13.98242188 47.68505859 C13.89466223 41.92363823 13.63910557 37.56226102 10.4375 32.6875 C6.41321415 26.53543083 7.61106849 19.04398179 8 12 C7.34 12 6.68 12 6 12 C6 11.01 6 10.02 6 9 C5.34 9 4.68 9 4 9 C3.67 9.99 3.34 10.98 3 12 C1.68 11.67 0.36 11.34 -1 11 C-0.67 8.69 -0.34 6.38 0 4 C-0.99 4 -1.98 4 -3 4 C-2 2 -2 2 0 0 Z " fill="#AA4FCC" transform="translate(297,148)"/>
<path d="M0 0 C14.41378518 0.58831776 33.95985965 4.93398968 45 15 C45 15.99 45 16.98 45 18 C45.99 18 46.98 18 48 18 C48.495 19.98 48.495 19.98 49 22 C49.66 22 50.32 22 51 22 C50.67 22.66 50.34 23.32 50 24 C48.02 23.67 46.04 23.34 44 23 C43.855625 22.401875 43.71125 21.80375 43.5625 21.1875 C43.1127561 19.43849596 42.57107659 17.71322977 42 16 C41.071875 16.020625 40.14375 16.04125 39.1875 16.0625 C36 16 36 16 33 15 C32.319375 14.835 31.63875 14.67 30.9375 14.5 C29 14 29 14 27 13 C26.375 10.4375 26.375 10.4375 26 8 C23.69 8 21.38 8 19 8 C19 7.34 19 6.68 19 6 C17.7625 6.020625 16.525 6.04125 15.25 6.0625 C12.29785395 6.07291321 9.85723652 5.74076502 7 5 C6.01 5.33 5.02 5.66 4 6 C3.896875 5.360625 3.79375 4.72125 3.6875 4.0625 C3.460625 3.381875 3.23375 2.70125 3 2 C2.01 1.67 1.02 1.34 0 1 C0 0.67 0 0.34 0 0 Z " fill="#E67179" transform="translate(213,88)"/>
<path d="M0 0 C1.84569653 0.25852108 1.84569653 0.25852108 3.8203125 0.21875 C3.8203125 1.20875 3.8203125 2.19875 3.8203125 3.21875 C4.4390625 2.4453125 4.4390625 2.4453125 5.0703125 1.65625 C5.6478125 1.181875 6.2253125 0.7075 6.8203125 0.21875 C8.7578125 0.59375 8.7578125 0.59375 10.8203125 1.21875 C12.15814643 0.90396554 13.49234959 0.57287344 14.8203125 0.21875 C16.8203125 1.21875 16.8203125 1.21875 17.8203125 3.21875 C21.2853125 2.72375 21.2853125 2.72375 24.8203125 2.21875 C24.4903125 3.53875 24.1603125 4.85875 23.8203125 6.21875 C17.39687717 7.90912772 11.79435681 6.15895888 5.49951172 4.66967773 C-3.10054341 2.8440399 -11.6300177 2.99363758 -20.3671875 3.09375 C-21.90689518 3.10380603 -23.44660926 3.11292721 -24.98632812 3.12109375 C-28.71758337 3.14288532 -32.44859304 3.17726858 -36.1796875 3.21875 C-27.48136323 -3.83445642 -10.55313101 -1.28783972 0 0 Z " fill="#EC7669" transform="translate(216.1796875,111.78125)"/>
<path d="M0 0 C0.66 0 1.32 0 2 0 C2.02929981 3.83331699 2.04689897 7.66660471 2.0625 11.5 C2.07087891 12.57765625 2.07925781 13.6553125 2.08789062 14.765625 C2.10574867 20.62306419 1.85396378 26.20706663 1 32 C0.77658474 34.59941882 0.57088359 37.19887553 0.37890625 39.80078125 C0 42 0 42 -2 45 C-5.66673694 47.38764266 -7.4601524 48.0435361 -11.875 47.6875 C-12.90625 47.460625 -13.9375 47.23375 -15 47 C-15 45.35 -15 43.7 -15 42 C-12.03 42 -9.06 42 -6 42 C-5.34964629 39.48025747 -4.70462507 36.95934065 -4.0625 34.4375 C-3.88009766 33.73302734 -3.69769531 33.02855469 -3.50976562 32.30273438 C-1.55351399 24.58443248 -0.80559058 16.99756753 -0.4375 9.0625 C-0.39431641 8.18787109 -0.35113281 7.31324219 -0.30664062 6.41210938 C-0.20153099 4.27488005 -0.10036015 2.13745762 0 0 Z " fill="#A64BE1" transform="translate(287,192)"/>
<path d="M0 0 C0 0.66 0 1.32 0 2 C-7.68603381 2.94805703 -15.25048536 3.07483344 -22.97998047 2.875 C-24.98684635 2.84397266 -26.99472608 2.91426879 -29 3 C-29.66 3.66 -30.32 4.32 -31 5 C-31.845625 5.33 -32.69125 5.66 -33.5625 6 C-36.14841441 6.74870114 -36.14841441 6.74870114 -37 9 C-40.33333333 9 -43.66666667 9 -47 9 C-48.62926518 9.26681346 -50.25391084 9.56232702 -51.875 9.875 C-53.17050781 10.11863281 -53.17050781 10.11863281 -54.4921875 10.3671875 C-57.00321231 10.88931592 -57.00321231 10.88931592 -59.0703125 12.1328125 C-61.46363608 13.20835467 -62.57819007 12.86493212 -65 12 C-43.21888277 2.30575275 -23.78530002 -0.37805221 0 0 Z " fill="#EA9E40" transform="translate(213,87)"/>
<path d="M0 0 C0.33 0 0.66 0 1 0 C1 29.04 1 58.08 1 88 C0.67 88 0.34 88 0 88 C-2.42080754 78.85260075 -2.27095775 69.87670128 -2.20581055 60.48535156 C-2.18745143 57.74274462 -2.18530208 55.00047479 -2.18554688 52.2578125 C-2.18063393 50.4999971 -2.17480658 48.74218397 -2.16796875 46.984375 C-2.16685593 46.17176208 -2.1657431 45.35914917 -2.16459656 44.52191162 C-2.12889982 40.22421552 -1.74188739 36.24291302 -1 32 C-0.85663053 29.47321972 -0.75442963 26.9439154 -0.68359375 24.4140625 C-0.66281265 23.71227875 -0.64203156 23.010495 -0.62062073 22.28744507 C-0.55573676 20.06672042 -0.4965277 17.84588724 -0.4375 15.625 C-0.39425646 14.11066629 -0.3506404 12.59634317 -0.30664062 11.08203125 C-0.20011914 7.38813345 -0.09868323 3.69411646 0 0 Z " fill="#9379E5" transform="translate(313,192)"/>
<path d="M0 0 C7.16846871 -0.28673875 12.59559154 0.55147237 19 4 C19.33 3.67 19.66 3.34 20 3 C25.8410596 2.62913907 25.8410596 2.62913907 28 3 C28.99 4.485 28.99 4.485 30 6 C32.76628915 6.2667616 35.30619631 6.34804189 38.0703125 6.29296875 C38.86654022 6.28872391 39.66276794 6.28447906 40.48312378 6.28010559 C43.03075729 6.26328834 45.57760489 6.22563179 48.125 6.1875 C49.85024901 6.17245705 51.57551039 6.15876796 53.30078125 6.14648438 C57.53415782 6.11337501 61.76694559 6.06157285 66 6 C66.495 6.99 66.495 6.99 67 8 C60.70532177 8.07691467 54.41076744 8.12895703 48.11572266 8.16479492 C45.98025993 8.17975635 43.84482725 8.20013284 41.70947266 8.22631836 C28.56935455 8.38326122 16.59133997 8.19711332 4 4 C3.67 3.34 3.34 2.68 3 2 C2.01 1.34 1.02 0.68 0 0 Z " fill="#A654CF" transform="translate(163,305)"/>
<path d="M0 0 C0.66 0 1.32 0 2 0 C2 0.66 2 1.32 2 2 C3.32 2 4.64 2 6 2 C6 4.31 6 6.62 6 9 C6.66 9.33 7.32 9.66 8 10 C8.625 12.5625 8.625 12.5625 9 15 C9.99 14.34 10.98 13.68 12 13 C12 13.99 12 14.98 12 16 C12.33 16.66 12.66 17.32 13 18 C13.33 18 13.66 18 14 18 C14.38281159 23.23175837 13.21854707 26.37802694 11 31 C11.99 31.33 12.98 31.66 14 32 C13.67 32.99 13.34 33.98 13 35 C13.0450447 37.03110653 13.19057866 39.03780309 13.35546875 41.0625 C13 43 13 43 10.98828125 44.75 C10.33214844 45.1625 9.67601562 45.575 9 46 C9.03480469 44.47632813 9.03480469 44.47632813 9.0703125 42.921875 C9.27257016 30.54944157 8.81789041 20.38085616 2.33203125 9.4921875 C0.58595378 6.22533288 0.16301326 3.66779845 0 0 Z " fill="#C24DC4" transform="translate(234,190)"/>
<path d="M0 0 C0.66 0.33 1.32 0.66 2 1 C2 5.62 2 10.24 2 15 C2.99 15 3.98 15 5 15 C5.33 15.66 5.66 16.32 6 17 C6.99 16.01 7.98 15.02 9 14 C10.15837626 18.05431692 9.83691257 20.21812119 8 24 C8.66 24 9.32 24 10 24 C9.98839844 24.75925781 9.97679687 25.51851562 9.96484375 26.30078125 C9.95582031 27.29464844 9.94679688 28.28851563 9.9375 29.3125 C9.92589844 30.29863281 9.91429687 31.28476563 9.90234375 32.30078125 C9.87670138 35.09963849 9.87670138 35.09963849 11 38 C11.03920815 39.99961564 11.04443347 42.00049364 11 44 C10.34 44 9.68 44 9 44 C8.82984375 43.21238281 8.6596875 42.42476562 8.484375 41.61328125 C5.33657043 27.06832416 5.33657043 27.06832416 -0.3125 13.375 C-0.869375 12.26125 -1.42625 11.1475 -2 10 C-1.67 9.01 -1.34 8.02 -1 7 C-1.185625 6.34 -1.37125 5.68 -1.5625 5 C-1.706875 4.34 -1.85125 3.68 -2 3 C-1.34 2.01 -0.68 1.02 0 0 Z " fill="#D939CC" transform="translate(278,148)"/>
<path d="M0 0 C0.66 0.33 1.32 0.66 2 1 C0.625 2.5 0.625 2.5 -1 4 C-1.66 4 -2.32 4 -3 4 C-3.2475 4.60714844 -3.495 5.21429688 -3.75 5.83984375 C-5.21356241 8.36906254 -6.47041971 9.15356098 -9 10.5625 C-12.02275544 12.2572434 -12.99832634 12.9974895 -15 16 C-14.01 16.99 -13.02 17.98 -12 19 C-19.02522372 27.40346925 -19.02522372 27.40346925 -25 28 C-26.32 28 -27.64 28 -29 28 C-22.53848551 17.42661266 -11.91820247 4.50818963 0 0 Z " fill="#FCF7E5" transform="translate(157,124)"/>
<path d="M0 0 C1.14340844 3.42222946 0.81006578 5.75158758 0.0625 9.25 C-2.60550442 24.4484252 -0.81946498 38.85129142 4.15625 53.375 C5.04292679 56.13355003 5.02458418 57.33608114 4 60 C3.071875 59.0409375 3.071875 59.0409375 2.125 58.0625 C0.17402388 55.96116416 0.17402388 55.96116416 -2 55 C-2 53 -2 53 0 51 C0 50.34 0 49.68 0 49 C-0.99 49 -1.98 49 -3 49 C-2.98839844 47.86820313 -2.97679688 46.73640625 -2.96484375 45.5703125 C-2.95546546 44.08854331 -2.9463653 42.60677235 -2.9375 41.125 C-2.92912109 40.37863281 -2.92074219 39.63226563 -2.91210938 38.86328125 C-2.79311916 34.80154422 -2.79311916 34.80154422 -4 31 C-4.1265591 28.50708008 -4.19035802 26.05583303 -4.1875 23.5625 C-4.18669434 22.84545898 -4.18588867 22.12841797 -4.18505859 21.38964844 C-4.10045975 13.97480819 -3.60908412 6.61159949 0 0 Z " fill="#E98E44" transform="translate(115,176)"/>
<path d="M0 0 C1.00945679 -0.00143509 1.00945679 -0.00143509 2.03930664 -0.00289917 C3.44075618 -0.00357208 4.84220901 -0.00178079 6.24365234 0.00244141 C8.39818126 0.00787092 10.5525081 0.00243202 12.70703125 -0.00390625 C14.07552129 -0.00324663 15.44401121 -0.00196789 16.8125 0 C18.04871094 0.00112793 19.28492188 0.00225586 20.55859375 0.00341797 C23.375 0.1328125 23.375 0.1328125 24.375 1.1328125 C25.88969448 1.36474115 27.41254562 1.54496488 28.9375 1.6953125 C30.17693359 1.82099609 30.17693359 1.82099609 31.44140625 1.94921875 C32.07949219 2.00980469 32.71757812 2.07039063 33.375 2.1328125 C33.375 2.4628125 33.375 2.7928125 33.375 3.1328125 C4.335 3.1328125 -24.705 3.1328125 -54.625 3.1328125 C-54.625 2.8028125 -54.625 2.4728125 -54.625 2.1328125 C-52.9689978 2.09522827 -52.9689978 2.09522827 -51.27954102 2.05688477 C-47.14760549 1.96205887 -43.01580898 1.86202793 -38.8840332 1.76049805 C-37.10249098 1.71743134 -35.32091493 1.67573904 -33.53930664 1.63549805 C-30.96490323 1.57710357 -28.39066568 1.5136162 -25.81640625 1.44921875 C-24.63927818 1.42415001 -24.63927818 1.42415001 -23.43836975 1.39857483 C-18.8411331 1.27794354 -14.34456793 0.89780421 -9.77940369 0.35319519 C-6.51725416 0.01949669 -3.27735718 0.00296862 0 0 Z " fill="#977DE6" transform="translate(246.625,310.8671875)"/>
<path d="M0 0 C0 0.66 0 1.32 0 2 C1.32 2.33 2.64 2.66 4 3 C4 3.66 4 4.32 4 5 C4.78375 5.12375 5.5675 5.2475 6.375 5.375 C9 6 9 6 11 8 C11.33 8.66 11.66 9.32 12 10 C11.67 10.66 11.34 11.32 11 12 C11.99 12 12.98 12 14 12 C14 12.66 14 13.32 14 14 C14.53625 14.103125 15.0725 14.20625 15.625 14.3125 C18.62502044 15.18092697 21.2379535 16.55620296 24 18 C19.44869103 19.48031967 16.36450352 17.8350914 12.1875 15.9375 C11.46916992 15.61749023 10.75083984 15.29748047 10.01074219 14.96777344 C4.88877916 12.60432998 1.01118142 10.01118142 -3 6 C-3.804375 5.4225 -4.60875 4.845 -5.4375 4.25 C-5.953125 3.8375 -6.46875 3.425 -7 3 C-7 2.34 -7 1.68 -7 1 C-4 0 -4 0 0 0 Z " fill="#DB45BF" transform="translate(143,289)"/>
<path d="M0 0 C0.33 0 0.66 0 1 0 C0.97905273 1.16047852 0.95810547 2.32095703 0.93652344 3.51660156 C0.86408193 7.82523238 0.81818529 12.13380945 0.78027344 16.44287109 C0.76016739 18.30722101 0.7328782 20.17150794 0.69824219 22.03564453 C0.64967879 24.71662948 0.62702162 27.39678023 0.609375 30.078125 C0.58872986 30.91055725 0.56808472 31.7429895 0.54681396 32.60064697 C0.51913208 37.46450656 0.51913208 37.46450656 3.02441406 41.55761719 C3.67635742 42.03360352 4.32830078 42.50958984 5 43 C4.34 44.32 3.68 45.64 3 47 C4.32 47.33 5.64 47.66 7 48 C7 51.3 7 54.6 7 58 C6.01 58 5.02 58 4 58 C4 57.34 4 56.68 4 56 C3.34 56 2.68 56 2 56 C-2.51519136 37.77797774 -4.53623509 18.46895716 0 0 Z " fill="#EB9B42" transform="translate(89,176)"/>
<path d="M0 0 C1.60332791 -0.08121924 3.20784026 -0.13929134 4.8125 -0.1875 C6.15248047 -0.23970703 6.15248047 -0.23970703 7.51953125 -0.29296875 C10.48865573 0.05771524 11.07734673 0.81516674 13 3 C16.10007201 4.20049407 16.10007201 4.20049407 19 5 C19.33 6.65 19.66 8.3 20 10 C22.97 10 25.94 10 29 10 C29 10.66 29 11.32 29 12 C29.99 12 30.98 12 32 12 C32 12.66 32 13.32 32 14 C32.66 14.33 33.32 14.66 34 15 C34.495 16.485 34.495 16.485 35 18 C35.66 18.66 36.32 19.32 37 20 C36.67 20.66 36.34 21.32 36 22 C32.00312466 21.43300141 29.86929239 19.41832005 26.875 16.8125 C18.60751295 9.89368789 9.87556132 5.2431119 0 1 C0 0.67 0 0.34 0 0 Z " fill="#D87B97" transform="translate(230,118)"/>
<path d="M0 0 C3.73643262 1.86821631 4.38030802 6.90728874 5.76171875 10.65625 C6.45396481 12.52553274 7.16753846 14.38841568 7.95703125 16.21875 C10.43015619 21.96907006 10.7001164 27.79551164 11 34 C9.515 34.495 9.515 34.495 8 35 C8 32.03 8 29.06 8 26 C7.34 26 6.68 26 6 26 C5.34 24.02 4.68 22.04 4 20 C3.34 20.33 2.68 20.66 2 21 C0.79727181 18.59454362 0.89928528 17.05003047 0.9375 14.375 C0.94652344 13.55773437 0.95554687 12.74046875 0.96484375 11.8984375 C0.97644531 11.27195313 0.98804688 10.64546875 1 10 C0.34 10 -0.32 10 -1 10 C-0.7215625 8.824375 -0.7215625 8.824375 -0.4375 7.625 C0.25962266 5.02910225 0.25962266 5.02910225 -1 3 C-0.67 2.01 -0.34 1.02 0 0 Z " fill="#D839CA" transform="translate(257,182)"/>
<path d="M0 0 C2.52742845 1.89557134 2.97169284 2.80589378 3.4375 6 C3 9 3 9 1 10.875 C0.01 11.431875 0.01 11.431875 -1 12 C-0.83467773 12.87180908 -0.66935547 13.74361816 -0.49902344 14.6418457 C0.2743844 19.84645669 -0.04363338 24.94391171 -0.25 30.1875 C-0.27707031 31.27998047 -0.30414063 32.37246094 -0.33203125 33.49804688 C-0.37199219 34.54412109 -0.41195312 35.59019531 -0.453125 36.66796875 C-0.48567383 37.61953857 -0.51822266 38.5711084 -0.55175781 39.55151367 C-1.06298473 42.34404895 -1.81280555 43.25906025 -4 45 C-4.05895136 40.75006008 -4.0939116 36.50022784 -4.125 32.25 C-4.14175781 31.06277344 -4.15851563 29.87554687 -4.17578125 28.65234375 C-4.22929898 18.85860004 -3.58402835 9.21607289 0 0 Z " fill="#FBA119" transform="translate(93,166)"/>
<path d="M0 0 C0.96723345 3.38531706 0.92684799 5.57066244 0 9 C-0.33 9.33 -0.66 9.66 -1 10 C-1.24213268 12.65150227 -1.42574149 15.2801164 -1.5625 17.9375 C-1.6049585 18.70570068 -1.64741699 19.47390137 -1.69116211 20.26538086 C-1.98320085 25.85054832 -2.08878222 31.40671998 -2 37 C0.31 37.33 2.62 37.66 5 38 C4.505 39.0209375 4.505 39.0209375 4 40.0625 C2.82692685 43.50840238 2.85819507 46.38397422 3 50 C0.49752725 46.97558293 -0.84593265 44.13873818 -2.125 40.4375 C-2.45757812 39.48746094 -2.79015625 38.53742188 -3.1328125 37.55859375 C-7.38254844 25.01995843 -4.88499589 11.99044445 0 0 Z " fill="#E08D8E" transform="translate(147,186)"/>
<path d="M0 0 C1.19882813 0.00322266 2.39765625 0.00644531 3.6328125 0.00976562 C5.4890625 0.02233398 5.4890625 0.02233398 7.3828125 0.03515625 C8.64351562 0.03966797 9.90421875 0.04417969 11.203125 0.04882812 C14.30473636 0.06057665 17.40624975 0.07700458 20.5078125 0.09765625 C20.5078125 0.42765625 20.5078125 0.75765625 20.5078125 1.09765625 C12.2578125 1.09765625 4.0078125 1.09765625 -4.4921875 1.09765625 C-4.4921875 1.75765625 -4.4921875 2.41765625 -4.4921875 3.09765625 C-5.2965625 3.22140625 -6.1009375 3.34515625 -6.9296875 3.47265625 C-7.7753125 3.67890625 -8.6209375 3.88515625 -9.4921875 4.09765625 C-9.8221875 4.75765625 -10.1521875 5.41765625 -10.4921875 6.09765625 C-13.5546875 6.72265625 -13.5546875 6.72265625 -16.4921875 7.09765625 C-16.4921875 8.08765625 -16.4921875 9.07765625 -16.4921875 10.09765625 C-17.8121875 10.09765625 -19.1321875 10.09765625 -20.4921875 10.09765625 C-20.8221875 9.43765625 -21.1521875 8.77765625 -21.4921875 8.09765625 C-25.52211532 8.6507836 -29.51241674 9.25346245 -33.4921875 10.09765625 C-31.32160564 7.66100306 -29.56417897 6.53970984 -26.47265625 5.52734375 C-25.69728516 5.27082031 -24.92191406 5.01429687 -24.12304688 4.75 C-23.31673828 4.49347656 -22.51042969 4.23695312 -21.6796875 3.97265625 C-20.88498047 3.70839844 -20.09027344 3.44414063 -19.27148438 3.171875 C-12.79742587 1.06204948 -6.84537722 -0.03259703 0 0 Z " fill="#FAFDF4" transform="translate(192.4921875,113.90234375)"/>
<path d="M0 0 C0.66668701 0.00008057 1.33337402 0.00016113 2.02026367 0.00024414 C4.02396745 -0.00191787 6.02763238 -0.02035551 8.03125 -0.0390625 C14.7238606 -0.04918748 20.60528793 0.15889431 26.99414062 2.18554688 C27.64898437 2.35159424 28.30382812 2.5176416 28.97851562 2.6887207 C30.66940475 3.11884063 32.33558357 3.64397722 33.99414062 4.18554688 C34.48914063 5.17554687 34.48914063 5.17554687 34.99414062 6.18554688 C30.58533101 5.68643635 26.28953212 5.05172116 21.94335938 4.15820312 C15.96352339 3.06160857 10.18468596 2.91988263 4.11914062 2.99804688 C2.55292969 3.00771484 2.55292969 3.00771484 0.95507812 3.01757812 C-6.39959602 3.09075896 -13.69040093 3.38541861 -21.00585938 4.18554688 C-21.00585938 3.52554688 -21.00585938 2.86554688 -21.00585938 2.18554688 C-20.29558594 2.12496094 -19.5853125 2.064375 -18.85351562 2.00195312 C-17.47486328 1.87626953 -17.47486328 1.87626953 -16.06835938 1.74804688 C-15.15183594 1.66683594 -14.2353125 1.585625 -13.29101562 1.50195312 C-2.5269968 0.01155052 -2.5269968 0.01155052 0 0 Z " fill="#FEF1D2" transform="translate(197.005859375,84.814453125)"/>
<path d="M0 0 C0 0.66 0 1.32 0 2 C0.61488281 2.12117187 1.22976562 2.24234375 1.86328125 2.3671875 C2.67152344 2.53476563 3.47976562 2.70234375 4.3125 2.875 C5.11300781 3.03742188 5.91351563 3.19984375 6.73828125 3.3671875 C9 4 9 4 12 6 C12 6.66 12 7.32 12 8 C9.36 8 6.72 8 4 8 C3.67 7.34 3.34 6.68 3 6 C2.360625 5.855625 1.72125 5.71125 1.0625 5.5625 C-1 5 -1 5 -3 2 C-6.23745154 1.44616931 -6.23745154 1.44616931 -10 1.375 C-11.3555316 1.31254738 -12.71100145 1.24874026 -14.06640625 1.18359375 C-15.36449219 1.12300781 -16.66257813 1.06242188 -18 1 C-21.33873193 0.71196845 -24.66925462 0.36834125 -28 0 C-28 -0.33 -28 -0.66 -28 -1 C-18.62875081 -3.08249982 -9.23541402 -2.28842117 0 0 Z " fill="#E08A85" transform="translate(220,152)"/>
<path d="M0 0 C2.60466582 0.47657292 5.20871714 0.95614719 7.8125 1.4375 C8.91948242 1.63956055 8.91948242 1.63956055 10.04882812 1.84570312 C13.11315076 2.41419737 16.03928953 3.01309651 19 4 C20.69867188 4.14777936 22.40177489 4.24747066 24.10546875 4.31640625 C25.08837891 4.35830078 26.07128906 4.40019531 27.08398438 4.44335938 C28.62022461 4.50233398 28.62022461 4.50233398 30.1875 4.5625 C31.22326172 4.60568359 32.25902344 4.64886719 33.32617188 4.69335938 C35.8839819 4.79944366 38.44188845 4.90150146 41 5 C35.70614014 9.29226129 30.59554805 8.4471558 24 8 C20.29521929 7.48768717 16.65864841 6.76931451 13 6 C8.59781551 5.27833041 4.4611652 4.89119109 0 5 C-0.33 4.01 -0.66 3.02 -1 2 C-0.67 1.34 -0.34 0.68 0 0 Z " fill="#CA46BF" transform="translate(154,274)"/>
<path d="M0 0 C3.21277529 4.07211945 5.63712478 8.52117607 8.18359375 13.02734375 C9.93605009 16.04655036 9.93605009 16.04655036 12.20703125 18.703125 C14.3011584 21.38579769 14.37926955 22.68139142 14 26 C12.02 25.34 10.04 24.68 8 24 C7.938125 22.1128125 7.938125 22.1128125 7.875 20.1875 C7.69154827 17.96868714 7.69154827 17.96868714 7 16 C6.01 15.505 5.02 15.01 4 14.5 C3.01 14.005 2.02 13.51 1 13 C0.33948921 10.0748808 0.01704389 7.92018696 0 5 C-0.020625 4.01 -0.04125 3.02 -0.0625 2 C-0.041875 1.34 -0.02125 0.68 0 0 Z " fill="#D88382" transform="translate(120,234)"/>
<path d="M0 0 C1.485 0.99 1.485 0.99 3 2 C3.4765625 4.4609375 3.4765625 4.4609375 3.625 7.375 C3.79603352 11.14609929 3.79603352 11.14609929 4.50608826 14.83221436 C5.09460161 17.41520779 5.11971645 19.76136118 5.11352539 22.41113281 C5.11341209 24.03236053 5.11341209 24.03236053 5.11329651 25.68634033 C5.10813522 26.84687927 5.10297394 28.00741821 5.09765625 29.203125 C5.0962413 30.39605164 5.09482635 31.58897827 5.09336853 32.8180542 C5.08777038 36.62872829 5.07521819 40.43934366 5.0625 44.25 C5.05748476 46.83333248 5.0529219 49.41666589 5.04882812 52 C5.03780155 58.33335337 5.02106524 64.66667249 5 71 C4.67 71 4.34 71 4 71 C3.99413376 70.42609528 3.98826752 69.85219055 3.98222351 69.26089478 C3.9174073 63.19153652 3.83278394 57.12266629 3.73754883 51.05371094 C3.70465432 48.8001964 3.67651695 46.54660647 3.65356445 44.29296875 C3.52281936 31.7859483 3.0660267 19.71756722 0.63208008 7.42724609 C0 4 0 4 0 0 Z " fill="#FEF3FF" transform="translate(310,170)"/>
<path d="M0 0 C0.88816406 0.01353516 1.77632812 0.02707031 2.69140625 0.04101562 C4.87822578 0.07628691 7.06379966 0.12557248 9.25 0.1875 C9.25 0.5175 9.25 0.8475 9.25 1.1875 C7.92935547 1.26097656 7.92935547 1.26097656 6.58203125 1.3359375 C4.83986328 1.44808594 4.83986328 1.44808594 3.0625 1.5625 C1.91394531 1.63210937 0.76539063 1.70171875 -0.41796875 1.7734375 C-3.54959117 2.16259574 -5.90285809 2.8684851 -8.75 4.1875 C-8.42 5.5075 -8.09 6.8275 -7.75 8.1875 C-5.44 8.5175 -3.13 8.8475 -0.75 9.1875 C-1.08 10.1775 -1.41 11.1675 -1.75 12.1875 C-2.74 12.5175 -3.73 12.8475 -4.75 13.1875 C-5.08 14.1775 -5.41 15.1675 -5.75 16.1875 C-6.41 16.1875 -7.07 16.1875 -7.75 16.1875 C-7.75 15.1975 -7.75 14.2075 -7.75 13.1875 C-8.41 12.8575 -9.07 12.5275 -9.75 12.1875 C-9.75 11.1975 -9.75 10.2075 -9.75 9.1875 C-11.07 8.8575 -12.39 8.5275 -13.75 8.1875 C-14 5.875 -14 5.875 -13.75 3.1875 C-10.14532067 -1.05801122 -5.09061057 -0.14662763 0 0 Z " fill="#E2727F" transform="translate(197.75,175.8125)"/>
<path d="M0 0 C9.12260584 0.37235126 18.75560411 1.87780206 27 6 C26.67 6.66 26.34 7.32 26 8 C23.69 8 21.38 8 19 8 C19 7.34 19 6.68 19 6 C17.7625 6.020625 16.525 6.04125 15.25 6.0625 C12.29785395 6.07291321 9.85723652 5.74076502 7 5 C6.01 5.33 5.02 5.66 4 6 C3.896875 5.360625 3.79375 4.72125 3.6875 4.0625 C3.460625 3.381875 3.23375 2.70125 3 2 C2.01 1.67 1.02 1.34 0 1 C0 0.67 0 0.34 0 0 Z " fill="#EA874C" transform="translate(213,88)"/>
<path d="M0 0 C1.55078125 1.20703125 1.55078125 1.20703125 3 3 C2.85546875 5.26171875 2.85546875 5.26171875 2.1875 7.6875 C1.97480469 8.49574219 1.76210937 9.30398437 1.54296875 10.13671875 C1.27419922 11.05904297 1.27419922 11.05904297 1 12 C0.01 11.67 -0.98 11.34 -2 11 C-2.33 10.01 -2.66 9.02 -3 8 C-3.33773437 8.77085937 -3.67546875 9.54171875 -4.0234375 10.3359375 C-4.46945313 11.33882812 -4.91546875 12.34171875 -5.375 13.375 C-5.81585938 14.37273437 -6.25671875 15.37046875 -6.7109375 16.3984375 C-8 19 -8 19 -10 21 C-10.97110486 17.97878489 -11.13617383 15.99536737 -10 13 C-9.34 12.67 -8.68 12.34 -8 12 C-7.690625 11.175 -7.38125 10.35 -7.0625 9.5 C-6.5365625 8.2625 -6.5365625 8.2625 -6 7 C-5.01 6.67 -4.02 6.34 -3 6 C-2.87625 5.195625 -2.7525 4.39125 -2.625 3.5625 C-2.41875 2.716875 -2.2125 1.87125 -2 1 C-1.34 0.67 -0.68 0.34 0 0 Z " fill="#F57A4E" transform="translate(158,173)"/>
<path d="M0 0 C-2.63739644 1.38061586 -5.20956606 2.47123047 -8.046875 3.3671875 C-9.1915625 3.73650391 -9.1915625 3.73650391 -10.359375 4.11328125 C-11.93668235 4.61585467 -13.51479446 5.11591025 -15.09375 5.61328125 C-19.04669597 6.89334597 -22.75134665 8.2976077 -26.453125 10.1953125 C-30 12 -30 12 -32 12 C-32 12.66 -32 13.32 -32 14 C-35.465 15.485 -35.465 15.485 -39 17 C-38.75 15.125 -38.75 15.125 -38 13 C-35.41847698 11.27898465 -34.15081975 11 -31 11 C-31 10.01 -31 9.02 -31 8 C-30.36191406 7.89042969 -29.72382813 7.78085938 -29.06640625 7.66796875 C-28.24011719 7.50941406 -27.41382813 7.35085937 -26.5625 7.1875 C-25.32693359 6.96126953 -25.32693359 6.96126953 -24.06640625 6.73046875 C-23.38449219 6.48941406 -22.70257813 6.24835938 -22 6 C-21.67 5.01 -21.34 4.02 -21 3 C-20.15695313 2.86722656 -19.31390625 2.73445313 -18.4453125 2.59765625 C-17.34960938 2.42105469 -16.25390625 2.24445313 -15.125 2.0625 C-14.03445312 1.88847656 -12.94390625 1.71445313 -11.8203125 1.53515625 C-3.39827586 -0.06293103 -3.39827586 -0.06293103 0 0 Z " fill="#FEF5C8" transform="translate(176,89)"/>
<path d="M0 0 C0.66 0 1.32 0 2 0 C2.05821935 3.89577024 2.0936703 7.79142802 2.125 11.6875 C2.14175781 12.79029297 2.15851563 13.89308594 2.17578125 15.02929688 C2.18222656 16.09599609 2.18867188 17.16269531 2.1953125 18.26171875 C2.20578613 19.24100342 2.21625977 20.22028809 2.22705078 21.22924805 C1.98456977 24.18829852 1.20672224 26.30437523 0 29 C-0.41088563 30.59535222 -0.78804166 32.19991364 -1.125 33.8125 C-1.29257812 34.60269531 -1.46015625 35.39289063 -1.6328125 36.20703125 C-1.75398438 36.79871094 -1.87515625 37.39039063 -2 38 C-2.66 38 -3.32 38 -4 38 C-3.80083984 36.82244141 -3.80083984 36.82244141 -3.59765625 35.62109375 C-3.42105469 34.57050781 -3.24445313 33.51992187 -3.0625 32.4375 C-2.88847656 31.40496094 -2.71445312 30.37242187 -2.53515625 29.30859375 C-2.35855469 28.21675781 -2.18195313 27.12492187 -2 26 C-1.73703125 24.37578125 -1.73703125 24.37578125 -1.46875 22.71875 C-0.89528513 18.16926204 -0.64988193 13.64089729 -0.4375 9.0625 C-0.39431641 8.18787109 -0.35113281 7.31324219 -0.30664062 6.41210938 C-0.20153099 4.27488005 -0.10036015 2.13745762 0 0 Z " fill="#AF59C8" transform="translate(287,192)"/>
<path d="M0 0 C-0.33333333 1.33333333 -0.66666667 2.66666667 -1 4 C-1.0825 4.70125 -1.165 5.4025 -1.25 6.125 C-1.4975 6.74375 -1.745 7.3625 -2 8 C-3.65204456 8.70211894 -5.31923769 9.36971413 -7 10 C-7.33 10.99 -7.66 11.98 -8 13 C-8.66 13 -9.32 13 -10 13 C-12 10 -12 10 -11.6875 6.9375 C-11 4 -11 4 -10 2 C-8.68 2.66 -7.36 3.32 -6 4 C-5.67 3.01 -5.34 2.02 -5 1 C-3 0 -3 0 0 0 Z " fill="#FAA81A" transform="translate(132,142)"/>
<path d="M0 0 C3.60153162 1.65475777 5.2974477 3.08925078 6.8125 6.6875 C7.204375 7.780625 7.59625 8.87375 8 10 C10.31 10 12.62 10 15 10 C14.835 10.721875 14.67 11.44375 14.5 12.1875 C14.02412881 14.86427545 13.922557 17.28949487 14 20 C13.401875 19.360625 12.80375 18.72125 12.1875 18.0625 C10.09189663 15.79689611 10.09189663 15.79689611 7 15 C5.64391082 12.86568405 4.46036423 10.80311181 3.3125 8.5625 C2.99216797 7.96373047 2.67183594 7.36496094 2.34179688 6.74804688 C0 2.28914579 0 2.28914579 0 0 Z " fill="#DF7F6F" transform="translate(97,246)"/>
<path d="M0 0 C0.66 0 1.32 0 2 0 C1.89171875 0.88171875 1.89171875 0.88171875 1.78125 1.78125 C0.05530862 18.46535004 0.27389676 35.44865889 3 52 C-3.55536525 44.20658634 -2.18604152 33.00628072 -1.6875 23.4375 C-1.63916016 22.28314453 -1.59082031 21.12878906 -1.54101562 19.93945312 C-1.24197067 13.26582962 -0.75306559 6.63774877 0 0 Z " fill="#FEEBC4" transform="translate(87,176)"/>
<path d="M0 0 C0.82177734 0.36544922 0.82177734 0.36544922 1.66015625 0.73828125 C1.00015625 2.05828125 0.34015625 3.37828125 -0.33984375 4.73828125 C-1.32984375 4.40828125 -2.31984375 4.07828125 -3.33984375 3.73828125 C-7.57465979 6.07175131 -9.1377998 7.33419336 -11.33984375 11.73828125 C-17.27984375 11.73828125 -23.21984375 11.73828125 -29.33984375 11.73828125 C-26.69686905 9.09530655 -25.15176644 9.42273519 -21.46484375 9.11328125 C-14.57553753 8.20337288 -10.32970581 5.52825579 -4.8984375 1.3203125 C-2.33984375 -0.26171875 -2.33984375 -0.26171875 0 0 Z " fill="#C13DDB" transform="translate(225.33984375,267.26171875)"/>
<path d="M0 0 C3.47166708 1.40187825 4.71377874 2.77609718 6.4375 6.0625 C7.63856583 8.22461133 7.63856583 8.22461133 9 10 C10.66194453 10.35613097 12.328451 10.69208308 14 11 C15.70004794 14.27866388 16.8348895 17.50466851 18 21 C19.32 21 20.64 21 22 21 C22 21.66 22 22.32 22 23 C21.01 23.33 20.02 23.66 19 24 C11.6371494 16.98962629 4.00098428 9.50233766 0 0 Z " fill="#DD7194" transform="translate(105,261)"/>
<path d="M0 0 C0.33 0 0.66 0 1 0 C1.86627405 2.91355841 2.71831006 5.83004328 3.5625 8.75 C3.80935547 9.575 4.05621094 10.4 4.31054688 11.25 C4.53935547 12.04921875 4.76816406 12.8484375 5.00390625 13.671875 C5.21861572 14.4050293 5.4333252 15.13818359 5.65454102 15.89355469 C6.03914672 18.23869816 5.72878764 19.75825808 5 22 C4.38125 21.360625 3.7625 20.72125 3.125 20.0625 C1.17402388 17.96116416 1.17402388 17.96116416 -1 17 C-1 15 -1 15 1 13 C1 12.34 1 11.68 1 11 C0.01 11 -0.98 11 -2 11 C-2 8.03 -2 5.06 -2 2 C-1.34 2 -0.68 2 0 2 C0 1.34 0 0.68 0 0 Z " fill="#E48667" transform="translate(114,214)"/>
<path d="M0 0 C0.66 0.33 1.32 0.66 2 1 C1.525625 1.433125 1.05125 1.86625 0.5625 2.3125 C-1.23686957 4.02309613 -1.23686957 4.02309613 -2 7 C-3.77734375 8.60546875 -3.77734375 8.60546875 -5.9375 10.1875 C-6.64777344 10.71730469 -7.35804688 11.24710938 -8.08984375 11.79296875 C-10 13 -10 13 -12 13 C-12.103125 13.78375 -12.20625 14.5675 -12.3125 15.375 C-13 18 -13 18 -16 20 C-17.20450304 22.55183404 -17.20450304 22.55183404 -18 25 C-18.66 25 -19.32 25 -20 25 C-16.88147796 14.22550634 -8.31720507 7.05598954 0 0 Z " fill="#E28F69" transform="translate(168,161)"/>
<path d="M0 0 C0.33 0 0.66 0 1 0 C1.12117188 1.18078125 1.24234375 2.3615625 1.3671875 3.578125 C1.5360552 5.13546043 1.70534835 6.69274977 1.875 8.25 C1.95363281 9.02730469 2.03226562 9.80460938 2.11328125 10.60546875 C2.70665441 16.05716552 2.70665441 16.05716552 5 21 C9.12973628 20.43260132 9.12973628 20.43260132 13 19 C12.67 20.32 12.34 21.64 12 23 C4.25 23.125 4.25 23.125 2 22 C2 20.68 2 19.36 2 18 C0.68 18 -0.64 18 -2 18 C-1.855625 17.071875 -1.71125 16.14375 -1.5625 15.1875 C-0.83635037 10.14594684 -0.4312193 5.07370796 0 0 Z " fill="#B64FCB" transform="translate(269,212)"/>
<path d="M0 0 C0.33 0 0.66 0 1 0 C1.67090715 7.24579719 -0.41874318 11.75838097 -4 18 C-4.66 18 -5.32 18 -6 18 C-6.12375 18.928125 -6.2475 19.85625 -6.375 20.8125 C-7 24 -7 24 -9 27 C-8.42285815 21.5492159 -7.05629339 16.90456225 -5.0625 11.8125 C-4.79759766 11.11447266 -4.53269531 10.41644531 -4.25976562 9.69726562 C-2.98822407 6.38116096 -1.67618227 3.13373207 0 0 Z " fill="#F0C837" transform="translate(99,148)"/>
<path d="M0 0 C3 0 3 0 6 1 C5.13117188 1.71285156 4.26234375 2.42570313 3.3671875 3.16015625 C-2.60304794 8.1052434 -8.18376638 12.88208162 -13 19 C-13.66 19.66 -14.32 20.32 -15 21 C-14.3001048 17.85047161 -13.34839851 14.9347497 -12 12 C-11.34 11.67 -10.68 11.34 -10 11 C-9.67 10.01 -9.34 9.02 -9 8 C-6.07920195 5.92469613 -4.62453269 5 -1 5 C-0.67 3.35 -0.34 1.7 0 0 Z " fill="#EDAB34" transform="translate(145,128)"/>
<path d="M0 0 C0.99 0.33 1.98 0.66 3 1 C5.43453604 7.08634009 5.59516924 13.51205436 6 20 C5.01 20.33 4.02 20.66 3 21 C3 18.03 3 15.06 3 12 C2.34 12 1.68 12 1 12 C-0.3271261 8.0186217 -0.06915913 4.14954773 0 0 Z " fill="#D333D5" transform="translate(262,196)"/>
<path d="M0 0 C2.56165861 1.4513836 4.8825934 2.94367243 7 5 C7.9375 8.8125 7.9375 8.8125 8 12 C7.34 12 6.68 12 6 12 C6 11.01 6 10.02 6 9 C5.34 9 4.68 9 4 9 C3.67 9.99 3.34 10.98 3 12 C1.68 11.67 0.36 11.34 -1 11 C-0.67 8.69 -0.34 6.38 0 4 C-0.99 4 -1.98 4 -3 4 C-2 2 -2 2 0 0 Z " fill="#D73DC6" transform="translate(297,148)"/>
<path d="M0 0 C0.68932617 -0.00475342 1.37865234 -0.00950684 2.08886719 -0.0144043 C5.78900545 -0.00230941 9.21518876 0.24488113 12.8125 1.125 C12.8125 1.455 12.8125 1.785 12.8125 2.125 C12.23918945 2.15005615 11.66587891 2.1751123 11.07519531 2.20092773 C-4.57420161 2.88766388 -4.57420161 2.88766388 -20.1875 4.125 C-14.21973269 -0.71408089 -7.38783751 0.04268008 0 0 Z " fill="#EE8742" transform="translate(200.1875,110.875)"/>
<path d="M0 0 C0.66 0 1.32 0 2 0 C2 0.66 2 1.32 2 2 C3.32 2 4.64 2 6 2 C6 4.31 6 6.62 6 9 C6.66 9.33 7.32 9.66 8 10 C8.4140625 12.50390625 8.4140625 12.50390625 8.625 15.5625 C8.69976562 16.57441406 8.77453125 17.58632812 8.8515625 18.62890625 C8.92503906 19.80259766 8.92503906 19.80259766 9 21 C0.35714286 8.03571429 0.35714286 8.03571429 0 0 Z " fill="#CE60B4" transform="translate(234,190)"/>
<path d="M0 0 C-0.45375 0.433125 -0.9075 0.86625 -1.375 1.3125 C-3.20024334 3.10798342 -3.20024334 3.10798342 -5 6 C-5.66 6 -6.32 6 -7 6 C-7 6.66 -7 7.32 -7 8 C-9.5 9.625 -9.5 9.625 -12 11 C-12.875 8.3125 -12.875 8.3125 -13 5 C-8.91372113 0.72366165 -5.78130947 -1.92710316 0 0 Z " fill="#EE7C4F" transform="translate(179,160)"/>
<path d="M0 0 C0.33 0 0.66 0 1 0 C2.89623312 7.22938876 3.19266838 14.32110158 3.1875 21.75 C3.1884668 23.09807739 3.1884668 23.09807739 3.18945312 24.47338867 C3.14918299 29.41426005 2.83182577 34.1288283 2 39 C1.67 39 1.34 39 1 39 C0.80212644 37.45963043 0.61724137 35.91759048 0.4375 34.375 C0.33308594 33.51648438 0.22867187 32.65796875 0.12109375 31.7734375 C0 29 0 29 0.5 26.40625 C1.25094887 21.29041079 0.83838019 16.27476356 0.5625 11.125 C0.51029297 10.05507812 0.45808594 8.98515625 0.40429688 7.8828125 C0.27524601 5.25486761 0.14030848 2.62736387 0 0 Z " fill="#FDDFFE" transform="translate(284,179)"/>
<path d="M0 0 C0.66 0.33 1.32 0.66 2 1 C0.989375 1.804375 -0.02125 2.60875 -1.0625 3.4375 C-5.3827045 7.1140822 -8.66464187 11.43796 -12 16 C-12.66 15.67 -13.32 15.34 -14 15 C-13.2884375 14.38125 -13.2884375 14.38125 -12.5625 13.75 C-10.83733482 11.817815 -10.43415125 10.51807725 -10 8 C-10.66 8 -11.32 8 -12 8 C-12 7.34 -12 6.68 -12 6 C-11.01 5.67 -10.02 5.34 -9 5 C-8.67 4.01 -8.34 3.02 -8 2 C-5.525 2.99 -5.525 2.99 -3 4 C-3 3.01 -3 2.02 -3 1 C-2.01 0.67 -1.02 0.34 0 0 Z " fill="#FCF9CC" transform="translate(126,112)"/>
<path d="M0 0 C1.60332791 -0.08121924 3.20784026 -0.13929134 4.8125 -0.1875 C6.15248047 -0.23970703 6.15248047 -0.23970703 7.51953125 -0.29296875 C10.48612811 0.05741671 11.07275662 0.82567413 13 3 C14.03125 3.309375 15.0625 3.61875 16.125 3.9375 C17.07375 4.288125 18.0225 4.63875 19 5 C19.875 7.125 19.875 7.125 20 9 C15.28629244 8.35014905 11.42313556 6.48438608 7.1875 4.4375 C6.49462891 4.10814453 5.80175781 3.77878906 5.08789062 3.43945312 C3.38955052 2.63127749 1.69444231 1.81631623 0 1 C0 0.67 0 0.34 0 0 Z " fill="#DB7C83" transform="translate(230,118)"/>
<path d="M0 0 C8.40292129 3.66281184 15.15397989 10.02793991 22 16 C18.35838005 16 16.98397071 15.01418023 14 13 C13.54625 12.505 13.0925 12.01 12.625 11.5 C10.86504754 9.69502877 10.86504754 9.69502877 7.375 8.5625 C4 7 4 7 3.0625 4.8125 C3.041875 4.214375 3.02125 3.61625 3 3 C2.01 3 1.02 3 0 3 C0 2.01 0 1.02 0 0 Z " fill="#D37A97" transform="translate(258,103)"/>
<path d="M0 0 C2.875 -0.125 2.875 -0.125 6 0 C6.66 0.66 7.32 1.32 8 2 C10.57061311 2.64767793 10.57061311 2.64767793 13 3 C13 3.66 13 4.32 13 5 C13.53625 5.103125 14.0725 5.20625 14.625 5.3125 C17.62502044 6.18092697 20.2379535 7.55620296 23 9 C19.85213467 10.04071749 18.23664684 10.01146507 15.21484375 8.671875 C14.51939453 8.36636719 13.82394531 8.06085938 13.10742188 7.74609375 C12.03331055 7.25302734 12.03331055 7.25302734 10.9375 6.75 C10.21755859 6.43675781 9.49761719 6.12351562 8.75585938 5.80078125 C5.22927607 4.22249606 2.64507711 2.87815263 0 0 Z " fill="#CB50BC" transform="translate(144,298)"/>
<path d="M0 0 C0.66 0.33 1.32 0.66 2 1 C0.625 2.5 0.625 2.5 -1 4 C-1.66 4 -2.32 4 -3 4 C-3.2475 4.60714844 -3.495 5.21429688 -3.75 5.83984375 C-5.21356241 8.36906254 -6.47041971 9.15356098 -9 10.5625 C-12.02275544 12.2572434 -12.99832634 12.9974895 -15 16 C-16.32 15.67 -17.64 15.34 -19 15 C-17.43910974 13.58155991 -15.8762111 12.16532975 -14.3125 10.75 C-13.44238281 9.96109375 -12.57226562 9.1721875 -11.67578125 8.359375 C-3.85272017 1.46137662 -3.85272017 1.46137662 0 0 Z " fill="#FDF0D0" transform="translate(157,124)"/>
<path d="M0 0 C0.66 0.33 1.32 0.66 2 1 C1.63648438 1.54785156 1.27296875 2.09570312 0.8984375 2.66015625 C-3.80295479 10.07389024 -6.92466039 17.8209053 -10 26 C-11.18771723 22.57056481 -10.80226223 20.62215325 -9.5625 17.25 C-9.27503906 16.45078125 -8.98757812 15.6515625 -8.69140625 14.828125 C-8.46324219 14.22484375 -8.23507813 13.6215625 -8 13 C-7.34 13 -6.68 13 -6 13 C-5.67 10.36 -5.34 7.72 -5 5 C-4.34 5 -3.68 5 -3 5 C-2.87625 4.360625 -2.7525 3.72125 -2.625 3.0625 C-2.41875 2.381875 -2.2125 1.70125 -2 1 C-1.34 0.67 -0.68 0.34 0 0 Z " fill="#E6A43D" transform="translate(127,150)"/>
<path d="M0 0 C2.31 0 4.62 0 7 0 C3.13191143 4.72313973 -3.27591333 5.76090359 -9 7 C-11.923534 7.0347007 -14.1360698 6.67386593 -17 6 C-15 4 -15 4 -11.8125 3.9375 C-9.9253125 3.9684375 -9.9253125 3.9684375 -8 4 C-5.66175408 3.70307988 -3.32622311 3.37979153 -1 3 C-0.67 2.01 -0.34 1.02 0 0 Z " fill="#CC55C2" transform="translate(206,252)"/>
<path d="M0 0 C0.66 0 1.32 0 2 0 C0.42545856 4.84591879 -1.32419577 9.61019264 -3.125 14.375 C-3.40214844 15.11105469 -3.67929688 15.84710938 -3.96484375 16.60546875 C-4.64222223 18.40402539 -5.32097033 20.2020661 -6 22 C-6.33 22 -6.66 22 -7 22 C-7.05437607 20.41705218 -7.09296271 18.83355744 -7.125 17.25 C-7.14820312 16.36828125 -7.17140625 15.4865625 -7.1953125 14.578125 C-6.99139502 11.8864142 -6.36551721 10.30095026 -5 8 C-4.34 8 -3.68 8 -3 8 C-2.690625 7.05125 -2.38125 6.1025 -2.0625 5.125 C-1 2 -1 2 0 0 Z " fill="#FEF8DB" transform="translate(98,146)"/>
<path d="M0 0 C1.65 0 3.3 0 5 0 C5.33 1.32 5.66 2.64 6 4 C1.60546875 8.00390625 1.60546875 8.00390625 0 9 C-0.99 8.67 -1.98 8.34 -3 8 C-2.37240135 5.07120629 -1.41377341 2.63904371 0 0 Z " fill="#FCBF08" transform="translate(101,152)"/>
<path d="M0 0 C1.86398438 0.01353516 1.86398438 0.01353516 3.765625 0.02734375 C6.80229004 0.05070271 9.83853853 0.08345717 12.875 0.125 C12.875 0.455 12.875 0.785 12.875 1.125 C4.625 1.125 -3.625 1.125 -12.125 1.125 C-12.125 1.785 -12.125 2.445 -12.125 3.125 C-17.075 3.455 -22.025 3.785 -27.125 4.125 C-19.28729693 -1.10013538 -9.05175309 -0.125988 0 0 Z " fill="#FEEED1" transform="translate(200.125,113.875)"/>
<path d="M0 0 C3.44566799 3.17364157 5.41472527 5.61000844 7 10 C7.66 10.33 8.32 10.66 9 11 C8.67 11.99 8.34 12.98 8 14 C8 13.34 8 12.68 8 12 C5.69 11.67 3.38 11.34 1 11 C0.67 7.37 0.34 3.74 0 0 Z " fill="#DF46BB" transform="translate(288,132)"/>
<path d="M0 0 C0 0.99 0 1.98 0 3 C0.20625 4.010625 0.4125 5.02125 0.625 6.0625 C0.74875 7.031875 0.8725 8.00125 1 9 C0.34 9.66 -0.32 10.32 -1 11 C-1.99 10.34 -2.98 9.68 -4 9 C-4.40843923 6.28796348 -4.13336867 3.7562858 -4 1 C-2.68 0.67 -1.36 0.34 0 0 Z M-6 9 C-5.01 9.33 -4.02 9.66 -3 10 C-3 10.66 -3 11.32 -3 12 C-3.99 12.33 -4.98 12.66 -6 13 C-7.66710346 14.49985609 -7.66710346 14.49985609 -9 16 C-7.125 10.125 -7.125 10.125 -6 9 Z " fill="#C43BD7" transform="translate(247,236)"/>
<path d="M0 0 C0.96723345 3.38531706 0.92684799 5.57066244 0 9 C-0.33 9.33 -0.66 9.66 -1 10 C-1.21187212 12.79553492 -1.37648719 15.57537631 -1.5 18.375 C-1.86642857 26.59928571 -1.86642857 26.59928571 -3 30 C-3.33 30 -3.66 30 -4 30 C-4.76595745 9.46808511 -4.76595745 9.46808511 0 0 Z " fill="#E2846C" transform="translate(147,186)"/>
<path d="M0 0 C8.69158672 -0.4974517 16.16000512 -0.08389977 24 4 C25.8046875 5.63671875 25.8046875 5.63671875 27 7 C26.01 7.495 26.01 7.495 25 8 C25 7.34 25 6.68 25 6 C24.34 5.896875 23.68 5.79375 23 5.6875 C19.16158991 4.80786436 15.66903309 3.43030104 12 2 C12 2.66 12 3.32 12 4 C11.319375 3.690625 10.63875 3.38125 9.9375 3.0625 C6.63034088 1.86629351 3.48454122 1.40994603 0 1 C0 0.67 0 0.34 0 0 Z " fill="#D67A99" transform="translate(190,184)"/>
<path d="M0 0 C0.33 0 0.66 0 1 0 C1.33 3.63 1.66 7.26 2 11 C1.01 11.33 0.02 11.66 -1 12 C-0.814375 12.94875 -0.62875 13.8975 -0.4375 14.875 C0 18 0 18 -1 20 C-1.22858114 22.0374763 -1.41024278 24.08040303 -1.5625 26.125 C-1.64628906 27.22070312 -1.73007813 28.31640625 -1.81640625 29.4453125 C-1.87699219 30.28835937 -1.93757813 31.13140625 -2 32 C-2.33 32 -2.66 32 -3 32 C-3.39782446 20.91985206 -2.41706541 10.81924515 0 0 Z " fill="#FDE2BE" transform="translate(116,176)"/>
<path d="M0 0 C0.66 0 1.32 0 2 0 C0.75748074 5.64781482 -0.77666039 8.96863037 -5 13 C-8.3125 13.875 -8.3125 13.875 -11 14 C-10.62488281 13.57589844 -10.24976563 13.15179688 -9.86328125 12.71484375 C-7.14338759 9.59758527 -4.58629792 6.47977158 -2.25 3.0625 C-1.5075 2.051875 -0.765 1.04125 0 0 Z " fill="#FAE5F9" transform="translate(227,237)"/>
<path d="M0 0 C2.05710856 3.08566284 2.78346093 5.36985312 3.6875 8.9375 C3.95949219 9.97777344 4.23148437 11.01804688 4.51171875 12.08984375 C4.97828785 14.8705956 4.93894816 16.38480882 4 19 C0.06066674 13.04879297 -2.12921067 8.22694829 -1 1 C-0.67 0.67 -0.34 0.34 0 0 Z " fill="#C738DB" transform="translate(306,166)"/>
<path d="M0 0 C2.0973507 3.88926198 3.58091465 7.9951258 5.125 12.125 C5.40214844 12.85332031 5.67929688 13.58164063 5.96484375 14.33203125 C8 19.75577278 8 19.75577278 8 22 C7.34 22 6.68 22 6 22 C1.02541922 14.89607837 0.14574024 8.57217615 0 0 Z " fill="#FDE7D3" transform="translate(90,228)"/>
<path d="M0 0 C0.66 0.33 1.32 0.66 2 1 C0.61198929 4.35435922 -0.88629 6.11290303 -4 8 C-4.99 8 -5.98 8 -7 8 C-7 8.99 -7 9.98 -7 11 C-8.32 11 -9.64 11 -11 11 C-11.66 12.32 -12.32 13.64 -13 15 C-13.99 15 -14.98 15 -16 15 C-13.12999596 11.15514898 -10.0624814 8.23396384 -6.3125 5.25 C-5.33925781 4.47140625 -4.36601562 3.6928125 -3.36328125 2.890625 C-2.58339844 2.26671875 -1.80351562 1.6428125 -1 1 C-0.67 0.67 -0.34 0.34 0 0 Z " fill="#F3D541" transform="translate(133,108)"/>
<path d="M0 0 C0.33 0.66 0.66 1.32 1 2 C0.67 2.99 0.34 3.98 0 5 C-1.62034326 5.70890018 -3.24664565 6.40689525 -4.8984375 7.0390625 C-8.15423408 8.52777246 -10.92203641 10.6659873 -13.7890625 12.79296875 C-16.38624574 14.21086561 -18.08460308 14.23016291 -21 14 C-18.02927645 11.64294704 -14.98869573 9.86809162 -11.625 8.125 C-7.25583631 5.78542105 -3.64212158 3.34681442 0 0 Z " fill="#B24FC8" transform="translate(227,262)"/>
<path d="M0 0 C2.6855594 2.6855594 3.06049974 5.37621328 4 9 C4.763125 9.12375 5.52625 9.2475 6.3125 9.375 C9 10 9 10 12 12 C9.525 13.485 9.525 13.485 7 15 C0.13785558 7.12253829 0.13785558 7.12253829 -0.4375 2.4375 C-0.293125 1.633125 -0.14875 0.82875 0 0 Z " fill="#DC7298" transform="translate(150,231)"/>
<path d="M0 0 C2.42201164 2.91588552 3.62409516 5.41634665 4.625 9.0625 C4.86476563 9.91972656 5.10453125 10.77695313 5.3515625 11.66015625 C5.67253906 12.81837891 5.67253906 12.81837891 6 14 C6.33 14.99 6.66 15.98 7 17 C7.03920815 18.99961564 7.04443347 21.00049364 7 23 C6.34 23 5.68 23 5 23 C3.20295366 15.35656288 1.47966129 7.71164651 0 0 Z " fill="#C54BC2" transform="translate(282,169)"/>
<path d="M0 0 C-1.65 0.33 -3.3 0.66 -5 1 C-5.33 1.99 -5.66 2.98 -6 4 C-7.01320312 4.18175781 -7.01320312 4.18175781 -8.046875 4.3671875 C-9.38492188 4.61855469 -9.38492188 4.61855469 -10.75 4.875 C-11.63171875 5.03742188 -12.5134375 5.19984375 -13.421875 5.3671875 C-15.99462563 5.88227148 -15.99462563 5.88227148 -18.078125 7.1328125 C-20.46642719 8.21046105 -21.58189178 7.86361008 -24 7 C-20.00694834 5.31626322 -16.00537735 3.65418158 -12 2 C-11.195625 1.65839844 -10.39125 1.31679687 -9.5625 0.96484375 C-5.89428822 -0.52884097 -3.77416208 -1.208394 0 0 Z " fill="#EECC4B" transform="translate(172,92)"/>
<path d="M0 0 C1 3 1 3 -0.21484375 5.91796875 C-0.78332031 6.99691406 -1.35179687 8.07585937 -1.9375 9.1875 C-2.50339844 10.27417969 -3.06929688 11.36085938 -3.65234375 12.48046875 C-4.09707031 13.31191406 -4.54179687 14.14335937 -5 15 C-6.10370043 11.6888987 -5.92673641 9.75251051 -5.5625 6.3125 C-5.46066406 5.31863281 -5.35882813 4.32476562 -5.25390625 3.30078125 C-5.17011719 2.54152344 -5.08632813 1.78226562 -5 1 C-3.02 1.495 -3.02 1.495 -1 2 C-0.67 1.34 -0.34 0.68 0 0 Z " fill="#7264F3" transform="translate(311,279)"/>
<path d="M0 0 C6.14534548 9.21801822 5.1375311 19.25729265 5 30 C4.67 30 4.34 30 4 30 C3.87882812 28.87722656 3.75765625 27.75445312 3.6328125 26.59765625 C2.78269141 18.93715869 1.78156474 11.50802285 0 4 C0 2.68 0 1.36 0 0 Z " fill="#FBD6FC" transform="translate(267,199)"/>
<path d="M0 0 C2.39153644 2.13144892 2.95440178 2.6873265 3.4375 6 C3 9 3 9 1.0625 10.5 C0.381875 10.995 -0.29875 11.49 -1 12 C-1.80946422 15.10197397 -1.80946422 15.10197397 -2 18 C-2.33 18 -2.66 18 -3 18 C-3.31985731 11.28299653 -2.4793824 6.24273068 0 0 Z " fill="#F9B515" transform="translate(93,166)"/>
<path d="M0 0 C1.77260631 0.45142775 3.5430368 0.91140523 5.3125 1.375 C6.79169922 1.75785156 6.79169922 1.75785156 8.30078125 2.1484375 C11 3 11 3 14 5 C14 5.66 14 6.32 14 7 C11.36 7 8.72 7 6 7 C5.67 6.34 5.34 5.68 5 5 C2.97536745 4.34786708 2.97536745 4.34786708 1 4 C0.67 2.68 0.34 1.36 0 0 Z " fill="#E76C8A" transform="translate(218,153)"/>
<path d="M0 0 C-0.928125 0.4021875 -0.928125 0.4021875 -1.875 0.8125 C-4.2995233 1.95556848 -4.2995233 1.95556848 -6 5 C-7.9453125 5.29296875 -7.9453125 5.29296875 -10.125 5.1875 C-11.40375 5.125625 -12.6825 5.06375 -14 5 C-14.33 4.01 -14.66 3.02 -15 2 C-10.13948404 -0.59227518 -5.34728867 -0.18689553 0 0 Z " fill="#F9B211" transform="translate(182,91)"/>
<path d="M0 0 C7.52132005 -0.3008528 12.89529249 0.24900162 19 5 C12.09232563 4.63176001 6.3618858 3.76081837 0 1 C0 0.67 0 0.34 0 0 Z " fill="#C935D9" transform="translate(163,305)"/>
<path d="M0 0 C0.66 0 1.32 0 2 0 C0.52157091 3.53399895 -1.44062779 5.55745517 -4.3125 8.0625 C-5.45138672 9.06990234 -5.45138672 9.06990234 -6.61328125 10.09765625 C-12.76386037 15 -12.76386037 15 -16 15 C-14.52440331 10.57320993 -12.09942632 10.08567304 -8 8 C-7.34 8 -6.68 8 -6 8 C-5.62875 7.071875 -5.62875 7.071875 -5.25 6.125 C-3.79371361 3.64931313 -2.62187494 3.04874998 0 2 C0 1.34 0 0.68 0 0 Z " fill="#F9D6FB" transform="translate(230,256)"/>
<path d="M0 0 C1.01320312 0.27714844 2.02640625 0.55429688 3.0703125 0.83984375 C4.42183394 1.20588081 5.77339876 1.57175772 7.125 1.9375 C8.12273437 2.21110352 8.12273437 2.21110352 9.140625 2.49023438 C13.07445227 3.55082506 16.96973565 4.40362132 21 5 C21 5.33 21 5.66 21 6 C14.3527426 6.21994602 8.3024611 6.29180404 2 4 C0.78515625 1.921875 0.78515625 1.921875 0 0 Z " fill="#C95FB2" transform="translate(174,253)"/>
<path d="M0 0 C1 3 1 3 -0.07421875 5.15625 C-0.60660156 5.9296875 -1.13898438 6.703125 -1.6875 7.5 C-2.20699219 8.2734375 -2.72648438 9.046875 -3.26171875 9.84375 C-4.99745295 11.99684051 -6.72163494 13.45130741 -9 15 C-9.33 13.35 -9.66 11.7 -10 10 C-8.02 9.34 -6.04 8.68 -4 8 C-3.67 6.02 -3.34 4.04 -3 2 C-2.01 2 -1.02 2 0 2 C0 1.34 0 0.68 0 0 Z " fill="#C93CC4" transform="translate(228,232)"/>
<path d="M0 0 C0.66 0.33 1.32 0.66 2 1 C1.96519531 2.10408203 1.96519531 2.10408203 1.9296875 3.23046875 C1.91164063 4.20628906 1.89359375 5.18210938 1.875 6.1875 C1.84019531 7.63189453 1.84019531 7.63189453 1.8046875 9.10546875 C1.84842808 12.02214906 1.84842808 12.02214906 3.0703125 14.61328125 C4.10995619 17.28228249 3.97641522 18.36367891 3 21 C2.13395466 19.23494565 1.28251358 17.46271926 0.4375 15.6875 C-0.03816406 14.70136719 -0.51382812 13.71523437 -1.00390625 12.69921875 C-2 10 -2 10 -1 7 C-1.185625 6.34 -1.37125 5.68 -1.5625 5 C-1.706875 4.34 -1.85125 3.68 -2 3 C-1.34 2.01 -0.68 1.02 0 0 Z " fill="#CF57B8" transform="translate(278,148)"/>
<path d="M0 0 C0 0.66 0 1.32 0 2 C-0.99 2 -1.98 2 -3 2 C-2.34 3.65 -1.68 5.3 -1 7 C-2.98 7.99 -2.98 7.99 -5 9 C-5.33 8.67 -5.66 8.34 -6 8 C-6.33 9.32 -6.66 10.64 -7 12 C-7.66 12 -8.32 12 -9 12 C-8.54726428 7.133091 -7.35474936 4.5580675 -4 1 C-2 0 -2 0 0 0 Z " fill="#FBAA14" transform="translate(151,121)"/>
<path d="M0 0 C5.4556837 2.12405077 10.81634671 4.27176143 16 7 C12.51799235 8.20655614 10.35462394 7.78332187 6.875 6.6875 C6.00617188 6.42324219 5.13734375 6.15898438 4.2421875 5.88671875 C2 5 2 5 0 3 C0 2.01 0 1.02 0 0 Z " fill="#E08270" transform="translate(240,94)"/>
<path d="M0 0 C1.485 0.99 1.485 0.99 3 2 C3.33 1.34 3.66 0.68 4 0 C4.66 0 5.32 0 6 0 C6 3.3 6 6.6 6 10 C5.01 10 4.02 10 3 10 C3 9.34 3 8.68 3 8 C2.34 8 1.68 8 1 8 C0.67 5.36 0.34 2.72 0 0 Z " fill="#F28343" transform="translate(90,224)"/>
<path d="M0 0 C2 2 2 2 2 5 C2.33 5 2.66 5 3 5 C3.36923077 10.41538462 3.36923077 10.41538462 1.5 13.375 C1.005 13.91125 0.51 14.4475 0 15 C-0.12375 14.21625 -0.2475 13.4325 -0.375 12.625 C-0.79117993 9.85942178 -0.79117993 9.85942178 -3 8 C-2.01 5.36 -1.02 2.72 0 0 Z " fill="#D83BC9" transform="translate(245,203)"/>
<path d="M0 0 C0 0.66 0 1.32 0 2 C-4.96826315 6.31454432 -9.55230593 6.74515043 -16 7 C-14.55692446 4.11384891 -12.59460743 3.69186191 -9.6875 2.375 C-8.72199219 1.92898437 -7.75648438 1.48296875 -6.76171875 1.0234375 C-4 0 -4 0 0 0 Z " fill="#E58764" transform="translate(186,154)"/>
<path d="M0 0 C2.31 0.33 4.62 0.66 7 1 C7.309375 2.1446875 7.309375 2.1446875 7.625 3.3125 C9.42070704 6.82229103 11.43136312 7.52599781 15 9 C14.34 9.66 13.68 10.32 13 11 C10.82754427 9.54970675 8.66219911 8.09044056 6.5 6.625 C5.87996094 6.2125 5.25992188 5.8 4.62109375 5.375 C3.04474379 4.30100332 1.51791243 3.15511468 0 2 C0 1.34 0 0.68 0 0 Z " fill="#D364AD" transform="translate(129,287)"/>
<path d="M0 0 C1.98 0 3.96 0 6 0 C5.835 0.721875 5.67 1.44375 5.5 2.1875 C5.02412881 4.86427545 4.922557 7.28949487 5 10 C3.02 8.35 1.04 6.7 -1 5 C-0.67 3.35 -0.34 1.7 0 0 Z " fill="#EB7171" transform="translate(106,256)"/>
<path d="M0 0 C2.475 0.99 2.475 0.99 5 2 C5 2.66 5 3.32 5 4 C5.66 4 6.32 4 7 4 C7 4.66 7 5.32 7 6 C5.02 6.99 5.02 6.99 3 8 C3 7.34 3 6.68 3 6 C1.35 6 -0.3 6 -2 6 C-2 4.68 -2 3.36 -2 2 C-1.34 2 -0.68 2 0 2 C0 1.34 0 0.68 0 0 Z " fill="#FBFBFE" transform="translate(218,184)"/>
<path d="M0 0 C1.9375 0.8125 1.9375 0.8125 4 2 C5 5 5 5 5 8 C2 9 2 9 -0.1875 8.0625 C-0.785625 7.711875 -1.38375 7.36125 -2 7 C-1.34 6.34 -0.68 5.68 0 5 C-0.33 4.01 -0.66 3.02 -1 2 C-0.67 1.34 -0.34 0.68 0 0 Z " fill="#DF63A6" transform="translate(142,264)"/>
<path d="M0 0 C2.45281911 3.67922867 2.26823919 5.62259351 2.25 10 C2.25515625 11.2375 2.2603125 12.475 2.265625 13.75 C2 17 2 17 0 20 C0.33 17.36 0.66 14.72 1 12 C0.34 12 -0.32 12 -1 12 C-0.67 8.04 -0.34 4.08 0 0 Z " fill="#CA4AB9" transform="translate(229,212)"/>
<path d="M0 0 C1.485 0.99 1.485 0.99 3 2 C3.4765625 4.4609375 3.4765625 4.4609375 3.625 7.375 C3.83367196 11.31538682 3.83367196 11.31538682 4.55078125 15.1796875 C5.16091088 17.65203886 4.60958793 19.56164827 4 22 C3.67 22 3.34 22 3 22 C2.49599549 19.08397391 1.99665334 16.16727908 1.5 13.25 C1.35691406 12.425 1.21382813 11.6 1.06640625 10.75 C0.93105469 9.95078125 0.79570312 9.1515625 0.65625 8.328125 C0.53056641 7.5949707 0.40488281 6.86181641 0.27539062 6.10644531 C0 4 0 4 0 0 Z " fill="#F6D7FA" transform="translate(310,170)"/>
<path d="M0 0 C-0.969375 0.598125 -1.93875 1.19625 -2.9375 1.8125 C-6.23052042 3.71127509 -6.23052042 3.71127509 -7 7 C-7.763125 6.835 -8.52625 6.67 -9.3125 6.5 C-12.03596236 5.90854604 -12.03596236 5.90854604 -15 6 C-14.34 5.67 -13.68 5.34 -13 5 C-13 4.34 -13 3.68 -13 3 C-11.21189234 2.30329584 -9.41937948 1.61788811 -7.625 0.9375 C-6.62726563 0.55464844 -5.62953125 0.17179687 -4.6015625 -0.22265625 C-2 -1 -2 -1 0 0 Z " fill="#F9C411" transform="translate(161,97)"/>
<path d="M0 0 C0.33 1.98 0.66 3.96 1 6 C-3.22528092 6 -4.04518508 5.74375671 -7 3 C-7 2.34 -7 1.68 -7 1 C-4 0 -4 0 0 0 Z " fill="#DE4EB7" transform="translate(143,289)"/>
<path d="M0 0 C0.66 0.33 1.32 0.66 2 1 C0.25192871 6.46737191 -1.65794081 11.75824848 -4 17 C-4.68707555 14.50935112 -5 12.62113708 -5 10 C-4.34 10 -3.68 10 -3 10 C-3.061875 8.72125 -3.12375 7.4425 -3.1875 6.125 C-3.29296875 3.9453125 -3.29296875 3.9453125 -3 2 C-2.01 1.34 -1.02 0.68 0 0 Z " fill="#F79822" transform="translate(117,166)"/>
<path d="M0 0 C-3.01887244 3.48331435 -5.56909529 4.79157144 -10 6 C-10.66 4.35 -11.32 2.7 -12 1 C-7.93631321 0.22596442 -4.13574827 -0.0984702 0 0 Z " fill="#EFA729" transform="translate(160,122)"/>
<path d="M0 0 C1.32 0.66 2.64 1.32 4 2 C3.34 4.97 2.68 7.94 2 11 C1.34 11 0.68 11 0 11 C-2 8 -2 8 -1.6875 4.9375 C-1 2 -1 2 0 0 Z " fill="#FCAD0C" transform="translate(122,144)"/>
<path d="M0 0 C0 0.33 0 0.66 0 1 C-8.91 0.67 -17.82 0.34 -27 0 C-27 -0.33 -27 -0.66 -27 -1 C-23.43842366 -1.22677207 -19.87584575 -1.42815479 -16.3125 -1.625 C-15.30509766 -1.68945312 -14.29769531 -1.75390625 -13.25976562 -1.8203125 C-12.28330078 -1.871875 -11.30683594 -1.9234375 -10.30078125 -1.9765625 C-9.40528564 -2.02893066 -8.50979004 -2.08129883 -7.5871582 -2.13525391 C-4.69231059 -1.98391432 -2.61741403 -1.20867188 0 0 Z " fill="#ECA277" transform="translate(219,114)"/>
<path d="M0 0 C2.52349243 3.12432397 4.27256146 6.38060496 6 10 C5.01 10.495 5.01 10.495 4 11 C4 10.34 4 9.68 4 9 C2.35 9.33 0.7 9.66 -1 10 C-0.814375 9.2575 -0.62875 8.515 -0.4375 7.75 C-0.00415005 5.02608603 -0.2593443 3.59229496 -1 1 C-0.67 0.67 -0.34 0.34 0 0 Z " fill="#FAEFF1" transform="translate(146,230)"/>
<path d="M0 0 C0.66 0.33 1.32 0.66 2 1 C1.2884375 1.6496875 1.2884375 1.6496875 0.5625 2.3125 C-1.23686957 4.02309613 -1.23686957 4.02309613 -2 7 C-3.62890625 8.38671875 -3.62890625 8.38671875 -5.5625 9.6875 C-6.52349609 10.34298828 -6.52349609 10.34298828 -7.50390625 11.01171875 C-7.99761719 11.33785156 -8.49132812 11.66398438 -9 12 C-8.52379711 7.62346871 -7.33100111 5.93461995 -3.9375 3.1875 C-3.20402344 2.58292969 -2.47054687 1.97835937 -1.71484375 1.35546875 C-1.14894531 0.90816406 -0.58304688 0.46085938 0 0 Z " fill="#E98764" transform="translate(168,161)"/>
<path d="M0 0 C1.65 0 3.3 0 5 0 C5.33 0.99 5.66 1.98 6 3 C6.66 3.66 7.32 4.32 8 5 C7.67 5.66 7.34 6.32 7 7 C3.20411134 6.45773019 1.52788007 4.79872437 -1 2 C-0.67 1.34 -0.34 0.68 0 0 Z " fill="#E1689A" transform="translate(259,133)"/>
<path d="M0 0 C0 0.66 0 1.32 0 2 C-5.36439644 4.68219822 -9.01006953 5.3152595 -15 5 C-12.68994131 2.68994131 -11.16916343 2.27825897 -8.0625 1.375 C-7.18722656 1.11460937 -6.31195313 0.85421875 -5.41015625 0.5859375 C-3 0 -3 0 0 0 Z " fill="#7A6EDC" transform="translate(292,308)"/>
<path d="M0 0 C2.64 0 5.28 0 8 0 C8.66 1.32 9.32 2.64 10 4 C6.37 3.67 2.74 3.34 -1 3 C-0.67 2.01 -0.34 1.02 0 0 Z " fill="#BF3CDD" transform="translate(183,308)"/>
<path d="M0 0 C3.63 0.66 7.26 1.32 11 2 C11 2.66 11 3.32 11 4 C9.56359829 4.19573608 8.12580496 4.38127816 6.6875 4.5625 C5.88699219 4.66691406 5.08648437 4.77132813 4.26171875 4.87890625 C2 5 2 5 -1 4 C-0.67 2.68 -0.34 1.36 0 0 Z " fill="#DD4CB3" transform="translate(154,274)"/>
<path d="M0 0 C2.35716404 2.15454249 3.78966144 4.19719874 5.1875 7.0625 C5.53167969 7.75472656 5.87585938 8.44695312 6.23046875 9.16015625 C7 11 7 11 7 13 C6.34 13 5.68 13 5 13 C4.731875 12.360625 4.46375 11.72125 4.1875 11.0625 C3.11332248 8.66868314 3.11332248 8.66868314 0 8 C0 5.36 0 2.72 0 0 Z " fill="#FBE0F6" transform="translate(272,152)"/>
<path d="M0 0 C0.99 0.33 1.98 0.66 3 1 C1 4 1 4 -1.5 5.4375 C-4.11604238 6.77038423 -4.11604238 6.77038423 -5.0625 9.125 C-6 11 -6 11 -8.125 11.75 C-9.053125 11.87375 -9.053125 11.87375 -10 12 C-9.52697634 7.74278702 -7.18981069 5.67053918 -4 3 C-2.68 3 -1.36 3 0 3 C0 2.01 0 1.02 0 0 Z " fill="#FAD00B" transform="translate(126,116)"/>
<path d="M0 0 C7.92 3.96 7.92 3.96 16 8 C12.16098099 9.279673 11.05906634 8.45691295 7.4375 6.8125 C6.46683594 6.38582031 5.49617187 5.95914062 4.49609375 5.51953125 C2 4 2 4 0 0 Z " fill="#FDE0FC" transform="translate(139,296)"/>
<path d="M0 0 C3.88997191 1.49746706 5.46948052 3.70422078 7.75 7.125 C8.67039062 8.49011719 8.67039062 8.49011719 9.609375 9.8828125 C10.29773438 10.93082031 10.29773438 10.93082031 11 12 C10.67 12.66 10.34 13.32 10 14 C5.91084731 9.58595572 2.36549594 5.5658728 0 0 Z " fill="#D77C89" transform="translate(105,261)"/>
<path d="M0 0 C3.21580751 2.63885381 4.29440276 5.73085433 5.75 9.5625 C6.19859375 10.71878906 6.6471875 11.87507812 7.109375 13.06640625 C8 16 8 16 7 18 C6.02785395 16.0557079 5.05648326 14.1111015 4.08984375 12.1640625 C3.17322095 10.34395844 2.21616102 8.54429904 1.25 6.75 C0 4 0 4 0 0 Z " fill="#CA57B8" transform="translate(259,183)"/>
<path d="M0 0 C1.31625194 2.63250388 0.74813658 3.80179056 0.0625 6.625 C-0.13214844 7.44226563 -0.32679687 8.25953125 -0.52734375 9.1015625 C-0.76130859 10.04128906 -0.76130859 10.04128906 -1 11 C-2.65 11.33 -4.3 11.66 -6 12 C-4.25807076 7.76960042 -2.46440486 3.8726362 0 0 Z " fill="#FDF3CE" transform="translate(127,153)"/>
<path d="M0 0 C1.32 0.33 2.64 0.66 4 1 C3.67 2.98 3.34 4.96 3 7 C1.35 6.67 -0.3 6.34 -2 6 C-2.33 5.01 -2.66 4.02 -3 3 C-2.34 3 -1.68 3 -1 3 C-0.67 2.01 -0.34 1.02 0 0 Z " fill="#DE5FA3" transform="translate(267,137)"/>
<path d="M0 0 C0.86625 0.2784375 0.86625 0.2784375 1.75 0.5625 C4.22600969 1.04394633 5.60194629 0.63948099 8 0 C8.66 0.33 9.32 0.66 10 1 C9.67 1.99 9.34 2.98 9 4 C5.7 3.67 2.4 3.34 -1 3 C-0.67 2.01 -0.34 1.02 0 0 Z " fill="#EE7856" transform="translate(223,112)"/>
<path d="M0 0 C3.98175544 2.10148204 6.35039045 4.36905358 9 8 C8.34 8.66 7.68 9.32 7 10 C3.62985672 7.79197509 1.83752377 5.58317135 0 2 C0 1.34 0 0.68 0 0 Z " fill="#D26FAB" transform="translate(217,191)"/>
<path d="M0 0 C3.9492568 0.55105909 7.34920174 1.38935371 11 3 C10.34 3.66 9.68 4.32 9 5 C6.0625 4.625 6.0625 4.625 3 4 C2.01 4 1.02 4 0 4 C-0.66 4 -1.32 4 -2 4 C-2 3.34 -2 2.68 -2 2 C-1.34 2 -0.68 2 0 2 C0 1.34 0 0.68 0 0 Z " fill="#E16599" transform="translate(204,187)"/>
<path d="M0 0 C0 0.99 0 1.98 0 3 C0.99 3.33 1.98 3.66 3 4 C4.6875 5.5625 4.6875 5.5625 6 7 C5.01 7.495 5.01 7.495 4 8 C1.8359375 7.00390625 1.8359375 7.00390625 -0.625 5.5625 C-1.44226563 5.08941406 -2.25953125 4.61632812 -3.1015625 4.12890625 C-3.72804687 3.75636719 -4.35453125 3.38382813 -5 3 C-2.25 0 -2.25 0 0 0 Z " fill="#F9E8F3" transform="translate(235,153)"/>
<path d="M0 0 C0.33 0.66 0.66 1.32 1 2 C1.99 2.33 2.98 2.66 4 3 C4.33 6.63 4.66 10.26 5 14 C2.81385576 11.81385576 2.31743465 10.46120051 1.375 7.5625 C1.11460938 6.78003906 0.85421875 5.99757812 0.5859375 5.19140625 C0 3 0 3 0 0 Z " fill="#E38961" transform="translate(92,232)"/>
<path d="M0 0 C0.99 0 1.98 0 3 0 C3.29296875 5.95703125 3.29296875 5.95703125 3 8 C2.01 8.99 1.02 9.98 0 11 C0 7.37 0 3.74 0 0 Z " fill="#FB901C" transform="translate(89,200)"/>
<path d="M0 0 C0.99 0.66 1.98 1.32 3 2 C2 3 2 3 -0.72265625 3.09765625 C-2.37587891 3.08025391 -2.37587891 3.08025391 -4.0625 3.0625 C-5.16722656 3.05347656 -6.27195313 3.04445313 -7.41015625 3.03515625 C-8.69212891 3.01775391 -8.69212891 3.01775391 -10 3 C-10 2.34 -10 1.68 -10 1 C-3.57884427 -1.48090108 -3.57884427 -1.48090108 0 0 Z " fill="#FDA910" transform="translate(162,113)"/>
<path d="M0 0 C0.66 0.66 1.32 1.32 2 2 C-4.4 3.23076923 -4.4 3.23076923 -7.4375 2.0625 C-7.953125 1.711875 -8.46875 1.36125 -9 1 C-5.60805912 -0.60174986 -3.55768883 -1.4721471 0 0 Z " fill="#7264F9" transform="translate(289,306)"/>
<path d="M0 0 C6.78082192 3.16438356 6.78082192 3.16438356 9 6 C9 6.66 9 7.32 9 8 C7.35 7.67 5.7 7.34 4 7 C3.67 5.68 3.34 4.36 3 3 C2.01 3 1.02 3 0 3 C0 2.01 0 1.02 0 0 Z " fill="#DD7686" transform="translate(258,103)"/>
<path d="M0 0 C4.60625394 -0.32136655 7.33513904 0.08966924 11 3 C11 3.99 11 4.98 11 6 C7.2089881 4.55049545 3.6125362 2.84827434 0 1 C0 0.67 0 0.34 0 0 Z " fill="#FBE7E1" transform="translate(250,98)"/>
<path d="M0 0 C0.66 0.33 1.32 0.66 2 1 C2.73075648 3.3140622 3.40138258 5.64828869 4 8 C3.34 8 2.68 8 2 8 C2 8.66 2 9.32 2 10 C1.01 10 0.02 10 -1 10 C-0.7215625 8.824375 -0.7215625 8.824375 -0.4375 7.625 C0.25962266 5.02910225 0.25962266 5.02910225 -1 3 C-0.67 2.01 -0.34 1.02 0 0 Z " fill="#DD40C3" transform="translate(257,182)"/>
<path d="M0 0 C6.27 0 12.54 0 19 0 C19 0.99 19 1.98 19 3 C18.32582031 2.84660156 17.65164062 2.69320312 16.95703125 2.53515625 C13.53122048 1.91516143 10.16106553 1.6647426 6.6875 1.4375 C5.43324219 1.35371094 4.17898437 1.26992187 2.88671875 1.18359375 C1.45779297 1.09271484 1.45779297 1.09271484 0 1 C0 0.67 0 0.34 0 0 Z " fill="#DA869C" transform="translate(194,177)"/>
<path d="M0 0 C3 0 3 0 6 1 C1.545 4.465 1.545 4.465 -3 8 C-3.33 7.01 -3.66 6.02 -4 5 C-3.01 5 -2.02 5 -1 5 C-0.67 3.35 -0.34 1.7 0 0 Z " fill="#E8B13F" transform="translate(145,128)"/>
<path d="M0 0 C-1 3 -1 3 -2.70703125 3.984375 C-3.40183594 4.23703125 -4.09664062 4.4896875 -4.8125 4.75 C-5.49957031 5.01296875 -6.18664062 5.2759375 -6.89453125 5.546875 C-9.28143969 6.06056958 -10.70637773 5.76282269 -13 5 C-12.37351563 4.72285156 -11.74703125 4.44570312 -11.1015625 4.16015625 C-10.28429687 3.79792969 -9.46703125 3.43570313 -8.625 3.0625 C-7.81289062 2.70285156 -7.00078125 2.34320313 -6.1640625 1.97265625 C-1.7751004 0 -1.7751004 0 0 0 Z " fill="#FEE7BA" transform="translate(172,118)"/>
<path d="M0 0 C1.6026782 -0.10824843 3.20745748 -0.18570645 4.8125 -0.25 C5.70582031 -0.29640625 6.59914062 -0.3428125 7.51953125 -0.390625 C10 0 10 0 11.82421875 2.015625 C12.40623047 2.99789062 12.40623047 2.99789062 13 4 C7.76824163 4.38281159 4.62197306 3.21854707 0 1 C0 0.67 0 0.34 0 0 Z " fill="#E28279" transform="translate(230,118)"/>
<path d="M0 0 C-2.41407698 1.60938465 -4.34044437 2.65490738 -7 3.6875 C-8.0209375 4.09548828 -8.0209375 4.09548828 -9.0625 4.51171875 C-11 5 -11 5 -14 4 C-9.33286748 0.166284 -5.97171665 -0.13572083 0 0 Z " fill="#EBA041" transform="translate(176,116)"/>
<path d="M0 0 C2.31 0 4.62 0 7 0 C5.30820672 2.04219706 4.36272334 2.91793306 1.73828125 3.51171875 C0.93777344 3.56972656 0.13726562 3.62773437 -0.6875 3.6875 C-1.49574219 3.75324219 -2.30398437 3.81898438 -3.13671875 3.88671875 C-3.75160156 3.92410156 -4.36648437 3.96148437 -5 4 C-4.0409375 3.8453125 -4.0409375 3.8453125 -3.0625 3.6875 C-2.381875 3.460625 -1.70125 3.23375 -1 3 C-0.67 2.01 -0.34 1.02 0 0 Z " fill="#C948C1" transform="translate(206,252)"/>
<path d="M0 0 C-0.37596209 2.78211944 -0.67318459 4.5879284 -2.4375 6.8125 C-4 8 -4 8 -6 8 C-6 4 -6 4 -4.125 1.75 C-2 0 -2 0 0 0 Z " fill="#F6FDF2" transform="translate(236,245)"/>
<path d="M0 0 C0.66 0 1.32 0 2 0 C2 0.66 2 1.32 2 2 C3.32 2 4.64 2 6 2 C6 3.65 6 5.3 6 7 C5.01 7 4.02 7 3 7 C3 6.34 3 5.68 3 5 C2.34 5 1.68 5 1 5 C0.67 3.35 0.34 1.7 0 0 Z " fill="#E14BB6" transform="translate(234,190)"/>
<path d="M0 0 C2.5 2.3125 2.5 2.3125 5 5 C5 5.99 5 6.98 5 8 C1.125 7.125 1.125 7.125 0 6 C-0.04080783 4.00041636 -0.04254356 1.99954746 0 0 Z " fill="#E050B2" transform="translate(288,132)"/>
<path d="M0 0 C1.8125 0.1875 1.8125 0.1875 4 1 C6.14197494 3.90696599 7 5.35521088 7 9 C7.66 9.33 8.32 9.66 9 10 C8.01 10 7.02 10 6 10 C4.39453125 8.06640625 4.39453125 8.06640625 2.8125 5.5625 C2.28269531 4.73878906 1.75289063 3.91507813 1.20703125 3.06640625 C0 1 0 1 0 0 Z " fill="#FCE2F9" transform="translate(289,129)"/>
<path d="M0 0 C-1.32 0.33 -2.64 0.66 -4 1 C-4 1.66 -4 2.32 -4 3 C-6.64 3 -9.28 3 -12 3 C-12 2.34 -12 1.68 -12 1 C-3.96428571 -1.27678571 -3.96428571 -1.27678571 0 0 Z " fill="#F4912B" transform="translate(184,113)"/>
<path d="M0 0 C0 0.66 0 1.32 0 2 C-5.94 2.495 -5.94 2.495 -12 3 C-7.09396701 -0.67952474 -5.82490317 -0.29124516 0 0 Z " fill="#EA9343" transform="translate(192,112)"/>
<path d="M0 0 C2.97 0.495 2.97 0.495 6 1 C6.33 1.99 6.66 2.98 7 4 C7.66 4 8.32 4 9 4 C9.33 3.34 9.66 2.68 10 2 C10 2.99 10 3.98 10 5 C5.2482602 4.56802365 3.07999946 3.67230705 0 0 Z " fill="#E158AA" transform="translate(164,248)"/>
<path d="M0 0 C1.4540625 0.0309375 1.4540625 0.0309375 2.9375 0.0625 C2.9375 1.3825 2.9375 2.7025 2.9375 4.0625 C0.9575 4.0625 -1.0225 4.0625 -3.0625 4.0625 C-3.3925 3.0725 -3.7225 2.0825 -4.0625 1.0625 C-3.0625 0.0625 -3.0625 0.0625 0 0 Z " fill="#DC35D0" transform="translate(210.0625,247.9375)"/>
<path d="M0 0 C0.99 1.32 1.98 2.64 3 4 C7.12973628 3.43260132 7.12973628 3.43260132 11 2 C10.67 3.32 10.34 4.64 10 6 C2.25 6.125 2.25 6.125 0 5 C0 3.35 0 1.7 0 0 Z " fill="#AA5CD0" transform="translate(271,229)"/>
<path d="M0 0 C0.66 0.33 1.32 0.66 2 1 C1.67 3.64 1.34 6.28 1 9 C0.01 9 -0.98 9 -2 9 C-2.25 3.375 -2.25 3.375 0 0 Z " fill="#E035CE" transform="translate(227,225)"/>
<path d="M0 0 C2.97246802 2.54782974 4.41535288 5.45340883 6 9 C6 9.66 6 10.32 6 11 C5.01 10.67 4.02 10.34 3 10 C1.38346804 6.76693609 0.60852308 3.54971796 0 0 Z " fill="#FEE0FB" transform="translate(235,197)"/>
<path d="M0 0 C2.0625 0.4375 2.0625 0.4375 4 1 C2.02 2.32 0.04 3.64 -2 5 C-1.125 1.125 -1.125 1.125 0 0 Z M-4 5 C-3.34 5 -2.68 5 -2 5 C-2.66 6.32 -3.32 7.64 -4 9 C-4.66 8.34 -5.32 7.68 -6 7 C-5.34 6.34 -4.68 5.68 -4 5 Z " fill="#FBCE11" transform="translate(135,108)"/>
<path d="M0 0 C2.35171131 0.59861742 4.6859378 1.26924352 7 2 C7.33 2.66 7.66 3.32 8 4 C5.6875 4.625 5.6875 4.625 3 5 C2.01 4.34 1.02 3.68 0 3 C0 2.01 0 1.02 0 0 Z " fill="#ED7A58" transform="translate(240,98)"/>
<path d="M0 0 C-2 2 -2 2 -4.6015625 2.1953125 C-5.59929687 2.17210938 -6.59703125 2.14890625 -7.625 2.125 C-9.12933594 2.09792969 -9.12933594 2.09792969 -10.6640625 2.0703125 C-11.43492187 2.04710938 -12.20578125 2.02390625 -13 2 C-8.53448096 -0.31790713 -4.94391187 -1.64797062 0 0 Z " fill="#EDB53C" transform="translate(185,89)"/>
<path d="M0 0 C0.79921875 0.00902344 1.5984375 0.01804687 2.421875 0.02734375 C3.02515625 0.03894531 3.6284375 0.05054688 4.25 0.0625 C4.25 0.3925 4.25 0.7225 4.25 1.0625 C2.5484375 1.2790625 2.5484375 1.2790625 0.8125 1.5 C-2.55777201 1.67421478 -2.55777201 1.67421478 -3.75 3.0625 C-6.08297433 3.10342937 -8.41705225 3.10491723 -10.75 3.0625 C-7.55037281 -0.13712719 -4.37969494 -0.06440728 0 0 Z " fill="#C349CB" transform="translate(206.75,275.9375)"/>
<path d="M0 0 C0 0.99 0 1.98 0 3 C-3.37362154 5.60250805 -5.76907828 6.36265043 -10 6 C-6.87567603 3.47650757 -3.61939504 1.72743854 0 0 Z " fill="#B55DC0" transform="translate(216,270)"/>
<path d="M0 0 C0.33 1.32 0.66 2.64 1 4 C-1 7 -1 7 -3.625 7.6875 C-4.800625 7.8421875 -4.800625 7.8421875 -6 8 C-4.02 5.36 -2.04 2.72 0 0 Z " fill="#B44CCA" transform="translate(234,254)"/>
<path d="M0 0 C2.64 0.66 5.28 1.32 8 2 C7.67 2.66 7.34 3.32 7 4 C4.67843403 4.40729228 2.3431213 4.74438677 0 5 C0 3.35 0 1.7 0 0 Z " fill="#A944E9" transform="translate(272,234)"/>
<path d="M0 0 C0.33 1.32 0.66 2.64 1 4 C1.66 4 2.32 4 3 4 C3.33 6.31 3.66 8.62 4 11 C3.67 10.34 3.34 9.68 3 9 C2.01 9 1.02 9 0 9 C0 6.03 0 3.06 0 0 Z " fill="#F07D4F" transform="translate(112,216)"/>
<path d="M0 0 C1.65 0 3.3 0 5 0 C3.55746343 3.36591866 1.66735273 5.51047079 -1 8 C-0.67 5.36 -0.34 2.72 0 0 Z " fill="#FEFAD0" transform="translate(107,128)"/>
<path d="M0 0 C1.43836751 0.11458693 2.87570966 0.24209116 4.3125 0.375 C5.51326172 0.47941406 5.51326172 0.47941406 6.73828125 0.5859375 C9 1 9 1 12 3 C12 3.66 12 4.32 12 5 C10.56068883 4.54738642 9.12361001 4.08767021 7.6875 3.625 C6.88699219 3.36976562 6.08648437 3.11453125 5.26171875 2.8515625 C3 2 3 2 0 0 Z " fill="#FCE5D6" transform="translate(238,93)"/>
<path d="M0 0 C1.79093191 -0.08086147 3.58289628 -0.13912702 5.375 -0.1875 C6.87160156 -0.23970703 6.87160156 -0.23970703 8.3984375 -0.29296875 C9.25695312 -0.19628906 10.11546875 -0.09960938 11 0 C11.66 0.99 12.32 1.98 13 3 C8.62065881 2.48041715 4.31196609 1.94324258 0 1 C0 0.67 0 0.34 0 0 Z " fill="#FDE1C8" transform="translate(219,88)"/>
<path d="M0 0 C0.66 0.33 1.32 0.66 2 1 C0.71283353 2.00578589 -0.57988658 3.00446798 -1.875 4 C-2.95394531 4.8353125 -2.95394531 4.8353125 -4.0546875 5.6875 C-6 7 -6 7 -8 7 C-6.88424427 3.65273281 -6.48655378 3.37920252 -3.5625 1.75 C-2.386875 1.1725 -1.21125 0.595 0 0 Z " fill="#FDE0FE" transform="translate(222,264)"/>
<path d="M0 0 C0.33 0.66 0.66 1.32 1 2 C1.66 2 2.32 2 3 2 C3.625 4.375 3.625 4.375 4 7 C3.34 7.66 2.68 8.32 2 9 C1.4465236 6.92446352 1 5.15634036 1 3 C0.01 3.33 -0.98 3.66 -2 4 C-1.34 2.68 -0.68 1.36 0 0 Z " fill="#B642CF" transform="translate(237,250)"/>
<path d="M0 0 C0.33 0 0.66 0 1 0 C1 2.31 1 4.62 1 7 C-0.98 7.99 -0.98 7.99 -3 9 C-2.69181644 7.68647977 -2.37832335 6.37420428 -2.0625 5.0625 C-1.88847656 4.33160156 -1.71445312 3.60070312 -1.53515625 2.84765625 C-1 1 -1 1 0 0 Z " fill="#C13BDC" transform="translate(268,216)"/>
<path d="M0 0 C2.31 1.98 4.62 3.96 7 6 C6.67 6.66 6.34 7.32 6 8 C5.01 8 4.02 8 3 8 C0 2.25 0 2.25 0 0 Z " fill="#FDE6F7" transform="translate(228,189)"/>
<path d="M0 0 C1 2 1 2 0.22265625 4.6015625 C-0.16019531 5.59929687 -0.54304688 6.59703125 -0.9375 7.625 C-1.50791016 9.12933594 -1.50791016 9.12933594 -2.08984375 10.6640625 C-2.39019531 11.43492187 -2.69054687 12.20578125 -3 13 C-3.33 13 -3.66 13 -4 13 C-3.40546697 3.40546697 -3.40546697 3.40546697 0 0 Z " fill="#FDF8BA" transform="translate(95,155)"/>
<path d="M0 0 C0.66 0.33 1.32 0.66 2 1 C0.1875 4 0.1875 4 -2 7 C-2.99 7 -3.98 7 -5 7 C-5 6.34 -5 5.68 -5 5 C-4.34 5 -3.68 5 -3 5 C-2.87625 4.360625 -2.7525 3.72125 -2.625 3.0625 C-2.41875 2.381875 -2.2125 1.70125 -2 1 C-1.34 0.67 -0.68 0.34 0 0 Z " fill="#EBAC32" transform="translate(127,150)"/>
<path d="M0 0 C0.66 0.33 1.32 0.66 2 1 C1.67 3.97 1.34 6.94 1 10 C-0.74959319 7.37561021 -1.62068453 6.03452373 -2 3 C-1.34 2.01 -0.68 1.02 0 0 Z " fill="#E14ABB" transform="translate(278,148)"/>
<path d="M0 0 C0.66 0 1.32 0 2 0 C1.34 2.31 0.68 4.62 0 7 C-0.66 7 -1.32 7 -2 7 C-2.33 7.66 -2.66 8.32 -3 9 C-2.25 2.25 -2.25 2.25 0 0 Z " fill="#FEF6C3" transform="translate(103,137)"/>
<path d="M0 0 C0.33 0.99 0.66 1.98 1 3 C-1.64 4.98 -4.28 6.96 -7 9 C-5.04783565 5.09567131 -3.12613393 2.96160056 0 0 Z " fill="#F5D53E" transform="translate(115,126)"/>
<path d="M0 0 C0.66 0 1.32 0 2 0 C2 0.99 2 1.98 2 3 C3.093125 2.938125 4.18625 2.87625 5.3125 2.8125 C9 3 9 3 10.9375 4.5 C11.288125 4.995 11.63875 5.49 12 6 C8.31733897 5.40049704 4.65456815 4.75241109 1 4 C0.67 2.68 0.34 1.36 0 0 Z " fill="#E28B6A" transform="translate(218,112)"/>
<path d="M0 0 C2.475 0.99 2.475 0.99 5 2 C4.67 3.32 4.34 4.64 4 6 C1.525 5.01 1.525 5.01 -1 4 C-0.67 2.68 -0.34 1.36 0 0 Z " fill="#E46B8B" transform="translate(129,254)"/>
<path d="M0 0 C-0.50603992 2.16874252 -0.99983813 3.99967627 -2 6 C-4 5 -4 5 -6 2 C-3 0 -3 0 0 0 Z " fill="#DB5DA8" transform="translate(232,182)"/>
<path d="M0 0 C2.4375 0.8125 2.4375 0.8125 5 2 C5.33 2.99 5.66 3.98 6 5 C1.545 4.01 1.545 4.01 -3 3 C-2.01 2.01 -1.02 1.02 0 0 Z " fill="#DC6B9B" transform="translate(216,177)"/>
<path d="M0 0 C2.45823172 3.68734758 3.01242616 6.69699971 4 11 C3.01 10.67 2.02 10.34 1 10 C-0.1577506 6.52674819 -0.06866652 3.63932552 0 0 Z " fill="#F8CEF7" transform="translate(280,166)"/>
<path d="M0 0 C-0.33 0.66 -0.66 1.32 -1 2 C-4.3 1.67 -7.6 1.34 -11 1 C-11 0.67 -11 0.34 -11 0 C-3.57142857 -1.28571429 -3.57142857 -1.28571429 0 0 Z " fill="#CB36E2" transform="translate(215,277)"/>
<path d="M0 0 C6.70909091 2.60909091 6.70909091 2.60909091 9 4 C9.33 4.99 9.66 5.98 10 7 C5.56541027 5.6062718 3.12621626 3.39417765 0 0 Z " fill="#FDE1F7" transform="translate(144,264)"/>
<path d="M0 0 C1.5625 1.25 1.5625 1.25 3 3 C2.875 5.125 2.875 5.125 2 7 C1.01 7.33 0.02 7.66 -1 8 C-1.125 2.25 -1.125 2.25 0 0 Z " fill="#DF4CBA" transform="translate(225,202)"/>
<path d="M0 0 C-1.28913487 0.67154933 -2.58140204 1.33708859 -3.875 2 C-4.59429687 2.37125 -5.31359375 2.7425 -6.0546875 3.125 C-8 4 -8 4 -10 4 C-10 3.01 -10 2.02 -10 1 C-3.375 -1.125 -3.375 -1.125 0 0 Z " fill="#FEE4D4" transform="translate(182,155)"/>
<path d="M0 0 C2.46278801 2.46278801 2.99771255 4.70676982 4 8 C3.01 8.495 3.01 8.495 2 9 C0.68 6.36 -0.64 3.72 -2 1 C-1.34 0.67 -0.68 0.34 0 0 Z " fill="#FCDFFA" transform="translate(299,140)"/>
<path d="M0 0 C4.455 0.99 4.455 0.99 9 2 C8.67 2.66 8.34 3.32 8 4 C6.02 4 4.04 4 2 4 C1.34 2.68 0.68 1.36 0 0 Z " fill="#E97469" transform="translate(247,100)"/>
<path d="M0 0 C6.625 0.75 6.625 0.75 10 3 C7.03 3 4.06 3 1 3 C0.67 2.01 0.34 1.02 0 0 Z " fill="#FBD8FB" transform="translate(163,308)"/>
<path d="M0 0 C2.97 0 5.94 0 9 0 C9 0.99 9 1.98 9 3 C5.85375007 3.26218749 4.38162983 3.24754367 1.6875 1.5 C1.130625 1.005 0.57375 0.51 0 0 Z " fill="#D631D8" transform="translate(163,305)"/>
<path d="M0 0 C1.32 0.33 2.64 0.66 4 1 C4 1.66 4 2.32 4 3 C5.32 3 6.64 3 8 3 C8 3.66 8 4.32 8 5 C7.01 5.33 6.02 5.66 5 6 C3.35 4.02 1.7 2.04 0 0 Z " fill="#D577A4" transform="translate(119,279)"/>
<path d="M0 0 C0.33 0 0.66 0 1 0 C1.19294408 4.82360189 0.75747614 8.49646738 -1 13 C-2.53690745 10.58959839 -3.09752136 9.49917715 -2.5390625 6.640625 C-2.23742187 5.85171875 -1.93578125 5.0628125 -1.625 4.25 C-1.32851563 3.45078125 -1.03203125 2.6515625 -0.7265625 1.828125 C-0.48679687 1.22484375 -0.24703125 0.6215625 0 0 Z " fill="#7C71D7" transform="translate(312,277)"/>
<path d="M0 0 C3.96 0.99 3.96 0.99 8 2 C8 2.33 8 2.66 8 3 C1.9453125 3.9765625 1.9453125 3.9765625 0 4 C-0.66 3.34 -1.32 2.68 -2 2 C-1.34 2 -0.68 2 0 2 C0 1.34 0 0.68 0 0 Z " fill="#CF58B8" transform="translate(165,276)"/>
<path d="M0 0 C0 0.99 0 1.98 0 3 C-3.83887763 4.48320272 -6.06204091 5.22419163 -10 4 C-8.71086513 3.32845067 -7.41859796 2.66291141 -6.125 2 C-5.40570313 1.62875 -4.68640625 1.2575 -3.9453125 0.875 C-2 0 -2 0 0 0 Z " fill="#FAD8FB" transform="translate(215,252)"/>
<path d="M0 0 C2.62187494 1.04874998 3.79371361 1.64931313 5.25 4.125 C5.4975 4.74375 5.745 5.3625 6 6 C4.02 5.34 2.04 4.68 0 4 C0 2.68 0 1.36 0 0 Z " fill="#DA798F" transform="translate(128,250)"/>
<path d="M0 0 C0.66 0 1.32 0 2 0 C0.90931332 3.77545388 0.0916909 6.47043472 -3 9 C-2.5020163 5.26512223 -2.12508244 3.18762365 0 0 Z " fill="#FAD5FC" transform="translate(237,245)"/>
<path d="M0 0 C0.99 0.33 1.98 0.66 3 1 C4.1875 4.5625 4.1875 4.5625 5 8 C3.68 7.67 2.36 7.34 1 7 C0.67 4.69 0.34 2.38 0 0 Z " fill="#EA7371" transform="translate(120,240)"/>
<path d="M0 0 C0.66 0 1.32 0 2 0 C0.8141763 3.37503669 -0.27573689 5.64722731 -3 8 C-3.66 7.67 -4.32 7.34 -5 7 C-4.21654285 5.82780457 -3.42297164 4.66236332 -2.625 3.5 C-2.18414062 2.8503125 -1.74328125 2.200625 -1.2890625 1.53125 C-0.65097656 0.77328125 -0.65097656 0.77328125 0 0 Z " fill="#FBD5F8" transform="translate(227,237)"/>
<path d="M0 0 C0.66 0.66 1.32 1.32 2 2 C0.35 3.98 -1.3 5.96 -3 8 C-3.75 6.25 -3.75 6.25 -4 4 C-2.0625 1.75 -2.0625 1.75 0 0 Z " fill="#FCEFD8" transform="translate(157,168)"/>
<path d="M0 0 C1.32 0 2.64 0 4 0 C4.33 0.99 4.66 1.98 5 3 C4.01 3.66 3.02 4.32 2 5 C1.01 3.68 0.02 2.36 -1 1 C-0.67 0.67 -0.34 0.34 0 0 Z " fill="#E36A8F" transform="translate(255,128)"/>
<path d="M0 0 C-1.65 0.33 -3.3 0.66 -5 1 C-5.33 1.99 -5.66 2.98 -6 4 C-7.65 4 -9.3 4 -11 4 C-10.01 3.67 -9.02 3.34 -8 3 C-8 2.34 -8 1.68 -8 1 C-4.93251126 -0.86240388 -3.40254489 -1.2151946 0 0 Z " fill="#EEBD2C" transform="translate(172,92)"/>
<path d="M0 0 C2.66666667 1.33333333 5.33333333 2.66666667 8 4 C8 4.66 8 5.32 8 6 C5.0280615 4.87548273 2.66559313 3.77706209 0 2 C0 1.34 0 0.68 0 0 Z " fill="#CD72A4" transform="translate(162,248)"/>
<path d="M0 0 C0.66 0 1.32 0 2 0 C1.67 1.65 1.34 3.3 1 5 C0.01 5 -0.98 5 -2 5 C-2.33 5.66 -2.66 6.32 -3 7 C-3 5.35 -3 3.7 -3 2 C-2.34 2 -1.68 2 -1 2 C-0.67 1.34 -0.34 0.68 0 0 Z " fill="#FBE7FB" transform="translate(239,240)"/>
<path d="M0 0 C0.33 0.99 0.66 1.98 1 3 C-0.375 5.6875 -0.375 5.6875 -2 8 C-2.33 8 -2.66 8 -3 8 C-3 6.02 -3 4.04 -3 2 C-2.01 2 -1.02 2 0 2 C0 1.34 0 0.68 0 0 Z " fill="#C452BB" transform="translate(228,232)"/>
<path d="M0 0 C0.99 0 1.98 0 3 0 C1.92598892 2.91517292 1.22189824 4.77810176 -1 7 C-1.04254356 5.00045254 -1.04080783 2.99958364 -1 1 C-0.67 0.67 -0.34 0.34 0 0 Z " fill="#EE6C7F" transform="translate(149,224)"/>
<path d="M0 0 C0.99 0.33 1.98 0.66 3 1 C2.34 4.3 1.68 7.6 1 11 C0.67 11 0.34 11 0 11 C0 7.37 0 3.74 0 0 Z " fill="#D531D6" transform="translate(245,221)"/>
<path d="M0 0 C0.144375 0.639375 0.28875 1.27875 0.4375 1.9375 C0.81007181 3.97545146 0.81007181 3.97545146 2 5 C2.04080783 6.99958364 2.04254356 9.00045254 2 11 C-0.14208427 7.7868736 -0.59687808 5.78934603 -1 2 C-0.67 1.34 -0.34 0.68 0 0 Z " fill="#CC4BBA" transform="translate(241,200)"/>
<path d="M0 0 C2.31 0.33 4.62 0.66 7 1 C5.625 3.5 5.625 3.5 4 6 C3.34 6 2.68 6 2 6 C2 5.01 2 4.02 2 3 C1.34 2.67 0.68 2.34 0 2 C0 1.34 0 0.68 0 0 Z " fill="#EB6D85" transform="translate(188,186)"/>
<path d="M0 0 C1.32 0.33 2.64 0.66 4 1 C4.33 3.31 4.66 5.62 5 8 C2.74754119 5.31158141 1.11786042 3.35358125 0 0 Z " fill="#FBDDF7" transform="translate(255,175)"/>
</svg>
