<?xml version="1.0" encoding="UTF-8"?>
<svg version="1.1" xmlns="http://www.w3.org/2000/svg" width="1024" height="1024">
<path d="M0 0 C74.4606329 -0.52430754 74.4606329 -0.52430754 105.5390625 -0.63476562 C112.65267321 -0.66021792 119.7662802 -0.68648417 126.87988281 -0.71411133 C127.77145545 -0.71754006 128.66302808 -0.7209688 129.58161807 -0.72450143 C143.97503366 -0.78104116 158.36777401 -0.8835284 172.76078922 -1.00298635 C187.53230782 -1.12456312 202.303473 -1.19676508 217.0754714 -1.22315043 C226.19084912 -1.24098789 235.30431922 -1.29731386 244.41910964 -1.40291407 C250.66981381 -1.47164249 256.9195322 -1.49240049 263.17058676 -1.47551791 C266.77786044 -1.46719005 270.38180282 -1.47992677 273.98848343 -1.54967117 C295.04142349 -1.93679914 295.04142349 -1.93679914 299.8976326 1.24226403 C303.21251805 4.65115347 304.52837698 8.51189949 306 13 C307.20837919 15.18445683 308.45519429 17.34847926 309.75390625 19.48046875 C311.02542393 21.71501667 312.29489149 23.95073218 313.5625 26.1875 C314.96506579 28.65295907 316.36937173 31.11742618 317.7734375 33.58203125 C318.12595078 34.20130493 318.47846405 34.82057861 318.84165955 35.45861816 C322.43802833 41.77497786 326.05878125 48.0771728 329.6875 54.375 C330.29537354 55.43452881 330.90324707 56.49405762 331.52954102 57.58569336 C334.57153858 62.87044724 337.66417793 68.11332337 340.86328125 73.3046875 C341.47534424 74.30709473 342.08740723 75.30950195 342.71801758 76.34228516 C343.87397573 78.22849718 345.04363819 80.10640476 346.22924805 81.97412109 C346.74140869 82.81281738 347.25356934 83.65151367 347.78125 84.515625 C348.4628418 85.60278809 348.4628418 85.60278809 349.15820312 86.71191406 C350.31763616 89.86336604 349.86154058 91.77836348 349 95 C347.74755859 97.65527344 347.74755859 97.65527344 346.1484375 100.359375 C345.55224609 101.37902344 344.95605469 102.39867187 344.34179688 103.44921875 C343.36823242 105.08310547 343.36823242 105.08310547 342.375 106.75 C341.69497822 107.90697352 341.01595953 109.06453713 340.33789062 110.22265625 C338.92932676 112.62665148 337.51649359 115.02805773 336.10058594 117.42773438 C332.85983022 122.9283488 329.68333677 128.46603409 326.5 134 C325.25030108 136.16684034 324.00030011 138.3335065 322.75 140.5 C322.13125 141.5725 321.5125 142.645 320.875 143.75 C319 147 317.125 150.25 315.25 153.5 C314.63116943 154.57266113 314.01233887 155.64532227 313.37475586 156.75048828 C312.12564482 158.91557071 310.87645871 161.08060982 309.62719727 163.24560547 C306.48797691 168.68615706 303.35009437 174.12747216 300.21484375 179.5703125 C293.59777108 191.0544882 286.95366023 202.52196894 280.26708984 213.96582031 C274.10080946 224.52620282 267.9950405 235.12126766 261.89111328 245.71777344 C258.76319852 251.14659942 255.63141552 256.57319281 252.5 262 C251.24998121 264.16665583 249.99998122 266.3333225 248.75 268.5 C230 301 230 301 211.25 333.5 C210.63116943 334.57266113 210.01233887 335.64532227 209.37475586 336.75048828 C208.12564482 338.91557071 206.87645871 341.08060982 205.62719727 343.24560547 C202.48797691 348.68615706 199.35009437 354.12747216 196.21484375 359.5703125 C193.1092927 364.96108791 189.99827861 370.34868308 186.88476562 375.73486328 C185.25705883 378.55467555 183.63370605 381.37694115 182.01219177 384.20031738 C180.40815604 386.99013269 178.79721052 389.77595633 177.1875 392.5625 C176.59445068 393.59842285 176.00140137 394.6343457 175.39038086 395.70166016 C174.84260986 396.64702637 174.29483887 397.59239258 173.73046875 398.56640625 C173.24989014 399.40115479 172.76931152 400.23590332 172.27416992 401.09594727 C171 403 171 403 169 404 C166.58349609 402.86694336 166.58349609 402.86694336 163.5234375 401.08984375 C162.39035156 400.43693359 161.25726563 399.78402344 160.08984375 399.11132812 C158.85146813 398.38688004 157.61318937 397.66226636 156.375 396.9375 C155.09805446 396.19787978 153.82070594 395.45895488 152.54296875 394.72070312 C148.689264 392.49078712 144.84419892 390.24625002 141 388 C138.92972047 386.79291219 136.85941054 385.58587654 134.7890625 384.37890625 C131.88613634 382.68533009 128.98391825 380.990586 126.08349609 379.29272461 C118.41835288 374.80989989 110.71501761 370.3961267 103 366 C93.29786269 360.47102963 83.62853264 354.88925395 73.99023438 349.24951172 C66.17660005 344.67929756 58.34246087 340.1454963 50.5 335.625 C49.62719391 335.12188797 49.62719391 335.12188797 48.73675537 334.60861206 C45.49163491 332.73826743 42.24603296 330.86876046 39 329 C42.27513675 322.32527546 45.59023436 315.73839921 49.4375 309.375 C50.3084194 307.91343182 51.17812951 306.45114263 52.046875 304.98828125 C52.51673828 304.19760254 52.98660156 303.40692383 53.47070312 302.59228516 C56.41352508 297.60395765 59.29733531 292.58145592 62.1875 287.5625 C62.82486084 286.45632324 63.46222168 285.35014648 64.11889648 284.21044922 C65.42762416 281.93876335 66.73613484 279.66695245 68.04443359 277.39501953 C71.19332051 271.92830025 74.3467849 266.46422354 77.5 261 C81.26365365 254.47767561 85.02644623 247.95486237 88.78515625 241.4296875 C94.8074735 230.97793764 100.84674164 220.53703298 106.9375 210.125 C112.70934174 200.25539694 118.39974622 190.3406858 124.05639648 180.40478516 C129.65615269 170.57418364 135.33084475 160.79217726 141 151 C94.47 151 47.94 151 0 151 C0 101.17 0 51.34 0 0 Z " fill="#000000" transform="translate(72,515)"/>
<path d="M0 0 C6.36010872 0.24680867 12.72246843 0.35538959 19.08599854 0.47607422 C31.54251181 0.73247138 43.98888974 1.14127439 56.43756104 1.64794922 C56.7221005 2.16131081 57.00663996 2.67467239 57.29980183 3.20359039 C58.60537199 5.55838011 59.91171959 7.91273768 61.21807861 10.26708984 C61.66560738 11.07454651 62.11313614 11.88200317 62.57422638 12.71392822 C66.01134199 18.9064614 69.53184348 25.04459761 73.12506104 31.14794922 C74.32872466 33.20232123 75.53182996 35.25702045 76.73443604 37.31201172 C77.34351807 38.35260742 77.9526001 39.39320313 78.58013916 40.46533203 C81.69753297 45.80686012 84.78698646 51.16443295 87.87506104 56.52294922 C88.49727539 57.60253906 89.11948975 58.68212891 89.76055908 59.79443359 C91.0226762 61.98477442 92.28463888 64.17520424 93.54644775 66.36572266 C96.67436252 71.79454864 99.80614551 77.22114203 102.93756104 82.64794922 C104.18757982 84.81460505 105.43757982 86.98127172 106.68756104 89.14794922 C107.30631104 90.22044922 107.92506104 91.29294922 108.56256104 92.39794922 C129.18756104 128.14794922 129.18756104 128.14794922 131.06280518 131.3984375 C132.31191622 133.56351993 133.56110233 135.72855904 134.81036377 137.89355469 C137.94958413 143.33410628 141.08746666 148.77542138 144.22271729 154.21826172 C150.26811262 164.71027015 156.32866322 175.19276598 162.43756104 185.64794922 C169.18457297 197.19524438 175.87095421 208.77696949 182.54644775 220.36572266 C185.67436252 225.79454864 188.80614551 231.22114203 191.93756104 236.64794922 C193.18757982 238.81460505 194.43757982 240.98127172 195.68756104 243.14794922 C196.30631104 244.22044922 196.92506104 245.29294922 197.56256104 246.39794922 C203.18756104 256.14794922 203.18756104 256.14794922 205.0647583 259.40185547 C206.30732123 261.55556642 207.54999592 263.70921288 208.79278564 265.86279297 C211.69070726 270.88479184 214.58759453 275.90737729 217.48031616 280.93237305 C218.49703302 282.69840444 219.51411762 284.46422353 220.53131104 286.22998047 C221.80156977 288.43529077 223.07115122 290.64099138 224.33990479 292.84716797 C224.91998291 293.85392578 225.50006104 294.86068359 226.09771729 295.89794922 C226.65088623 296.86216797 227.20405518 297.82638672 227.77398682 298.81982422 C228.89492834 300.72545771 230.0506209 302.61102021 231.237854 304.47607422 C231.79746826 305.35779297 232.35708252 306.23951172 232.93365479 307.14794922 C233.43953125 307.92138672 233.94540771 308.69482422 234.46661377 309.49169922 C235.43756104 311.64794922 235.43756104 311.64794922 235.42584229 313.71899414 C233.95022945 316.59913668 231.9428984 317.45622875 229.12896729 319.01123047 C228.00281006 319.64295166 226.87665283 320.27467285 225.71636963 320.92553711 C224.47763693 321.60390841 223.23886639 322.28221061 222.00006104 322.96044922 C220.72402858 323.67181713 219.44881037 324.38464742 218.17437744 325.09887695 C215.54780823 326.56994592 212.91827687 328.03550078 210.28668213 329.49755859 C204.59111571 332.66995267 198.95278965 335.94099626 193.31256104 339.21044922 C191.1642786 340.45160307 189.01584088 341.69248818 186.86724854 342.93310547 C185.80731689 343.54557129 184.74738525 344.15803711 183.65533447 344.7890625 C178.25085461 347.91119525 172.84410725 351.02939656 167.43756104 354.14794922 C159.76651361 358.57286421 152.09657187 362.9996827 144.42803955 367.42895508 C141.18498468 369.30086102 137.94032261 371.16995425 134.69537354 373.03857422 C130.53752961 375.43330632 126.38742357 377.84073603 122.24224854 380.25732422 C120.3282533 381.36681527 118.41419412 382.47619601 116.50006104 383.58544922 C115.62374023 384.10002686 114.74741943 384.61460449 113.84454346 385.14477539 C113.04121582 385.60859619 112.23788818 386.07241699 111.41021729 386.55029297 C110.71162598 386.95755615 110.01303467 387.36481934 109.29327393 387.78442383 C107.43756104 388.64794922 107.43756104 388.64794922 104.43756104 388.64794922 C40.68756104 278.14794923 40.68756104 278.14794923 38.81158447 274.89624023 C37.56485848 272.73525934 36.31811377 270.57428924 35.0713501 268.41333008 C31.8961022 262.90976071 28.72120608 257.40598889 25.54693604 251.90185547 C18.18879152 239.14378979 10.82221123 226.39069279 3.43756104 213.64794922 C0.71221006 216.92892204 -1.59463608 220.20651854 -3.70697021 223.90966797 C-4.29349365 224.93253906 -4.88001709 225.95541016 -5.48431396 227.00927734 C-6.10822021 228.10691406 -6.73212646 229.20455078 -7.37493896 230.33544922 C-8.03985309 231.49781639 -8.70522634 232.65992103 -9.37103271 233.82177734 C-10.75253026 236.23336382 -12.13205462 238.64606266 -13.51019287 241.05957031 C-16.67582451 246.59965877 -19.87067784 252.12288903 -23.06243896 257.64794922 C-24.31257538 259.81453718 -25.56257496 261.9812041 -26.81243896 264.14794922 C-29.31243896 268.48128255 -31.81243896 272.81461589 -34.31243896 277.14794922 C-34.9318335 278.22157715 -35.55122803 279.29520508 -36.18939209 280.40136719 C-37.43284406 282.55666233 -38.67633333 284.71193595 -39.91986084 286.8671875 C-42.80706771 291.87132596 -45.69394327 296.87565442 -48.57940674 301.88079834 C-49.58863001 303.63136163 -50.59797733 305.38185333 -51.60736084 307.13232422 C-52.86411556 309.31187087 -54.12064482 311.49154754 -55.37689209 313.67138672 C-59.41660338 320.67656205 -63.48180736 327.66653429 -67.56243896 334.64794922 C-70.95246618 333.35686731 -74.08404728 331.8901338 -77.23822021 330.10107422 C-78.13564941 329.59342529 -79.03307861 329.08577637 -79.95770264 328.56274414 C-80.92039062 328.01336182 -81.88307861 327.46397949 -82.87493896 326.89794922 C-83.89112305 326.32085205 -84.90730713 325.74375488 -85.95428467 325.14916992 C-94.07948235 320.52269397 -102.15808056 315.81812778 -110.22576904 311.09228516 C-117.97490671 306.55808929 -125.76161766 302.09230399 -133.56243896 297.64794922 C-143.26612608 292.11832025 -152.94233026 286.54467116 -162.57440186 280.89086914 C-167.95981501 277.73327875 -173.36596787 274.61792457 -178.80072021 271.54638672 C-180.6111433 270.51869115 -182.42117092 269.49030252 -184.2310791 268.46170044 C-185.96757644 267.47876781 -187.70954546 266.50552189 -189.45159912 265.5324707 C-190.49751221 264.93764893 -191.54342529 264.34282715 -192.62103271 263.72998047 C-193.5522998 263.20637939 -194.48356689 262.68277832 -195.4430542 262.14331055 C-197.56243896 260.64794922 -197.56243896 260.64794922 -198.56243896 257.64794922 C-197.42938232 255.11791992 -197.42938232 255.11791992 -195.65228271 252.07373047 C-194.99929199 250.94370605 -194.34630127 249.81368164 -193.67352295 248.64941406 C-192.949191 247.41964362 -192.22465785 246.18999167 -191.49993896 244.96044922 C-190.76083435 243.68965338 -190.02264449 242.4183251 -189.28533936 241.14648438 C-187.40905503 237.91522057 -185.521258 234.69085724 -183.62982178 231.46844482 C-182.04925044 228.7726705 -180.47775993 226.07163417 -178.90618896 223.37060547 C-176.62670435 219.4552745 -174.34231973 215.54286403 -172.05462646 211.63232422 C-166.4781474 202.08971989 -160.97032406 192.50737129 -155.45355225 182.93017578 C-152.32563748 177.5013498 -149.19385449 172.07475641 -146.06243896 166.64794922 C-144.81242018 164.48129339 -143.56242018 162.31462672 -142.31243896 160.14794922 C-134.81243896 147.14794922 -127.31243896 134.14794922 -119.81243896 121.14794922 C-119.1936084 120.07528809 -118.57477783 119.00262695 -117.93719482 117.89746094 C-116.68808378 115.73237851 -115.43889767 113.5673394 -114.18963623 111.40234375 C-111.05041587 105.96179216 -107.91253334 100.52047706 -104.77728271 95.07763672 C-98.1610278 83.59488025 -91.51853886 72.12834021 -84.83172607 60.68652344 C-79.99403914 52.40285947 -75.19531867 44.09708122 -70.41400146 35.78076172 C-69.22416547 33.71362729 -67.97570968 31.679664 -66.68597412 29.67333984 C-64.7508908 26.40909189 -63.86064299 23.20325073 -62.88812256 19.54443359 C-53.93158147 -7.96266863 -23.60683955 -1.01251985 0 0 Z " fill="#000000" transform="translate(493.56243896484375,635.35205078125)"/>
<path d="M0 0 C2.8870476 1.48874882 3.75696759 3.54386766 5.31542969 6.36743164 C5.95230713 7.50390137 6.58918457 8.64037109 7.24536133 9.8112793 C7.92761086 11.05783985 8.60982012 12.30442245 9.29199219 13.55102539 C10.00590528 14.8322987 10.72133762 16.11272661 11.43823242 17.39233398 C12.53581318 19.35198689 13.63237724 21.31213812 14.72416687 23.27502441 C18.05925922 29.2704484 21.50434802 35.19824841 24.97949219 41.11352539 C31.71142557 52.61586419 38.37356068 64.15777835 45.02587891 75.70629883 C48.15379367 81.13512481 51.28557667 86.5617182 54.41699219 91.98852539 C55.66701098 94.15518122 56.91701097 96.32184789 58.16699219 98.48852539 C59.09511719 100.09727539 59.09511719 100.09727539 60.04199219 101.73852539 C65.66699219 111.48852539 65.66699219 111.48852539 67.54321289 114.74072266 C68.78904988 116.90011934 70.03498037 119.05946208 71.28100586 121.21875 C74.47048172 126.74620136 77.65816104 132.2746766 80.84277344 137.80493164 C82.13830876 140.05365122 83.43388115 142.30234944 84.72949219 144.55102539 C85.35025635 145.62932617 85.97102051 146.70762695 86.6105957 147.81860352 C89.40815588 152.67094272 92.21819369 157.51421845 95.08105469 162.32836914 C95.55438232 163.1249292 96.02770996 163.92148926 96.51538086 164.7421875 C97.38124739 166.19466479 98.25094755 167.64486657 99.12524414 169.09228516 C101.91699219 173.77049596 101.91699219 173.77049596 101.91699219 175.98852539 C102.57699219 175.98852539 103.23699219 175.98852539 103.91699219 175.98852539 C104.18995117 175.26898682 104.46291016 174.54944824 104.74414062 173.80810547 C105.8975999 171.03514519 107.21437906 168.49373169 108.68261719 165.87524414 C109.23554443 164.8872583 109.78847168 163.89927246 110.3581543 162.88134766 C111.25352905 161.29471313 111.25352905 161.29471313 112.16699219 159.67602539 C112.79033447 158.56735107 113.41367676 157.45867676 114.0559082 156.31640625 C119.39430008 146.85164336 124.85509684 137.46043521 130.35058594 128.08618164 C134.07034165 121.73805866 137.74587984 115.36486743 141.41699219 108.98852539 C148.0104252 97.54361121 154.64809362 86.12526317 161.31982422 74.72583008 C162.86918297 72.07046316 164.40820324 69.40937307 165.94433594 66.74633789 C166.85188084 65.18122956 167.75943247 63.61612513 168.66699219 62.05102539 C169.07344971 61.34067139 169.47990723 60.63031738 169.89868164 59.8984375 C172.6909838 55.10152958 172.6909838 55.10152958 174.91699219 53.98852539 C177.30175781 55.10571289 177.30175781 55.10571289 180.32324219 56.86352539 C181.44617676 57.51135986 182.56911133 58.15919434 183.72607422 58.82666016 C184.95645364 59.54715651 186.18675763 60.26778171 187.41699219 60.98852539 C188.68722202 61.7248819 189.95789871 62.46046808 191.22900391 63.1953125 C193.84975424 64.71193497 196.46790618 66.23290128 199.08398438 67.75756836 C203.66684319 70.42748062 208.26357801 73.07312812 212.86035156 75.71899414 C217.14255592 78.18474472 221.42076085 80.65739506 225.69921875 83.12963867 C230.01962592 85.6255097 234.34153142 88.11877911 238.66357422 90.61181641 C240.82874321 91.86077739 242.99378275 93.10996281 245.15869141 94.359375 C250.62294589 97.5127789 256.08878608 100.6633769 261.55761719 103.80883789 C266.95958022 106.91616879 272.35416227 110.03605627 277.74658203 113.15991211 C280.9589734 115.0127391 284.18154022 116.84692405 287.40527344 118.67993164 C289.43030581 119.84478737 291.45505833 121.01012978 293.47949219 122.17602539 C294.42018555 122.70470215 295.36087891 123.23337891 296.33007812 123.77807617 C297.61253418 124.52226807 297.61253418 124.52226807 298.92089844 125.28149414 C299.67185791 125.70970459 300.42281738 126.13791504 301.1965332 126.57910156 C302.91699219 127.98852539 302.91699219 127.98852539 303.8190918 129.86230469 C303.95414809 132.79548485 302.99626313 134.21192337 301.47949219 136.71508789 C300.64333374 138.11863525 300.64333374 138.11863525 299.7902832 139.55053711 C299.17209717 140.56132324 298.55391113 141.57210937 297.91699219 142.61352539 C296.61273421 144.79529568 295.30937864 146.97760563 294.00683594 149.16040039 C293.32862793 150.28897461 292.65041992 151.41754883 291.95166016 152.58032227 C288.7325242 157.97258744 285.60699632 163.41777484 282.47949219 168.86352539 C281.22191806 171.04595443 279.9641041 173.22824529 278.70605469 175.41040039 C277.4429595 177.60306589 276.17993875 179.79577428 274.91699219 181.98852539 C267.0403663 195.66406853 259.14579127 209.32813497 251.18408203 222.9543457 C245.01780165 233.51472821 238.91203269 244.10979305 232.80810547 254.70629883 C229.6801907 260.13512481 226.54840771 265.5617182 223.41699219 270.98852539 C222.1669734 273.15518122 220.9169734 275.32184789 219.66699219 277.48852539 C212.16699219 290.48852539 204.66699219 303.48852539 197.16699219 316.48852539 C196.54816162 317.56118652 195.92933105 318.63384766 195.29174805 319.73901367 C194.04263701 321.9040961 192.79345089 324.06913521 191.54418945 326.23413086 C188.40496909 331.67468245 185.26708656 337.11599755 182.13183594 342.55883789 C175.78879428 353.56799694 169.43206475 364.56909164 163.04199219 375.55102539 C162.44056396 376.58694824 161.83913574 377.62287109 161.21948242 378.69018555 C160.66848877 379.63555176 160.11749512 380.58091797 159.54980469 381.55493164 C159.06398926 382.38968018 158.57817383 383.22442871 158.07763672 384.08447266 C156.91699219 385.98852539 156.91699219 385.98852539 155.91699219 386.98852539 C154.55729145 387.11191122 153.19139532 387.1679744 151.82640076 387.19625854 C150.94468704 387.21642029 150.06297333 387.23658203 149.15454102 387.25735474 C147.69201904 387.2825972 147.69201904 387.2825972 146.19995117 387.30834961 C145.17877701 387.32937744 144.15760284 387.35040527 143.10548401 387.37207031 C133.66696343 387.55517003 124.22718712 387.6611206 114.78730679 387.74421501 C108.44148869 387.80084518 102.09819806 387.88242453 95.75366211 388.02416992 C89.62493934 388.16054532 83.49850934 388.23303865 77.36836433 388.26086807 C75.03293435 388.28234158 72.69759733 388.32639484 70.3630352 388.39358139 C52.56710939 388.8821338 52.56710939 388.8821338 48.18840599 385.75338554 C45.0223814 382.30339733 43.53930495 378.35320092 41.91699219 373.98852539 C40.70064257 371.8084966 39.45327016 369.64521752 38.16308594 367.50805664 C36.89153373 365.27352837 35.62206836 363.03781153 34.35449219 360.80102539 C32.94933741 358.33034942 31.54247946 355.86064433 30.13574219 353.39086914 C29.78281601 352.77076965 29.42988983 352.15067017 29.06626892 351.51177979 C25.51915181 345.28214486 21.94025048 339.07099119 18.35449219 332.86352539 C17.74089844 331.80125732 17.12730469 330.73898926 16.49511719 329.64453125 C15.25695242 327.50131616 14.01867144 325.35816822 12.78027344 323.21508789 C10.89664169 319.95328532 9.01576898 316.68990695 7.13574219 313.42602539 C1.08951907 302.93113623 -4.97264262 292.44622 -11.08300781 281.98852539 C-17.83001975 270.44123023 -24.51640099 258.85950512 -31.19189453 247.27075195 C-34.3198093 241.84192597 -37.45159229 236.41533258 -40.58300781 230.98852539 C-41.8330266 228.82186956 -43.0830266 226.65520289 -44.33300781 224.48852539 C-44.95175781 223.41602539 -45.57050781 222.34352539 -46.20800781 221.23852539 C-81.83300781 159.48852539 -81.83300781 159.48852539 -83.70825195 156.23803711 C-84.95736299 154.07295468 -86.20654911 151.90791557 -87.45581055 149.74291992 C-90.59503091 144.30236833 -93.73291344 138.86105323 -96.86816406 133.41821289 C-103.05811813 122.6754362 -109.26654677 111.94418724 -115.52050781 101.23852539 C-117.20471049 98.35239207 -118.88848534 95.46601025 -120.57177734 92.5793457 C-121.53548785 90.92718158 -122.49992947 89.27544356 -123.46533203 87.62426758 C-124.63391004 85.62317322 -125.7970235 83.61903173 -126.95800781 81.61352539 C-127.57417969 80.55391602 -128.19035156 79.49430664 -128.82519531 78.40258789 C-130.08300781 75.98852539 -130.08300781 75.98852539 -130.08300781 73.98852539 C-71.58300781 40.23852539 -71.58300781 40.23852539 -68.33251953 38.36328125 C-66.16743711 37.11417021 -64.00239799 35.8649841 -61.83740234 34.61572266 C-56.39685075 31.4765023 -50.95553566 28.33861976 -45.51269531 25.20336914 C-44.42811035 24.57817383 -43.34352539 23.95297852 -42.22607422 23.30883789 C-40.06514054 22.06387147 -37.90336975 20.82035679 -35.74072266 19.57836914 C-30.21566545 16.39954604 -24.71856046 13.18203675 -19.25488281 9.89868164 C-18.15547363 9.24262939 -17.05606445 8.58657715 -15.92333984 7.91064453 C-13.82433939 6.6558662 -11.73124154 5.39114554 -9.64501953 4.11523438 C-8.70932129 3.55779541 -7.77362305 3.00035645 -6.80957031 2.42602539 C-5.99053223 1.92973633 -5.17149414 1.43344727 -4.32763672 0.92211914 C-2.08300781 -0.01147461 -2.08300781 -0.01147461 0 0 Z " fill="#000000" transform="translate(425.0830078125,0.011474609375)"/>
<path d="M0 0 C7.86407742 3.82395911 15.48215663 7.9119277 23 12.375 C25.1034897 13.61313001 27.20768605 14.85006006 29.3125 16.0859375 C30.40304687 16.7262793 31.49359375 17.36662109 32.6171875 18.02636719 C38.38746731 21.39291901 44.19439551 24.69491808 50 28 C59.66881542 33.50790848 69.30042015 39.07561416 78.90209961 44.69995117 C86.75726393 49.29371759 94.65493978 53.80985458 102.5625 58.3125 C112.11731855 63.75321419 121.62242744 69.25862905 131 75 C129.70891809 78.39002721 128.24218459 81.52160831 126.453125 84.67578125 C125.94539551 85.57337158 125.43766602 86.47096191 124.91455078 87.39575195 C124.36524902 88.35827881 123.81594727 89.32080566 123.25 90.3125 C122.67362793 91.32723389 122.09725586 92.34196777 121.50341797 93.38745117 C116.26959599 102.5780878 110.93975958 111.71188214 105.59765625 120.83984375 C99.98321325 130.43942238 94.4419968 140.08135951 88.89111328 149.71777344 C85.76319852 155.14659942 82.63141552 160.57319281 79.5 166 C78.24998121 168.16665583 76.99998122 170.3333225 75.75 172.5 C68.25 185.5 68.25 185.5 66.37426758 188.7512207 C65.1266526 190.91378583 63.87909384 193.07638339 62.6315918 195.23901367 C59.47056551 200.71870371 56.30850691 206.19779358 53.14453125 211.67578125 C52.50257813 212.78759766 51.860625 213.89941406 51.19921875 215.04492188 C50.00819246 217.10764131 48.81683131 219.17016747 47.625 221.23242188 C41.71544723 231.46885408 35.86448435 241.73715239 30 252 C99.3 252.495 99.3 252.495 170 253 C170 302.83 170 352.66 170 404 C71.66 404 -26.68 404 -128 404 C-135.5 391 -143 378 -150.5 365 C-152.34078125 361.80957031 -152.34078125 361.80957031 -154.21875 358.5546875 C-156.48542819 354.6258575 -158.75157239 350.69672062 -161.01696777 346.76715088 C-162.02619104 345.01658759 -163.03553836 343.26609589 -164.04492188 341.515625 C-165.3016766 339.33607835 -166.55820586 337.15640168 -167.81445312 334.9765625 C-168.67973633 333.47609375 -168.67973633 333.47609375 -169.5625 331.9453125 C-170.12066406 330.97110352 -170.67882812 329.99689453 -171.25390625 328.99316406 C-172.48381825 326.88484176 -173.74465954 324.79441199 -175.02734375 322.71777344 C-175.67832031 321.65333008 -176.32929687 320.58888672 -177 319.4921875 C-177.598125 318.53425293 -178.19625 317.57631836 -178.8125 316.58935547 C-180 314 -180 314 -179.86303711 311.9855957 C-178.77285027 309.47739499 -177.53508525 307.12176912 -176.19140625 304.73828125 C-175.61463135 303.710979 -175.03785645 302.68367676 -174.44360352 301.62524414 C-173.51245728 299.98543579 -173.51245728 299.98543579 -172.5625 298.3125 C-171.9243335 297.18126709 -171.28616699 296.05003418 -170.62866211 294.88452148 C-166.77925501 288.07991618 -162.8776713 281.30914603 -158.88964844 274.58496094 C-155.14691427 268.27303636 -151.47607396 261.92064898 -147.8125 255.5625 C-147.17521973 254.45672607 -146.53793945 253.35095215 -145.88134766 252.21166992 C-143.9203862 248.8080747 -141.96011785 245.40408111 -140 242 C-132.12380667 228.3242105 -124.22879716 214.66038714 -116.26708984 201.03417969 C-110.10080946 190.47379718 -103.9950405 179.87873234 -97.89111328 169.28222656 C-94.76319852 163.85340058 -91.63141552 158.42680719 -88.5 153 C-87.24998121 150.83334417 -85.99998122 148.6666775 -84.75 146.5 C-72.25 124.83333333 -59.75 103.16666667 -47.25 81.5 C-46.63116943 80.42733887 -46.01233887 79.35467773 -45.37475586 78.24951172 C-44.12564482 76.08442929 -42.87645871 73.91939018 -41.62719727 71.75439453 C-38.48797691 66.31384294 -35.35009437 60.87252784 -32.21484375 55.4296875 C-24.4013114 41.86889491 -16.5463103 28.33313488 -8.6484375 14.82128906 C-5.76278557 9.88251631 -2.88154051 4.94117235 0 0 Z " fill="#000000" transform="translate(782,105)"/>
<path d="M0 0 C2.61230131 1.24416043 3.27758633 2.65589828 4.64550781 5.19165039 C5.39743408 6.55737183 5.39743408 6.55737183 6.16455078 7.95068359 C6.69709473 8.94672607 7.22963867 9.94276855 7.77832031 10.96899414 C8.9433138 13.08970581 10.1100344 15.20946946 11.27832031 17.32836914 C12.17744141 18.96902344 12.17744141 18.96902344 13.09472656 20.64282227 C15.90657964 25.71691135 18.83935294 30.71779793 21.77832031 35.71899414 C28.57413186 47.32476057 35.29922836 58.9704397 42.01220703 70.62426758 C45.1401218 76.05309356 48.27190479 81.47968695 51.40332031 86.90649414 C52.6533391 89.07314997 53.9033391 91.23981664 55.15332031 93.40649414 C55.77207031 94.47899414 56.39082031 95.55149414 57.02832031 96.65649414 C77.65332032 132.40649415 77.65332032 132.40649415 79.52856445 135.65698242 C80.77767549 137.82206485 82.02686161 139.98710396 83.27612305 142.15209961 C86.41534341 147.5926512 89.55322594 153.0339663 92.68847656 158.47680664 C98.7338719 168.96881508 104.7944225 179.4513109 110.90332031 189.90649414 C116.36605939 199.25579736 121.79862599 208.62202732 127.19677734 218.00878906 C130.14012127 223.12595762 133.09151911 228.2377206 136.07954407 233.32891846 C137.47952057 235.71527789 138.87434 238.10463267 140.26882935 240.49420166 C141.2558607 242.18062017 142.25028426 243.86270525 143.24487305 245.54467773 C143.84114502 246.56770996 144.43741699 247.59074219 145.05175781 248.64477539 C145.84332275 249.99116089 145.84332275 249.99116089 146.65087891 251.36474609 C147.96738095 254.03650102 148.73588568 255.92834406 148.90332031 258.90649414 C147.78613281 261.63183594 147.78613281 261.63183594 146.02832031 264.60571289 C145.38040527 265.71914063 144.73249023 266.83256836 144.06494141 267.97973633 C143.34460072 269.18460833 142.62405495 270.38935775 141.90332031 271.59399414 C141.16702307 272.8486876 140.43217966 274.10423525 139.69873047 275.3605957 C138.18550996 277.94881399 136.66501328 280.53253594 135.13867188 283.11303711 C132.42755196 287.70318131 129.77355656 292.32514528 127.11987305 296.94873047 C121.56556371 306.62367019 115.95803835 316.26797796 110.34082031 325.90649414 C109.78120605 326.86716797 109.2215918 327.8278418 108.64501953 328.81762695 C98.34284358 346.46697088 98.34284358 346.46697088 96.90332031 347.90649414 C94.9798508 348.00418638 93.052733 348.03020724 91.12678432 348.02954197 C89.23231395 348.03252854 89.23231395 348.03252854 87.29957145 348.03557545 C85.87976275 348.03272185 84.45995422 348.02977625 83.04014587 348.02674866 C81.5461049 348.02718423 80.052064 348.02805887 78.55802351 348.02933782 C74.43290348 348.03158558 70.30780916 348.0275577 66.18269241 348.02255976 C61.74163236 348.01825944 57.30057387 348.01970139 52.85951233 348.02046204 C45.15856009 348.02098754 37.4576163 348.01783801 29.75666618 348.0122242 C18.62225116 348.00411273 7.48784024 348.00149434 -3.64657741 348.00023621 C-21.70945562 347.99804513 -39.77232932 347.99138354 -57.83520508 347.98193359 C-75.38631162 347.97276092 -92.93741694 347.96567938 -110.48852539 347.96142578 C-111.56955507 347.96116306 -112.65058474 347.96090033 -113.76437289 347.96062965 C-119.18733604 347.95932465 -124.61029921 347.95806094 -130.03326237 347.95681775 C-175.05440548 347.9464434 -220.07554026 347.92800416 -265.09667969 347.90649414 C-265.09667969 298.40649414 -265.09667969 248.90649414 -265.09667969 197.90649414 C-197.44667969 197.90649414 -129.79667969 197.90649414 -60.09667969 197.90649414 C-68.31973186 183.08285499 -68.31973186 183.08285499 -76.78417969 168.40649414 C-77.98784331 166.35212213 -79.19094862 164.29742291 -80.39355469 162.24243164 C-81.00263672 161.20183594 -81.61171875 160.16124023 -82.23925781 159.08911133 C-85.35665162 153.74758324 -88.44610511 148.39001041 -91.53417969 143.03149414 C-92.15639404 141.9519043 -92.7786084 140.87231445 -93.41967773 139.76000977 C-94.68179486 137.56966894 -95.94375754 135.37923912 -97.20556641 133.1887207 C-99.71097018 128.8403282 -102.21884293 124.49336317 -104.72729492 120.14672852 C-105.9658018 118.00000482 -107.2036039 115.85287434 -108.44067383 113.70532227 C-111.3714584 108.61906024 -114.30870223 103.53684879 -117.26837158 98.46734619 C-118.66846138 96.06829844 -120.06496064 93.66717004 -121.46118164 91.26586914 C-122.45011206 89.56851188 -123.44423807 87.87418512 -124.43847656 86.17993164 C-125.03466797 85.15383789 -125.63085938 84.12774414 -126.24511719 83.07055664 C-126.77282715 82.16772949 -127.30053711 81.26490234 -127.84423828 80.3347168 C-128.96851972 78.1549696 -129.63701426 76.302474 -130.09667969 73.90649414 C-129.02861084 73.29729126 -129.02861084 73.29729126 -127.93896484 72.67578125 C-111.70622514 63.4145788 -95.49608164 54.11569554 -79.31445312 44.76538086 C-74.99404596 42.26950983 -70.67214046 39.77624042 -66.35009766 37.28320312 C-64.18492866 36.03424214 -62.01988912 34.78505672 -59.85498047 33.53564453 C-54.39072598 30.38224063 -48.9248858 27.23164263 -43.45605469 24.08618164 C-42.36115723 23.45583008 -41.26625977 22.82547852 -40.13818359 22.17602539 C-37.96414764 20.92468887 -35.7893566 19.67466319 -33.61376953 18.42602539 C-28.27716354 15.35464439 -22.97315622 12.24152851 -17.71386719 9.03930664 C-16.70356445 8.42780762 -15.69326172 7.81630859 -14.65234375 7.1862793 C-12.74409756 6.02740603 -10.84201997 4.85829367 -8.94726562 3.67749023 C-8.10196289 3.16524902 -7.25666016 2.65300781 -6.38574219 2.12524414 C-5.65049316 1.67084961 -4.91524414 1.21645508 -4.15771484 0.74829102 C-2.09667969 -0.09350586 -2.09667969 -0.09350586 0 0 Z " fill="#000000" transform="translate(289.0966796875,133.093505859375)"/>
<path d="M0 0 C4.43545839 0.06492641 8.87059821 0.04284652 13.30639827 0.03146589 C20.98617833 0.02360931 28.66404341 0.07057047 36.34334171 0.15503347 C47.44589683 0.27706851 58.54752827 0.31601727 69.65068137 0.33485334 C87.66527496 0.36766349 105.67884834 0.46743248 123.69288814 0.60939252 C141.18925557 0.74712945 158.68534566 0.85327963 176.18214595 0.91700971 C177.80053778 0.92292099 177.80053778 0.92292099 179.4516244 0.92895169 C184.86442074 0.9485276 190.27721904 0.96748313 195.69001865 0.98613024 C240.5778677 1.14157129 285.46382919 1.4180609 330.35084713 1.74098432 C330.35084713 51.24098432 330.35084713 100.74098432 330.35084713 151.74098432 C263.03084713 152.07098432 195.71084713 152.40098432 126.35084713 152.74098432 C134.40157849 167.11729034 142.44798763 181.44845034 150.78834713 195.65114057 C154.48298029 201.95668862 158.13936184 208.28393556 161.78834713 214.61598432 C162.40798336 215.69106245 163.02761959 216.76614057 163.66603267 217.87379682 C164.92490695 220.0584339 166.18361389 222.24316742 167.44215572 224.42799604 C170.02147775 228.9050234 172.60259941 233.38101005 175.18507564 237.8562187 C176.44894129 240.04797143 177.71118438 242.24066071 178.97169673 244.4343437 C181.86592639 249.46617695 184.78191141 254.48069608 187.77272213 259.45582807 C188.55631099 260.77079267 188.55631099 260.77079267 189.35572994 262.11232221 C190.32391607 263.73360712 191.30184786 265.34912806 192.29127681 266.95753706 C192.71312252 267.66724653 193.13496822 268.376956 193.56959713 269.10817182 C194.12550533 270.02251997 194.12550533 270.02251997 194.692644 270.95533979 C195.35084713 272.74098432 195.35084713 272.74098432 195.25734127 274.78297651 C193.96526468 277.57383409 192.32270845 278.25836924 189.62819088 279.70192182 C188.62747554 280.24832319 187.62676021 280.79472456 186.59572017 281.35768354 C185.50428707 281.9379228 184.41285396 282.51816206 183.28834713 283.11598432 C180.97998168 284.37443335 178.67271525 285.63490011 176.36647213 286.89723432 C175.77726482 287.21787855 175.18805751 287.53852277 174.58099544 287.86888349 C168.83155212 291.0030247 163.18042314 294.29364522 157.53834713 297.61598432 C148.84325193 302.71839191 140.11069063 307.750935 131.35084713 312.74098432 C122.61664903 317.71796427 113.90395384 322.72906537 105.22584713 327.80348432 C104.27169918 328.36052045 103.31755123 328.91755659 102.3344897 329.4914726 C98.16529656 331.92574682 93.99672454 334.36101745 89.83375728 336.80592573 C86.82316728 338.57365769 83.80879182 340.33478229 80.79207027 342.09202802 C79.07118412 343.0968116 77.35428261 344.1084097 75.63746822 345.12013471 C74.59800045 345.72462446 73.55853267 346.3291142 72.48756588 346.95192182 C71.56677242 347.49123334 70.64597896 348.03054487 69.69728267 348.58619916 C67.35084713 349.74098432 67.35084713 349.74098432 64.35084713 349.74098432 C63.87010738 348.88440229 63.87010738 348.88440229 63.37965572 348.01051557 C56.59121856 335.9272415 49.72395805 323.89537784 42.72316158 311.93385541 C36.51487909 301.32451643 30.37755938 290.67469929 24.24196041 280.02321088 C21.11404564 274.5943849 17.98226265 269.16779151 14.85084713 263.74098432 C13.60082834 261.57432849 12.35082834 259.40766182 11.10084713 257.24098432 C10.48209713 256.16848432 9.86334713 255.09598432 9.22584713 253.99098432 C-26.39915287 192.24098432 -26.39915287 192.24098432 -28.27439702 188.99049604 C-29.52350806 186.82541361 -30.77269417 184.6603745 -32.02195561 182.49537885 C-35.16117597 177.05482726 -38.2990585 171.61351216 -41.43430912 166.17067182 C-47.45662812 155.71891893 -53.49630679 145.2782602 -59.58665287 134.86598432 C-64.55017083 126.37150265 -69.48097964 117.85864723 -74.37452519 109.32368696 C-75.09453681 108.06848212 -75.815452 106.81379511 -76.53730595 105.55964887 C-77.54214691 103.81305939 -78.54300408 102.0641798 -79.54368412 100.31520307 C-80.11965336 99.31062055 -80.6956226 98.30603803 -81.28904545 97.27101362 C-82.64915287 94.74098432 -82.64915287 94.74098432 -83.64915287 91.74098432 C-82.69968998 89.48634565 -82.69968998 89.48634565 -81.17649662 86.82301557 C-80.61390141 85.82858442 -80.0513062 84.83415327 -79.47166264 83.80958784 C-78.84960942 82.73507368 -78.2275562 81.66055952 -77.58665287 80.55348432 C-76.94977543 79.43578657 -76.31289799 78.31808881 -75.65672123 77.16652143 C-73.66671869 73.68383332 -71.66101819 70.21108125 -69.64915287 66.74098432 C-69.05521733 65.7155351 -68.46128178 64.69008588 -67.84934819 63.63356245 C-64.99046814 58.70624624 -62.11720518 53.78755313 -59.23509037 48.87379682 C-54.7985792 41.30303397 -50.42675871 33.69505039 -46.06150639 26.08302534 C-44.92075347 24.09928076 -43.74652383 22.13432113 -42.53589356 20.19243181 C-40.51360472 16.78546075 -40.51360472 16.78546075 -39.52638161 12.90352762 C-33.95350298 -3.94255484 -14.53194755 -0.26668547 0 0 Z " fill="#000000" transform="translate(669.6491528749466,541.2590156793594)"/>
</svg>
