<?xml version="1.0" encoding="UTF-8"?>
<svg version="1.1" xmlns="http://www.w3.org/2000/svg" width="256" height="179">
<path d="M0 0 C1.2065625 0.2475 1.2065625 0.2475 2.4375 0.5 C4.97658116 1.26597109 4.97658116 1.26597109 7 0 C7.495 1.485 7.495 1.485 8 3 C8.763125 3.0825 9.52625 3.165 10.3125 3.25 C13.57094429 4.15933329 14.09946505 5.32197349 16 8 C16.99 8 17.98 8 19 8 C19.495 9.98 19.495 9.98 20 12 C20.99 11.67 21.98 11.34 23 11 C23.433125 11.598125 23.86625 12.19625 24.3125 12.8125 C25.77461239 14.70783087 27.27050227 16.3528593 29 18 C29.99 17.67 30.98 17.34 32 17 C33.0828125 18.3303125 33.0828125 18.3303125 34.1875 19.6875 C35.94948512 21.80989117 37.72841304 23.72841304 39.6875 25.6875 C43.42477331 29.42477331 44.90952764 32.28102523 45.1875 37.5625 C45 41 45 41 43 43 C39.10875581 47.53978489 35.90209779 52.29370663 34 58 C32.515 58.495 32.515 58.495 31 59 C28.92859034 61.56537181 28.92859034 61.56537181 26.9375 64.6875 C26.24527344 65.72261719 25.55304688 66.75773437 24.83984375 67.82421875 C22.90130104 70.91364685 22.90130104 70.91364685 21.94140625 74.26953125 C21 77 21 77 18 79 C14.51509824 79.45591833 11.01159474 79.37029907 7.5 79.375 C6.53707031 79.39949219 5.57414062 79.42398438 4.58203125 79.44921875 C3.65777344 79.45308594 2.73351562 79.45695312 1.78125 79.4609375 C0.93626953 79.46915527 0.09128906 79.47737305 -0.77929688 79.48583984 C-3 79 -3 79 -4.79882812 76.97119141 C-5.19521484 76.32069824 -5.59160156 75.67020508 -6 75 C-6.99 75.495 -6.99 75.495 -8 76 C-8.20625 75.21625 -8.4125 74.4325 -8.625 73.625 C-9.77048964 70.73066376 -9.77048964 70.73066376 -12.8125 69.9375 C-14.3903125 69.4734375 -14.3903125 69.4734375 -16 69 C-20.75961538 65.72115385 -20.75961538 65.72115385 -22 62 C-22.99 62 -23.98 62 -25 62 C-27.26171875 60.57421875 -27.26171875 60.57421875 -29.6875 58.6875 C-30.49574219 58.07261719 -31.30398437 57.45773438 -32.13671875 56.82421875 C-32.75160156 56.22222656 -33.36648437 55.62023437 -34 55 C-34 54.01 -34 53.02 -34 52 C-34.66 52 -35.32 52 -36 52 C-37.35439668 49.29120665 -37.06501451 46.99066732 -37 44 C-35.68 43.34 -34.36 42.68 -33 42 C-33.99 41.34 -34.98 40.68 -36 40 C-36.875 36.5625 -36.875 36.5625 -37 33 C-35.6875 31.0625 -35.6875 31.0625 -34 30 C-33.34 30 -32.68 30 -32 30 C-29.60527843 27.60402966 -27.55820923 24.8889019 -25.4375 22.25 C-24.83486328 21.52039063 -24.23222656 20.79078125 -23.61132812 20.0390625 C-23.03705078 19.33007812 -22.46277344 18.62109375 -21.87109375 17.890625 C-21.34443115 17.24125977 -20.81776855 16.59189453 -20.27514648 15.92285156 C-18.93973341 13.90912125 -18.52605713 12.33395296 -18 10 C-14.79558011 5.24861878 -14.79558011 5.24861878 -12 4.375 C-11.34 4.25125 -10.68 4.1275 -10 4 C-9.360625 3.484375 -8.72125 2.96875 -8.0625 2.4375 C-5.52132081 0.66637511 -4.02977627 0.83622831 -1 1 C-0.67 0.67 -0.34 0.34 0 0 Z M2 8 C3 10 3 10 3 10 Z M3 10 C4 12 4 12 4 12 Z M4 12 C5 14 5 14 5 14 Z M5 14 C6 16 6 16 6 16 Z M6 16 C5.79375 17.216875 5.5875 18.43375 5.375 19.6875 C4.16728121 24.57013455 2.0653371 26.15426403 -2 29 C-3.33618096 29.99619186 -4.67012883 30.99540035 -6 32 C-5.00419922 32.00386719 -5.00419922 32.00386719 -3.98828125 32.0078125 C-3.10527344 32.04648437 -2.22226563 32.08515625 -1.3125 32.125 C-0.00732422 32.15980469 -0.00732422 32.15980469 1.32421875 32.1953125 C4.40443885 33.12162687 6.07823715 34.44605336 8.02026367 37.01220703 C10.01315028 41.05558674 9.78551409 45.44931055 9.8125 49.875 C9.83763672 50.84953125 9.86277344 51.8240625 9.88867188 52.828125 C9.94727558 55.21915628 9.98374991 57.60836847 10 60 C10.33 60 10.66 60 11 60 C11.01458252 59.35973877 11.02916504 58.71947754 11.04418945 58.05981445 C11.11891382 55.14345169 11.21549293 52.22820313 11.3125 49.3125 C11.33505859 48.30509766 11.35761719 47.29769531 11.38085938 46.25976562 C11.57138559 41.01163438 11.71526698 37.32387108 15 33 C15 32.34 15 31.68 15 31 C15.99 30.67 16.98 30.34 18 30 C17.278125 29.505 16.55625 29.01 15.8125 28.5 C12.80661014 25.82809791 11.10886229 23.24982741 9.11328125 19.8046875 C8.00239916 17.84868999 8.00239916 17.84868999 6 16 Z M19 28 C23 29 23 29 23 29 Z M-36 34 C-35 36 -35 36 -35 36 Z M43 35 C43 36.65 43 38.3 43 40 C43.33 40 43.66 40 44 40 C44 38.35 44 36.7 44 35 C43.67 35 43.34 35 43 35 Z M10 63 C10 67.29 10 71.58 10 76 C10.33 76 10.66 76 11 76 C11 71.71 11 67.42 11 63 C10.67 63 10.34 63 10 63 Z M9 76 C10 78 10 78 10 78 Z M13 77 C17 78 17 78 17 78 Z " fill="#6ED8E8" transform="translate(189,18)"/>
<path d="M0 0 C1.47533203 -0.01836914 1.47533203 -0.01836914 2.98046875 -0.03710938 C4.39392578 -0.04000977 4.39392578 -0.04000977 5.8359375 -0.04296875 C6.68462402 -0.04707764 7.53331055 -0.05118652 8.40771484 -0.05541992 C10.625 0.1875 10.625 0.1875 13.625 2.1875 C14.00894667 4.96012255 14.22842248 7.53073528 14.3125 10.3125 C14.34666016 11.06660156 14.38082031 11.82070312 14.41601562 12.59765625 C14.49854278 14.46041201 14.56344711 16.32393326 14.625 18.1875 C13.779375 17.878125 12.93375 17.56875 12.0625 17.25 C6.10263831 15.40786093 0.21483295 14.99524626 -6 14.875 C-7.90652344 14.81892578 -7.90652344 14.81892578 -9.8515625 14.76171875 C-13.96741834 15.25908936 -15.55390851 16.19336759 -18.375 19.1875 C-20.62401708 24.23979429 -19.20976261 30.9028611 -18.375 36.1875 C-16.47332473 40.42969868 -14.76756281 42.21763397 -10.625 44.0625 C-9.5525 44.43375 -8.48 44.805 -7.375 45.1875 C-7.375 45.5175 -7.375 45.8475 -7.375 46.1875 C-4.17597361 46.27636184 -1.44822544 46.09808531 1.625 45.1875 C1.13 41.7225 1.13 41.7225 0.625 38.1875 C-2.345 37.8575 -5.315 37.5275 -8.375 37.1875 C-8.375 32.8975 -8.375 28.6075 -8.375 24.1875 C-0.455 24.1875 7.465 24.1875 15.625 24.1875 C15.73271702 28.77145782 15.81219721 33.35289636 15.875 37.9375 C15.90851563 39.23945313 15.94203125 40.54140625 15.9765625 41.8828125 C15.98945312 43.13320312 16.00234375 44.38359375 16.015625 45.671875 C16.03657227 46.82397461 16.05751953 47.97607422 16.07910156 49.16308594 C15.52965374 52.82252658 14.47826696 53.92143485 11.625 56.1875 C3.76819619 60.76494222 -7.11154217 60.11357564 -15.83203125 58.82421875 C-22.66671367 56.77799 -29.08381025 50.80905799 -32.828125 44.890625 C-33.74280172 43.02031589 -34.56706853 41.10633725 -35.375 39.1875 C-36.035 38.5275 -36.695 37.8675 -37.375 37.1875 C-37.5703125 33.9296875 -37.5703125 33.9296875 -37.5 30.0625 C-37.48195312 28.78117187 -37.46390625 27.49984375 -37.4453125 26.1796875 C-37.42210937 25.19226563 -37.39890625 24.20484375 -37.375 23.1875 C-36.715 22.8575 -36.055 22.5275 -35.375 22.1875 C-34.52853674 20.63277156 -33.74573896 19.04297624 -33 17.4375 C-31.14554092 13.58000499 -29.08937181 10.50506554 -26.375 7.1875 C-26.375 6.1975 -26.375 5.2075 -26.375 4.1875 C-18.27292284 -0.59064807 -9.15528107 0.00614448 0 0 Z M-7.375 12.1875 C-7.375 12.5175 -7.375 12.8475 -7.375 13.1875 C-4.075 13.1875 -0.775 13.1875 2.625 13.1875 C2.625 12.8575 2.625 12.5275 2.625 12.1875 C-0.675 12.1875 -3.975 12.1875 -7.375 12.1875 Z M-21.375 24.1875 C-21.375 28.1475 -21.375 32.1075 -21.375 36.1875 C-21.045 36.1875 -20.715 36.1875 -20.375 36.1875 C-20.375 32.2275 -20.375 28.2675 -20.375 24.1875 C-20.705 24.1875 -21.035 24.1875 -21.375 24.1875 Z M-36.375 28.1875 C-36.375 31.1575 -36.375 34.1275 -36.375 37.1875 C-36.045 37.1875 -35.715 37.1875 -35.375 37.1875 C-35.375 34.2175 -35.375 31.2475 -35.375 28.1875 C-35.705 28.1875 -36.035 28.1875 -36.375 28.1875 Z M2.625 35.1875 C2.625 38.8175 2.625 42.4475 2.625 46.1875 C2.955 46.1875 3.285 46.1875 3.625 46.1875 C3.625 42.5575 3.625 38.9275 3.625 35.1875 C3.295 35.1875 2.965 35.1875 2.625 35.1875 Z M-20.375 36.1875 C-19.375 38.1875 -19.375 38.1875 -19.375 38.1875 Z " fill="#151516" transform="translate(92.375,89.8125)"/>
<path d="M0 0 C14 1 14 1 16 2 C16 8.6 16 15.2 16 22 C21.61 22 27.22 22 33 22 C33 15.4 33 8.8 33 2 C37.48206302 -0.24103151 42.98890121 1 48 1 C48 19.81 48 38.62 48 58 C35 58 35 58 33 57 C33 50.4 33 43.8 33 37 C27.72 37 22.44 37 17 37 C16.67 43.6 16.34 50.2 16 57 C11.1925983 59.40370085 5.36117942 58.61705861 0 59 C0 39.53 0 20.06 0 0 Z M16 34 C16 34.33 16 34.66 16 35 C21.61 35 27.22 35 33 35 C33 34.67 33 34.34 33 34 C27.39 34 21.78 34 16 34 Z " fill="#080808" transform="translate(12,28)"/>
<path d="M0 0 C2.09358885 1.96507151 3.84672487 4.02642702 5.6171875 6.28515625 C6.30167969 7.13400391 6.30167969 7.13400391 7 8 C7.33 8 7.66 8 8 8 C8.33 19.55 8.66 31.1 9 43 C10.32 43.66 11.64 44.32 13 45 C8.25 45.125 8.25 45.125 6 44 C5.608125 44.48597656 5.21625 44.97195312 4.8125 45.47265625 C2.45146156 47.46223822 1.05536308 47.43295333 -2 47.4375 C-2.86625 47.45683594 -3.7325 47.47617188 -4.625 47.49609375 C-7 47 -7 47 -8.8125 44.97265625 C-9.4003125 43.99619141 -9.4003125 43.99619141 -10 43 C-10.99 43.495 -10.99 43.495 -12 44 C-12.20625 43.21625 -12.4125 42.4325 -12.625 41.625 C-13.77048964 38.73066376 -13.77048964 38.73066376 -16.8125 37.9375 C-17.864375 37.628125 -18.91625 37.31875 -20 37 C-24.75961538 33.72115385 -24.75961538 33.72115385 -26 30 C-26.99 30 -27.98 30 -29 30 C-31.26171875 28.57421875 -31.26171875 28.57421875 -33.6875 26.6875 C-34.49574219 26.07261719 -35.30398437 25.45773438 -36.13671875 24.82421875 C-36.75160156 24.22222656 -37.36648437 23.62023437 -38 23 C-38 22.01 -38 21.02 -38 20 C-38.66 20 -39.32 20 -40 20 C-41.35439668 17.29120665 -41.06501451 14.99066732 -41 12 C-37.27313991 9.99322918 -33.33857553 8.58148905 -29.375 7.125 C-23.88369556 5.09097601 -18.42639054 3.00359189 -13.015625 0.76171875 C-8.3223932 -1.01188629 -4.93500946 -1.42195188 0 0 Z " fill="#DDAFF2" transform="translate(193,50)"/>
<path d="M0 0 C1.74939778 0.13316311 3.49943874 0.25812276 5.25 0.375 C9.17149001 0.74760263 11.80776146 1.55261712 15 4 C14.34 4.33 13.68 4.66 13 5 C14.37485532 6.54166642 14.37485532 6.54166642 16 8 C16.66 8 17.32 8 18 8 C18.33 6.35 18.66 4.7 19 3 C19.33 3 19.66 3 20 3 C20 17.19 20 31.38 20 46 C19.67 46 19.34 46 19 46 C18.67 38.74 18.34 31.48 18 24 C16.35 24.33 14.7 24.66 13 25 C13 25.66 13 26.32 13 27 C12.443125 27.03738281 11.88625 27.07476562 11.3125 27.11328125 C5.72458654 27.59467244 1.07496124 28.55314369 -4 31 C-4.76742895 33.04079138 -4.76742895 33.04079138 -5 35 C0.87641113 36.17528223 4.47017045 35.87242559 10.01953125 33.59375 C12 33 12 33 15 34 C15 37.63 15 41.26 15 45 C7.69781455 49.27445002 -1.33838196 49.34373846 -9.46875 47.4140625 C-15.21503022 44.92856828 -19.34438775 39.95011833 -23 35 C-23.92188461 32.23434618 -24.11785222 30.61716298 -24.09765625 27.76953125 C-24.09443359 26.96708984 -24.09121094 26.16464844 -24.08789062 25.33789062 C-24.07951172 24.50451172 -24.07113281 23.67113281 -24.0625 22.8125 C-24.05798828 21.96751953 -24.05347656 21.12253906 -24.04882812 20.25195312 C-24.03705403 18.16793845 -24.0191189 16.08396023 -24 14 C-24.66 13.67 -25.32 13.34 -26 13 C-26 12.34 -26 11.68 -26 11 C-25.401875 10.731875 -24.80375 10.46375 -24.1875 10.1875 C-21.95672092 9.1106021 -21.95672092 9.1106021 -20.375 7.375 C-19.92125 6.92125 -19.4675 6.4675 -19 6 C-18.34 6 -17.68 6 -17 6 C-17 5.01 -17 4.02 -17 3 C-10.87733305 -0.88714278 -7.00683743 -1.23718087 0 0 Z M-6 12 C-6 12.33 -6 12.66 -6 13 C-3.03 13 -0.06 13 3 13 C3 12.67 3 12.34 3 12 C0.03 12 -2.94 12 -6 12 Z M18 12 C19 14 19 14 19 14 Z M-8 13 C-9.42944945 15.35438733 -10.08661261 16.48032433 -9.625 19.25 C-9.41875 19.8275 -9.2125 20.405 -9 21 C-7.20620902 20.55005243 -5.41501072 20.08975857 -3.625 19.625 C-2.12839844 19.24214844 -2.12839844 19.24214844 -0.6015625 18.8515625 C2.12541015 18.17595681 2.12541015 18.17595681 4 16 C1.50494038 13.50494038 0.32671112 13.64051624 -3.125 13.375 C-4.03507812 13.30023438 -4.94515625 13.22546875 -5.8828125 13.1484375 C-6.58148438 13.09945312 -7.28015625 13.05046875 -8 13 Z M-11 17 C-11 18.65 -11 20.3 -11 22 C-10.67 22 -10.34 22 -10 22 C-10 20.35 -10 18.7 -10 17 C-10.33 17 -10.66 17 -11 17 Z " fill="#272727" transform="translate(134,101)"/>
<path d="M0 0 C1.21719727 0.02223633 1.21719727 0.02223633 2.45898438 0.04492188 C6.69049988 0.24972861 8.46067497 0.36681964 11.62890625 3.37109375 C13.0625 5.9375 13.0625 5.9375 13.0625 7.9375 C13.55145752 8.99167114 13.55145752 8.99167114 14.05029297 10.06713867 C15.33174567 13.70101215 15.31245404 17.06313558 15.2578125 20.86328125 C15.2549826 21.61087204 15.25215271 22.35846283 15.24923706 23.12870789 C15.23809469 25.5026388 15.21300162 27.87618425 15.1875 30.25 C15.17746249 31.8652289 15.16833799 33.48046376 15.16015625 35.09570312 C15.13817489 39.04311594 15.10368657 42.99024274 15.0625 46.9375 C12.95840361 46.96451408 10.85420822 46.98390223 8.75 47 C7.57824219 47.01160156 6.40648437 47.02320313 5.19921875 47.03515625 C2.0625 46.9375 2.0625 46.9375 -0.9375 45.9375 C-1.2675 36.0375 -1.5975 26.1375 -1.9375 15.9375 C-7.7884288 15.4902864 -7.7884288 15.4902864 -11.9375 17.9375 C-12.2675 27.5075 -12.5975 37.0775 -12.9375 46.9375 C-17.5575 46.9375 -22.1775 46.9375 -26.9375 46.9375 C-27.10510991 42.61832149 -27.26796743 38.29943768 -27.41967773 33.97973633 C-27.47239097 32.51642325 -27.52764521 31.05319905 -27.58569336 29.59008789 C-27.95027675 20.34869156 -28.23517663 11.13009229 -26.9375 1.9375 C-25.9375 0.9375 -25.9375 0.9375 -23.28515625 0.8046875 C-22.20105469 0.80726562 -21.11695313 0.80984375 -20 0.8125 C-18.37771484 0.80863281 -18.37771484 0.80863281 -16.72265625 0.8046875 C-13.9375 0.9375 -13.9375 0.9375 -11.9375 1.9375 C-7.82287452 -0.80558365 -4.80579443 -0.24693805 0 0 Z M-7.9375 12.9375 C-7.9375 13.2675 -7.9375 13.5975 -7.9375 13.9375 C-6.2875 13.9375 -4.6375 13.9375 -2.9375 13.9375 C-2.9375 13.6075 -2.9375 13.2775 -2.9375 12.9375 C-4.5875 12.9375 -6.2375 12.9375 -7.9375 12.9375 Z " fill="#080808" transform="translate(181.9375,101.0625)"/>
<path d="M0 0 C0.99 0 1.98 0 3 0 C5.25433614 5.56069582 5.59961828 11.0785651 6 17 C5.34 17 4.68 17 4 17 C3.67 17.66 3.34 18.32 3 19 C0.4375 19.625 0.4375 19.625 -2 20 C-2 20.66 -2 21.32 -2 22 C-2.64066406 22.12117188 -3.28132813 22.24234375 -3.94140625 22.3671875 C-9.04928933 23.35679227 -14.02250269 24.48510951 -19 26 C-16.14304316 28.85695684 -14.00216484 28.68236787 -10 29 C-7.65343225 28.83655747 -5.34547218 28.57568584 -3.015625 28.25390625 C-1 28 -1 28 2 28 C2.27599507 29.76696843 2.51996915 31.53896215 2.75 33.3125 C2.88921875 34.29863281 3.0284375 35.28476563 3.171875 36.30078125 C3 39 3 39 1.203125 40.79296875 C-6.91450772 45.24039518 -19.38341787 43.47481374 -28.1796875 41.73046875 C-30 41 -30 41 -32 38 C-32 37.34 -32 36.68 -32 36 C-32.78375 35.030625 -33.5675 34.06125 -34.375 33.0625 C-38.19903105 27.79626295 -39.50462443 21.83629251 -38.65625 15.38671875 C-37.0127409 9.09638332 -33.7596888 4.22304072 -30 -1 C-29.67 -1.66 -29.34 -2.32 -29 -3 C-26.3125 -3.5625 -26.3125 -3.5625 -23 -4 C-22.113125 -4.20625 -21.22625 -4.4125 -20.3125 -4.625 C-12.448233 -5.51529438 -6.28091289 -4.86770749 0 0 Z M-23 9 C-24.04449911 12.13349732 -23.93423645 12.98968256 -23 16 C-20.69 15.34 -18.38 14.68 -16 14 C-16 13.34 -16 12.68 -16 12 C-15.195625 11.731875 -14.39125 11.46375 -13.5625 11.1875 C-12.716875 10.795625 -11.87125 10.40375 -11 10 C-10.67 9.01 -10.34 8.02 -10 7 C-15.3919222 5.81377712 -18.34984069 5.89989379 -23 9 Z M-9 9 C-8 11 -8 11 -8 11 Z M-25 12 C-25 13.65 -25 15.3 -25 17 C-24.67 17 -24.34 17 -24 17 C-24 15.35 -24 13.7 -24 12 C-24.33 12 -24.66 12 -25 12 Z M-23 27 C-22.67 27.66 -22.34 28.32 -22 29 C-21.34 28.67 -20.68 28.34 -20 28 C-20.99 27.67 -21.98 27.34 -23 27 Z M-9 30 C-5 31 -5 31 -5 31 Z " fill="#1F1F1F" transform="translate(100,44)"/>
<path d="M0 0 C13.72100834 -0.11946152 13.72100834 -0.11946152 16.81640625 2.58984375 C17.8125 4.5 17.8125 4.5 19 8 C19.66 8.33 20.32 8.66 21 9 C21.144375 10.051875 21.28875 11.10375 21.4375 12.1875 C22.0067878 16.04600623 23.10632634 18.62432087 25 22 C29.16120623 12.81668901 29.16120623 12.81668901 31 3 C31.66 3 32.32 3 33 3 C33.33 2.34 33.66 1.68 34 1 C38.29 1 42.58 1 47 1 C46.24241119 5.54553287 45.27802469 9.60679013 44 14 C43.855625 14.886875 43.71125 15.77375 43.5625 16.6875 C42.75146111 20.021771 40.83312602 22.0256256 38.640625 24.58984375 C36.30754547 28.01724867 34.7687621 31.70364543 33.125 35.5 C32.59990845 36.69580688 32.59990845 36.69580688 32.06420898 37.91577148 C29.60039493 43.54856212 27.2164182 49.21095299 24.91015625 54.91015625 C24 57 24 57 23 58 C20.81360547 58.07258946 18.62499611 58.08373783 16.4375 58.0625 C14.64119141 58.04896484 14.64119141 58.04896484 12.80859375 58.03515625 C11.88175781 58.02355469 10.95492187 58.01195312 10 58 C9.67 57.34 9.34 56.68 9 56 C10.41432054 52.8553937 11.94037988 49.80890944 13.55078125 46.76171875 C15.6923227 42.47010381 16.52980198 39.7877136 15 35 C14.34 34.34 13.68 33.68 13 33 C10.00970657 29.26213321 8.18558794 26.43167837 7.5625 21.625 C6.97639821 17.84789961 5.78517917 15.34721094 4 12 C3.835 11.319375 3.67 10.63875 3.5 9.9375 C3.0486273 7.80038891 3.0486273 7.80038891 1.4375 5.4375 C0 3 0 3 0 0 Z M31 6 C32 8 32 8 32 8 Z M19 10 C20 12 20 12 20 12 Z M42 14 C43 16 43 16 43 16 Z M41 16 C42 18 42 18 42 18 Z M40 18 C41 20 41 20 41 20 Z M9 22 C10 24 10 24 10 24 Z M10 24 C11 26 11 26 11 26 Z M11 26 C12 28 12 28 12 28 Z " fill="#121212" transform="translate(102,40)"/>
<path d="M0 0 C0.99 0 1.98 0 3 0 C3 4 3 4 2 7 C2.76067254 9.12169485 2.76067254 9.12169485 3.9375 11.3125 C6.91670984 17.78313472 6.91670984 17.78313472 6 22 C2.21623393 29.10648501 -4.67096473 31.6191607 -12 34 C-12.66 34 -13.32 34 -14 34 C-14.33 34.66 -14.66 35.32 -15 36 C-15.66 35.67 -16.32 35.34 -17 35 C-17.33 35.66 -17.66 36.32 -18 37 C-18.66 36.67 -19.32 36.34 -20 36 C-20.33 36.66 -20.66 37.32 -21 38 C-21.99 38.495 -21.99 38.495 -23 39 C-23.66 38.67 -24.32 38.34 -25 38 C-25.33 38.66 -25.66 39.32 -26 40 C-29 42 -29 42 -32.0625 41.9375 C-35 41 -35 41 -36.4375 38.75 C-37.0444946 35.78247084 -36.82592695 33.89074433 -36 31 C-35.40598389 30.90630127 -34.81196777 30.81260254 -34.19995117 30.71606445 C-31.48543522 29.83251376 -30.58479893 28.74874921 -28.80078125 26.54296875 C-28.23166016 25.84236328 -27.66253906 25.14175781 -27.07617188 24.41992188 C-26.49416016 23.68322266 -25.91214844 22.94652344 -25.3125 22.1875 C-24.42208008 21.09985352 -24.42208008 21.09985352 -23.51367188 19.99023438 C-20.81461645 16.62641729 -18.96212456 14.23066807 -18 10 C-14.79558011 5.24861878 -14.79558011 5.24861878 -12 4.375 C-11.34 4.25125 -10.68 4.1275 -10 4 C-9.360625 3.484375 -8.72125 2.96875 -8.0625 2.4375 C-5.52132081 0.66637511 -4.02977627 0.83622831 -1 1 C-0.67 0.67 -0.34 0.34 0 0 Z M-36 34 C-35 36 -35 36 -35 36 Z " fill="#79C67E" transform="translate(189,18)"/>
<path d="M0 0 C0.66 0.99 1.32 1.98 2 3 C2.804375 3.144375 3.60875 3.28875 4.4375 3.4375 C7.67610547 4.1484134 8.14013457 5.37928053 10 8 C10.99 8 11.98 8 13 8 C13.33 9.32 13.66 10.64 14 12 C14.99 11.67 15.98 11.34 17 11 C17.433125 11.598125 17.86625 12.19625 18.3125 12.8125 C19.77461239 14.70783087 21.27050227 16.3528593 23 18 C23.99 17.67 24.98 17.34 26 17 C27.21082825 18.44626708 28.41978885 19.89415728 29.6171875 21.3515625 C30.82625461 22.79287979 32.09616793 24.1827075 33.375 25.5625 C35 28 35 28 34.75 30.8125 C34.5025 31.534375 34.255 32.25625 34 33 C28.04221683 32.60821834 23.47535858 31.53488823 18 29 C15.68155967 28.25299761 13.35559479 27.62495372 11 27 C10.92265625 26.38382813 10.8453125 25.76765625 10.765625 25.1328125 C10.19986408 22.84838082 10.19986408 22.84838082 8.109375 21.8671875 C7.33078125 21.53976563 6.5521875 21.21234375 5.75 20.875 C0.06730161 17.95221086 -1.92496172 13.88709954 -4 8 C-4.8125 4.375 -4.8125 4.375 -5 2 C-3.35 1.34 -1.7 0.68 0 0 Z " fill="#80C4EC" transform="translate(195,18)"/>
<path d="M0 0 C4.50802601 1.25805377 7.4912812 2.90407165 11 6 C10.34 6.66 9.68 7.32 9 8 C9.54527344 8.10957031 10.09054688 8.21914063 10.65234375 8.33203125 C14.77584419 9.19902365 18.71875196 10.20084041 22.6875 11.625 C26.23942728 12.86505882 29.2045575 13.29195712 33 13 C33.66 11.68 34.32 10.36 35 9 C36.75210338 13.48976491 37.37076135 17.18010242 37 22 C35.10646634 23.89353366 33.15473199 25.4198632 31 27 C31.33 25.02 31.66 23.04 32 21 C27.33235149 22.35087239 22.68971819 23.74549647 18.1015625 25.34765625 C17.43390869 25.57880127 16.76625488 25.80994629 16.07836914 26.0480957 C14.74677895 26.51174131 13.41774675 26.9828076 12.09155273 27.46166992 C7.33277302 29.11092434 7.33277302 29.11092434 4 28 C3.00057894 23.20929689 2.33312777 19.40065698 4.8125 15 C7 12 7 12 9 11 C8.236875 10.62875 7.47375 10.2575 6.6875 9.875 C3.45635122 7.62071016 2.52453813 5.5826646 1 2 C0.67 1.34 0.34 0.68 0 0 Z M35 16 C35 17.65 35 19.3 35 21 C35.33 21 35.66 21 36 21 C36 19.35 36 17.7 36 16 C35.67 16 35.34 16 35 16 Z " fill="#77D6CE" transform="translate(197,37)"/>
<path d="M0 0 C0.33 0 0.66 0 1 0 C1 9.24 1 18.48 1 28 C-1.4441794 29.2220897 -3.21029872 29.23641068 -5.9375 29.3125 C-6.81277344 29.34988281 -7.68804687 29.38726562 -8.58984375 29.42578125 C-11 29 -11 29 -12.81640625 26.98046875 C-13.20699219 26.32691406 -13.59757813 25.67335938 -14 25 C-14.66 25.33 -15.32 25.66 -16 26 C-16.20625 25.21625 -16.4125 24.4325 -16.625 23.625 C-17.77048964 20.73066376 -17.77048964 20.73066376 -20.8125 19.9375 C-21.864375 19.628125 -22.91625 19.31875 -24 19 C-26.875 17.0625 -26.875 17.0625 -29 15 C-29 14.01 -29 13.02 -29 12 C-28.01 12.495 -28.01 12.495 -27 13 C-23.04251281 14.3191624 -21.83618247 13.63392957 -18 12 C-15.72935386 10.56612901 -13.52552177 9.05587106 -11.3203125 7.5234375 C-9.10243964 6.06725835 -6.89240486 4.8904654 -4.5 3.75 C-0.95833333 2.41666667 -0.95833333 2.41666667 0 0 Z " fill="#C6B8F9" transform="translate(197,68)"/>
<path d="M0 0 C14 1 14 1 16 2 C16 8.6 16 15.2 16 22 C21.61 22 27.22 22 33 22 C33 15.4 33 8.8 33 2 C37.48206302 -0.24103151 42.98890121 1 48 1 C48 19.81 48 38.62 48 58 C35 58 35 58 33 57 C33 50.4 33 43.8 33 37 C27.72 37 22.44 37 17 37 C16.67 43.6 16.34 50.2 16 57 C13.47524538 58.26237731 11.68799534 58.09856404 8.875 58.0625 C7.96492188 58.05347656 7.05484375 58.04445312 6.1171875 58.03515625 C5.41851562 58.02355469 4.71984375 58.01195312 4 58 C4 57.67 4 57.34 4 57 C6.97 57 9.94 57 13 57 C13 49.08 13 41.16 13 33 C20.59 33 28.18 33 36 33 C36 40.92 36 48.84 36 57 C39.63 57 43.26 57 47 57 C47 38.85 47 20.7 47 2 C43.37 2 39.74 2 36 2 C36 8.93 36 15.86 36 23 C28.41 23 20.82 23 13 23 C13 16.07 13 9.14 13 2 C9.04 2 5.08 2 1 2 C1 20.15 1 38.3 1 57 C0.67 57 0.34 57 0 57 C0 38.19 0 19.38 0 0 Z M16 34 C16 34.33 16 34.66 16 35 C21.61 35 27.22 35 33 35 C33 34.67 33 34.34 33 34 C27.39 34 21.78 34 16 34 Z " fill="#9C9D9E" transform="translate(12,28)"/>
<path d="M0 0 C0.99 0 1.98 0 3 0 C3 4 3 4 2 7 C2.76067254 9.12169485 2.76067254 9.12169485 3.9375 11.3125 C5.69760712 15.05196633 6.61448834 17.80099638 6 22 C5.34 22.66 4.68 23.32 4 24 C3.67 20.7 3.34 17.4 3 14 C2.34 14 1.68 14 1 14 C1 14.66 1 15.32 1 16 C0.01 15.67 -0.98 15.34 -2 15 C-1.01 14.01 -0.02 13.02 1 12 C-2.58040562 13.34746448 -5.8309889 14.93082831 -9.125 16.875 C-9.97320312 17.36742188 -10.82140625 17.85984375 -11.6953125 18.3671875 C-14.05959734 19.85969916 -14.05959734 19.85969916 -15.46875 22.00390625 C-17.43844975 24.57155056 -19.50772256 25.58958351 -22.375 27.0625 C-25.99108989 28.94027671 -29.52490935 30.87071718 -33 33 C-30.95693298 28.1233936 -27.30938226 24.2669541 -23.98828125 20.22070312 C-21.32626536 16.91280938 -19.40662158 14.05646931 -18 10 C-14.75090253 5.23465704 -14.75090253 5.23465704 -12 4.375 C-11.34 4.25125 -10.68 4.1275 -10 4 C-9.360625 3.484375 -8.72125 2.96875 -8.0625 2.4375 C-5.52132081 0.66637511 -4.02977627 0.83622831 -1 1 C-0.67 0.67 -0.34 0.34 0 0 Z " fill="#69D19B" transform="translate(189,18)"/>
<path d="M0 0 C2.2477975 2.05233685 3.0022242 3.00667261 4 6 C4.08481773 8.58630224 4.11598229 11.14478056 4.09765625 13.73046875 C4.0962413 14.48088943 4.09482635 15.23131012 4.09336853 16.00447083 C4.0877756 18.3988546 4.07522444 20.79314453 4.0625 23.1875 C4.05748408 24.81184761 4.05292134 26.43619668 4.04882812 28.06054688 C4.03780848 32.04040069 4.02054873 36.02018444 4 40 C1.89590361 40.02701408 -0.20829178 40.04640223 -2.3125 40.0625 C-4.07013672 40.07990234 -4.07013672 40.07990234 -5.86328125 40.09765625 C-9 40 -9 40 -12 39 C-12.33 29.1 -12.66 19.2 -13 9 C-18.76887492 8.4452998 -18.76887492 8.4452998 -22 11 C-20.125 5.125 -20.125 5.125 -19 4 C-13.16573034 3.43539326 -13.16573034 3.43539326 -11 4 C-7.97723971 7.96039913 -7.64212969 10.92114627 -7.70703125 15.83203125 C-7.71669922 17.12431641 -7.72636719 18.41660156 -7.73632812 19.74804688 C-7.76139015 21.1028707 -7.78678494 22.45768841 -7.8125 23.8125 C-7.82755987 25.18683445 -7.84124599 26.56118468 -7.85351562 27.93554688 C-7.88883372 31.29076632 -7.93816149 34.64518166 -8 38 C-4.7 38 -1.4 38 2 38 C1.88138816 33.39168209 1.75711639 28.78356387 1.62768555 24.17553711 C1.58447661 22.60917264 1.54279209 21.04276533 1.50268555 19.47631836 C1.44464129 17.2197582 1.38104698 14.96341092 1.31640625 12.70703125 C1.29969376 12.01100296 1.28298126 11.31497467 1.26576233 10.59785461 C1.15591581 6.96127203 0.84278009 3.54207573 0 0 Z M-19 6 C-19 6.33 -19 6.66 -19 7 C-17.35 7 -15.7 7 -14 7 C-14 6.67 -14 6.34 -14 6 C-15.65 6 -17.3 6 -19 6 Z " fill="#5F5F5F" transform="translate(193,108)"/>
<path d="M0 0 C4.50802601 1.25805377 7.4912812 2.90407165 11 6 C10.34 6.66 9.68 7.32 9 8 C9.54527344 8.10957031 10.09054688 8.21914063 10.65234375 8.33203125 C16.25535065 9.51009937 21.6054387 11.087035 27 13 C27 13.66 27 14.32 27 15 C28.32 15.33 29.64 15.66 31 16 C30.23816406 16.10957031 29.47632813 16.21914063 28.69140625 16.33203125 C20.89165806 17.52974539 12.88126099 18.90116193 6 23 C5.18828772 25.55519921 5.18828772 25.55519921 5 28 C4.67 28 4.34 28 4 28 C3.00057894 23.20929689 2.33312777 19.40065698 4.8125 15 C7 12 7 12 9 11 C8.236875 10.62875 7.47375 10.2575 6.6875 9.875 C3.45635122 7.62071016 2.52453813 5.5826646 1 2 C0.67 1.34 0.34 0.68 0 0 Z " fill="#74DDC1" transform="translate(197,37)"/>
<path d="M0 0 C3.16115776 1.36983503 3.9927092 1.9890638 6 5 C6.99 5 7.98 5 9 5 C9.33 6.32 9.66 7.64 10 9 C10.99 8.67 11.98 8.34 13 8 C13.433125 8.598125 13.86625 9.19625 14.3125 9.8125 C15.77461239 11.70783087 17.27050227 13.3528593 19 15 C19.99 14.67 20.98 14.34 22 14 C28 20.92307692 28 20.92307692 28 25 C28.66 25.33 29.32 25.66 30 26 C30 26.66 30 27.32 30 28 C25.02906176 27.58846263 20.55491614 27.20399168 16 25 C16 24.34 16 23.68 16 23 C15.34 22.67 14.68 22.34 14 22 C12.82874207 20.28061643 11.71136694 18.52424121 10.625 16.75 C8.28887938 12.9422263 5.79277949 9.48228314 3 6 C1.95548562 4.02288349 0.94301862 2.02749004 0 0 Z " fill="#A4BDF8" transform="translate(199,21)"/>
<path d="M0 0 C1.65322266 0.01740234 1.65322266 0.01740234 3.33984375 0.03515625 C4.99693359 0.04869141 4.99693359 0.04869141 6.6875 0.0625 C7.54214844 0.07410156 8.39679688 0.08570312 9.27734375 0.09765625 C9.93734375 2.40765625 10.59734375 4.71765625 11.27734375 7.09765625 C10.28734375 7.42765625 9.29734375 7.75765625 8.27734375 8.09765625 C8.27734375 6.11765625 8.27734375 4.13765625 8.27734375 2.09765625 C4.97734375 2.09765625 1.67734375 2.09765625 -1.72265625 2.09765625 C-1.72265625 15.95765625 -1.72265625 29.81765625 -1.72265625 44.09765625 C1.57734375 44.09765625 4.87734375 44.09765625 8.27734375 44.09765625 C8.26687012 43.4020459 8.25639648 42.70643555 8.24560547 41.98974609 C8.20385738 38.81742002 8.1779579 35.64515194 8.15234375 32.47265625 C8.13558594 31.37824219 8.11882812 30.28382813 8.1015625 29.15625 C8.04071769 19.11685646 8.04071769 19.11685646 10.27734375 14.09765625 C10.93734375 14.42765625 11.59734375 14.75765625 12.27734375 15.09765625 C11.94734375 15.75765625 11.61734375 16.41765625 11.27734375 17.09765625 C11.12265008 19.27440408 11.02732269 21.45549105 10.9609375 23.63671875 C10.91904297 24.93867187 10.87714844 26.240625 10.83398438 27.58203125 C10.79417076 28.9622367 10.75445853 30.34244508 10.71484375 31.72265625 C10.67164968 33.1106904 10.6280351 34.49871153 10.58398438 35.88671875 C10.47762441 39.29023754 10.37695457 42.69393325 10.27734375 46.09765625 C5.65734375 46.09765625 1.03734375 46.09765625 -3.72265625 46.09765625 C-3.89026616 41.77847774 -4.05312368 37.45959393 -4.20483398 33.13989258 C-4.25754722 31.6765795 -4.31280146 30.2133553 -4.37084961 28.75024414 C-4.735433 19.50884781 -5.02033288 10.29024854 -3.72265625 1.09765625 C-2.72265625 0.09765625 -2.72265625 0.09765625 0 0 Z " fill="#6C6B6C" transform="translate(158.72265625,101.90234375)"/>
<path d="M0 0 C0 4.95 0 9.9 0 15 C-2.4441794 16.2220897 -4.21029872 16.23641068 -6.9375 16.3125 C-7.81277344 16.34988281 -8.68804687 16.38726562 -9.58984375 16.42578125 C-12 16 -12 16 -13.81640625 13.98046875 C-14.20699219 13.32691406 -14.59757813 12.67335938 -15 12 C-15.99 12.495 -15.99 12.495 -17 13 C-17.309375 12.21625 -17.61875 11.4325 -17.9375 10.625 C-18.92875038 8.07669872 -18.92875038 8.07669872 -20 6 C-19.31292969 6.23589844 -18.62585938 6.47179687 -17.91796875 6.71484375 C-13.8386134 7.11349561 -11.81370578 5.61052573 -8.3125 3.5625 C-2.15655577 0 -2.15655577 0 0 0 Z " fill="#ABBAE8" transform="translate(198,81)"/>
<path d="M0 0 C-0.99 0.99 -1.98 1.98 -3 3 C-2.34 3.33 -1.68 3.66 -1 4 C-1 3.34 -1 2.68 -1 2 C-0.34 2.33 0.32 2.66 1 3 C-1.71041281 5.91555874 -4.22036215 7.86239223 -7.75 9.6875 C-11.26614439 11.53835273 -14.75680839 13.41616306 -18.20703125 15.38671875 C-18.92729492 15.79768799 -19.64755859 16.20865723 -20.38964844 16.63208008 C-21.82546283 17.45339818 -23.25974111 18.27740818 -24.69238281 19.10424805 C-29.7793635 22 -29.7793635 22 -32 22 C-32 22.66 -32 23.32 -32 24 C-33.32 24.33 -34.64 24.66 -36 25 C-34.69557938 20.90633955 -33.38789923 19.13940666 -29.75 16.875 C-28.94691406 16.36839844 -28.14382812 15.86179687 -27.31640625 15.33984375 C-25 14 -25 14 -21.6875 12.4375 C-18.87410336 11.1719961 -18.87410336 11.1719961 -17.2109375 8.65234375 C-14.71346066 5.65625404 -12.30582855 4.07003235 -8.9375 2.125 C-7.89464844 1.50882813 -6.85179687 0.89265625 -5.77734375 0.2578125 C-3 -1 -3 -1 0 0 Z " fill="#6FD387" transform="translate(191,30)"/>
<path d="M0 0 C0.99 0 1.98 0 3 0 C3 1.32 3 2.64 3 4 C0 6 0 6 -2.3671875 6.44921875 C-5.3987258 7.08341296 -7.47925109 8.21453239 -10.125 9.8125 C-10.97320312 10.31394531 -11.82140625 10.81539062 -12.6953125 11.33203125 C-15.01875144 13.01357096 -16.42275619 14.62382549 -18 17 C-17.05125 16.34 -16.1025 15.68 -15.125 15 C-12 13 -12 13 -10 13 C-11.2429842 16.7289526 -12.25862498 16.96658741 -15.625 18.8125 C-22.33134419 22.67749722 -27.63496996 27.47239329 -33 33 C-30.95693298 28.1233936 -27.30938226 24.2669541 -23.98828125 20.22070312 C-21.32626536 16.91280938 -19.40662158 14.05646931 -18 10 C-14.75090253 5.23465704 -14.75090253 5.23465704 -12 4.375 C-11.34 4.25125 -10.68 4.1275 -10 4 C-9.360625 3.484375 -8.72125 2.96875 -8.0625 2.4375 C-5.52132081 0.66637511 -4.02977627 0.83622831 -1 1 C-0.67 0.67 -0.34 0.34 0 0 Z " fill="#7CBBB8" transform="translate(189,18)"/>
<path d="M0 0 C7.92 0 15.84 0 24 0 C24 9.24 24 18.48 24 28 C23.67 28 23.34 28 23 28 C23 19.09 23 10.18 23 1 C15.74 1 8.48 1 1 1 C1 3.97 1 6.94 1 10 C4.96 10 8.92 10 13 10 C13 14.29 13 18.58 13 23 C7.16136278 25.33545489 3.11926722 25.79640865 -2.9375 24.25 C-5 23 -5 23 -5.8125 20.875 C-5.874375 20.25625 -5.93625 19.6375 -6 19 C-3.69 19.66 -1.38 20.32 1 21 C1 21.33 1 21.66 1 22 C4.19902639 22.08886184 6.92677456 21.91058531 10 21 C9.67 18.69 9.34 16.38 9 14 C6.03 13.67 3.06 13.34 0 13 C0 8.71 0 4.42 0 0 Z M11 11 C11 14.63 11 18.26 11 22 C11.33 22 11.66 22 12 22 C12 18.37 12 14.74 12 11 C11.67 11 11.34 11 11 11 Z " fill="#919393" transform="translate(84,114)"/>
<path d="M0 0 C0 0.99 0 1.98 0 3 C-0.66 3 -1.32 3 -2 3 C-2.33 3.66 -2.66 4.32 -3 5 C-5.69998091 6.11366827 -8.36731291 7.11483328 -11.125 8.0625 C-11.87265625 8.33126953 -12.6203125 8.60003906 -13.390625 8.87695312 C-17.93975349 10.46597797 -22.20813193 11.48522372 -27 12 C-27 10.35 -27 8.7 -27 7 C-26.29875 6.87496094 -25.5975 6.74992187 -24.875 6.62109375 C-21.82520719 5.96223905 -18.95533271 5.06143261 -16 4.0625 C-14.4840625 3.55396484 -14.4840625 3.55396484 -12.9375 3.03515625 C-11.04017145 2.36654978 -9.1585982 1.6505321 -7.30078125 0.87890625 C-4.72412963 -0.10538342 -2.73497998 -0.15628457 0 0 Z " fill="#67E1DE" transform="translate(229,58)"/>
<path d="M0 0 C1.47533203 -0.01836914 1.47533203 -0.01836914 2.98046875 -0.03710938 C4.39392578 -0.04000977 4.39392578 -0.04000977 5.8359375 -0.04296875 C6.68462402 -0.04707764 7.53331055 -0.05118652 8.40771484 -0.05541992 C10.625 0.1875 10.625 0.1875 13.625 2.1875 C14.00894667 4.96012255 14.22842248 7.53073528 14.3125 10.3125 C14.34666016 11.06660156 14.38082031 11.82070312 14.41601562 12.59765625 C14.49854278 14.46041201 14.56344711 16.32393326 14.625 18.1875 C13.305 17.5275 11.985 16.8675 10.625 16.1875 C11.285 15.8575 11.945 15.5275 12.625 15.1875 C12.625 11.8875 12.625 8.5875 12.625 5.1875 C0.72138775 1.31940163 -9.83914708 0.50566199 -21.375 6.1875 C-23.58267883 8.08111573 -24.79727277 9.70821436 -26.375 12.1875 C-27.365 11.8575 -28.355 11.5275 -29.375 11.1875 C-28.6325 10.2903125 -28.6325 10.2903125 -27.875 9.375 C-26.09223582 7.21720006 -26.09223582 7.21720006 -26.375 4.1875 C-18.27292284 -0.59064807 -9.15528107 0.00614448 0 0 Z " fill="#898A8A" transform="translate(92.375,89.8125)"/>
<path d="M0 0 C6.61837035 1.55726361 9.46914976 7.70372464 13 13 C14.80895766 15.57766023 16.62464787 18.15048898 18.44140625 20.72265625 C20 23 20 23 21 25 C23.16467461 25.62669199 25.35864524 26.15427374 27.5625 26.625 C28.76003906 26.88539062 29.95757812 27.14578125 31.19140625 27.4140625 C32.11824219 27.60742188 33.04507813 27.80078125 34 28 C34 27.34 34 26.68 34 26 C32.68 25.34 31.36 24.68 30 24 C30.99 23.67 31.98 23.34 33 23 C33.66 23.66 34.32 24.32 35 25 C34.625 27.625 34.625 27.625 34 30 C26.97047248 29.5464821 21.4150557 27.87940913 15 25 C15.66 24.67 16.32 24.34 17 24 C17 23.34 17 22.68 17 22 C16.34 22 15.68 22 15 22 C13.40792394 19.77822222 11.93934497 17.5676673 10.5 15.25 C9.89478516 14.29867187 9.89478516 14.29867187 9.27734375 13.328125 C7.68023932 10.79805857 6.15506971 8.32068838 4.8515625 5.625 C3.69479629 3.41759292 2.26212247 2.90484899 0 2 C0 1.34 0 0.68 0 0 Z " fill="#9FC6F6" transform="translate(195,21)"/>
<path d="M0 0 C0.94552734 0.16242188 0.94552734 0.16242188 1.91015625 0.328125 C4.3064508 3.92256683 4.16796956 6.47674152 4.10546875 10.62109375 C4.10263885 11.32712234 4.09980896 12.03315094 4.09689331 12.76057434 C4.08571089 15.01243133 4.06061045 17.26388852 4.03515625 19.515625 C4.02512392 21.04361404 4.01599851 22.57160933 4.0078125 24.09960938 C3.98577797 27.84260163 3.95126192 31.58529556 3.91015625 35.328125 C2.92015625 35.328125 1.93015625 35.328125 0.91015625 35.328125 C0.58015625 25.428125 0.25015625 15.528125 -0.08984375 5.328125 C-5.85871867 4.7734248 -5.85871867 4.7734248 -9.08984375 7.328125 C-6.83020395 0.24792029 -6.83020395 0.24792029 0 0 Z M-6.08984375 2.328125 C-6.08984375 2.658125 -6.08984375 2.988125 -6.08984375 3.328125 C-4.43984375 3.328125 -2.78984375 3.328125 -1.08984375 3.328125 C-1.08984375 2.998125 -1.08984375 2.668125 -1.08984375 2.328125 C-2.73984375 2.328125 -4.38984375 2.328125 -6.08984375 2.328125 Z " fill="#9FA1A2" transform="translate(180.08984375,111.671875)"/>
<path d="M0 0 C0.928125 0.165 1.85625 0.33 2.8125 0.5 C5.95621353 1.07748388 5.95621353 1.07748388 9 1 C11.82953668 4.07920168 14 6.65265515 14 11 C14.66 11.33 15.32 11.66 16 12 C16 12.66 16 13.32 16 14 C13.69 13.67 11.38 13.34 9 13 C9 12.34 9 11.68 9 11 C8.34 11 7.68 11 7 11 C5.2734375 9.35546875 5.2734375 9.35546875 3.375 7.1875 C2.74335938 6.47980469 2.11171875 5.77210937 1.4609375 5.04296875 C0 3 0 3 0 0 Z " fill="#BDBAF8" transform="translate(213,35)"/>
<path d="M0 0 C-0.65226562 0.44730469 -1.30453125 0.89460938 -1.9765625 1.35546875 C-2.85054687 1.96003906 -3.72453125 2.56460938 -4.625 3.1875 C-5.48351562 3.77917969 -6.34203125 4.37085938 -7.2265625 4.98046875 C-10.06271118 6.9879669 -10.06271118 6.9879669 -12.7890625 9.40234375 C-16.49222915 12.52968768 -20.57543236 14.93327176 -24.75 17.375 C-25.51699219 17.83777344 -26.28398437 18.30054687 -27.07421875 18.77734375 C-27.80769531 19.20917969 -28.54117188 19.64101563 -29.296875 20.0859375 C-29.96041992 20.4782959 -30.62396484 20.8706543 -31.30761719 21.27490234 C-31.86610352 21.51418457 -32.42458984 21.7534668 -33 22 C-33.66 21.67 -34.32 21.34 -35 21 C-30.49629607 17.4066192 -26.19797283 14.36940607 -20.859375 12.15234375 C-18.79682492 11.02259964 -18.79682492 11.02259964 -17.14453125 8.62109375 C-14.68657723 5.61692772 -12.2892657 4.06046817 -8.9375 2.125 C-7.89464844 1.50882813 -6.85179687 0.89265625 -5.77734375 0.2578125 C-3 -1 -3 -1 0 0 Z " fill="#6AD192" transform="translate(191,30)"/>
<path d="M0 0 C4.30427871 5.45542301 7.24672556 11.74103837 9.625 18.25 C10.87935815 21.96411744 10.87935815 21.96411744 12.6875 25.0625 C14.29948529 28.67027659 14.42725391 31.08350586 14 35 C12.5 37.9375 12.5 37.9375 11 40 C10.67 39.34 10.34 38.68 10 38 C10.33 37.2575 10.66 36.515 11 35.75 C12.22591332 32.37873838 11.91559386 30.43347698 11 27 C10.34 26.34 9.68 25.68 9 25 C6.00970657 21.26213321 4.18558794 18.43167837 3.5625 13.625 C2.97768801 9.8562116 1.84680531 7.30885951 0 4 C-0.33 3.34 -0.66 2.68 -1 2 C-0.67 1.34 -0.34 0.68 0 0 Z M5 14 C6 16 6 16 6 16 Z M6 16 C7 18 7 18 7 18 Z M7 18 C8 20 8 20 8 20 Z " fill="#676767" transform="translate(106,48)"/>
<path d="M0 0 C0.66 0.33 1.32 0.66 2 1 C-0.97 3.97 -0.97 3.97 -4 7 C-2.88625 6.34 -1.7725 5.68 -0.625 5 C2.75 3 2.75 3 5 3 C3.7570158 6.7289526 2.74137502 6.96658741 -0.625 8.8125 C-7.33134419 12.67749722 -12.63496996 17.47239329 -18 23 C-16.23534636 18.86183562 -13.46062201 15.55744395 -10.6875 12.0625 C-10.21376953 11.45470703 -9.74003906 10.84691406 -9.25195312 10.22070312 C-6.36805679 6.56355962 -3.36012576 3.22547591 0 0 Z " fill="#8DD7C0" transform="translate(174,28)"/>
<path d="M0 0 C4.63232927 2.05881301 5.97092698 4.4641083 7.953125 8.8671875 C9.03291738 11.06706302 10.28803411 12.91202332 11.75 14.875 C14 18 14 18 14 20 C14.66 20 15.32 20 16 20 C16 20.66 16 21.32 16 22 C12.25 23.125 12.25 23.125 10 22 C9.65529538 20.66956112 9.32471747 19.33545777 9 18 C8.08797995 16.14319271 7.12499896 14.31094339 6.125 12.5 C5.61195313 11.5615625 5.09890625 10.623125 4.5703125 9.65625 C3.08522115 7.01076234 3.08522115 7.01076234 1.3046875 4.84375 C0 3 0 3 0 0 Z " fill="#8CC3F6" transform="translate(196,23)"/>
<path d="M0 0 C0.33 0.66 0.66 1.32 1 2 C-2.48894326 2.87223581 -4.56958825 2.87768731 -8 2 C-9.36800819 1.92291277 -10.73923592 1.89196391 -12.109375 1.90234375 C-13.24052734 1.90717773 -13.24052734 1.90717773 -14.39453125 1.91210938 C-15.17183594 1.92048828 -15.94914062 1.92886719 -16.75 1.9375 C-17.54277344 1.94201172 -18.33554688 1.94652344 -19.15234375 1.95117188 C-21.10159508 1.96291435 -23.05080738 1.98084854 -25 2 C-25 1.34 -25 0.68 -25 0 C-15.9576985 -3.94573156 -9.01811764 -4.18698319 0 0 Z M-17 -1 C-17 -0.67 -17 -0.34 -17 0 C-13.7 0 -10.4 0 -7 0 C-7 -0.33 -7 -0.66 -7 -1 C-10.3 -1 -13.6 -1 -17 -1 Z " fill="#767878" transform="translate(102,103)"/>
<path d="M0 0 C0.66 0 1.32 0 2 0 C2 3.3 2 6.6 2 10 C-0.76250036 11.38125018 -2.94731099 11.19079306 -6 11 C-6.66 10.34 -7.32 9.68 -8 9 C-6.41641358 5.83282717 -5.54736301 4.26731682 -2.3125 2.6875 C-1.549375 2.460625 -0.78625 2.23375 0 2 C0 1.34 0 0.68 0 0 Z " fill="#A4C2ED" transform="translate(196,86)"/>
<path d="M0 0 C1.85625 0.0309375 1.85625 0.0309375 3.75 0.0625 C-0.77001877 2.42228691 -5.5083057 4.00756852 -10.3125 5.6875 C-11.22322266 6.01234375 -12.13394531 6.3371875 -13.07226562 6.671875 C-14.38420898 7.13207031 -14.38420898 7.13207031 -15.72265625 7.6015625 C-16.51937744 7.88209473 -17.31609863 8.16262695 -18.13696289 8.45166016 C-20.25 9.0625 -20.25 9.0625 -23.25 9.0625 C-22.6484375 7.19921875 -22.6484375 7.19921875 -21.25 5.0625 C-18.3515625 3.83203125 -18.3515625 3.83203125 -14.875 2.875 C-13.73289063 2.55144531 -12.59078125 2.22789063 -11.4140625 1.89453125 C-9.84785156 1.48267578 -9.84785156 1.48267578 -8.25 1.0625 C-7.54101562 0.86140625 -6.83203125 0.6603125 -6.1015625 0.453125 C-4.01956636 0.01388531 -2.12543883 -0.03542398 0 0 Z " fill="#6BE1CA" transform="translate(225.25,52.9375)"/>
<path d="M0 0 C0.99 0 1.98 0 3 0 C3.27599507 1.76696843 3.51996915 3.53896215 3.75 5.3125 C3.88921875 6.29863281 4.0284375 7.28476563 4.171875 8.30078125 C4 11 4 11 2.203125 12.79296875 C-2.12706244 15.16535868 -6.0647979 15.18316648 -10.875 15.1875 C-11.58269531 15.19974609 -12.29039063 15.21199219 -13.01953125 15.22460938 C-17.13432929 15.23610322 -20.30160538 14.8346938 -24 13 C-20.543347 11.84778233 -17.9505383 11.97204067 -14.3125 12.0625 C-8.78681858 12.11403485 -4.24735524 11.67915368 1 10 C1.33 7.03 1.66 4.06 2 1 C1.34 0.67 0.68 0.34 0 0 Z " fill="#8C8C8D" transform="translate(99,72)"/>
<path d="M0 0 C3.70915876 4.72074751 5.53648998 7.83036522 5 14 C4.34 14.66 3.68 15.32 3 16 C2.67 12.7 2.34 9.4 2 6 C1.34 6 0.68 6 0 6 C0 6.66 0 7.32 0 8 C-0.99 7.67 -1.98 7.34 -3 7 C-2.01 6.01 -1.02 5.02 0 4 C-2.77455391 5.0305486 -5.17263099 6.10839621 -7.6875 7.6875 C-8.450625 8.120625 -9.21375 8.55375 -10 9 C-10.66 8.67 -11.32 8.34 -12 8 C-3.52941176 1.17647059 -3.52941176 1.17647059 0 0 Z " fill="#73D3A1" transform="translate(190,26)"/>
<path d="M0 0 C2.42204038 3.63306058 2.23302891 5.31819023 2.1953125 9.63671875 C2.18564453 11.58481445 2.18564453 11.58481445 2.17578125 13.57226562 C2.1590706 14.94401307 2.14214071 16.31575786 2.125 17.6875 C2.11496674 19.07095718 2.10584149 20.45442127 2.09765625 21.83789062 C2.07404967 25.22543452 2.04112037 28.61263072 2 32 C1.67 32 1.34 32 1 32 C0.67 24.74 0.34 17.48 0 10 C-1.65 10.33 -3.3 10.66 -5 11 C-5 11.66 -5 12.32 -5 13 C-6.65 12.67 -8.3 12.34 -10 12 C-10 11.34 -10 10.68 -10 10 C-6.17679443 8.57741188 -3.08718695 7.75957724 1 8 C0.67 5.36 0.34 2.72 0 0 Z " fill="#97999A" transform="translate(152,115)"/>
<path d="M0 0 C4.29 0 8.58 0 13 0 C12.24241119 4.54553287 11.27802469 8.60679013 10 13 C9.7834375 14.3303125 9.7834375 14.3303125 9.5625 15.6875 C8.90933421 18.37273714 7.77747303 19.91340122 6 22 C4.14919439 15.98488178 6.28543707 12.28774237 9 7 C9.5775 5.824375 10.155 4.64875 10.75 3.4375 C11.1625 2.633125 11.575 1.82875 12 1 C6.06 1.495 6.06 1.495 0 2 C0 1.34 0 0.68 0 0 Z M8 13 C9 15 9 15 9 15 Z M7 15 C8 17 8 17 8 17 Z M6 17 C7 19 7 19 7 19 Z " fill="#727373" transform="translate(136,41)"/>
<path d="M0 0 C0.33 0 0.66 0 1 0 C1 18.15 1 36.3 1 55 C0.67 55 0.34 55 0 55 C0 36.85 0 18.7 0 0 Z " fill="#B4B8BA" transform="translate(10,30)"/>
<path d="M0 0 C1.65322266 0.01740234 1.65322266 0.01740234 3.33984375 0.03515625 C4.99693359 0.04869141 4.99693359 0.04869141 6.6875 0.0625 C7.54214844 0.07410156 8.39679688 0.08570312 9.27734375 0.09765625 C9.93734375 2.40765625 10.59734375 4.71765625 11.27734375 7.09765625 C10.28734375 7.42765625 9.29734375 7.75765625 8.27734375 8.09765625 C8.27734375 6.11765625 8.27734375 4.13765625 8.27734375 2.09765625 C4.64734375 2.09765625 1.01734375 2.09765625 -2.72265625 2.09765625 C-2.72265625 6.05765625 -2.72265625 10.01765625 -2.72265625 14.09765625 C-3.05265625 14.09765625 -3.38265625 14.09765625 -3.72265625 14.09765625 C-3.74951563 11.95188988 -3.76898713 9.8060298 -3.78515625 7.66015625 C-3.79675781 6.46519531 -3.80835938 5.27023438 -3.8203125 4.0390625 C-3.69060839 0.13237476 -3.69060839 0.13237476 0 0 Z " fill="#A9A9AA" transform="translate(158.72265625,101.90234375)"/>
<path d="M0 0 C0.33 1.32 0.66 2.64 1 4 C-3.62 6.64 -8.24 9.28 -13 12 C-13.66 11.34 -14.32 10.68 -15 10 C-14.25234375 9.52949219 -13.5046875 9.05898437 -12.734375 8.57421875 C-11.74953125 7.95160156 -10.7646875 7.32898438 -9.75 6.6875 C-8.77546875 6.07261719 -7.8009375 5.45773438 -6.796875 4.82421875 C-4.45266287 3.29524241 -2.21215968 1.71179023 0 0 Z " fill="#BABAFA" transform="translate(196,77)"/>
<path d="M0 0 C-1.42339362 2.84678723 -3.38441741 3.41482473 -6.1875 4.875 C-10.30157002 7.0605997 -14.19096636 9.32338177 -18 12 C-18.66 11.67 -19.32 11.34 -20 11 C-6.18536932 -2.06178977 -6.18536932 -2.06178977 0 0 Z " fill="#60CFB5" transform="translate(189,24)"/>
<path d="M0 0 C0.625 1.75 0.625 1.75 1 4 C0.34 5.32 -0.32 6.64 -1 8 C4.94 7.505 4.94 7.505 11 7 C10.67 7.99 10.34 8.98 10 10 C5.71 10 1.42 10 -3 10 C-3.33 9.34 -3.66 8.68 -4 8 C-3.22265625 6.0546875 -3.22265625 6.0546875 -2.0625 3.875 C-1.49208984 2.78832031 -1.49208984 2.78832031 -0.91015625 1.6796875 C-0.60980469 1.12539062 -0.30945313 0.57109375 0 0 Z " fill="#818182" transform="translate(115,88)"/>
<path d="M0 0 C0.86625 0.928125 0.86625 0.928125 1.75 1.875 C3.82392178 3.8337039 5.45571331 4.8133789 8 6 C6.04200486 6.33531415 4.08359226 6.66819143 2.125 7 C1.03445312 7.185625 -0.05609375 7.37125 -1.1796875 7.5625 C-4 8 -4 8 -6 8 C-4.95125002 5.37812506 -4.35068687 4.20628639 -1.875 2.75 C-1.25625 2.5025 -0.6375 2.255 0 2 C0 1.34 0 0.68 0 0 Z " fill="#71DCB6" transform="translate(212,46)"/>
<path d="M0 0 C4.50802601 1.25805377 7.4912812 2.90407165 11 6 C10.34 6.66 9.68 7.32 9 8 C9 8.66 9 9.32 9 10 C5.31401867 9.00378883 4.21742111 8.3727219 2.25 5 C1.8375 4.01 1.425 3.02 1 2 C0.67 1.34 0.34 0.68 0 0 Z " fill="#78ADD8" transform="translate(197,37)"/>
<path d="M0 0 C0.53625 0.391875 1.0725 0.78375 1.625 1.1875 C-0.375 3.1875 -0.375 3.1875 -2.25 4 C-5.03478728 5.55620466 -6.50021715 7.64315184 -8.375 10.1875 C-9.365 9.8575 -10.355 9.5275 -11.375 9.1875 C-10.6325 8.2903125 -10.6325 8.2903125 -9.875 7.375 C-8.09223582 5.21720006 -8.09223582 5.21720006 -8.375 2.1875 C-2.95961538 -1.0125 -2.95961538 -1.0125 0 0 Z " fill="#626363" transform="translate(74.375,91.8125)"/>
<path d="M0 0 C1.32 0.33 2.64 0.66 4 1 C4.38218767 2.65614657 4.71395102 4.32457024 5 6 C4.67 6.33 4.34 6.66 4 7 C-1.89835333 6.94937036 -6.74242691 5.57285492 -12 3 C-8.19068824 1.73022941 -6.18381007 2.47925493 -2.3125 3.4375 C-1.13300781 3.72496094 0.04648438 4.01242188 1.26171875 4.30859375 C2.16535156 4.53675781 3.06898438 4.76492187 4 5 C4 4.34 4 3.68 4 3 C2.68 2.34 1.36 1.68 0 1 C0 0.67 0 0.34 0 0 Z " fill="#EDF0F7" transform="translate(225,44)"/>
<path d="M0 0 C13.72100834 -0.11946152 13.72100834 -0.11946152 16.81640625 2.58984375 C17.8125 4.5 17.8125 4.5 19 8 C19.66 8.33 20.32 8.66 21 9 C20.67 9.99 20.34 10.98 20 12 C19.01 11.67 18.02 11.34 17 11 C15.66140666 8.0859429 14.91238901 5.0847438 14 2 C10.04 2 6.08 2 2 2 C1.67 2.66 1.34 3.32 1 4 C0.67 2.68 0.34 1.36 0 0 Z " fill="#888989" transform="translate(102,40)"/>
<path d="M0 0 C0.33 0 0.66 0 1 0 C1.98180935 4.94046464 2.18317404 9.6737173 2.1875 14.6875 C2.19974609 15.44611328 2.21199219 16.20472656 2.22460938 16.98632812 C2.23485542 20.85591651 2.19538185 22.70692722 0 26 C0 17.42 0 8.84 0 0 Z " fill="#878A8C" transform="translate(61,31)"/>
<path d="M0 0 C4.91438238 6.25074952 8.47835065 13.00137666 9 21 C6.84721558 17.77082337 5.15034985 14.40911114 3.4375 10.9375 C3.12103516 10.30005859 2.80457031 9.66261719 2.47851562 9.00585938 C1.6507515 7.33802889 0.82523461 5.66908353 0 4 C-0.33 3.34 -0.66 2.68 -1 2 C-0.67 1.34 -0.34 0.68 0 0 Z " fill="#808181" transform="translate(106,48)"/>
<path d="M0 0 C3.1611016 3.1611016 3.38812741 3.5561582 3.6875 7.6875 C3.75324219 8.49574219 3.81898437 9.30398437 3.88671875 10.13671875 C3.92410156 10.75160156 3.96148437 11.36648437 4 12 C3.34 12 2.68 12 2 12 C1.67 12.66 1.34 13.32 1 14 C-0.32 14 -1.64 14 -3 14 C-3 13.34 -3 12.68 -3 12 C-1.35 11.67 0.3 11.34 2 11 C1.34 7.37 0.68 3.74 0 0 Z " fill="#707070" transform="translate(102,49)"/>
<path d="M0 0 C5.78461538 4.43076923 5.78461538 4.43076923 6.875 7.3125 C6.936875 8.1478125 6.936875 8.1478125 7 9 C3.50841798 8.35341074 0.9025144 7.03960471 -2 5 C-2.33 4.01 -2.66 3.02 -3 2 C-2.01 1.34 -1.02 0.68 0 0 Z " fill="#A9A3B4" transform="translate(220,35)"/>
<path d="M0 0 C0.66 0.99 1.32 1.98 2 3 C1.34644531 2.83628906 0.69289063 2.67257813 0.01953125 2.50390625 C-3.76991774 1.87151437 -7.48490951 1.89303291 -11.3125 1.9375 C-12.42334961 1.94426758 -12.42334961 1.94426758 -13.55664062 1.95117188 C-15.37112899 1.96287825 -17.18557534 1.98081102 -19 2 C-14.42621941 -2.57378059 -5.91352569 -1.35276732 0 0 Z " fill="#8E8E8E" transform="translate(94,40)"/>
<path d="M0 0 C0.66 0.33 1.32 0.66 2 1 C1.0547226 3.36319349 0.41996722 4.73002108 -1.75 6.125 C-4.47098098 7.18315927 -7.21819808 8.11488121 -10 9 C-7.14788651 5.98943576 -4.7563292 3.74400999 -1 2 C-0.67 1.34 -0.34 0.68 0 0 Z " fill="#67C2A2" transform="translate(189,23)"/>
<path d="M0 0 C4 2 4 2 6 5 C6.99 5 7.98 5 9 5 C9.33 5.66 9.66 6.32 10 7 C8.35 7.66 6.7 8.32 5 9 C3.35 6.03 1.7 3.06 0 0 Z " fill="#7F858F" transform="translate(199,21)"/>
<path d="M0 0 C-1.32 0.99 -2.64 1.98 -4 3 C-4.99 2.01 -5.98 1.02 -7 0 C-4.3333581 -1.33332095 -2.83319697 -0.67102033 0 0 Z M-8 1 C-8 1.99 -8 2.98 -8 4 C-8.99 3.67 -9.98 3.34 -11 3 C-10.01 2.34 -9.02 1.68 -8 1 Z " fill="#71CF6C" transform="translate(181,48)"/>
<path d="M0 0 C1.37562854 1.28965176 2.70766393 2.62689293 4 4 C4 4.66 4 5.32 4 6 C1.625 5.75 1.625 5.75 -1 5 C-2.3125 2.9375 -2.3125 2.9375 -3 1 C-2.01 0.67 -1.02 0.34 0 0 Z " fill="#ACAFC0" transform="translate(211,29)"/>
<path d="M0 0 C7.26 0 14.52 0 22 0 C22 0.33 22 0.66 22 1 C14.74 1 7.48 1 0 1 C0 0.67 0 0.34 0 0 Z " fill="#ABAFB0" transform="translate(85,112)"/>
<path d="M0 0 C3.3 0.99 6.6 1.98 10 3 C10 3.66 10 4.32 10 5 C2.49230769 4.38461538 2.49230769 4.38461538 0 2.4375 C-0.33 1.963125 -0.66 1.48875 -1 1 C-0.67 0.67 -0.34 0.34 0 0 Z " fill="#81E3CA" transform="translate(214,47)"/>
<path d="M0 0 C2.27183419 2.46115371 2.9736202 3.73620199 3.3125 7.125 C3 10 3 10 1 12 C0.45533613 7.915021 0 4.1274515 0 0 Z " fill="#A3CBAE" transform="translate(192,30)"/>
<path d="M0 0 C0.99 0.495 0.99 0.495 2 1 C2.99 1.33 3.98 1.66 5 2 C6.6875 5.0625 6.6875 5.0625 8 8 C5.04987143 6.63029745 2.4347778 5.17390875 0 3 C0 2.01 0 1.02 0 0 Z " fill="#717478" transform="translate(168,80)"/>
<path d="M0 0 C1.77706209 2.66559313 2.87548273 5.0280615 4 8 C2.68 8.33 1.36 8.66 0 9 C0 6.03 0 3.06 0 0 Z " fill="#8B8E90" transform="translate(61,70)"/>
<path d="M0 0 C1.98 0.495 1.98 0.495 4 1 C4.38218767 2.65614657 4.71395102 4.32457024 5 6 C4 7 4 7 1.4375 7.0625 C0.2309375 7.0315625 0.2309375 7.0315625 -1 7 C-0.34 6.34 0.32 5.68 1 5 C1.99 5 2.98 5 4 5 C4 4.34 4 3.68 4 3 C2.68 2.34 1.36 1.68 0 1 C0 0.67 0 0.34 0 0 Z " fill="#DCD8EB" transform="translate(225,44)"/>
<path d="M0 0 C2.97 0.495 2.97 0.495 6 1 C4.35 2.65 2.7 4.3 1 6 C0.67 5.34 0.34 4.68 0 4 C-0.66 3.67 -1.32 3.34 -2 3 C-1.34 2.34 -0.68 1.68 0 1 C0 0.67 0 0.34 0 0 Z " fill="#92D5C4" transform="translate(206,46)"/>
<path d="M0 0 C4.75 0.75 4.75 0.75 7 3 C7 3.99 7 4.98 7 6 C2.32307692 4.52307692 2.32307692 4.52307692 0.6875 1.875 C0.460625 1.25625 0.23375 0.6375 0 0 Z " fill="#515253" transform="translate(199,41)"/>
<path d="M0 0 C-3.00313748 1.50156874 -5.79067522 1.09281204 -9.125 1.0625 C-10.40632813 1.05347656 -11.68765625 1.04445313 -13.0078125 1.03515625 C-14.48894531 1.01775391 -14.48894531 1.01775391 -16 1 C-16 0.67 -16 0.34 -16 0 C-13.89651926 -0.19504458 -11.79217415 -0.38078496 -9.6875 -0.5625 C-8.51574219 -0.66691406 -7.34398438 -0.77132812 -6.13671875 -0.87890625 C-3 -1 -3 -1 0 0 Z " fill="#2B2C2E" transform="translate(96,88)"/>
<path d="M0 0 C0.99 0.99 1.98 1.98 3 3 C2.34 3 1.68 3 1 3 C0.67 3.66 0.34 4.32 0 5 C-0.66 4.67 -1.32 4.34 -2 4 C-2.33 4.66 -2.66 5.32 -3 6 C-3.66 5.34 -4.32 4.68 -5 4 C-4.360625 3.71125 -3.72125 3.4225 -3.0625 3.125 C-0.84793921 2.17176549 -0.84793921 2.17176549 0 0 Z " fill="#89A889" transform="translate(174,49)"/>
<path d="M0 0 C2.50037734 2.17424117 3.43628586 3.73045798 4 7 C1.525 6.01 1.525 6.01 -1 5 C-0.67 3.35 -0.34 1.7 0 0 Z " fill="#787878" transform="translate(101,43)"/>
<path d="M0 0 C1.98 1.65 3.96 3.3 6 5 C5.01 5.495 5.01 5.495 4 6 C2.35 4.35 0.7 2.7 -1 1 C-0.67 0.67 -0.34 0.34 0 0 Z " fill="#313233" transform="translate(113,140)"/>
<path d="M0 0 C0.99 0.33 1.98 0.66 3 1 C3.1953125 7.0546875 3.1953125 7.0546875 3 9 C2.34 9.66 1.68 10.32 1 11 C0.67 7.37 0.34 3.74 0 0 Z " fill="#A8ABAD" transform="translate(149,134)"/>
<path d="M0 0 C0.66 1.32 1.32 2.64 2 4 C1.34 4.66 0.68 5.32 0 6 C-0.66 4.68 -1.32 3.36 -2 2 C-1.34 1.34 -0.68 0.68 0 0 Z " fill="#9A9E9F" transform="translate(128,50)"/>
<path d="M0 0 C4.29 0 8.58 0 13 0 C13 0.33 13 0.66 13 1 C8.71 1 4.42 1 0 1 C0 0.67 0 0.34 0 0 Z " fill="#989C9D" transform="translate(47,87)"/>
<path d="M0 0 C0.66 0.33 1.32 0.66 2 1 C0.35 2.98 -1.3 4.96 -3 7 C-3.33 6.34 -3.66 5.68 -4 5 C-2.68 3.35 -1.36 1.7 0 0 Z " fill="#585A5B" transform="translate(164,36)"/>
<path d="M0 0 C1.89213369 2.38573379 3.02391783 4.07175348 4 7 C2.68 6.34 1.36 5.68 0 5 C0 3.35 0 1.7 0 0 Z " fill="#6E6F70" transform="translate(109,133)"/>
<path d="M0 0 C3.96 0 7.92 0 12 0 C12 0.33 12 0.66 12 1 C8.04 1 4.08 1 0 1 C0 0.67 0 0.34 0 0 Z " fill="#878A8C" transform="translate(156,100)"/>
<path d="M0 0 C3.96 0 7.92 0 12 0 C12 0.33 12 0.66 12 1 C8.04 1 4.08 1 0 1 C0 0.67 0 0.34 0 0 Z " fill="#96999B" transform="translate(13,87)"/>
<path d="M0 0 C0.33 0 0.66 0 1 0 C1 3.63 1 7.26 1 11 C0.67 11 0.34 11 0 11 C0 7.37 0 3.74 0 0 Z " fill="#B4B8BA" transform="translate(199,134)"/>
<path d="M0 0 C0.33 0 0.66 0 1 0 C1 3.63 1 7.26 1 11 C0.67 11 0.34 11 0 11 C0 7.37 0 3.74 0 0 Z " fill="#9B9EA0" transform="translate(82,114)"/>
<path d="M0 0 C3.63 0 7.26 0 11 0 C11 0.33 11 0.66 11 1 C7.37 1 3.74 1 0 1 C0 0.67 0 0.34 0 0 Z " fill="#020203" transform="translate(113,99)"/>
<path d="M0 0 C0.66 0.66 1.32 1.32 2 2 C0.35 3.32 -1.3 4.64 -3 6 C-1.125 1.125 -1.125 1.125 0 0 Z " fill="#323232" transform="translate(64,96)"/>
<path d="M0 0 C0.33 0.99 0.66 1.98 1 3 C-0.4375 5.6875 -0.4375 5.6875 -2 8 C-2.33 7.34 -2.66 6.68 -3 6 C-2.06553465 3.96855359 -1.06775224 1.96466413 0 0 Z " fill="#626262" transform="translate(134,79)"/>
<path d="M0 0 C3.63 0 7.26 0 11 0 C11 0.33 11 0.66 11 1 C7.37 1 3.74 1 0 1 C0 0.67 0 0.34 0 0 Z " fill="#020203" transform="translate(48,27)"/>
<path d="M0 0 C3.63 0 7.26 0 11 0 C11 0.33 11 0.66 11 1 C7.37 1 3.74 1 0 1 C0 0.67 0 0.34 0 0 Z " fill="#020203" transform="translate(14,27)"/>
<path d="M0 0 C0.33 0 0.66 0 1 0 C1 3.3 1 6.6 1 10 C0.67 10 0.34 10 0 10 C0 6.7 0 3.4 0 0 Z " fill="#020203" transform="translate(107,95)"/>
<path d="M0 0 C0.66 0.33 1.32 0.66 2 1 C0.35 2.32 -1.3 3.64 -3 5 C-1.125 1.125 -1.125 1.125 0 0 Z " fill="#464443" transform="translate(77,106)"/>
<path d="M0 0 C0.33 0 0.66 0 1 0 C1 2.97 1 5.94 1 9 C0.67 9 0.34 9 0 9 C0 6.03 0 3.06 0 0 Z " fill="#B4B8BA" transform="translate(103,73)"/>
<path d="M0 0 C1.98 0.99 1.98 0.99 4 2 C4 2.99 4 3.98 4 5 C2.68 3.35 1.36 1.7 0 0 Z " fill="#646768" transform="translate(226,41)"/>
<path d="M0 0 C1.32 1.32 2.64 2.64 4 4 C3.01 4.495 3.01 4.495 2 5 C1.34 3.35 0.68 1.7 0 0 Z " fill="#4F5051" transform="translate(62,139)"/>
<path d="M0 0 C0.33 0 0.66 0 1 0 C1 1.98 1 3.96 1 6 C0.67 6 0.34 6 0 6 C0 4.02 0 2.04 0 0 Z " fill="#5B5D5E" transform="translate(170,119)"/>
<path d="M0 0 C1.98 0 3.96 0 6 0 C6 0.33 6 0.66 6 1 C4.02 1 2.04 1 0 1 C0 0.67 0 0.34 0 0 Z " fill="#96999B" transform="translate(190,98)"/>
<path d="M0 0 C0.66 1.32 1.32 2.64 2 4 C1.34 4 0.68 4 0 4 C0 2.68 0 1.36 0 0 Z " fill="#020203" transform="translate(107,56)"/>
<path d="M0 0 C1.32 0.33 2.64 0.66 4 1 C3.67 1.66 3.34 2.32 3 3 C2.01 2.01 1.02 1.02 0 0 Z " fill="#838486" transform="translate(215,33)"/>
<path d="M0 0 C0.66 0.33 1.32 0.66 2 1 C1.01 1.66 0.02 2.32 -1 3 C-0.67 2.01 -0.34 1.02 0 0 Z " fill="#5A5B5C" transform="translate(126,115)"/>
<path d="M0 0 C1.65 0 3.3 0 5 0 C5 0.33 5 0.66 5 1 C3.35 1 1.7 1 0 1 C0 0.67 0 0.34 0 0 Z " fill="#494A4C" transform="translate(135,100)"/>
<path d="M0 0 C0.33 0.66 0.66 1.32 1 2 C0.34 2.66 -0.32 3.32 -1 4 C-0.67 2.68 -0.34 1.36 0 0 Z " fill="#7E8080" transform="translate(112,90)"/>
<path d="M0 0 C0.99 0.495 0.99 0.495 2 1 C1.67 1.99 1.34 2.98 1 4 C0.67 2.68 0.34 1.36 0 0 Z " fill="#6C6C6C" transform="translate(123,52)"/>
<path d="M0 0 C0.33 0.99 0.66 1.98 1 3 C0.34 3 -0.32 3 -1 3 C-0.67 2.01 -0.34 1.02 0 0 Z " fill="#131213" transform="translate(78,53)"/>
<path d="M0 0 C0.33 0.66 0.66 1.32 1 2 C0.34 2.66 -0.32 3.32 -1 4 C-0.67 2.68 -0.34 1.36 0 0 Z " fill="#494A4C" transform="translate(131,48)"/>
<path d="M0 0 C0 0.99 0 1.98 0 3 C-0.66 2.67 -1.32 2.34 -2 2 C-1.34 1.34 -0.68 0.68 0 0 Z " fill="#363433" transform="translate(193,43)"/>
<path d="M0 0 C0.66 0.33 1.32 0.66 2 1 C1.01 1.66 0.02 2.32 -1 3 C-0.67 2.01 -0.34 1.02 0 0 Z " fill="#252627" transform="translate(67,44)"/>
<path d="M0 0 C0.66 0.33 1.32 0.66 2 1 C1.01 1 0.02 1 -1 1 C-0.67 0.67 -0.34 0.34 0 0 Z " fill="#5B5D5E" transform="translate(105,145)"/>
<path d="M0 0 C0.99 0.33 1.98 0.66 3 1 C2.01 1 1.02 1 0 1 C0 0.67 0 0.34 0 0 Z " fill="#878A8C" transform="translate(101,106)"/>
<path d="M0 0 C4 1 4 1 4 1 Z " fill="#5B5D5E" transform="translate(183,100)"/>
<path d="M0 0 C4 1 4 1 4 1 Z " fill="#878A8C" transform="translate(176,100)"/>
<path d="M0 0 C0.66 0.66 1.32 1.32 2 2 C1.01 2.495 1.01 2.495 0 3 C0 2.01 0 1.02 0 0 Z " fill="#5B5D5E" transform="translate(153,59)"/>
<path d="M0 0 C1 4 1 4 1 4 Z " fill="#878A8C" transform="translate(151,54)"/>
<path d="M0 0 C0 3 0 3 0 3 Z " fill="#2E2F30" transform="translate(202,48)"/>
<path d="M0 0 C0.99 0.33 1.98 0.66 3 1 C2.01 1 1.02 1 0 1 C0 0.67 0 0.34 0 0 Z " fill="#2E2F30" transform="translate(95,40)"/>
<path d="M0 0 C0.66 0.66 1.32 1.32 2 2 C1.34 2 0.68 2 0 2 C0 1.34 0 0.68 0 0 Z " fill="#5A5A5A" transform="translate(66,143)"/>
<path d="M0 0 C3 1 3 1 3 1 Z " fill="#3D3E40" transform="translate(129,135)"/>
<path d="M0 0 C3 1 3 1 3 1 Z " fill="#B4B8BA" transform="translate(146,133)"/>
<path d="M0 0 C3 1 3 1 3 1 Z " fill="#787B7D" transform="translate(147,126)"/>
<path d="" fill="#3D3E40" transform="translate(0,0)"/>
<path d="M0 0 C0.66 0.66 1.32 1.32 2 2 C1.34 2 0.68 2 0 2 C0 1.34 0 0.68 0 0 Z " fill="#5A5A5A" transform="translate(73,111)"/>
<path d="M0 0 C3 1 3 1 3 1 Z " fill="#020203" transform="translate(131,99)"/>
<path d="M0 0 C3 1 3 1 3 1 Z " fill="#020203" transform="translate(97,89)"/>
<path d="M0 0 C3 1 3 1 3 1 Z " fill="#B4B8BA" transform="translate(77,87)"/>
<path d="M0 0 C0.33 0.66 0.66 1.32 1 2 C0.34 1.67 -0.32 1.34 -1 1 C-0.67 0.67 -0.34 0.34 0 0 Z " fill="#787B7D" transform="translate(216,84)"/>
<path d="M0 0 C0.66 0.66 1.32 1.32 2 2 C1.34 2 0.68 2 0 2 C0 1.34 0 0.68 0 0 Z " fill="#3D3E40" transform="translate(220,77)"/>
<path d="M0 0 C3 1 3 1 3 1 Z " fill="#5A5A5A" transform="translate(98,64)"/>
<path d="M0 0 C0.66 0 1.32 0 2 0 C1.67 0.66 1.34 1.32 1 2 C0.67 1.34 0.34 0.68 0 0 Z " fill="#5A5A5A" transform="translate(198,54)"/>
<path d="M0 0 C0.66 0.66 1.32 1.32 2 2 C1.34 2 0.68 2 0 2 C0 1.34 0 0.68 0 0 Z " fill="#3D3E40" transform="translate(117,39)"/>
<path d="M0 0 C0.66 0.66 1.32 1.32 2 2 C1.34 2 0.68 2 0 2 C0 1.34 0 0.68 0 0 Z " fill="#787B7D" transform="translate(196,38)"/>
<path d="M0 0 C3 1 3 1 3 1 Z " fill="#787B7D" transform="translate(184,17)"/>
<path d="" fill="#B4B8BA" transform="translate(0,0)"/>
<path d="M0 0 C2 1 2 1 2 1 Z " fill="#020203" transform="translate(100,148)"/>
<path d="M0 0 C2 1 2 1 2 1 Z " fill="#020203" transform="translate(73,148)"/>
<path d="M0 0 C2 1 2 1 2 1 Z " fill="#020203" transform="translate(120,147)"/>
<path d="M0 0 C2 1 2 1 2 1 Z " fill="#5B5D5E" transform="translate(71,147)"/>
<path d="M0 0 C2 1 2 1 2 1 Z " fill="#B4B8BA" transform="translate(68,145)"/>
<path d="M0 0 C2 1 2 1 2 1 Z " fill="#B4B8BA" transform="translate(170,143)"/>
<path d="" fill="#020203" transform="translate(0,0)"/>
<path d="M0 0 C2 1 2 1 2 1 Z " fill="#B4B8BA" transform="translate(130,132)"/>
<path d="M0 0 C2 1 2 1 2 1 Z " fill="#5B5D5E" transform="translate(150,125)"/>
<path d="M0 0 C2 1 2 1 2 1 Z " fill="#5B5D5E" transform="translate(127,119)"/>
<path d="" fill="#020203" transform="translate(0,0)"/>
<path d="" fill="#020203" transform="translate(0,0)"/>
<path d="M0 0 C2 1 2 1 2 1 Z " fill="#868786" transform="translate(79,105)"/>
<path d="" fill="#5B5D5E" transform="translate(0,0)"/>
<path d="M0 0 C2 1 2 1 2 1 Z " fill="#B4B8BA" transform="translate(187,101)"/>
<path d="M0 0 C2 1 2 1 2 1 Z " fill="#5B5D5E" transform="translate(196,97)"/>
<path d="M0 0 C2 1 2 1 2 1 Z " fill="#B4B8BA" transform="translate(188,97)"/>
<path d="" fill="#020203" transform="translate(0,0)"/>
<path d="" fill="#5B5D5E" transform="translate(0,0)"/>
<path d="M0 0 C2 1 2 1 2 1 Z " fill="#B4B8BA" transform="translate(74,90)"/>
<path d="M0 0 C2 1 2 1 2 1 Z " fill="#5B5D5E" transform="translate(177,89)"/>
<path d="" fill="#B4B8BA" transform="translate(0,0)"/>
<path d="M0 0 C2 1 2 1 2 1 Z " fill="#020203" transform="translate(77,89)"/>
<path d="" fill="#B4B8BA" transform="translate(0,0)"/>
<path d="" fill="#5B5D5E" transform="translate(0,0)"/>
<path d="M0 0 C2 1 2 1 2 1 Z " fill="#5B5D5E" transform="translate(75,86)"/>
<path d="M0 0 C2 1 2 1 2 1 Z " fill="#2D2C2B" transform="translate(99,85)"/>
<path d="M0 0 C2 1 2 1 2 1 Z " fill="#020203" transform="translate(101,84)"/>
<path d="" fill="#020203" transform="translate(0,0)"/>
<path d="" fill="#B4B8BA" transform="translate(0,0)"/>
<path d="" fill="#5B5D5E" transform="translate(0,0)"/>
<path d="M0 0 C2 1 2 1 2 1 Z " fill="#B4B8BA" transform="translate(97,71)"/>
<path d="" fill="#5B5D5E" transform="translate(0,0)"/>
<path d="M0 0 C2 1 2 1 2 1 Z " fill="#B4B8BA" transform="translate(99,70)"/>
<path d="M0 0 C2 1 2 1 2 1 Z " fill="#5B5D5E" transform="translate(85,69)"/>
<path d="M0 0 C2 1 2 1 2 1 Z " fill="#5B5D5E" transform="translate(88,68)"/>
<path d="M0 0 C2 1 2 1 2 1 Z " fill="#5B5D5E" transform="translate(90,67)"/>
<path d="" fill="#D3D4D5" transform="translate(0,0)"/>
<path d="" fill="#5B5D5E" transform="translate(0,0)"/>
<path d="" fill="#5B5D5E" transform="translate(0,0)"/>
<path d="" fill="#868786" transform="translate(0,0)"/>
<path d="" fill="#5B5D5E" transform="translate(0,0)"/>
<path d="" fill="#B4B8BA" transform="translate(0,0)"/>
<path d="" fill="#5B5D5E" transform="translate(0,0)"/>
<path d="" fill="#020203" transform="translate(0,0)"/>
<path d="" fill="#020203" transform="translate(0,0)"/>
<path d="" fill="#B4B8BA" transform="translate(0,0)"/>
<path d="M0 0 C2 1 2 1 2 1 Z " fill="#B4B8BA" transform="translate(35,47)"/>
<path d="M0 0 C2 1 2 1 2 1 Z " fill="#5B5D5E" transform="translate(156,45)"/>
<path d="" fill="#5B5D5E" transform="translate(0,0)"/>
<path d="" fill="#5B5D5E" transform="translate(0,0)"/>
<path d="" fill="#5B5D5E" transform="translate(0,0)"/>
<path d="M0 0 C2 1 2 1 2 1 Z " fill="#5B5D5E" transform="translate(177,21)"/>
<path d="" fill="#B4B8BA" transform="translate(0,0)"/>
<path d="" fill="#B4B8BA" transform="translate(0,0)"/>
<path d="" fill="#B4B8BA" transform="translate(0,0)"/>
<path d="" fill="#020203" transform="translate(0,0)"/>
<path d="" fill="#020203" transform="translate(0,0)"/>
<path d="" fill="#020203" transform="translate(0,0)"/>
<path d="" fill="#020203" transform="translate(0,0)"/>
<path d="" fill="#020203" transform="translate(0,0)"/>
<path d="" fill="#020203" transform="translate(0,0)"/>
<path d="" fill="#020203" transform="translate(0,0)"/>
<path d="" fill="#020203" transform="translate(0,0)"/>
<path d="" fill="#020203" transform="translate(0,0)"/>
<path d="" fill="#595653" transform="translate(0,0)"/>
<path d="" fill="#595653" transform="translate(0,0)"/>
<path d="" fill="#020203" transform="translate(0,0)"/>
<path d="" fill="#595653" transform="translate(0,0)"/>
<path d="" fill="#B4B8BA" transform="translate(0,0)"/>
<path d="" fill="#020203" transform="translate(0,0)"/>
<path d="" fill="#B4B8BA" transform="translate(0,0)"/>
<path d="" fill="#020203" transform="translate(0,0)"/>
<path d="" fill="#020203" transform="translate(0,0)"/>
<path d="" fill="#020203" transform="translate(0,0)"/>
<path d="" fill="#020203" transform="translate(0,0)"/>
<path d="" fill="#020203" transform="translate(0,0)"/>
<path d="" fill="#020203" transform="translate(0,0)"/>
<path d="" fill="#020203" transform="translate(0,0)"/>
<path d="" fill="#B4B8BA" transform="translate(0,0)"/>
<path d="" fill="#020203" transform="translate(0,0)"/>
<path d="" fill="#B4B8BA" transform="translate(0,0)"/>
<path d="" fill="#020203" transform="translate(0,0)"/>
<path d="" fill="#020203" transform="translate(0,0)"/>
<path d="" fill="#B4B8BA" transform="translate(0,0)"/>
<path d="" fill="#020203" transform="translate(0,0)"/>
<path d="" fill="#020203" transform="translate(0,0)"/>
<path d="" fill="#B4B8BA" transform="translate(0,0)"/>
<path d="" fill="#B4B8BA" transform="translate(0,0)"/>
<path d="" fill="#F2F1F1" transform="translate(0,0)"/>
<path d="" fill="#B4B8BA" transform="translate(0,0)"/>
<path d="" fill="#B4B8BA" transform="translate(0,0)"/>
<path d="" fill="#020203" transform="translate(0,0)"/>
<path d="" fill="#020203" transform="translate(0,0)"/>
<path d="" fill="#020203" transform="translate(0,0)"/>
<path d="" fill="#020203" transform="translate(0,0)"/>
<path d="" fill="#020203" transform="translate(0,0)"/>
<path d="" fill="#020203" transform="translate(0,0)"/>
<path d="" fill="#020203" transform="translate(0,0)"/>
<path d="" fill="#020203" transform="translate(0,0)"/>
<path d="" fill="#020203" transform="translate(0,0)"/>
<path d="" fill="#020203" transform="translate(0,0)"/>
<path d="" fill="#B4B8BA" transform="translate(0,0)"/>
<path d="" fill="#B4B8BA" transform="translate(0,0)"/>
<path d="" fill="#F2F1F1" transform="translate(0,0)"/>
<path d="" fill="#020203" transform="translate(0,0)"/>
<path d="" fill="#020203" transform="translate(0,0)"/>
<path d="" fill="#B4B8BA" transform="translate(0,0)"/>
<path d="" fill="#020203" transform="translate(0,0)"/>
<path d="" fill="#020203" transform="translate(0,0)"/>
<path d="" fill="#020203" transform="translate(0,0)"/>
<path d="" fill="#020203" transform="translate(0,0)"/>
<path d="" fill="#020203" transform="translate(0,0)"/>
<path d="" fill="#020203" transform="translate(0,0)"/>
<path d="" fill="#B4B8BA" transform="translate(0,0)"/>
<path d="" fill="#B4B8BA" transform="translate(0,0)"/>
<path d="" fill="#B4B8BA" transform="translate(0,0)"/>
<path d="" fill="#B4B8BA" transform="translate(0,0)"/>
<path d="" fill="#B4B8BA" transform="translate(0,0)"/>
<path d="" fill="#020203" transform="translate(0,0)"/>
<path d="" fill="#020203" transform="translate(0,0)"/>
<path d="" fill="#020203" transform="translate(0,0)"/>
<path d="" fill="#020203" transform="translate(0,0)"/>
<path d="" fill="#020203" transform="translate(0,0)"/>
<path d="" fill="#B4B8BA" transform="translate(0,0)"/>
<path d="" fill="#B4B8BA" transform="translate(0,0)"/>
<path d="" fill="#B4B8BA" transform="translate(0,0)"/>
<path d="" fill="#B4B8BA" transform="translate(0,0)"/>
<path d="" fill="#020203" transform="translate(0,0)"/>
<path d="" fill="#B4B8BA" transform="translate(0,0)"/>
<path d="" fill="#B4B8BA" transform="translate(0,0)"/>
<path d="" fill="#020203" transform="translate(0,0)"/>
<path d="" fill="#595653" transform="translate(0,0)"/>
<path d="" fill="#020203" transform="translate(0,0)"/>
<path d="" fill="#B4B8BA" transform="translate(0,0)"/>
<path d="" fill="#B4B8BA" transform="translate(0,0)"/>
<path d="" fill="#B4B8BA" transform="translate(0,0)"/>
<path d="" fill="#B4B8BA" transform="translate(0,0)"/>
<path d="" fill="#B4B8BA" transform="translate(0,0)"/>
<path d="" fill="#B4B8BA" transform="translate(0,0)"/>
<path d="" fill="#B4B8BA" transform="translate(0,0)"/>
<path d="" fill="#B4B8BA" transform="translate(0,0)"/>
<path d="" fill="#B4B8BA" transform="translate(0,0)"/>
<path d="" fill="#B4B8BA" transform="translate(0,0)"/>
<path d="" fill="#020203" transform="translate(0,0)"/>
<path d="" fill="#020203" transform="translate(0,0)"/>
<path d="" fill="#020203" transform="translate(0,0)"/>
<path d="" fill="#B4B8BA" transform="translate(0,0)"/>
<path d="" fill="#B4B8BA" transform="translate(0,0)"/>
<path d="" fill="#595653" transform="translate(0,0)"/>
<path d="" fill="#020203" transform="translate(0,0)"/>
<path d="" fill="#020203" transform="translate(0,0)"/>
<path d="" fill="#020203" transform="translate(0,0)"/>
<path d="" fill="#020203" transform="translate(0,0)"/>
<path d="" fill="#F2F1F1" transform="translate(0,0)"/>
<path d="" fill="#B4B8BA" transform="translate(0,0)"/>
<path d="" fill="#B4B8BA" transform="translate(0,0)"/>
<path d="" fill="#020203" transform="translate(0,0)"/>
<path d="" fill="#020203" transform="translate(0,0)"/>
<path d="" fill="#020203" transform="translate(0,0)"/>
<path d="" fill="#020203" transform="translate(0,0)"/>
<path d="" fill="#020203" transform="translate(0,0)"/>
<path d="" fill="#020203" transform="translate(0,0)"/>
</svg>
