<?xml version="1.0" encoding="UTF-8"?>
<svg version="1.1" xmlns="http://www.w3.org/2000/svg" width="400" height="400">
<path d="M0 0 C132 0 264 0 400 0 C400 132 400 264 400 400 C268 400 136 400 0 400 C0 268 0 136 0 0 Z " fill="#CFFD17" transform="translate(0,0)"/>
<path d="M0 0 C6.99237137 5.62800623 11.66921827 12.67278886 13.64453125 21.42578125 C13.90824503 24.39066779 13.9321426 27.3257237 13.89453125 30.30078125 C13.88486328 31.10161133 13.87519531 31.90244141 13.86523438 32.72753906 C13.51329065 49.97982041 5.16387478 61.88343622 -6.73413086 73.79882812 C-7.90122554 74.96996485 -9.05405283 76.15538265 -10.19750977 77.34960938 C-14.88602364 82.1871214 -19.82326131 86.25515884 -25.29296875 90.17578125 C-26.11200684 90.77213379 -26.93104492 91.36848633 -27.77490234 91.98291016 C-32.57933892 95.46906184 -37.4298028 98.88595812 -42.30004883 102.27929688 C-58.25608739 112.56308699 -58.25608739 112.56308699 -66.98046875 128.5390625 C-67.68554833 134.90681241 -68.05674063 140.93858098 -64.35546875 146.42578125 C-61.53140839 149.87553163 -58.77128886 151.18109466 -54.39453125 151.9375 C-45.21703811 152.4279836 -38.75514034 150.03743827 -31.79296875 144.09130859 C-23.89551865 136.96509386 -17.2487553 128.86387311 -10.85351562 120.39892578 C-7.99296776 116.63117027 -5.07547418 112.90733696 -2.16796875 109.17578125 C-0.97004938 107.63672085 0.22786737 106.09765842 1.42578125 104.55859375 C2.26302734 103.48399902 2.26302734 103.48399902 3.1171875 102.38769531 C4.38914145 100.75383631 5.65786844 99.11746576 6.92578125 97.48046875 C12.15783408 90.81174568 17.81365985 84.56933096 23.64453125 78.42578125 C24.14033691 77.90129395 24.63614258 77.37680664 25.14697266 76.83642578 C39.38656789 61.87270565 55.3641488 50.7150755 76.51953125 50.11328125 C92.21608319 50.40238351 104.66362037 56.37053762 115.78125 67.30078125 C129.93177831 82.11927893 137.64453125 103.21806161 137.64453125 123.42578125 C145.56453125 123.42578125 153.48453125 123.42578125 161.64453125 123.42578125 C161.64453125 134.31578125 161.64453125 145.20578125 161.64453125 156.42578125 C153.72453125 156.42578125 145.80453125 156.42578125 137.64453125 156.42578125 C137.64453125 159.39578125 137.64453125 162.36578125 137.64453125 165.42578125 C137.2975674 168.90071457 136.66258036 172.30642319 136.01953125 175.73828125 C135.75221191 177.16744873 135.75221191 177.16744873 135.47949219 178.62548828 C131.35679682 199.71680716 124.64380464 218.84049644 110.64453125 235.42578125 C110.03222656 236.15152344 109.41992188 236.87726563 108.7890625 237.625 C97.91902899 249.42211526 82.55662981 257.1834455 66.48632812 257.96240234 C53.76640218 258.12461507 43.37209868 254.53208744 33.64453125 246.42578125 C32.93554688 245.85214844 32.2265625 245.27851563 31.49609375 244.6875 C24.14100533 238.107373 18.11971209 227.41065388 17.3359375 217.5390625 C16.49426003 194.68391194 27.18312896 176.07951549 42.14453125 159.23828125 C43.63952873 157.62945148 45.13924083 156.02498462 46.64453125 154.42578125 C47.23363281 153.760625 47.82273438 153.09546875 48.4296875 152.41015625 C63.3488442 136.2777934 86.10478638 125.37101167 107.64453125 122.42578125 C107.60737445 112.98795464 105.19075959 104.71064165 98.9375 97.44140625 C91.18183562 90.36852045 82.15919346 89.09294554 71.98046875 89.21875 C57.92180265 90.09124333 46.86788197 98.3604649 37.64453125 108.42578125 C36.79890625 109.25078125 35.95328125 110.07578125 35.08203125 110.92578125 C27.91766383 118.2738504 21.71826475 126.16340929 15.64453125 134.42578125 C13.10491698 137.84853206 10.55196349 141.26067118 7.97998047 144.65917969 C7.02608491 145.92104226 6.07488449 147.18494405 5.12548828 148.45019531 C-25.13967307 188.67707345 -25.13967307 188.67707345 -49.35546875 194.42578125 C-52.1330149 194.71146977 -54.87718732 194.76004234 -57.66796875 194.73828125 C-58.4163501 194.7333667 -59.16473145 194.72845215 -59.93579102 194.72338867 C-65.82102254 194.59917391 -70.91606861 193.77035028 -76.35546875 191.42578125 C-77.20625 191.06226563 -78.05703125 190.69875 -78.93359375 190.32421875 C-91.07756537 184.6885433 -98.53784023 175.61179383 -103.73046875 163.23828125 C-108.7173922 149.35874652 -109.04435046 135.56204024 -102.76171875 121.98046875 C-98.22640976 113.24686948 -92.24420306 106.37547781 -85.35546875 99.42578125 C-84.68773437 98.7090625 -84.02 97.99234375 -83.33203125 97.25390625 C-74.83979789 88.29585419 -64.44060663 81.44099561 -54.35546875 74.42578125 C-32.93586517 60.8599043 -32.93586517 60.8599043 -19.35546875 40.42578125 C-18.59177383 35.8356566 -18.88509641 31.72286255 -20.73046875 27.42578125 C-23.51205667 24.24682362 -24.09037475 23.85913972 -28.04296875 23.23828125 C-37.39833798 22.9776478 -44.72695423 28.29087952 -51.35546875 34.42578125 C-53.66757669 36.8466519 -55.91623113 39.32383935 -58.16796875 41.80078125 C-70.84500766 55.67642596 -86.92973416 67.02496207 -106.1953125 68.66796875 C-114.39885925 68.87507091 -121.75460893 67.46612518 -129.35546875 64.42578125 C-129.35546875 53.86578125 -129.35546875 43.30578125 -129.35546875 32.42578125 C-127.37546875 32.75578125 -125.39546875 33.08578125 -123.35546875 33.42578125 C-105.63862305 34.7554617 -95.15213857 31.93765225 -81.35546875 20.42578125 C-79.34950207 18.6206081 -77.3826347 16.77569622 -75.41796875 14.92578125 C-55.92744349 -3.35575725 -24.74512039 -16.53778361 0 0 Z " fill="#131312" transform="translate(183.35546875,74.57421875)"/>
<path d="M0 0 C1.36415927 18.75718993 -7.23318785 41.23747541 -19.3125 55.3125 C-25.07392161 61.43461975 -31.5945071 67.02641733 -40.3125 67.3125 C-45.80276775 67.25893641 -48.74158663 64.94690808 -52.8125 61.4375 C-55.46424356 58.22749463 -55.33735235 54.47586061 -55.2734375 50.51953125 C-53.7930597 36.87890728 -42.82486252 23.63335832 -32.58300781 15.23852539 C-23.65038514 8.17592209 -11.71590588 0 0 0 Z " fill="#CFFD18" transform="translate(290,231)"/>
<path d="M0 0 C-2 2 -2 2 -3.99951172 2.21118164 C-4.80146973 2.19434326 -5.60342773 2.17750488 -6.4296875 2.16015625 C-7.30753906 2.14919922 -8.18539062 2.13824219 -9.08984375 2.12695312 C-10.00894531 2.10568359 -10.92804688 2.08441406 -11.875 2.0625 C-13.68481368 2.02794203 -15.49471899 1.99783151 -17.3046875 1.97265625 C-18.10890137 1.95468994 -18.91311523 1.93672363 -19.74169922 1.91821289 C-21.97113768 1.99895472 -23.86438857 2.3764259 -26 3 C-26.33 4.32 -26.66 5.64 -27 7 C-33.50611477 9.12699906 -33.50611477 9.12699906 -36.1875 8.4375 C-36.785625 8.293125 -37.38375 8.14875 -38 8 C-40.13344768 9.3916876 -40.13344768 9.3916876 -42 11 C-42.66 11 -43.32 11 -44 11 C-44 11.99 -44 12.98 -44 14 C-43.34 14.33 -42.68 14.66 -42 15 C-42.845625 15.33 -43.69125 15.66 -44.5625 16 C-48.4758351 18.27684951 -50.6237561 20.8303095 -53.38671875 24.35546875 C-53.91910156 24.89816406 -54.45148438 25.44085938 -55 26 C-55.99 26 -56.98 26 -58 26 C-58 25.01 -58 24.02 -58 23 C-63.73303779 28.1544998 -63.73303779 28.1544998 -67 35 C-67.66 35 -68.32 35 -69 35 C-69.33 35.66 -69.66 36.32 -70 37 C-69.34 37.33 -68.68 37.66 -68 38 C-69 39 -69 39 -72.0625 39.0625 C-73.031875 39.041875 -74.00125 39.02125 -75 39 C-71.55968446 33.25080959 -67.10576374 28.77371513 -62.375 24.0625 C-61.61832031 23.28970703 -60.86164063 22.51691406 -60.08203125 21.72070312 C-44.08304526 5.70818161 -23.14806656 -5.42872105 0 0 Z " fill="#161A08" transform="translate(272,126)"/>
<path d="M0 0 C0.33 0.66 0.66 1.32 1 2 C0.02609458 3.64556434 -0.95172989 5.28898698 -1.953125 6.91796875 C-3.45113039 9.89721082 -3.91579115 12.90243571 -4.41015625 16.1796875 C-4.70212891 17.08074219 -4.70212891 17.08074219 -5 18 C-5.99 18.33 -6.98 18.66 -8 19 C-7.67 22.3 -7.34 25.6 -7 29 C-6.01 29.33 -5.02 29.66 -4 30 C-4 30.99 -4 31.98 -4 33 C-0.49408652 35.68099266 2.65840504 36.49516338 7 37 C7 36.01 7 35.02 7 34 C7.969375 33.525625 8.93875 33.05125 9.9375 32.5625 C12.80477437 31.29806053 12.80477437 31.29806053 14 30 C14 29.34 14 28.68 14 28 C15.95927063 26.2856382 17.95880212 24.61594832 20 23 C20 24.32 20 25.64 20 27 C20.66 27.33 21.32 27.66 22 28 C22.185625 26.824375 22.185625 26.824375 22.375 25.625 C23 23 23 23 25 21 C25.99 21.33 26.98 21.66 28 22 C24.68003883 29.29433775 18.72678943 33.82543251 11.5546875 37.1171875 C7.59318779 38.48614612 4.11426734 38.8669912 0 38 C-4.64425866 35.50586109 -8.31375022 33.05874933 -10 28 C-11.36336753 17.0707095 -6.21177344 8.57224735 0 0 Z " fill="#CBF22C" transform="translate(245,260)"/>
<path d="M0 0 C2.97 0.495 2.97 0.495 6 1 C7.5785969 1.13364204 9.15976147 1.24053651 10.7421875 1.31640625 C11.58007812 1.35830078 12.41796875 1.40019531 13.28125 1.44335938 C14.1371875 1.48267578 14.993125 1.52199219 15.875 1.5625 C16.75414063 1.60568359 17.63328125 1.64886719 18.5390625 1.69335938 C20.69255797 1.79869339 22.84626064 1.89977649 25 2 C25 2.66 25 3.32 25 4 C22.43788925 4.19569589 19.87567609 4.38180612 17.3125 4.5625 C16.59126953 4.61857422 15.87003906 4.67464844 15.12695312 4.73242188 C11.22685936 4.99955159 7.78888972 5.00887596 4 4 C3.93941406 5.14339844 3.87882812 6.28679687 3.81640625 7.46484375 C3.73201572 8.95574305 3.64736698 10.44662775 3.5625 11.9375 C3.50352539 13.06961914 3.50352539 13.06961914 3.44335938 14.22460938 C3.11328125 19.88671875 3.11328125 19.88671875 2 21 C1.76712992 22.68183948 1.58735834 24.3712416 1.4375 26.0625 C1.35371094 26.98160156 1.26992188 27.90070313 1.18359375 28.84765625 C1.12300781 29.55792969 1.06242187 30.26820313 1 31 C1.60328125 30.80921875 2.2065625 30.6184375 2.828125 30.421875 C5.2498424 29.75004372 7.49302185 29.20350254 10 29 C12.4375 30.8125 12.4375 30.8125 14 33 C16.43387753 34.21693876 18.41838846 34.31959896 21.125 34.5625 C22.03507812 34.64628906 22.94515625 34.73007813 23.8828125 34.81640625 C24.58148438 34.87699219 25.28015625 34.93757813 26 35 C26 35.33 26 35.66 26 36 C16.66947237 36.31929562 8.70086481 35.48034592 0 32 C0 21.44 0 10.88 0 0 Z " fill="#212B04" transform="translate(54,107)"/>
<path d="M0 0 C2.00720923 0.28674418 4.0085944 0.61866701 6 1 C6 1.66 6 2.32 6 3 C8.64 3.33 11.28 3.66 14 4 C14.495 5.485 14.495 5.485 15 7 C17.50447516 8.21869929 17.50447516 8.21869929 20 9 C20 9.66 20 10.32 20 11 C22.31 11.33 24.62 11.66 27 12 C27 12.66 27 13.32 27 14 C27.66 14.33 28.32 14.66 29 15 C28.67 15.99 28.34 16.98 28 18 C27.27554688 17.52949219 26.55109375 17.05898437 25.8046875 16.57421875 C12.19903154 7.81217631 0.09868361 3.63368769 -16.3515625 6.60546875 C-21.31172712 7.81781668 -26.19576774 9.26513835 -31 11 C-31 10.34 -31 9.68 -31 9 C-29.35 8.67 -27.7 8.34 -26 8 C-26 6.35 -26 4.7 -26 3 C-25.01 3 -24.02 3 -23 3 C-23 3.66 -23 4.32 -23 5 C-20.03 5 -17.06 5 -14 5 C-14 4.34 -14 3.68 -14 3 C-13.07316406 2.86722656 -12.14632812 2.73445313 -11.19140625 2.59765625 C-9.99386719 2.42105469 -8.79632813 2.24445313 -7.5625 2.0625 C-6.36753906 1.88847656 -5.17257812 1.71445313 -3.94140625 1.53515625 C-1.12044324 1.31014787 -1.12044324 1.31014787 0 0 Z " fill="#CAEA46" transform="translate(266,120)"/>
<path d="M0 0 C3.34910484 1.36626662 4.63101838 2.52950679 6.125 5.8125 C6.43695313 6.47894531 6.74890625 7.14539063 7.0703125 7.83203125 C7.53050781 8.90517578 7.53050781 8.90517578 8 10 C8.36351562 10.721875 8.72703125 11.44375 9.1015625 12.1875 C10.38417958 16.20264912 10.29585466 19.99834955 10.25 24.1875 C10.24613281 25.03376953 10.24226563 25.88003906 10.23828125 26.75195312 C10.16503507 32.04602393 9.76135829 37.03916222 8.4375 42.1875 C7.88267973 44.17528206 7.88267973 44.17528206 8 47 C7.34 47 6.68 47 6 47 C5.731875 47.763125 5.46375 48.52625 5.1875 49.3125 C4 52 4 52 2.4375 53.375 C0.64980829 55.07987819 0.64980829 55.07987819 0.625 58.5 C0 62 0 62 -2.3125 63.6875 C-3.199375 64.120625 -4.08625 64.55375 -5 65 C-5.639375 65.680625 -6.27875 66.36125 -6.9375 67.0625 C-9.44144386 69.41468968 -11.71852832 70.10505318 -15 71 C-14.175 70.05125 -13.35 69.1025 -12.5 68.125 C-11.95214844 67.47917969 -11.40429688 66.83335937 -10.83984375 66.16796875 C-9.59500962 64.70112599 -8.33672575 63.24560929 -7.06640625 61.80078125 C4.71918274 47.90159735 8.22083894 33.93107186 7 16 C5.91752221 10.03045335 3.1597391 5.12095648 0 0 Z " fill="#C3E535" transform="translate(189,80)"/>
<path d="M0 0 C2 1 2 1 3 3 C1.68 3 0.36 3 -1 3 C-0.505 3.99 -0.505 3.99 0 5 C0.99 5 1.98 5 3 5 C2.67 6.32 2.34 7.64 2 9 C0.02 8.34 -1.96 7.68 -4 7 C-5.48523642 8.43122782 -6.96300462 9.87020889 -8.4375 11.3125 C-9.26121094 12.11300781 -10.08492187 12.91351563 -10.93359375 13.73828125 C-13.19403477 15.90470808 -13.19403477 15.90470808 -14 19 C-14.99 19 -15.98 19 -17 19 C-17.33 20.98 -17.66 22.96 -18 25 C-18.66 25 -19.32 25 -20 25 C-20.2475 25.639375 -20.495 26.27875 -20.75 26.9375 C-21.1625 27.618125 -21.575 28.29875 -22 29 C-22.97839844 29.17208984 -22.97839844 29.17208984 -23.9765625 29.34765625 C-24.64429688 29.56292969 -25.31203125 29.77820313 -26 30 C-27.06546563 32.05134471 -27.06546563 32.05134471 -27.625 34.5 C-28.2890625 36.96875 -28.2890625 36.96875 -29 39 C-29.99 39.495 -29.99 39.495 -31 40 C-31.1546875 40.928125 -31.1546875 40.928125 -31.3125 41.875 C-32.30415315 44.94010974 -34.26392514 45.43652865 -37 47 C-38.01800576 48.31963709 -39.02248365 49.65009646 -40 51 C-40.66 51 -41.32 51 -42 51 C-40.44173795 47.56218475 -38.41058599 44.74721533 -36.125 41.75 C-35.31606408 40.68645808 -34.50748993 39.62264094 -33.69921875 38.55859375 C-33.26528809 37.98866699 -32.83135742 37.41874023 -32.38427734 36.83154297 C-30.91568416 34.88844137 -29.46602582 32.93225757 -28.01953125 30.97265625 C-20.93678664 21.39416247 -13.93386123 12.21017961 -4.76171875 4.5078125 C-3.0881754 3.07546719 -1.53554008 1.57806273 0 0 Z " fill="#C6E935" transform="translate(230,173)"/>
<path d="M0 0 C1.32 0 2.64 0 4 0 C4.103125 0.639375 4.20625 1.27875 4.3125 1.9375 C4.539375 2.618125 4.76625 3.29875 5 4 C5.99 4.33 6.98 4.66 8 5 C8.76410082 6.89364116 9.51645786 8.79394263 10.17578125 10.7265625 C12.34067277 16.80326342 12.34067277 16.80326342 16 22 C16.04063832 23.66617115 16.042721 25.33388095 16 27 C16.66 27 17.32 27 18 27 C20.53032343 35.31391983 22.32322193 43.27300794 22 52 C22.75023437 51.98839844 23.50046875 51.97679687 24.2734375 51.96484375 C30.92337417 51.9062171 37.40004873 52.18230692 44 53 C44 53.33 44 53.66 44 54 C36.08 54 28.16 54 20 54 C19.62875 51.195 19.2575 48.39 18.875 45.5 C16.41598589 28.98682934 9.92338346 14.42575409 0 1 C0 0.67 0 0.34 0 0 Z " fill="#C7E836" transform="translate(301,144)"/>
<path d="M0 0 C1.98 0.33 3.96 0.66 6 1 C-2.15732059 11.79645372 -14.1531389 20.71771297 -27 25 C-30.30859291 25.22745382 -33.62188358 25.18515349 -36.9375 25.1875 C-37.84435547 25.19974609 -38.75121094 25.21199219 -39.68554688 25.22460938 C-40.56146484 25.22654297 -41.43738281 25.22847656 -42.33984375 25.23046875 C-43.53661743 25.23663208 -43.53661743 25.23663208 -44.75756836 25.24291992 C-47.2309205 24.97498466 -48.85860446 24.23514985 -51 23 C-47.98968256 22.06576355 -47.13349732 21.95550089 -44 23 C-36.60994873 23.31926524 -29.30604214 23.16896674 -22 22 C-22 21.01 -22 20.02 -22 19 C-21.030625 18.71125 -20.06125 18.4225 -19.0625 18.125 C-15.89335797 17.35785318 -15.89335797 17.35785318 -15 15 C-14.360625 14.87625 -13.72125 14.7525 -13.0625 14.625 C-10.84333144 14.21443992 -10.84333144 14.21443992 -10 12.1875 C-9.67 11.465625 -9.34 10.74375 -9 10 C-8.29875 9.319375 -7.5975 8.63875 -6.875 7.9375 C-4.65228929 6.09006673 -4.65228929 6.09006673 -5 3 C-4.01 2.34 -3.02 1.68 -2 1 C-1.505 1.495 -1.505 1.495 -1 2 C-0.67 1.34 -0.34 0.68 0 0 Z " fill="#CAEF2A" transform="translate(107,84)"/>
<path d="M0 0 C0 0.66 0 1.32 0 2 C1.32 2.33 2.64 2.66 4 3 C4.33 2.34 4.66 1.68 5 1 C6.32 1.33 7.64 1.66 9 2 C9.495 5.465 9.495 5.465 10 9 C9.20335937 8.59007813 8.40671875 8.18015625 7.5859375 7.7578125 C6.52632812 7.21898438 5.46671875 6.68015625 4.375 6.125 C3.33085937 5.59132813 2.28671875 5.05765625 1.2109375 4.5078125 C-5.2856153 1.45711982 -10.53181574 0.64146635 -17.625 0.6875 C-18.96014648 0.69487183 -18.96014648 0.69487183 -20.32226562 0.70239258 C-31.91834524 0.90795944 -41.4808491 4.28130288 -52 9 C-51.67 8.01 -51.34 7.02 -51 6 C-49.35 5.67 -47.7 5.34 -46 5 C-46 4.34 -46 3.68 -46 3 C-45.34 3 -44.68 3 -44 3 C-43.67 2.01 -43.34 1.02 -43 0 C-28.31099393 -1.8464295 -14.65682472 -2.95777364 0 0 Z " fill="#C3E438" transform="translate(176,68)"/>
<path d="M0 0 C7.59 0 15.18 0 23 0 C23 10.89 23 21.78 23 33 C15.08 33 7.16 33 -1 33 C2.62495842 31.18752079 3.5951706 30.75135958 7.328125 30.8046875 C8.0490332 30.80968262 8.76994141 30.81467773 9.51269531 30.81982422 C10.41600586 30.83803223 11.31931641 30.85624023 12.25 30.875 C16.58125 30.936875 16.58125 30.936875 21 31 C21 24.07 21 17.14 21 10 C20.01 10 19.02 10 18 10 C18 9.01 18 8.02 18 7 C18.66 7 19.32 7 20 7 C20.33 5.02 20.66 3.04 21 1 C19.7625 1.185625 18.525 1.37125 17.25 1.5625 C11.43346789 2.23042713 5.79745731 1.63762221 0 1 C0 0.67 0 0.34 0 0 Z " fill="#152000" transform="translate(322,198)"/>
<path d="M0 0 C1.794375 -0.00386719 1.794375 -0.00386719 3.625 -0.0078125 C6.55327693 0.10742062 9.15786976 0.44676437 12 1.125 C10 3.125 10 3.125 8.00048828 3.33618164 C7.19853027 3.31934326 6.39657227 3.30250488 5.5703125 3.28515625 C4.69246094 3.27419922 3.81460938 3.26324219 2.91015625 3.25195312 C1.99105469 3.23068359 1.07195312 3.20941406 0.125 3.1875 C-1.68481368 3.15294203 -3.49471899 3.12283151 -5.3046875 3.09765625 C-6.10890137 3.07968994 -6.91311523 3.06172363 -7.74169922 3.04321289 C-9.97113768 3.12395472 -11.86438857 3.5014259 -14 4.125 C-14.33 5.445 -14.66 6.765 -15 8.125 C-21.50611477 10.25199906 -21.50611477 10.25199906 -24.1875 9.5625 C-24.785625 9.418125 -25.38375 9.27375 -26 9.125 C-26.66 9.62 -27.32 10.115 -28 10.625 C-28.66 11.12 -29.32 11.615 -30 12.125 C-32.125 11.71875 -32.125 11.71875 -34 11.125 C-26.88163323 6.66073218 -20.23270265 2.97985502 -12 1.125 C-11.22527344 0.939375 -10.45054687 0.75375 -9.65234375 0.5625 C-6.40355858 0.02661791 -3.29200147 -0.00709483 0 0 Z " fill="#1E2704" transform="translate(260,124.875)"/>
<path d="M0 0 C0.66 0 1.32 0 2 0 C2 5.61 2 11.22 2 17 C1.34 17 0.68 17 0 17 C0 18.98 0 20.96 0 23 C1.32 23.33 2.64 23.66 4 24 C3 26 3 26 0.99609375 26.75 C-1.30863171 27.86807654 -1.30863171 27.86807654 -1.65234375 30.75 C-1.84242816 32.91644146 -2.02992896 35.08311117 -2.21484375 37.25 C-2.47394531 38.1575 -2.73304688 39.065 -3 40 C-5.515625 41.2421875 -5.515625 41.2421875 -8 42 C-8.88693303 44.04105639 -8.88693303 44.04105639 -9 46 C-9.66 46 -10.32 46 -11 46 C-9.70204232 41.98109435 -8.23168996 38.09165428 -6.625 34.1875 C-2.38726093 23.19704318 0.75216269 11.84656242 0 0 Z " fill="#1A2007" transform="translate(289,230)"/>
<path d="M0 0 C0 0.99 0 1.98 0 3 C-0.99 3.66 -1.98 4.32 -3 5 C-3.165 5.680625 -3.33 6.36125 -3.5 7.0625 C-3.665 7.701875 -3.83 8.34125 -4 9 C-4.99 9.33 -5.98 9.66 -7 10 C-7.99 11.485 -7.99 11.485 -9 13 C-9.99 13.66 -10.98 14.32 -12 15 C-12 15.66 -12 16.32 -12 17 C-13.98 16.34 -15.96 15.68 -18 15 C-18.20625 15.763125 -18.4125 16.52625 -18.625 17.3125 C-20.43656656 20.85328919 -22.46944236 21.30533233 -26 23 C-28.34325664 25.55139853 -28.34325664 25.55139853 -30 28 C-30.99 27.67 -31.98 27.34 -33 27 C-31.84513181 25.84513181 -30.68922527 24.69129172 -29.52954102 23.54125977 C-28.51939532 22.52337473 -27.52454958 21.49004688 -26.54663086 20.44116211 C-21.7426268 15.38802309 -16.37898016 11.53037872 -10.625 7.625 C-8.82507846 6.38866461 -7.02557562 5.15171937 -5.2265625 3.9140625 C-4.43846191 3.3773291 -3.65036133 2.8405957 -2.83837891 2.28759766 C-1.071452 1.12929269 -1.071452 1.12929269 0 0 Z " fill="#C3E240" transform="translate(153,167)"/>
<path d="M0 0 C0.33 0 0.66 0 1 0 C1 11.55 1 23.1 1 35 C-6.59 35.33 -14.18 35.66 -22 36 C-22 38.97 -22 41.94 -22 45 C-23.485 45.495 -23.485 45.495 -25 46 C-24.67 41.71 -24.34 37.42 -24 33 C-16.08 33 -8.16 33 0 33 C0 22.11 0 11.22 0 0 Z " fill="#CAE752" transform="translate(345,198)"/>
<path d="M0 0 C2.45823172 3.68734758 3.01242616 6.69699971 4 11 C3.01 11.495 3.01 11.495 2 12 C1.01 11.67 0.02 11.34 -1 11 C-1 12.65 -1 14.3 -1 16 C-1.66 16 -2.32 16 -3 16 C-2.67 17.98 -2.34 19.96 -2 22 C-2.99 22.33 -3.98 22.66 -5 23 C-5 24.98 -5 26.96 -5 29 C-5.99 29.33 -6.98 29.66 -8 30 C-9.61907556 32.44580173 -9.61907556 32.44580173 -11.0625 35.375 C-12.61537494 38.37011248 -14.12656711 41.18985066 -16 44 C-16.99 43.67 -17.98 43.34 -19 43 C-18.41992188 42.16339844 -17.83984375 41.32679688 -17.2421875 40.46484375 C-8.69658878 27.85087267 -3.85088567 14.70132236 0 0 Z " fill="#C9ED37" transform="translate(316,262)"/>
<path d="M0 0 C2.97 0.495 2.97 0.495 6 1 C3.84220016 3.15779984 1.96386519 4.11897984 -0.75 5.5 C-6.93802921 8.80301427 -12.48677671 12.78758098 -18.12890625 16.92578125 C-21 19 -21 19 -23 20 C-23.33 18.68 -23.66 17.36 -24 16 C-22.35 16 -20.7 16 -19 16 C-19 15.01 -19 14.02 -19 13 C-21.31 13.33 -23.62 13.66 -26 14 C-25.67 12.68 -25.34 11.36 -25 10 C-21.93687174 9.35888013 -19.58005413 8.86948782 -16.5 9.5625 C-13.2077723 10.13863985 -11.06303182 9.21096607 -8 8 C-8 7.01 -8 6.02 -8 5 C-7.34 5 -6.68 5 -6 5 C-6 4.34 -6 3.68 -6 3 C-4.02 2.67 -2.04 2.34 0 2 C0 1.34 0 0.68 0 0 Z " fill="#CBF42A" transform="translate(258,204)"/>
<path d="M0 0 C0.66 0.66 1.32 1.32 2 2 C-1.41714219 1.6925646 -4.83360937 1.37816912 -8.25 1.0625 C-9.21808594 0.97548828 -10.18617188 0.88847656 -11.18359375 0.79882812 C-12.11816406 0.71181641 -13.05273438 0.62480469 -14.015625 0.53515625 C-14.87446289 0.456604 -15.73330078 0.37805176 -16.61816406 0.29711914 C-18.81641589 0.02290097 -20.86718545 -0.41066966 -23 -1 C-23 -0.34 -23 0.32 -23 1 C-25.31 1.33 -27.62 1.66 -30 2 C-30 2.33 -30 2.66 -30 3 C-30.969375 3.12375 -31.93875 3.2475 -32.9375 3.375 C-34.4534375 3.684375 -34.4534375 3.684375 -36 4 C-36.33 4.66 -36.66 5.32 -37 6 C-40.0625 6.625 -40.0625 6.625 -43 7 C-40.11665189 3.81814055 -37.48510509 2.03714052 -33.5625 0.3125 C-32.63566406 -0.10386719 -31.70882812 -0.52023438 -30.75390625 -0.94921875 C-21.06875039 -4.64468957 -9.4645567 -4.18513866 0 0 Z " fill="#C2E23D" transform="translate(275,166)"/>
<path d="M0 0 C0 2 0 4 0 6 C0.66 6.33 1.32 6.66 2 7 C2 6.34 2 5.68 2 5 C2.66 5.33 3.32 5.66 4 6 C2.68 8.97 1.36 11.94 0 15 C-2.475 14.505 -2.475 14.505 -5 14 C-4.67 12.68 -4.34 11.36 -4 10 C-7.23063367 9.65977445 -7.23063367 9.65977445 -9.625 12.4375 C-10.40875 13.283125 -11.1925 14.12875 -12 15 C-13 16 -13 16 -15.5625 16.0625 C-16.366875 16.041875 -17.17125 16.02125 -18 16 C-14.1004203 11.84044832 -9.79538016 8.3751146 -5.3046875 4.8671875 C-3.40400954 3.3273162 -1.68227278 1.77023475 0 0 Z " fill="#CDF721" transform="translate(173,151)"/>
<path d="M0 0 C0.33 0.66 0.66 1.32 1 2 C0.02609458 3.64556434 -0.95172989 5.28898698 -1.953125 6.91796875 C-3.45113039 9.89721082 -3.91579115 12.90243571 -4.41015625 16.1796875 C-4.70212891 17.08074219 -4.70212891 17.08074219 -5 18 C-5.99 18.33 -6.98 18.66 -8 19 C-7.67 22.3 -7.34 25.6 -7 29 C-6.01 29.33 -5.02 29.66 -4 30 C-4 30.99 -4 31.98 -4 33 C0.06629447 36.30386425 3.95191192 36.57219593 9 37 C9 37.33 9 37.66 9 38 C2.72238025 38.50220958 -0.9591692 38.20069234 -6 34 C-8.74282626 31.6354946 -9.77886715 29.77268792 -10.23828125 26.08984375 C-10.59122451 15.85448915 -5.85126036 8.0747393 0 0 Z " fill="#C6E83C" transform="translate(245,260)"/>
<path d="M0 0 C0.66 0 1.32 0 2 0 C0.68500226 3.57218457 -0.9629221 6.84075221 -2.81811523 10.16186523 C-9.79293746 22.7049447 -12.63768964 33.72497185 -13 48 C-13.66 48 -14.32 48 -15 48 C-15.71865036 30.6126537 -15.71865036 30.6126537 -12.15625 24.13671875 C-10.7232553 21.48858328 -9.75643029 18.77347679 -8.75 15.9375 C-8.41484375 14.99777344 -8.0796875 14.05804688 -7.734375 13.08984375 C-7.49203125 12.40019531 -7.2496875 11.71054687 -7 11 C-6.34 11 -5.68 11 -5 11 C-5 9.35 -5 7.7 -5 6 C-4.34 6 -3.68 6 -3 6 C-3.33 5.01 -3.66 4.02 -4 3 C-3.34 3 -2.68 3 -2 3 C-1.34 2.01 -0.68 1.02 0 0 Z " fill="#C4E63D" transform="translate(214,245)"/>
<path d="M0 0 C2.625 2.5625 2.625 2.5625 4 5 C3.67 5.66 3.34 6.32 3 7 C1.62437146 5.71034824 0.29233607 4.37310707 -1 3 C-1 2.34 -1 1.68 -1 1 C-2.79323253 1.28187936 -4.58457126 1.5758281 -6.375 1.875 C-7.87160156 2.11863281 -7.87160156 2.11863281 -9.3984375 2.3671875 C-12.1425115 2.7958802 -12.1425115 2.7958802 -14 5 C-16.125 5.625 -16.125 5.625 -18 6 C-18 7.32 -18 8.64 -18 10 C-19.32 10.33 -20.64 10.66 -22 11 C-22 10.34 -22 9.68 -22 9 C-22.7425 9.45375 -23.485 9.9075 -24.25 10.375 C-26.47106199 11.68744572 -28.68781872 12.86367159 -31 14 C-23.25813933 4.0745376 -13.11579849 -3.59336945 0 0 Z " fill="#C6EB32" transform="translate(160,98)"/>
<path d="M0 0 C1.0755233 3.22656989 0.94716176 3.83251067 0.0625 6.9375 C-3.54328951 22.20036243 1.22283634 35.40180754 8 49 C7.34 49 6.68 49 6 49 C4.52734375 47.06640625 4.52734375 47.06640625 2.9375 44.5625 C1.16321108 41.6281857 1.16321108 41.6281857 -1 39 C-1.28101946 36.68047431 -1.44782625 34.36114486 -1.62109375 32.03125 C-1.74613281 31.3609375 -1.87117188 30.690625 -2 30 C-2.66 29.67 -3.32 29.34 -4 29 C-4.08696177 25.06263877 -4.14037835 21.12552372 -4.1875 17.1875 C-4.21263672 16.06794922 -4.23777344 14.94839844 -4.26367188 13.79492188 C-4.27333984 12.72177734 -4.28300781 11.64863281 -4.29296875 10.54296875 C-4.3086792 9.55321045 -4.32438965 8.56345215 -4.34057617 7.54370117 C-3.94363232 4.57900006 -3.25064476 3.86349827 -1 2 C-0.67 1.34 -0.34 0.68 0 0 Z " fill="#C2E338" transform="translate(78,200)"/>
<path d="M0 0 C0.78983621 10.86024786 -2.43741013 21.80970916 -6 32 C-6.33 32 -6.66 32 -7 32 C-7.33 29.36 -7.66 26.72 -8 24 C-7.01 24 -6.02 24 -5 24 C-4.95101563 23.39414063 -4.90203125 22.78828125 -4.8515625 22.1640625 C-4.3017522 16.00239536 -3.32390951 10.04114049 -2 4 C-3.43836751 4.11458693 -4.87570966 4.24209116 -6.3125 4.375 C-7.11300781 4.44460937 -7.91351563 4.51421875 -8.73828125 4.5859375 C-11.27224441 4.89564426 -11.27224441 4.89564426 -14 7 C-16.6875 7.125 -16.6875 7.125 -19 7 C-15.84388587 4.3458221 -12.84829424 3.07732936 -8.9375 1.8125 C-7.37322266 1.29623047 -7.37322266 1.29623047 -5.77734375 0.76953125 C-3 0 -3 0 0 0 Z " fill="#C1DF3C" transform="translate(290,231)"/>
<path d="M0 0 C0.66 0.33 1.32 0.66 2 1 C0.66390614 6.58730159 0.66390614 6.58730159 -2.3125 8.4375 C-5.31950558 9.06687326 -7.01340451 8.60385611 -10 8 C-11.83848168 7.92209113 -13.67942827 7.89206385 -15.51953125 7.90234375 C-17.0519043 7.90717773 -17.0519043 7.90717773 -18.61523438 7.91210938 C-20.19788086 7.92467773 -20.19788086 7.92467773 -21.8125 7.9375 C-22.88693359 7.94201172 -23.96136719 7.94652344 -25.06835938 7.95117188 C-27.71229683 7.96292271 -30.35611952 7.97935213 -33 8 C-33 7.67 -33 7.34 -33 7 C-32.1028125 6.98582031 -31.205625 6.97164063 -30.28125 6.95703125 C-19.78144842 6.55569586 -9.502988 4.751494 0 0 Z " fill="#CEF533" transform="translate(274,325)"/>
<path d="M0 0 C3.0800885 1.02521035 5.2446611 2.2365831 8 4 C7.34 4.66 6.68 5.32 6 6 C4.17596668 5.51817988 2.35297349 5.0321097 0.53515625 4.52734375 C-8.2602421 2.69779247 -16.69793822 3.83657497 -25 7 C-26.03125 7.391875 -27.0625 7.78375 -28.125 8.1875 C-28.74375 8.455625 -29.3625 8.72375 -30 9 C-30.33 8.34 -30.66 7.68 -31 7 C-29.5459375 6.62875 -29.5459375 6.62875 -28.0625 6.25 C-26.5465625 5.63125 -26.5465625 5.63125 -25 5 C-24.03122943 2.96756452 -24.03122943 2.96756452 -24 1 C-24 1.66 -24 2.32 -24 3 C-15.25602593 2.01011614 -9.26639061 -0.87862138 0 0 Z " fill="#1D2603" transform="translate(267,160)"/>
<path d="M0 0 C0.99 0 1.98 0 3 0 C3 0.66 3 1.32 3 2 C3.99 2.33 4.98 2.66 6 3 C4.0887068 5.58734799 2.1700261 8.16912771 0.25 10.75 C-0.28882813 11.47960937 -0.82765625 12.20921875 -1.3828125 12.9609375 C-4.06155579 16.55437362 -6.69181042 19.94875718 -10 23 C-9.88637738 21.5199159 -9.75877092 20.04089926 -9.625 18.5625 C-9.55539063 17.73878906 -9.48578125 16.91507813 -9.4140625 16.06640625 C-9.27742187 15.38449219 -9.14078125 14.70257813 -9 14 C-8.34 13.67 -7.68 13.34 -7 13 C-6.01 13.33 -5.02 13.66 -4 14 C-4 13.01 -4 12.02 -4 11 C-3.34 10.34 -2.68 9.68 -2 9 C-2.33 8.01 -2.66 7.02 -3 6 C-1.5625 2.8125 -1.5625 2.8125 0 0 Z " fill="#1C2306" transform="translate(196,202)"/>
<path d="M0 0 C0.33 0 0.66 0 1 0 C1 3.3 1 6.6 1 10 C-0.21236328 10.12955078 -0.21236328 10.12955078 -1.44921875 10.26171875 C-8.03965672 11.12825402 -11.56262421 11.75582862 -16 17 C-20.75488301 18.54810144 -22.73767712 17.13116144 -27 15 C-18.03902996 11.23401093 -9.55970647 8.7628844 0 7 C0 4.69 0 2.38 0 0 Z " fill="#1D2406" transform="translate(291,190)"/>
<path d="M0 0 C0 2.95274099 -0.43891831 4.49058403 -1.5 7.1875 C-1.7784375 7.90292969 -2.056875 8.61835938 -2.34375 9.35546875 C-2.5603125 9.89816406 -2.776875 10.44085938 -3 11 C-4.32 11 -5.64 11 -7 11 C-6.67 12.32 -6.34 13.64 -6 15 C-6.639375 15.103125 -7.27875 15.20625 -7.9375 15.3125 C-8.618125 15.539375 -9.29875 15.76625 -10 16 C-10.33 16.99 -10.66 17.98 -11 19 C-13.0625 19.6875 -13.0625 19.6875 -15 20 C-15.08121094 20.58265625 -15.16242188 21.1653125 -15.24609375 21.765625 C-16.22972487 24.68084261 -17.70618481 25.80510492 -20.0625 27.75 C-21.16271484 28.67039063 -21.16271484 28.67039063 -22.28515625 29.609375 C-22.85105469 30.06828125 -23.41695312 30.5271875 -24 31 C-24.66 30.67 -25.32 30.34 -26 30 C-25.57589844 29.5875 -25.15179688 29.175 -24.71484375 28.75 C-15.65962942 19.83409666 -7.8835586 9.9418276 0 0 Z " fill="#C3E338" transform="translate(187,224)"/>
<path d="M0 0 C0.99 0.33 1.98 0.66 3 1 C2.34 1 1.68 1 1 1 C1 10.9 1 20.8 1 31 C3.97 30.34 6.94 29.68 10 29 C12.4375 30.8125 12.4375 30.8125 14 33 C16.43387753 34.21693876 18.41838846 34.31959896 21.125 34.5625 C22.03507812 34.64628906 22.94515625 34.73007813 23.8828125 34.81640625 C24.58148438 34.87699219 25.28015625 34.93757813 26 35 C26 35.33 26 35.66 26 36 C16.66947237 36.31929562 8.70086481 35.48034592 0 32 C0 21.44 0 10.88 0 0 Z " fill="#46560E" transform="translate(54,107)"/>
<path d="M0 0 C2.64 0 5.28 0 8 0 C3.9454122 4.36771438 -0.53058666 7.64061884 -5.4375 11 C-10.48785639 14.47570379 -15.35419486 17.99474169 -20 22 C-20.33 21.01 -20.66 20.02 -21 19 C-18.97958823 15.96938234 -18.24314437 15.27760233 -15 14 C-14.01 14 -13.02 14 -12 14 C-11.979375 13.401875 -11.95875 12.80375 -11.9375 12.1875 C-11 10 -11 10 -7.5625 8.375 C-6.386875 7.92125 -5.21125 7.4675 -4 7 C-1.77810176 4.77810176 -1.07401108 2.91517292 0 0 Z " fill="#C3E242" transform="translate(125,146)"/>
<path d="M0 0 C0.33 0.66 0.66 1.32 1 2 C0.34 2 -0.32 2 -1 2 C-1.268125 2.928125 -1.53625 3.85625 -1.8125 4.8125 C-2.90977245 7.75781025 -3.53357169 9.15017877 -6 11 C-6.66 11 -7.32 11 -8 11 C-7.34 11.66 -6.68 12.32 -6 13 C-5.01 13 -4.02 13 -3 13 C-5.3825493 17.98169399 -6.96781748 20.65164816 -12 23 C-12.66 22.01 -13.32 21.02 -14 20 C-13.38125 18.948125 -12.7625 17.89625 -12.125 16.8125 C-10.90202083 14.69351873 -9.93628632 12.81796091 -9.125 10.5 C-7.26941902 6.37648671 -4.10496668 2.05248334 0 0 Z M-9 14 C-8.67 14.99 -8.34 15.98 -8 17 C-7.67 16.01 -7.34 15.02 -7 14 C-7.66 14 -8.32 14 -9 14 Z " fill="#D1FC1E" transform="translate(255,249)"/>
<path d="M0 0 C2.00720923 0.28674418 4.0085944 0.61866701 6 1 C6 1.66 6 2.32 6 3 C8.64 3.33 11.28 3.66 14 4 C14.33 4.99 14.66 5.98 15 7 C17.50447516 8.21869929 17.50447516 8.21869929 20 9 C20 9.66 20 10.32 20 11 C22.31 11.33 24.62 11.66 27 12 C27 12.66 27 13.32 27 14 C27.66 14.33 28.32 14.66 29 15 C28.67 15.99 28.34 16.98 28 18 C26.87851562 17.27683594 26.87851562 17.27683594 25.734375 16.5390625 C24.74953125 15.90742188 23.7646875 15.27578125 22.75 14.625 C21.77546875 13.99851563 20.8009375 13.37203125 19.796875 12.7265625 C17.12942706 11.02065532 17.12942706 11.02065532 14.71875 9.8671875 C13 9 13 9 11.75 7.5 C6.3213982 2.84691274 -3.23477183 3.42846445 -10 3 C-10 2.67 -10 2.34 -10 2 C-9.04287109 1.90912109 -9.04287109 1.90912109 -8.06640625 1.81640625 C-6.82697266 1.69072266 -6.82697266 1.69072266 -5.5625 1.5625 C-4.73878906 1.48128906 -3.91507812 1.40007812 -3.06640625 1.31640625 C-1.01337975 1.21069185 -1.01337975 1.21069185 0 0 Z " fill="#D1FB20" transform="translate(266,120)"/>
<path d="M0 0 C1.32 0.66 2.64 1.32 4 2 C4 1.34 4 0.68 4 0 C4.66 0 5.32 0 6 0 C4.46679261 3.78133733 2.16776728 5.89443552 -0.875 8.5625 C-1.73867187 9.32691406 -2.60234375 10.09132812 -3.4921875 10.87890625 C-9.54696133 16 -9.54696133 16 -12 16 C-12 15.34 -12 14.68 -12 14 C-11.34 14 -10.68 14 -10 14 C-9.71125 13.0925 -9.4225 12.185 -9.125 11.25 C-8.23468224 8.67797092 -7.28505587 6.38653234 -6 4 C-4.35 4 -2.7 4 -1 4 C-0.67 2.68 -0.34 1.36 0 0 Z " fill="#1A2007" transform="translate(163,245)"/>
<path d="M0 0 C0.60328125 0.11859375 1.2065625 0.2371875 1.828125 0.359375 C0.71131155 3.70981534 -0.2155646 4.50853843 -2.859375 6.734375 C-3.57480469 7.34152344 -4.29023438 7.94867188 -5.02734375 8.57421875 C-6.08888672 9.45787109 -6.08888672 9.45787109 -7.171875 10.359375 C-8.09419922 11.13474609 -8.09419922 11.13474609 -9.03515625 11.92578125 C-10.40886321 13.0765477 -11.78955897 14.21896428 -13.171875 15.359375 C-12.841875 13.709375 -12.511875 12.059375 -12.171875 10.359375 C-11.181875 10.359375 -10.191875 10.359375 -9.171875 10.359375 C-9.171875 9.039375 -9.171875 7.719375 -9.171875 6.359375 C-9.831875 6.359375 -10.491875 6.359375 -11.171875 6.359375 C-11.171875 3.359375 -11.171875 3.359375 -9.734375 1.109375 C-6.25238757 -1.26856763 -4.03716967 -0.6511564 0 0 Z " fill="#1A2109" transform="translate(133.171875,178.640625)"/>
<path d="M0 0 C0 1.66666667 0 3.33333333 0 5 C-2.1875 6.82421875 -2.1875 6.82421875 -5 8.6875 C-5.928125 9.31011719 -6.85625 9.93273437 -7.8125 10.57421875 C-8.8953125 11.27998047 -8.8953125 11.27998047 -10 12 C-12 9 -12 9 -12 6 C-11.34 6 -10.68 6 -10 6 C-9.7525 5.21625 -9.505 4.4325 -9.25 3.625 C-8 1 -8 1 -6.125 -0.375 C-3.6665651 -1.09806909 -2.38500154 -0.85178626 0 0 Z " fill="#CBF229" transform="translate(124,73)"/>
<path d="M0 0 C0.33 0.66 0.66 1.32 1 2 C2.134375 1.814375 3.26875 1.62875 4.4375 1.4375 C6.2009375 1.2209375 6.2009375 1.2209375 8 1 C8.33 1.33 8.66 1.66 9 2 C10.43850003 1.96790365 11.87627292 1.89947283 13.3125 1.8125 C17.67695783 1.74322289 17.67695783 1.74322289 20.4375 3.9375 C20.953125 4.618125 21.46875 5.29875 22 6 C22.66 6.33 23.32 6.66 24 7 C23.01 7.66 22.02 8.32 21 9 C20.48853802 11.90613434 20.48853802 11.90613434 20.48828125 15.3203125 C20.45283203 16.57714844 20.41738281 17.83398438 20.38085938 19.12890625 C20.35830078 20.44761719 20.33574219 21.76632813 20.3125 23.125 C20.27933471 24.46487759 20.24484578 25.80472311 20.20898438 27.14453125 C20.12626673 30.4296033 20.05719307 33.71440032 20 37 C19.67 37 19.34 37 19 37 C18.67 26.44 18.34 15.88 18 5 C10.74 4.34 3.48 3.68 -4 3 C-2.68 2.01 -1.36 1.02 0 0 Z " fill="#D1F733" transform="translate(327,193)"/>
<path d="M0 0 C0.33 0 0.66 0 1 0 C1 10.23 1 20.46 1 31 C0.67 31 0.34 31 0 31 C-0.12375 29.865625 -0.2475 28.73125 -0.375 27.5625 C-0.58125 26.386875 -0.7875 25.21125 -1 24 C-1.66 23.67 -2.32 23.34 -3 23 C-2.88569952 20.1033852 -2.7589576 17.20821684 -2.625 14.3125 C-2.5940625 13.49587891 -2.563125 12.67925781 -2.53125 11.83789062 C-2.32044076 7.49873367 -1.98261241 3.95716543 0 0 Z " fill="#D1F82F" transform="translate(53,107)"/>
<path d="M0 0 C1.32 0.66 2.64 1.32 4 2 C1.71287089 3.83925787 -0.57928535 5.67151494 -2.875 7.5 C-3.85146484 8.28697266 -3.85146484 8.28697266 -4.84765625 9.08984375 C-5.47285156 9.58613281 -6.09804687 10.08242187 -6.7421875 10.59375 C-7.3182373 11.05458984 -7.89428711 11.51542969 -8.48779297 11.99023438 C-10 13 -10 13 -12 13 C-12 12.34 -12 11.68 -12 11 C-12.66 11 -13.32 11 -14 11 C-14 10.34 -14 9.68 -14 9 C-12.02 8.67 -10.04 8.34 -8 8 C-8.99 7.34 -9.98 6.68 -11 6 C-8.1875 3.9375 -8.1875 3.9375 -5 2 C-4.01 2.33 -3.02 2.66 -2 3 C-1.67 2.34 -1.34 1.68 -1 1 C-0.67 0.67 -0.34 0.34 0 0 Z " fill="#CBF02E" transform="translate(148,131)"/>
<path d="M0 0 C11.5213668 0.51206075 20.10871477 8.29701008 28 16 C24.86650268 17.04449911 24.01031744 16.93423645 21 16 C20.9175 15.38125 20.835 14.7625 20.75 14.125 C20.20005805 11.8234856 20.20005805 11.8234856 18 10.875 C17.01 10.441875 17.01 10.441875 16 10 C15.67 9.34 15.34 8.68 15 8 C12.83486702 6.67671255 12.83486702 6.67671255 10.25 5.4375 C9.38890625 5.00308594 8.5278125 4.56867188 7.640625 4.12109375 C5.07735744 3.03284258 2.74185271 2.43889369 0 2 C0 1.34 0 0.68 0 0 Z " fill="#1F2A06" transform="translate(272,127)"/>
<path d="M0 0 C-1.49152545 1.11558768 -2.99376684 2.21685148 -4.5 3.3125 C-5.75296875 4.23482422 -5.75296875 4.23482422 -7.03125 5.17578125 C-14.04399231 9.48492685 -20.08130261 10.46399661 -28.25 10.3125 C-29.57644531 10.31733398 -29.57644531 10.31733398 -30.9296875 10.32226562 C-35.24096737 10.28644683 -38.18879451 10.17450807 -42 8 C-38.98968256 7.06576355 -38.13349732 6.95550089 -35 8 C-27.60994873 8.31926524 -20.30604214 8.16896674 -13 7 C-13 6.01 -13 5.02 -13 4 C-12.030625 3.71125 -11.06125 3.4225 -10.0625 3.125 C-6.89335797 2.35785318 -6.89335797 2.35785318 -6 0 C-2.49056604 -1.24528302 -2.49056604 -1.24528302 0 0 Z " fill="#C7E640" transform="translate(98,99)"/>
<path d="M0 0 C0 0.99 0 1.98 0 3 C-0.639375 3.474375 -1.27875 3.94875 -1.9375 4.4375 C-4.4056199 6.3072878 -4.39532239 7.06299448 -5 10 C-6.4375 12.75 -6.4375 12.75 -8 15 C-8.66 15 -9.32 15 -10 15 C-10.33 14.34 -10.66 13.68 -11 13 C-12.65 13.33 -14.3 13.66 -16 14 C-4.57142857 0 -4.57142857 0 0 0 Z " fill="#13130E" transform="translate(114,161)"/>
<path d="M0 0 C0.625 1.875 0.625 1.875 1 4 C-1 6 -1 6 -2.9375 6.375 C-5.70462903 7.21352395 -6.30856772 8.69965209 -8 11 C-9.66279327 12.0064275 -11.32983484 13.00585407 -13 14 C-15.31736553 16.20701479 -17.51387396 18.41664875 -19.5625 20.875 C-20.2740625 21.431875 -20.2740625 21.431875 -21 22 C-23.08984375 21.5703125 -23.08984375 21.5703125 -25 21 C-24.09378906 20.2265625 -23.18757813 19.453125 -22.25390625 18.65625 C-21.02325602 17.60437895 -19.79280043 16.55228016 -18.5625 15.5 C-17.92666992 14.95625732 -17.29083984 14.41251465 -16.63574219 13.85229492 C-12.26031852 10.10216914 -7.93863114 6.2995467 -3.671875 2.42578125 C-2 1 -2 1 0 0 Z " fill="#212C04" transform="translate(121,79)"/>
<path d="M0 0 C0.67095703 0.58007812 0.67095703 0.58007812 1.35546875 1.171875 C2.61416392 2.25612414 3.87606593 3.33665817 5.140625 4.4140625 C6.5805074 5.64219749 8.010981 6.88136805 9.4375 8.125 C12.75271739 10.55076882 16.28609824 12.26746022 20 14 C16.98968256 14.93423645 16.13349732 15.04449911 13 14 C13 13.34 13 12.68 13 12 C11.68 12 10.36 12 9 12 C9 11.34 9 10.68 9 10 C6.36 10.66 3.72 11.32 1 12 C0.67 10.68 0.34 9.36 0 8 C0.99 7.34 1.98 6.68 3 6 C1.68 5.34 0.36 4.68 -1 4 C-1 1 -1 1 0 0 Z " fill="#CAF12F" transform="translate(87,251)"/>
<path d="M0 0 C0.66 0 1.32 0 2 0 C-2.03872437 16.8929385 -2.03872437 16.8929385 -5 24 C-7.83374881 20.79663178 -8.5205537 18.21912747 -9 14 C-6 12 -6 12 -3 12 C-2.01 8.04 -1.02 4.08 0 0 Z " fill="#192106" transform="translate(315,260)"/>
<path d="M0 0 C2 2 2 2 2.125 5.125 C2.08375 6.07375 2.0425 7.0225 2 8 C2.66 8 3.32 8 4 8 C4 9.65 4 11.3 4 13 C3.01 13.495 3.01 13.495 2 14 C1.67 11.69 1.34 9.38 1 7 C-3.56789246 7.58562724 -7.6403046 8.82352964 -11.94921875 10.37890625 C-14 11 -14 11 -17 11 C-17 10.34 -17 9.68 -17 9 C-15.73160474 8.49384702 -14.46016898 7.99530901 -13.1875 7.5 C-12.12595703 7.08234375 -12.12595703 7.08234375 -11.04296875 6.65625 C-9 6 -9 6 -6 6 C-6 5.34 -6 4.68 -6 4 C-4.02 3.67 -2.04 3.34 0 3 C0 2.01 0 1.02 0 0 Z " fill="#181C0A" transform="translate(292,224)"/>
<path d="M0 0 C0.33 0 0.66 0 1 0 C1.309375 0.94875 1.61875 1.8975 1.9375 2.875 C2.87394742 5.86080408 2.87394742 5.86080408 4 8 C4.13415472 10.6723621 4.04318541 13.32250488 4 16 C5.12535156 15.98259766 5.12535156 15.98259766 6.2734375 15.96484375 C12.92337417 15.9062171 19.40004873 16.18230692 26 17 C26 17.33 26 17.66 26 18 C18.08 18 10.16 18 2 18 C-0.14285714 5.94642857 -0.14285714 5.94642857 0 0 Z " fill="#B3D236" transform="translate(319,180)"/>
<path d="M0 0 C2.31 0 4.62 0 7 0 C2.80013177 4.89984627 -1.79222372 7.60833012 -8.19921875 8.390625 C-14.70625395 8.59837527 -19.10732335 8.47330436 -24 4 C-23.34 3.67 -22.68 3.34 -22 3 C-21.1646875 3.45826172 -21.1646875 3.45826172 -20.3125 3.92578125 C-17.13518505 5.40172992 -14.48730403 5.22813596 -11 5.1875 C-9.783125 5.18105469 -8.56625 5.17460937 -7.3125 5.16796875 C-4.66936856 5.03394204 -2.50654477 4.78329524 0 4 C0 2.68 0 1.36 0 0 Z " fill="#C2E13B" transform="translate(144,219)"/>
<path d="M0 0 C0.66 0.33 1.32 0.66 2 1 C0.3619751 4.51005335 -1.03134491 7.45543849 -4 10 C-8 8.66666667 -12 7.33333333 -16 6 C-16 5.67 -16 5.34 -16 5 C-14.89591797 4.83564453 -14.89591797 4.83564453 -13.76953125 4.66796875 C-8.50728669 3.8129409 -4.48086807 3.03542676 0 0 Z " fill="#181D09" transform="translate(262,293)"/>
<path d="M0 0 C1.09658936 3.28976808 0.79953138 4.71303767 0 8 C-0.66 8 -1.32 8 -2 8 C-1.65213292 9.97536745 -1.65213292 9.97536745 -1 12 C-0.34 12.33 0.32 12.66 1 13 C0.9278125 13.61488281 0.855625 14.22976562 0.78125 14.86328125 C0.6884375 15.67152344 0.595625 16.47976562 0.5 17.3125 C0.4071875 18.11300781 0.314375 18.91351563 0.21875 19.73828125 C-0.04813463 22.11896555 -0.04813463 22.11896555 0 25 C0.66 25.33 1.32 25.66 2 26 C1.01 26 0.02 26 -1 26 C-4.44186994 18.97858532 -4.54886288 12.65608803 -3 5 C-1.4453125 2.10546875 -1.4453125 2.10546875 0 0 Z " fill="#C2E13E" transform="translate(119,195)"/>
<path d="M0 0 C-3.11159163 1.72458498 -6.03294054 2.55291574 -9.5 3.3125 C-15.98586541 4.86207868 -21.92752607 7.27600017 -28 10 C-27.67 9.01 -27.34 8.02 -27 7 C-25.35 6.67 -23.7 6.34 -22 6 C-22 5.34 -22 4.68 -22 4 C-21.34 4 -20.68 4 -20 4 C-19.67 3.01 -19.34 2.02 -19 1 C-12.62694402 0.25492456 -6.41688675 -0.10349817 0 0 Z " fill="#CBEE3C" transform="translate(152,67)"/>
<path d="M0 0 C0.33 0.99 0.66 1.98 1 3 C0.175 3.763125 -0.65 4.52625 -1.5 5.3125 C-4.34055197 7.75434142 -4.34055197 7.75434142 -4 11 C-5.32 11.33 -6.64 11.66 -8 12 C-8 13.32 -8 14.64 -8 16 C-9.65 15.67 -11.3 15.34 -13 15 C-13.33 16.65 -13.66 18.3 -14 20 C-15.98 19.67 -17.96 19.34 -20 19 C-17.38702202 16.28674973 -14.72459457 13.97252746 -11.6875 11.75 C-7.16969086 8.30180461 -3.56228617 4.4099041 0 0 Z " fill="#C5E92E" transform="translate(296,306)"/>
<path d="M0 0 C-0.875 4.875 -0.875 4.875 -2 6 C-8.63624372 6.31601161 -14.5448427 5.50934785 -21 4 C-21.33 3.01 -21.66 2.02 -22 1 C-21.01 1.33 -20.02 1.66 -19 2 C-16.85662235 2.12016328 -14.70920876 2.17531664 -12.5625 2.1875 C-10.86287109 2.20876953 -10.86287109 2.20876953 -9.12890625 2.23046875 C-5.70582401 1.97833161 -3.25502998 0 0 0 Z " fill="#171E05" transform="translate(145,224)"/>
<path d="M0 0 C0 3 0 3 -2.1171875 5.3046875 C-3.95034423 7.01321034 -5.78367654 8.72154481 -7.6171875 10.4296875 C-9.94115925 12.93652915 -10.99311302 14.77101762 -12 18 C-12.66 18 -13.32 18 -14 18 C-14.33 18.66 -14.66 19.32 -15 20 C-14.34 20.33 -13.68 20.66 -13 21 C-14 22 -14 22 -17.0625 22.0625 C-18.031875 22.041875 -19.00125 22.02125 -20 22 C-16.65730383 16.42297534 -12.38436591 12.15292287 -7.75 7.625 C-7.00492188 6.88894531 -6.25984375 6.15289062 -5.4921875 5.39453125 C-3.66594238 3.59169953 -1.83517795 1.79373022 0 0 Z " fill="#1B2503" transform="translate(217,143)"/>
<path d="M0 0 C1.32 0.66 2.64 1.32 4 2 C2.42323368 4.10937632 0.83902921 6.21239258 -0.75 8.3125 C-1.1934375 8.90740234 -1.636875 9.50230469 -2.09375 10.11523438 C-4.4747471 13.24904673 -6.65113445 15.83262674 -10 18 C-10.33 17.01 -10.66 16.02 -11 15 C-9.71034824 13.62437146 -8.37310707 12.29233607 -7 11 C-6.34 11 -5.68 11 -5 11 C-4.67 9.68 -4.34 8.36 -4 7 C-3.34 7 -2.68 7 -2 7 C-1.855625 6.030625 -1.71125 5.06125 -1.5625 4.0625 C-1 1 -1 1 0 0 Z " fill="#1E2604" transform="translate(182,224)"/>
<path d="M0 0 C0.66 0 1.32 0 2 0 C2 1.32 2 2.64 2 4 C2.66 4.33 3.32 4.66 4 5 C4.66 3.35 5.32 1.7 6 0 C6.99 0.33 7.98 0.66 9 1 C7.35790421 3.16959299 5.71157832 5.33572532 4.0625 7.5 C3.59392578 8.12003906 3.12535156 8.74007812 2.64257812 9.37890625 C1.45209536 10.93766786 0.22858708 12.47109164 -1 14 C-1.33 14 -1.66 14 -2 14 C-2.1799928 8.78020872 -1.97094808 4.92737019 0 0 Z " fill="#CBF12D" transform="translate(183,170)"/>
<path d="M0 0 C0.66 0.33 1.32 0.66 2 1 C1.67 1.66 1.34 2.32 1 3 C2.65 2.67 4.3 2.34 6 2 C5.67 3.32 5.34 4.64 5 6 C3.02 6.33 1.04 6.66 -1 7 C-0.67 7.66 -0.34 8.32 0 9 C-1.32 8.34 -2.64 7.68 -4 7 C-4.33 7.99 -4.66 8.98 -5 10 C-6.65 9.67 -8.3 9.34 -10 9 C-6.83047153 5.73991357 -3.60062011 2.77762123 0 0 Z " fill="#181B09" transform="translate(148,135)"/>
<path d="M0 0 C0.66 0.33 1.32 0.66 2 1 C2 2.32 2 3.64 2 5 C1.01 5.495 1.01 5.495 0 6 C0.33 6.66 0.66 7.32 1 8 C-2.41139003 9.09651823 -5.20655581 8.94215473 -8.75 8.5625 C-9.73484375 8.46066406 -10.7196875 8.35882813 -11.734375 8.25390625 C-12.48203125 8.17011719 -13.2296875 8.08632812 -14 8 C-11.33449905 6.22299936 -8.7462926 4.83966184 -5.875 3.4375 C-2.72017508 2.03461708 -2.72017508 2.03461708 0 0 Z " fill="#181E0B" transform="translate(94,101)"/>
<path d="M0 0 C0.66 0 1.32 0 2 0 C1.67 2.97 1.34 5.94 1 9 C3.31 9.33 5.62 9.66 8 10 C7.67 10.99 7.34 11.98 7 13 C7.66 13 8.32 13 9 13 C8.67 13.66 8.34 14.32 8 15 C2.17076013 12.34104848 -2.32891147 9.3791455 -7 5 C-5 4 -5 4 -2.9375 3.625 C-1.9784375 3.315625 -1.9784375 3.315625 -1 3 C-0.67 2.01 -0.34 1.02 0 0 Z " fill="#181E05" transform="translate(222,314)"/>
<path d="M0 0 C2.97 0.495 2.97 0.495 6 1 C3.75533429 3.24466571 1.62356137 4.34299343 -1.1875 5.8125 C-4.64707134 7.66032879 -7.91010746 9.54063337 -11.0625 11.875 C-14 14 -14 14 -16 14 C-16 13.34 -16 12.68 -16 12 C-15.34 12 -14.68 12 -14 12 C-13.67 11.01 -13.34 10.02 -13 9 C-11.35 8.67 -9.7 8.34 -8 8 C-8 7.01 -8 6.02 -8 5 C-7.34 5 -6.68 5 -6 5 C-6 4.34 -6 3.68 -6 3 C-4.02 2.67 -2.04 2.34 0 2 C0 1.34 0 0.68 0 0 Z " fill="#C3E735" transform="translate(258,204)"/>
<path d="M0 0 C0.33 0.99 0.66 1.98 1 3 C0.67 3.66 0.34 4.32 0 5 C0.66 5 1.32 5 2 5 C1.67 6.65 1.34 8.3 1 10 C-0.65 9.67 -2.3 9.34 -4 9 C-4.4125 9.804375 -4.825 10.60875 -5.25 11.4375 C-7 14 -7 14 -9.109375 14.66015625 C-9.73328125 14.77230469 -10.3571875 14.88445312 -11 15 C-7.59445921 9.73369981 -4.12331138 4.7296807 0 0 Z " fill="#1D2604" transform="translate(185,179)"/>
<path d="M0 0 C2.83967764 3.34765516 4.213698 6.75897639 5.6875 10.875 C6.12449219 12.06867188 6.56148438 13.26234375 7.01171875 14.4921875 C7.96182613 17.86450538 8.19677107 20.52193846 8 24 C7.34 24 6.68 24 6 24 C6 22.02 6 20.04 6 18 C5.34 18 4.68 18 4 18 C3.32678716 15.75194998 2.66165877 13.50147776 2 11.25 C1.62875 9.99703125 1.2575 8.7440625 0.875 7.453125 C0 4 0 4 0 0 Z " fill="#293405" transform="translate(311,161)"/>
<path d="M0 0 C3.34910484 1.36626662 4.63101838 2.52950679 6.125 5.8125 C6.43695313 6.47894531 6.74890625 7.14539063 7.0703125 7.83203125 C7.53050781 8.90517578 7.53050781 8.90517578 8 10 C8.36609375 10.70898438 8.7321875 11.41796875 9.109375 12.1484375 C10.42625506 16.36476401 10.21005642 20.42555145 10.125 24.8125 C10.11597656 25.69615234 10.10695312 26.57980469 10.09765625 27.49023438 C10.07419637 29.66027359 10.03832865 31.83017247 10 34 C9.67 34 9.34 34 9 34 C8.96261719 33.11699219 8.92523438 32.23398438 8.88671875 31.32421875 C8.24040862 19.52589074 6.29394295 10.07528416 0 0 Z " fill="#D2F53C" transform="translate(189,80)"/>
<path d="M0 0 C-8.4683465 5.64556433 -17.14804807 5.35046469 -27 5 C-27 4.67 -27 4.34 -27 4 C-25.41058594 3.80083984 -25.41058594 3.80083984 -23.7890625 3.59765625 C-22.40101721 3.41946125 -21.01299769 3.2410654 -19.625 3.0625 C-18.92632812 2.97548828 -18.22765625 2.88847656 -17.5078125 2.79882812 C-13.63216425 2.33681872 -13.63216425 2.33681872 -10 1 C-10 0.34 -10 -0.32 -10 -1 C-6.06329512 -2.31223496 -3.87511856 -1.24296256 0 0 Z " fill="#192203" transform="translate(97,137)"/>
<path d="M0 0 C0 0.33 0 0.66 0 1 C-16.8929385 1.3690205 -16.8929385 1.3690205 -24 -1 C-24 -1.33 -24 -1.66 -24 -2 C-16.21828638 -4.25920718 -7.70055556 -1.65586059 0 0 Z " fill="#243005" transform="translate(256,331)"/>
<path d="M0 0 C1.98 0 3.96 0 6 0 C6.33 0.99 6.66 1.98 7 3 C9.07638672 3.73175115 9.07638672 3.73175115 11.5 4.0625 C13.96875 4.47265625 13.96875 4.47265625 16 5 C16.33 5.66 16.66 6.32 17 7 C18.155 7.165 19.31 7.33 20.5 7.5 C21.655 7.665 22.81 7.83 24 8 C24.33 8.66 24.66 9.32 25 10 C15.57061727 9.53625987 7.90023985 6.08684509 0 1 C0 0.67 0 0.34 0 0 Z " fill="#263202" transform="translate(96,259)"/>
<path d="M0 0 C0.33 0.66 0.66 1.32 1 2 C-0.0625 3.9375 -0.0625 3.9375 -2 6 C-5.6875 6.75 -5.6875 6.75 -9 7 C-9 7.66 -9 8.32 -9 9 C-11.31 9.33 -13.62 9.66 -16 10 C-11.22486164 5.71884147 -5.63843769 2.96240159 0 0 Z " fill="#1F2904" transform="translate(262,206)"/>
<path d="M0 0 C0 0.99 0 1.98 0 3 C-0.99 3.66 -1.98 4.32 -3 5 C-3.165 5.680625 -3.33 6.36125 -3.5 7.0625 C-3.665 7.701875 -3.83 8.34125 -4 9 C-4.99 9.33 -5.98 9.66 -7 10 C-7.99 11.485 -7.99 11.485 -9 13 C-9.99 13.66 -10.98 14.32 -12 15 C-12 15.66 -12 16.32 -12 17 C-12.99 16.67 -13.98 16.34 -15 16 C-15 15.01 -15 14.02 -15 13 C-14.071875 12.87625 -14.071875 12.87625 -13.125 12.75 C-10.8653367 12.22094022 -10.8653367 12.22094022 -10.0625 10.25 C-9.711875 9.5075 -9.36125 8.765 -9 8 C-6.21046117 4.99023442 -3.35573428 2.36144264 0 0 Z " fill="#CCF22F" transform="translate(153,167)"/>
<path d="M0 0 C0.33 0 0.66 0 1 0 C1.3125 2.25 1.3125 2.25 1 5 C-1.125 7.375 -1.125 7.375 -4 9 C-7.3125 8.75 -7.3125 8.75 -10 8 C-10 8.66 -10 9.32 -10 10 C-10.99 10 -11.98 10 -13 10 C-13 9.34 -13 8.68 -13 8 C-11.06753564 6.73792297 -9.07723953 5.56359129 -7.0625 4.4375 C-3.31381893 2.52358755 -3.31381893 2.52358755 0 0 Z " fill="#CCF12F" transform="translate(110,129)"/>
<path d="M0 0 C2.45823172 3.68734758 3.01242616 6.69699971 4 11 C3.01 11.495 3.01 11.495 2 12 C1.01 11.67 0.02 11.34 -1 11 C-1 12.65 -1 14.3 -1 16 C-1.66 16 -2.32 16 -3 16 C-3 16.66 -3 17.32 -3 18 C-3.66 17.67 -4.32 17.34 -5 17 C-3.35 11.39 -1.7 5.78 0 0 Z " fill="#BEE12E" transform="translate(316,262)"/>
<path d="M0 0 C0.99 0.33 1.98 0.66 3 1 C-2 6 -7 11 -12 16 C-11.67 14.02 -11.34 12.04 -11 10 C-10.01 10 -9.02 10 -8 10 C-7.67 8.68 -7.34 7.36 -7 6 C-5.68 5.67 -4.36 5.34 -3 5 C-2.87625 4.360625 -2.7525 3.72125 -2.625 3.0625 C-2.41875 2.381875 -2.2125 1.70125 -2 1 C-1.34 0.67 -0.68 0.34 0 0 Z " fill="#C1E23A" transform="translate(232,224)"/>
<path d="M0 0 C5.13271592 2.41539573 8.01744998 6.31852909 11 11 C11.33 11.99 11.66 12.98 12 14 C10.68 14.33 9.36 14.66 8 15 C7.01 11.7 6.02 8.4 5 5 C3.35 4.67 1.7 4.34 0 4 C0 2.68 0 1.36 0 0 Z " fill="#C2E435" transform="translate(277,168)"/>
<path d="M0 0 C0.66 0 1.32 0 2 0 C2 5.61 2 11.22 2 17 C1.34 17 0.68 17 0 17 C0.33 19.31 0.66 21.62 1 24 C-0.32 24.99 -1.64 25.98 -3 27 C-2.47892566 23.00509669 -1.81355127 19.12041103 -0.9375 15.1875 C0.12022882 10.0868966 0.19877772 5.19030702 0 0 Z " fill="#273106" transform="translate(289,230)"/>
<path d="M0 0 C0.99 0.33 1.98 0.66 3 1 C-10.62640449 12 -10.62640449 12 -15 12 C-14.75 10.1015625 -14.75 10.1015625 -14 8 C-12.1875 7.0234375 -12.1875 7.0234375 -10 6.375 C-7.8567034 5.75580781 -7.8567034 5.75580781 -6 5 C-5.67 4.34 -5.34 3.68 -5 3 C-2.4375 2.375 -2.4375 2.375 0 2 C0 1.34 0 0.68 0 0 Z " fill="#1F2A03" transform="translate(112,125)"/>
<path d="M0 0 C0.91007812 -0.01224609 1.82015625 -0.02449219 2.7578125 -0.03710938 C3.62664062 -0.03904297 4.49546875 -0.04097656 5.390625 -0.04296875 C6.17985352 -0.04707764 6.96908203 -0.05118652 7.78222656 -0.05541992 C9.75 0.1875 9.75 0.1875 11.75 2.1875 C11.17967041 2.18226318 10.60934082 2.17702637 10.02172852 2.17163086 C7.45199677 2.15091779 4.88228253 2.1378581 2.3125 2.125 C1.41466797 2.11662109 0.51683594 2.10824219 -0.40820312 2.09960938 C-1.26220703 2.09638672 -2.11621094 2.09316406 -2.99609375 2.08984375 C-3.78685303 2.08460693 -4.5776123 2.07937012 -5.39233398 2.07397461 C-7.26592689 1.98254091 -7.26592689 1.98254091 -8.25 3.1875 C-10.10287502 3.25976502 -11.95833878 3.2713122 -13.8125 3.25 C-14.82441406 3.24097656 -15.83632812 3.23195313 -16.87890625 3.22265625 C-17.66136719 3.21105469 -18.44382813 3.19945313 -19.25 3.1875 C-13.48794471 -0.6538702 -6.70767389 0.00483262 0 0 Z " fill="#263404" transform="translate(158.25,67.8125)"/>
<path d="M0 0 C0.33 0 0.66 0 1 0 C2.33257403 16.70842825 2.33257403 16.70842825 1 25 C-1.07786782 21.88319828 -1.24955914 21.19283758 -1.23046875 17.65625 C-1.22853516 16.82222656 -1.22660156 15.98820312 -1.22460938 15.12890625 C-1.20624023 13.82759766 -1.20624023 13.82759766 -1.1875 12.5 C-1.18685547 11.63246094 -1.18621094 10.76492188 -1.18554688 9.87109375 C-1.14069283 3.42207848 -1.14069283 3.42207848 0 0 Z " fill="#293804" transform="translate(202,274)"/>
<path d="M0 0 C0.33 1.32 0.66 2.64 1 4 C0.28585938 4.25652344 -0.42828125 4.51304687 -1.1640625 4.77734375 C-4.19024259 6.08201919 -6.66048583 7.69967437 -9.375 9.5625 C-13.7516086 12.41706745 -16.79068863 13.88423753 -22 14 C-22 13.34 -22 12.68 -22 12 C-21.39414063 11.78085937 -20.78828125 11.56171875 -20.1640625 11.3359375 C-13.02089051 8.63252164 -5.47493591 5.47493591 0 0 Z " fill="#BAD83B" transform="translate(159,255)"/>
<path d="M0 0 C2.28062828 3.42094242 2.21925007 4.68187222 2.125 8.6875 C2.10695313 9.68136719 2.08890625 10.67523438 2.0703125 11.69921875 C2.03550781 12.83810547 2.03550781 12.83810547 2 14 C-0.97 14.66 -3.94 15.32 -7 16 C-6.67 15.34 -6.34 14.68 -6 14 C-5.34 14 -4.68 14 -4 14 C-3.34 12.68 -2.68 11.36 -2 10 C-1.34 10 -0.68 10 0 10 C0 6.7 0 3.4 0 0 Z " fill="#C4E736" transform="translate(289,183)"/>
<path d="M0 0 C-3.9050849 3.55007718 -6.97734643 4.81819916 -12 6 C-12 5.34 -12 4.68 -12 4 C-12.99 3.67 -13.98 3.34 -15 3 C-10.27805833 -0.77755334 -5.74071928 -0.30096975 0 0 Z " fill="#1C2407" transform="translate(279,322)"/>
<path d="M0 0 C1 3 1 3 0.0625 6.6875 C-1.66471391 13.66590789 -1.1575817 20.86505061 -1 28 C-1.66 27.67 -2.32 27.34 -3 27 C-3.25470125 23.39715934 -3.47435483 19.79301891 -3.6875 16.1875 C-3.76033203 15.16333984 -3.83316406 14.13917969 -3.90820312 13.08398438 C-3.96298828 12.10107422 -4.01777344 11.11816406 -4.07421875 10.10546875 C-4.13182373 9.19949951 -4.18942871 8.29353027 -4.2487793 7.36010742 C-3.94609183 4.48858659 -3.16337626 3.81349312 -1 2 C-0.67 1.34 -0.34 0.68 0 0 Z " fill="#CCEF40" transform="translate(78,200)"/>
<path d="M0 0 C2.625 2.5625 2.625 2.5625 4 5 C3.67 5.66 3.34 6.32 3 7 C1.62437146 5.71034824 0.29233607 4.37310707 -1 3 C-1 2.34 -1 1.68 -1 1 C-2.10408203 1.2165625 -2.10408203 1.2165625 -3.23046875 1.4375 C-4.20628906 1.623125 -5.18210938 1.80875 -6.1875 2 C-7.63189453 2.2784375 -7.63189453 2.2784375 -9.10546875 2.5625 C-11.7934206 2.96877612 -14.28771019 3.07933572 -17 3 C-16 1 -16 1 -13.5625 -0.1875 C-8.86037448 -1.25991459 -4.67152655 -1.27987029 0 0 Z " fill="#C0DE43" transform="translate(160,98)"/>
<path d="M0 0 C3.63 0 7.26 0 11 0 C11 0.99 11 1.98 11 3 C9.72125 2.9175 8.4425 2.835 7.125 2.75 C1.50492841 2.71426028 -2.97429165 4.64977313 -8 7 C-8 6.01 -8 5.02 -8 4 C-4.91190305 2.23537317 -3.76687864 2 0 2 C0 1.34 0 0.68 0 0 Z " fill="#192203" transform="translate(148,95)"/>
<path d="M0 0 C0.33 0 0.66 0 1 0 C1.59066883 7.44242722 0.35259868 11.91812563 -4 18 C-5.58405006 19.83664183 -7.17895384 21.3870734 -9 23 C-9.99 22.67 -10.98 22.34 -12 22 C-11.67 21.34 -11.34 20.68 -11 20 C-10.01 20.33 -9.02 20.66 -8 21 C-7.34 19.35 -6.68 17.7 -6 16 C-5.34 16 -4.68 16 -4 16 C-3.87625 15.05125 -3.7525 14.1025 -3.625 13.125 C-3 10 -3 10 -1 8 C-0.54188325 6.02764667 -0.54188325 6.02764667 -0.375 3.875 C-0.25125 2.59625 -0.1275 1.3175 0 0 Z " fill="#B9D840" transform="translate(164,106)"/>
<path d="M0 0 C-0.66386719 0.59167969 -1.32773438 1.18335937 -2.01171875 1.79296875 C-6.44938962 5.7641983 -10.85786795 9.71979688 -15 14 C-15 13.01 -15 12.02 -15 11 C-14.34 11 -13.68 11 -13 11 C-12.34 9.35 -11.68 7.7 -11 6 C-10.34 6 -9.68 6 -9 6 C-8.938125 5.21625 -8.87625 4.4325 -8.8125 3.625 C-8 1 -8 1 -5.625 -0.375 C-3 -1 -3 -1 0 0 Z " fill="#243006" transform="translate(138,104)"/>
<path d="M0 0 C0.33 0 0.66 0 1 0 C1.10234659 9.06335876 1.06996173 17.98175113 0 27 C-0.66 27 -1.32 27 -2 27 C-2.33 27.99 -2.66 28.98 -3 30 C-4.50066293 26.99867413 -3.4128147 24.97353537 -2.625 21.75 C-0.97683078 14.4799933 -0.328711 7.45833935 0 0 Z " fill="#BFDE3D" transform="translate(197,100)"/>
<path d="M0 0 C0.33 0.66 0.66 1.32 1 2 C1.99 2.33 2.98 2.66 4 3 C3.55269531 3.49628906 3.10539063 3.99257812 2.64453125 4.50390625 C-1.20917747 8.83419302 -4.71606198 13.22336288 -8 18 C-8.33 17.01 -8.66 16.02 -9 15 C-8.67 14.34 -8.34 13.68 -8 13 C-7.34 13 -6.68 13 -6 13 C-6 11.68 -6 10.36 -6 9 C-5.34 9 -4.68 9 -4 9 C-2.52960109 6.05920218 -1.28809274 3.02421774 0 0 Z " fill="#1C2604" transform="translate(211,186)"/>
<path d="M0 0 C5.22749303 0.06919666 8.74775594 0.82263961 13.3125 3.3125 C10.32918694 4.30693769 9.10411241 4.33702065 6.08203125 3.97265625 C5.27958984 3.87919922 4.47714844 3.78574219 3.65039062 3.68945312 C2.81701172 3.58568359 1.98363281 3.48191406 1.125 3.375 C0.28001953 3.27509766 -0.56496094 3.17519531 -1.43554688 3.07226562 C-3.52024197 2.82492892 -5.60397284 2.56948959 -7.6875 2.3125 C-5.03539823 -0.33960177 -3.69424401 0.01390556 0 0 Z " fill="#CBEF33" transform="translate(263.6875,163.6875)"/>
<path d="M0 0 C0 0.99 0 1.98 0 3 C-0.556875 3.226875 -1.11375 3.45375 -1.6875 3.6875 C-4.21980238 4.97730549 -4.21980238 4.97730549 -6.5 7.625 C-9 10 -9 10 -13 10 C-11.74641445 6.23924335 -10.29326113 5.52350869 -7.0625 3.3125 C-6.16660156 2.68988281 -5.27070313 2.06726563 -4.34765625 1.42578125 C-2 0 -2 0 0 0 Z " fill="#192502" transform="translate(138,144)"/>
<path d="M0 0 C0.33 0 0.66 0 1 0 C1.05406122 1.93719378 1.09282025 3.87481921 1.125 5.8125 C1.14820312 6.89144531 1.17140625 7.97039062 1.1953125 9.08203125 C1 12 1 12 -1 15 C-1.45394552 17.27912938 -1.45394552 17.27912938 -1.625 19.6875 C-1.69976562 20.49574219 -1.77453125 21.30398437 -1.8515625 22.13671875 C-1.90054688 22.75160156 -1.94953125 23.36648437 -2 24 C-2.33 24 -2.66 24 -3 24 C-3.40735653 15.49077472 -2.43092956 8.1609778 0 0 Z " fill="#3E4C0D" transform="translate(79,200)"/>
<path d="M0 0 C0 0.99 0 1.98 0 3 C-0.99 3.33 -1.98 3.66 -3 4 C-3.309375 4.78375 -3.61875 5.5675 -3.9375 6.375 C-5.17573769 9.43417548 -6.11897085 10.43601275 -9 12 C-11.75 12.1875 -11.75 12.1875 -14 12 C-9.73412126 7.45890328 -4.96387672 3.75264754 0 0 Z " fill="#C2E243" transform="translate(169,155)"/>
<path d="M0 0 C1.16015625 0.61488281 1.16015625 0.61488281 2.34375 1.2421875 C8.19667368 4.27006138 13.5197477 6.75379763 20 8 C20 8.33 20 8.66 20 9 C18.27054347 8.85764543 16.54144346 8.71095618 14.8125 8.5625 C13.36810547 8.44068359 13.36810547 8.44068359 11.89453125 8.31640625 C9.21350398 8.02333849 6.6337014 7.57296246 4 7 C4 6.01 4 5.02 4 4 C2.68 3.67 1.36 3.34 0 3 C0 2.01 0 1.02 0 0 Z " fill="#C7E83C" transform="translate(220,323)"/>
<path d="M0 0 C1.04211409 3.12634226 0.99926113 4.04848841 0.25 7.125 C0.09015625 7.82882812 -0.0696875 8.53265625 -0.234375 9.2578125 C-0.61335937 10.12019531 -0.61335937 10.12019531 -1 11 C-1.99 11.33 -2.98 11.66 -4 12 C-5.21869929 14.50447516 -5.21869929 14.50447516 -6 17 C-6.66 17 -7.32 17 -8 17 C-6.3341708 10.83643195 -3.12194714 5.51740344 0 0 Z " fill="#232E04" transform="translate(213,250)"/>
<path d="M0 0 C0.33 0 0.66 0 1 0 C1 3.3 1 6.6 1 10 C0.278125 9.79375 -0.44375 9.5875 -1.1875 9.375 C-4.44641585 8.94047789 -6.08304504 9.58319331 -9 11 C-8.60167969 10.54109375 -8.20335937 10.0821875 -7.79296875 9.609375 C-5.51584567 6.97212297 -3.26746549 4.35969497 -1.1875 1.5625 C-0.795625 1.046875 -0.40375 0.53125 0 0 Z " fill="#202906" transform="translate(164,205)"/>
<path d="M0 0 C0.33 0.99 0.66 1.98 1 3 C0.34 3.66 -0.32 4.32 -1 5 C-1.16687448 7.58354218 -1.16687448 7.58354218 -1 10 C-7.625 12 -7.625 12 -11 12 C-10.37351562 11.38511719 -9.74703125 10.77023438 -9.1015625 10.13671875 C-8.28429687 9.32847656 -7.46703125 8.52023438 -6.625 7.6875 C-5.40683594 6.48673828 -5.40683594 6.48673828 -4.1640625 5.26171875 C-1.87395158 2.99990063 -1.87395158 2.99990063 0 0 Z " fill="#CBF034" transform="translate(128,112)"/>
<path d="M0 0 C-1.98 2.31 -3.96 4.62 -6 7 C-10 5 -10 5 -11 2 C-7.36576791 -0.32590854 -4.22911669 -0.16265833 0 0 Z " fill="#21290A" transform="translate(123,118)"/>
<path d="M0 0 C2.52638104 3.78957157 4.43500922 7.82545815 6.43359375 11.90625 C7.82967422 14.73436151 9.24721059 17.37081589 11 20 C9.0625 19.1875 9.0625 19.1875 7 18 C6.67 17.01 6.34 16.02 6 15 C5.34 15 4.68 15 4 15 C3.566875 13.576875 3.566875 13.576875 3.125 12.125 C2.23174891 8.94788422 2.23174891 8.94788422 0 7 C-0.125 3.375 -0.125 3.375 0 0 Z " fill="#C3E43D" transform="translate(201,296)"/>
<path d="M0 0 C0.33 0 0.66 0 1 0 C1.1974877 3.08277856 1.38123332 6.1662285 1.5625 9.25 C1.61857422 10.12269531 1.67464844 10.99539062 1.73242188 11.89453125 C1.78076172 12.73886719 1.82910156 13.58320313 1.87890625 14.453125 C1.94960327 15.61569824 1.94960327 15.61569824 2.02172852 16.80175781 C1.99969234 19.03112585 1.6303897 20.86898567 1 23 C-1.09271776 16.32946213 -3.25000775 6.5000155 0 0 Z " fill="#1D2603" transform="translate(78,213)"/>
<path d="M0 0 C10.395 0.99 10.395 0.99 21 2 C21 2.66 21 3.32 21 4 C13.37048445 4.34855655 7.07555499 4.0017506 0 1 C0 0.67 0 0.34 0 0 Z " fill="#CDF13C" transform="translate(59,141)"/>
<path d="M0 0 C-0.66 1.98 -1.32 3.96 -2 6 C-2.66 6 -3.32 6 -4 6 C-4 5.01 -4 4.02 -4 3 C-4.680625 3.33 -5.36125 3.66 -6.0625 4 C-9.50840238 5.17307315 -12.38397422 5.14180493 -16 5 C-13.00995759 3.46325727 -9.98176115 2.09693707 -6.875 0.8125 C-5.57175781 0.26529297 -5.57175781 0.26529297 -4.2421875 -0.29296875 C-2 -1 -2 -1 0 0 Z " fill="#C6E934" transform="translate(276,326)"/>
<path d="M0 0 C0.33 0 0.66 0 1 0 C1 1.98 1 3.96 1 6 C-0.98 6.99 -0.98 6.99 -3 8 C-3 9.65 -3 11.3 -3 13 C-4.32 12.67 -5.64 12.34 -7 12 C-6.34 11.67 -5.68 11.34 -5 11 C-4.53476937 9.10466658 -4.53476937 9.10466658 -4.375 6.9375 C-4.25125 5.638125 -4.1275 4.33875 -4 3 C-3.01 3 -2.02 3 -1 3 C-0.67 2.01 -0.34 1.02 0 0 Z " fill="#D1F926" transform="translate(124,192)"/>
<path d="M0 0 C0.99 0.66 1.98 1.32 3 2 C-0.96 4.97 -4.92 7.94 -9 11 C-9.33 10.01 -9.66 9.02 -10 8 C-8.71064081 6.85157077 -7.41843421 5.70633773 -6.125 4.5625 C-5.04605469 3.60537109 -5.04605469 3.60537109 -3.9453125 2.62890625 C-2 1 -2 1 0 0 Z " fill="#222E03" transform="translate(160,159)"/>
<path d="M0 0 C0.99 0 1.98 0 3 0 C2.9071875 1.175625 2.9071875 1.175625 2.8125 2.375 C2.874375 3.24125 2.93625 4.1075 3 5 C3.99 5.66 4.98 6.32 6 7 C4.625 9 4.625 9 3 11 C2.34 11 1.68 11 1 11 C-0.20272819 8.59454362 -0.10071472 7.05003047 -0.0625 4.375 C-0.05347656 3.55773437 -0.04445312 2.74046875 -0.03515625 1.8984375 C-0.02355469 1.27195313 -0.01195312 0.64546875 0 0 Z " fill="#CCF42C" transform="translate(214,234)"/>
<path d="M0 0 C0.99 0.33 1.98 0.66 3 1 C4.15652879 3.96674776 4.88140379 5.89955626 5 9 C3.25 12.5 3.25 12.5 1 15 C0.34 15 -0.32 15 -1 15 C-0.83628906 14.45859375 -0.67257813 13.9171875 -0.50390625 13.359375 C0.08590587 10.59777407 0.09609308 8.07181861 0.0625 5.25 C0.05347656 4.26515625 0.04445312 3.2803125 0.03515625 2.265625 C0.02355469 1.51796875 0.01195312 0.7703125 0 0 Z " fill="#1C2605" transform="translate(164,104)"/>
<path d="M0 0 C0.33 0.99 0.66 1.98 1 3 C0.01 3.33 -0.98 3.66 -2 4 C-2.21462891 4.90492188 -2.21462891 4.90492188 -2.43359375 5.828125 C-3.20744046 8.79542687 -4.72370053 9.81956234 -7.0625 11.75 C-8.16271484 12.67039063 -8.16271484 12.67039063 -9.28515625 13.609375 C-9.85105469 14.06828125 -10.41695312 14.5271875 -11 15 C-11.66 14.67 -12.32 14.34 -13 14 C-12.56429687 13.57589844 -12.12859375 13.15179688 -11.6796875 12.71484375 C-7.54991517 8.64764373 -3.71958871 4.44536212 0 0 Z " fill="#C4E43F" transform="translate(174,240)"/>
<path d="M0 0 C0.66 0.99 1.32 1.98 2 3 C1.34 3 0.68 3 0 3 C0 5.31 0 7.62 0 10 C-3 10 -3 10 -7 8 C-4.69 5.36 -2.38 2.72 0 0 Z " fill="#1B2406" transform="translate(159,124)"/>
<path d="M0 0 C0.33 2.97 0.66 5.94 1 9 C-2.73884332 6.34345343 -4.64978174 4.41889613 -6 0 C-3 -1 -3 -1 0 0 Z " fill="#1A2302" transform="translate(213,308)"/>
<path d="M0 0 C0 3 0 3 -2 6 C-4.31470912 6.72870472 -6.6505947 7.39239518 -9 8 C-10.35350594 8.62469505 -11.69934483 9.2716331 -13 10 C-9.11973109 5.75595588 -4.95745654 2.89082453 0 0 Z " fill="#C1E237" transform="translate(270,238)"/>
<path d="M0 0 C1 3 1 3 -0.3125 5.9375 C-0.869375 6.948125 -1.42625 7.95875 -2 9 C-2.391875 9.78375 -2.78375 10.5675 -3.1875 11.375 C-3.455625 11.91125 -3.72375 12.4475 -4 13 C-5.32 12.01 -6.64 11.02 -8 10 C-5.36 6.7 -2.72 3.4 0 0 Z " fill="#232D0A" transform="translate(173,194)"/>
<path d="M0 0 C2.475 0.495 2.475 0.495 5 1 C5 1.66 5 2.32 5 3 C7.31 3.33 9.62 3.66 12 4 C12 4.66 12 5.32 12 6 C12.66 6.33 13.32 6.66 14 7 C13.67 7.99 13.34 8.98 13 10 C12.22914063 9.50628906 11.45828125 9.01257813 10.6640625 8.50390625 C9.15972656 7.54291016 9.15972656 7.54291016 7.625 6.5625 C6.62726563 5.92441406 5.62953125 5.28632813 4.6015625 4.62890625 C2.14169479 3.03100789 2.14169479 3.03100789 0 2 C0 1.34 0 0.68 0 0 Z " fill="#BEE132" transform="translate(281,128)"/>
<path d="M0 0 C0 0.99 0 1.98 0 3 C-3.77222089 4.75163456 -6.666639 5.22490027 -10.8125 5.125 C-12.27623047 5.09792969 -12.27623047 5.09792969 -13.76953125 5.0703125 C-14.50558594 5.04710937 -15.24164063 5.02390625 -16 5 C-16 4.67 -16 4.34 -16 4 C-15.15695313 3.79503906 -14.31390625 3.59007812 -13.4453125 3.37890625 C-12.34960938 3.10949219 -11.25390625 2.84007812 -10.125 2.5625 C-9.03445312 2.29566406 -7.94390625 2.02882812 -6.8203125 1.75390625 C-0.25906736 0 -0.25906736 0 0 0 Z " fill="#BFE133" transform="translate(96,138)"/>
<path d="M0 0 C0.99 0 1.98 0 3 0 C3 0.66 3 1.32 3 2 C4.65 2 6.3 2 8 2 C8 2.66 8 3.32 8 4 C7.31292969 4.20496094 6.62585938 4.40992187 5.91796875 4.62109375 C5.01691406 4.89050781 4.11585938 5.15992188 3.1875 5.4375 C1.84751953 5.83775391 1.84751953 5.83775391 0.48046875 6.24609375 C-1.35473055 6.80387873 -3.18033726 7.39344575 -5 8 C-5 7.34 -5 6.68 -5 6 C-3.35 5.67 -1.7 5.34 0 5 C0 3.35 0 1.7 0 0 Z " fill="#C8EA37" transform="translate(240,123)"/>
<path d="M0 0 C-3.63195496 2.42130331 -5.38349348 2.21022785 -9.6875 2.125 C-11.45673828 2.09792969 -11.45673828 2.09792969 -13.26171875 2.0703125 C-14.16535156 2.04710937 -15.06898437 2.02390625 -16 2 C-16.33 1.34 -16.66 0.68 -17 0 C-11.06975197 -0.97040422 -5.93609666 -0.89316269 0 0 Z " fill="#162300" transform="translate(137,267)"/>
<path d="M0 0 C-1.62017842 1.33918806 -3.24629343 2.6711969 -4.875 4 C-6.23238281 5.11375 -6.23238281 5.11375 -7.6171875 6.25 C-10 8 -10 8 -12 8 C-12 7.34 -12 6.68 -12 6 C-11.34 6 -10.68 6 -10 6 C-10 5.34 -10 4.68 -10 4 C-9.34 4 -8.68 4 -8 4 C-7.566875 3.0409375 -7.566875 3.0409375 -7.125 2.0625 C-5.18025038 -1.5028743 -3.54277596 -1.06283279 0 0 Z " fill="#273304" transform="translate(163,253)"/>
<path d="M0 0 C0.66 0 1.32 0 2 0 C3.96263236 5.5415502 4.01603857 9.20858017 3 15 C2.67 15 2.34 15 2 15 C1.87625 13.88625 1.7525 12.7725 1.625 11.625 C1.3534187 7.96896323 1.3534187 7.96896323 -1 6 C-0.625 2.875 -0.625 2.875 0 0 Z " fill="#232C06" transform="translate(193,89)"/>
<path d="M0 0 C0 3 0 3 -1.5 4.75 C-3.57781328 7.86671992 -3.2111765 10.33960732 -3 14 C-3.99 14 -4.98 14 -6 14 C-5.67 12.68 -5.34 11.36 -5 10 C-5.99 9.67 -6.98 9.34 -8 9 C-6.85459775 7.68712379 -5.70866567 6.37470979 -4.5625 5.0625 C-3.92441406 4.33160156 -3.28632812 3.60070312 -2.62890625 2.84765625 C-1.77458541 1.87860647 -0.91348825 0.91348825 0 0 Z " fill="#1F2805" transform="translate(97,175)"/>
<path d="M0 0 C2.31 0 4.62 0 7 0 C4.61042731 3.24299151 2.7952131 5.50902342 -1 7 C-1.33 5.35 -1.66 3.7 -2 2 C-1.34 2 -0.68 2 0 2 C0 1.34 0 0.68 0 0 Z " fill="#1C2507" transform="translate(164,153)"/>
<path d="M0 0 C0.99 0.33 1.98 0.66 3 1 C3 3.97 3 6.94 3 10 C2.01 10 1.02 10 0 10 C-1.125 2.25 -1.125 2.25 0 0 Z " fill="#D0FA29" transform="translate(161,104)"/>
<path d="M0 0 C0.33 1.32 0.66 2.64 1 4 C0.0409375 4.37125 0.0409375 4.37125 -0.9375 4.75 C-3.18741541 5.81562433 -3.18741541 5.81562433 -3.75 8.125 C-3.8325 8.74375 -3.915 9.3625 -4 10 C-5.65 10.33 -7.3 10.66 -9 11 C-8.60167969 10.54109375 -8.20335937 10.0821875 -7.79296875 9.609375 C-5.08857938 6.47728415 -2.42008229 3.36122541 0 0 Z " fill="#222F04" transform="translate(273,282)"/>
<path d="M0 0 C0.33 0.66 0.66 1.32 1 2 C0.34 2 -0.32 2 -1 2 C-1.268125 2.928125 -1.53625 3.85625 -1.8125 4.8125 C-2.9119551 7.76366897 -3.48794485 9.19132029 -6 11 C-6.99 11 -7.98 11 -9 11 C-7.2034488 6.75360625 -4.18376817 2.09188408 0 0 Z " fill="#C6E838" transform="translate(255,249)"/>
<path d="M0 0 C1.5625 1.1875 1.5625 1.1875 3 3 C2.6875 5.6875 2.6875 5.6875 2 8 C0.68 7.34 -0.64 6.68 -2 6 C-2 2 -2 2 0 0 Z " fill="#1B2008" transform="translate(189,174)"/>
<path d="M0 0 C2.64 0 5.28 0 8 0 C5.75 2.5 5.75 2.5 3 5 C1.68 5 0.36 5 -1 5 C-0.67 3.35 -0.34 1.7 0 0 Z " fill="#C9EF33" transform="translate(125,146)"/>
<path d="M0 0 C0.66 0.33 1.32 0.66 2 1 C0.35 4.63 -1.3 8.26 -3 12 C-3.33 12 -3.66 12 -4 12 C-4 9.03 -4 6.06 -4 3 C-3.01 2.67 -2.02 2.34 -1 2 C-0.67 1.34 -0.34 0.68 0 0 Z " fill="#1E2905" transform="translate(240,264)"/>
<path d="M0 0 C1.65 0.33 3.3 0.66 5 1 C5.33 3.31 5.66 5.62 6 8 C3.36 6.35 0.72 4.7 -2 3 C-1.34 2.67 -0.68 2.34 0 2 C0 1.34 0 0.68 0 0 Z " fill="#CCF031" transform="translate(180,69)"/>
<path d="M0 0 C1.23196578 3.77802838 0.46701405 5.47754119 -1.23046875 9.05078125 C-2.51378886 12.30142458 -2.69587056 15.53292436 -3 19 C-3.33 19 -3.66 19 -4 19 C-4.47266289 11.67372525 -3.09866202 6.62615673 0 0 Z " fill="#B1CC44" transform="translate(239,269)"/>
<path d="M0 0 C0.99 0.33 1.98 0.66 3 1 C1.71034824 2.37562854 0.37310707 3.70766393 -1 5 C-1.66 5 -2.32 5 -3 5 C-3.66 6.32 -4.32 7.64 -5 9 C-5.99 9 -6.98 9 -8 9 C-8 8.34 -8 7.68 -8 7 C-7.01 7 -6.02 7 -5 7 C-4.731875 6.401875 -4.46375 5.80375 -4.1875 5.1875 C-3.01506533 3.02775192 -1.80630718 1.64209744 0 0 Z " fill="#2B3905" transform="translate(256,245)"/>
<path d="M0 0 C0.33 1.32 0.66 2.64 1 4 C0.01 4.495 0.01 4.495 -1 5 C-1.65555119 7.52733235 -1.65555119 7.52733235 -2 10 C-3.65 10 -5.3 10 -7 10 C-4.75421558 6.59260295 -2.48862878 3.23521742 0 0 Z " fill="#1F2A03" transform="translate(224,235)"/>
<path d="M0 0 C1.32 0.33 2.64 0.66 4 1 C2.4169423 5.2742558 -0.50568404 7.26531794 -4 10 C-3.67 8.35 -3.34 6.7 -3 5 C-1.68 4.67 -0.36 4.34 1 4 C0.67 2.68 0.34 1.36 0 0 Z " fill="#CBEC40" transform="translate(160,204)"/>
<path d="M0 0 C0.33 0.99 0.66 1.98 1 3 C0.175 3.763125 -0.65 4.52625 -1.5 5.3125 C-4.34055197 7.75434142 -4.34055197 7.75434142 -4 11 C-5.98 11.33 -7.96 11.66 -10 12 C-9.61328125 11.55269531 -9.2265625 11.10539062 -8.828125 10.64453125 C-5.81609925 7.1478974 -2.85678969 3.62592537 0 0 Z " fill="#C4E340" transform="translate(296,306)"/>
<path d="M0 0 C0 1.65 0 3.3 0 5 C-1.8125 5.6875 -1.8125 5.6875 -4 6 C-5.75 4.5625 -5.75 4.5625 -7 3 C-6.67 2.34 -6.34 1.68 -6 1 C-3.911361 0.32624548 -2.19636905 0 0 0 Z " fill="#D3FB27" transform="translate(126,217)"/>
<path d="M0 0 C4.24332412 1.74725111 5.36680113 3.85940242 7.25 7.890625 C8.23720136 10.66712882 8.29151293 13.08487068 8 16 C7.67 16 7.34 16 7 16 C6.82984375 15.43152344 6.6596875 14.86304687 6.484375 14.27734375 C4.84932263 9.0677886 2.86690828 4.64636859 0 0 Z " fill="#C4E33D" transform="translate(189,80)"/>
<path d="M0 0 C5.70709064 0.46588495 9.15939723 1.93757784 14 5 C10.71023192 6.09658936 9.28696233 5.79953138 6 5 C6 4.01 6 3.02 6 2 C3.03 1.505 3.03 1.505 0 1 C0 0.67 0 0.34 0 0 Z " fill="#253103" transform="translate(170,70)"/>
<path d="M0 0 C1 4 1 4 0.00390625 6.140625 C-0.47175781 6.83671875 -0.94742187 7.5328125 -1.4375 8.25 C-1.91058594 8.95640625 -2.38367188 9.6628125 -2.87109375 10.390625 C-3.24363281 10.92171875 -3.61617188 11.4528125 -4 12 C-4.99 11.67 -5.98 11.34 -7 11 C-4.69 7.37 -2.38 3.74 0 0 Z " fill="#BEDE3A" transform="translate(304,294)"/>
<path d="M0 0 C0.99 0.33 1.98 0.66 3 1 C2.9278125 1.61488281 2.855625 2.22976562 2.78125 2.86328125 C2.6884375 3.67152344 2.595625 4.47976562 2.5 5.3125 C2.4071875 6.11300781 2.314375 6.91351563 2.21875 7.73828125 C1.95186537 10.11896555 1.95186537 10.11896555 2 13 C2.66 13.33 3.32 13.66 4 14 C3.01 14 2.02 14 1 14 C-0.38226016 11.23547967 -0.09525387 8.9538637 -0.0625 5.875 C-0.05347656 4.77929688 -0.04445313 3.68359375 -0.03515625 2.5546875 C-0.02355469 1.71164063 -0.01195313 0.86859375 0 0 Z " fill="#C8ED30" transform="translate(117,207)"/>
<path d="M0 0 C0.33 1.32 0.66 2.64 1 4 C0.34 4 -0.32 4 -1 4 C-1 4.66 -1 5.32 -1 6 C-0.34 6.33 0.32 6.66 1 7 C0.34 7 -0.32 7 -1 7 C-1.33 7.66 -1.66 8.32 -2 9 C-2 8.34 -2 7.68 -2 7 C-3.32 7.33 -4.64 7.66 -6 8 C-4.02 5.36 -2.04 2.72 0 0 Z " fill="#263106" transform="translate(196,165)"/>
<path d="M0 0 C2.97 0.33 5.94 0.66 9 1 C8.67 1.99 8.34 2.98 8 4 C8.66 4 9.32 4 10 4 C9.67 4.66 9.34 5.32 9 6 C7.68397477 5.38245741 6.37226444 4.75571258 5.0625 4.125 C4.33160156 3.77695312 3.60070312 3.42890625 2.84765625 3.0703125 C1 2 1 2 0 0 Z " fill="#242F03" transform="translate(221,323)"/>
<path d="M0 0 C-1.20842856 4.43090471 -2.51668565 6.98112756 -6 10 C-6.33663062 6.29706315 -6.47736015 4.60465619 -4.125 1.625 C-2 0 -2 0 0 0 Z " fill="#C8EA32" transform="translate(279,272)"/>
<path d="M0 0 C1.65 0.33 3.3 0.66 5 1 C1.25 6.875 1.25 6.875 -1 8 C-0.835 7.236875 -0.67 6.47375 -0.5 5.6875 C0.09145396 2.96403764 0.09145396 2.96403764 0 0 Z " fill="#C7EB32" transform="translate(174,186)"/>
<path d="M0 0 C0.66 0 1.32 0 2 0 C2.33 1.32 2.66 2.64 3 4 C5.97 4.495 5.97 4.495 9 5 C9 5.33 9 5.66 9 6 C7.741875 6.04125 6.48375 6.0825 5.1875 6.125 C4.47980469 6.14820312 3.77210937 6.17140625 3.04296875 6.1953125 C1 6 1 6 -2 4 C-1.34 2.68 -0.68 1.36 0 0 Z " fill="#D1FA23" transform="translate(62,102)"/>
<path d="M0 0 C0.99 0 1.98 0 3 0 C5.37162309 3.16216412 7.34406255 6.41213553 9 10 C5.52867905 8.59070303 4.11906726 7.09394917 2.25 3.875 C1.60804687 2.78832031 1.60804687 2.78832031 0.953125 1.6796875 C0.63859375 1.12539062 0.3240625 0.57109375 0 0 Z " fill="#263204" transform="translate(85,247)"/>
<path d="M0 0 C0.33 0 0.66 0 1 0 C0.88590407 1.45922693 0.75834456 2.91740598 0.625 4.375 C0.55539062 5.18710938 0.48578125 5.99921875 0.4140625 6.8359375 C0 9 0 9 -2 11 C-4.125 10.625 -4.125 10.625 -6 10 C-6 9.34 -6 8.68 -6 8 C-4.35 8 -2.7 8 -1 8 C-0.67 5.36 -0.34 2.72 0 0 Z " fill="#D1FA26" transform="translate(347,225)"/>
<path d="M0 0 C0 3.58912412 -0.66436554 4.10857029 -3 6.6875 C-3.556875 7.31011719 -4.11375 7.93273437 -4.6875 8.57421875 C-5.120625 9.04472656 -5.55375 9.51523438 -6 10 C-6.99 9.67 -7.98 9.34 -9 9 C-6 6 -3 3 0 0 Z " fill="#C1E142" transform="translate(129,185)"/>
<path d="M0 0 C0.66 1.32 1.32 2.64 2 4 C0.02 5.32 -1.96 6.64 -4 8 C-3.50168276 4.31245243 -2.89932357 2.39509338 0 0 Z " fill="#1E2806" transform="translate(221,177)"/>
<path d="M0 0 C0 3 0 3 -2 6 C-1.34 6.33 -0.68 6.66 0 7 C-3 7 -6 7 -9 7 C-6.03 4.69 -3.06 2.38 0 0 Z " fill="#202C02" transform="translate(123,153)"/>
<path d="M0 0 C-4.40414508 2.99481865 -4.40414508 2.99481865 -7 4 C-10.4375 3.25 -10.4375 3.25 -13 2 C-13 1.67 -13 1.34 -13 1 C-11.20994059 0.63779734 -9.41787943 0.28547531 -7.625 -0.0625 C-6.12839844 -0.35833984 -6.12839844 -0.35833984 -4.6015625 -0.66015625 C-2 -1 -2 -1 0 0 Z " fill="#323F06" transform="translate(259,297)"/>
<path d="M0 0 C0.33 0 0.66 0 1 0 C1.33 3.96 1.66 7.92 2 12 C1.01 12.33 0.02 12.66 -1 13 C-0.67 8.71 -0.34 4.42 0 0 Z " fill="#BADB3C" transform="translate(321,231)"/>
<path d="M0 0 C0.33 0 0.66 0 1 0 C1 3.3 1 6.6 1 10 C-1.64 9.67 -4.28 9.34 -7 9 C-7 8.67 -7 8.34 -7 8 C-3.535 7.505 -3.535 7.505 0 7 C0 4.69 0 2.38 0 0 Z " fill="#455511" transform="translate(291,190)"/>
<path d="M0 0 C0.66 0 1.32 0 2 0 C2.33 0.66 2.66 1.32 3 2 C5.02463255 2.65213292 5.02463255 2.65213292 7 3 C5.35 4.32 3.7 5.64 2 7 C2 6.01 2 5.02 2 4 C1.34 4 0.68 4 0 4 C0 2.68 0 1.36 0 0 Z " fill="#CAF02E" transform="translate(162,198)"/>
<path d="M0 0 C-0.1875 1.8125 -0.1875 1.8125 -1 4 C-3.5625 5.75 -3.5625 5.75 -6 7 C-5.625 4.0625 -5.625 4.0625 -5 1 C-3 0 -3 0 0 0 Z " fill="#CAEC2F" transform="translate(110,161)"/>
<path d="M0 0 C0.66 0 1.32 0 2 0 C0.74194623 4.50802601 -0.90407165 7.4912812 -4 11 C-4 9.02 -4 7.04 -4 5 C-3.01 5 -2.02 5 -1 5 C-0.67 3.35 -0.34 1.7 0 0 Z " fill="#1F2B01" transform="translate(192,123)"/>
<path d="M0 0 C1.65 0.33 3.3 0.66 5 1 C4.34 2.65 3.68 4.3 3 6 C2.34 6 1.68 6 1 6 C1 5.01 1 4.02 1 3 C0.34 3 -0.32 3 -1 3 C-0.67 2.01 -0.34 1.02 0 0 Z " fill="#CEF924" transform="translate(53,101)"/>
<path d="M0 0 C2.31 0.66 4.62 1.32 7 2 C7 2.66 7 3.32 7 4 C4.69 4.33 2.38 4.66 0 5 C0 3.35 0 1.7 0 0 Z " fill="#161C04" transform="translate(243,297)"/>
<path d="M0 0 C0 3.97054597 -1.3139381 5.16471244 -4 8 C-6.140625 8.6484375 -6.140625 8.6484375 -8 9 C-7.04270084 7.87411986 -6.08412105 6.7493285 -5.125 5.625 C-4.59132812 4.99851563 -4.05765625 4.37203125 -3.5078125 3.7265625 C-2.38567993 2.44163349 -1.20628025 1.20628025 0 0 Z " fill="#1B2702" transform="translate(233,226)"/>
<path d="M0 0 C1.32 0.66 2.64 1.32 4 2 C1.03 4.475 1.03 4.475 -2 7 C-2.125 4.625 -2.125 4.625 -2 2 C-1.34 1.34 -0.68 0.68 0 0 Z " fill="#C2E237" transform="translate(97,170)"/>
<path d="M0 0 C0 1.65 0 3.3 0 5 C-2.64 5.33 -5.28 5.66 -8 6 C-2.2 0 -2.2 0 0 0 Z " fill="#C3E33A" transform="translate(111,129)"/>
<path d="M0 0 C0.99 0 1.98 0 3 0 C3.66 2.64 4.32 5.28 5 8 C4.01 8.495 4.01 8.495 3 9 C2.01 6.03 1.02 3.06 0 0 Z " fill="#1D2705" transform="translate(203,299)"/>
<path d="M0 0 C0.33 0 0.66 0 1 0 C0.67 3.63 0.34 7.26 0 11 C-0.99 11 -1.98 11 -3 11 C-2.01 7.37 -1.02 3.74 0 0 Z " fill="#293503" transform="translate(285,257)"/>
<path d="M0 0 C2.31 1.98 4.62 3.96 7 6 C6.34 6.66 5.68 7.32 5 8 C5 7.34 5 6.68 5 6 C3.02 5.34 1.04 4.68 -1 4 C-1 1 -1 1 0 0 Z " fill="#C4E632" transform="translate(87,251)"/>
<path d="M0 0 C0.33 0.99 0.66 1.98 1 3 C0.360625 3.103125 -0.27875 3.20625 -0.9375 3.3125 C-1.618125 3.539375 -2.29875 3.76625 -3 4 C-3.33 4.99 -3.66 5.98 -4 7 C-4.6875 5.1875 -4.6875 5.1875 -5 3 C-3.38441968 0.84589291 -2.74502455 0 0 0 Z " fill="#D0F533" transform="translate(180,236)"/>
<path d="M0 0 C0.99 0.99 1.98 1.98 3 3 C1.25 7.875 1.25 7.875 -1 9 C-0.67 6.03 -0.34 3.06 0 0 Z " fill="#1A210C" transform="translate(187,216)"/>
<path d="M0 0 C0.33 0.99 0.66 1.98 1 3 C0.2884375 3.6496875 0.2884375 3.6496875 -0.4375 4.3125 C-2.23686957 6.02309613 -2.23686957 6.02309613 -3 9 C-4.32 8.67 -5.64 8.34 -7 8 C-4.69 5.36 -2.38 2.72 0 0 Z " fill="#BDDD36" transform="translate(219,183)"/>
<path d="M0 0 C0.99 0 1.98 0 3 0 C2.25 2.4375 2.25 2.4375 1 5 C-1.125 5.8125 -1.125 5.8125 -3 6 C-1.125 1.125 -1.125 1.125 0 0 Z " fill="#C6E930" transform="translate(132,182)"/>
<path d="M0 0 C0 0.99 0 1.98 0 3 C-0.61875 3.28875 -1.2375 3.5775 -1.875 3.875 C-4.13325765 4.93720042 -4.13325765 4.93720042 -6 7 C-6 6.34 -6 5.68 -6 5 C-6.66 4.67 -7.32 4.34 -8 4 C-2.25 0 -2.25 0 0 0 Z " fill="#253106" transform="translate(138,144)"/>
<path d="M0 0 C2.31 1.98 4.62 3.96 7 6 C4 7 4 7 1 6 C0.67 4.02 0.34 2.04 0 0 Z " fill="#BAD937" transform="translate(212,316)"/>
<path d="M0 0 C0.33 0 0.66 0 1 0 C0.25 7.625 0.25 7.625 -2 11 C-2.33 8.36 -2.66 5.72 -3 3 C-2.01 3 -1.02 3 0 3 C0 2.01 0 1.02 0 0 Z " fill="#C8EB38" transform="translate(285,252)"/>
<path d="M0 0 C0.99 0.33 1.98 0.66 3 1 C5.05893621 1.22325814 7.12233653 1.40705759 9.1875 1.5625 C10.27417969 1.64628906 11.36085937 1.73007813 12.48046875 1.81640625 C13.72763672 1.90728516 13.72763672 1.90728516 15 2 C15 2.33 15 2.66 15 3 C10.38 3 5.76 3 1 3 C0.67 2.01 0.34 1.02 0 0 Z " fill="#3C4B04" transform="translate(123,225)"/>
<path d="M0 0 C0.66 0.33 1.32 0.66 2 1 C1.21302675 4.41021743 0.12880057 7.68885166 -1 11 C-1.33 11 -1.66 11 -2 11 C-1.85892253 9.54119891 -1.71197585 8.08296449 -1.5625 6.625 C-1.48128906 5.81289062 -1.40007812 5.00078125 -1.31640625 4.1640625 C-1 2 -1 2 0 0 Z " fill="#1D2503" transform="translate(82,194)"/>
<path d="M0 0 C0.66 0 1.32 0 2 0 C3.99785435 4.1205746 4.17835515 7.45194365 4 12 C3.67 12 3.34 12 3 12 C2.49440092 10.56445975 1.9957251 9.1264798 1.5 7.6875 C1.2215625 6.88699219 0.943125 6.08648437 0.65625 5.26171875 C0 3 0 3 0 0 Z " fill="#D1F43B" transform="translate(317,173)"/>
<path d="M0 0 C1.32 0.33 2.64 0.66 4 1 C1.36 2.98 -1.28 4.96 -4 7 C-3.67 5.68 -3.34 4.36 -3 3 C-2.01 2.67 -1.02 2.34 0 2 C0 1.34 0 0.68 0 0 Z " fill="#1F2A02" transform="translate(229,171)"/>
<path d="M0 0 C-0.33 0.99 -0.66 1.98 -1 3 C-1.66 3 -2.32 3 -3 3 C-3.33 4.32 -3.66 5.64 -4 7 C-4.99 6.67 -5.98 6.34 -7 6 C-5.81636731 2.44910192 -3.99368042 0 0 0 Z " fill="#CEF923" transform="translate(135,109)"/>
<path d="M0 0 C0.66 0.33 1.32 0.66 2 1 C2 2.32 2 3.64 2 5 C-0.64 5 -3.28 5 -6 5 C-5.195625 4.360625 -4.39125 3.72125 -3.5625 3.0625 C-1.7249496 1.59396498 -1.7249496 1.59396498 0 0 Z " fill="#242D06" transform="translate(94,101)"/>
<path d="M0 0 C-3.2678206 2.17854707 -6.38058265 3.49760034 -10 5 C-10 4.01 -10 3.02 -10 2 C-6.5980513 -0.09350689 -3.94727588 -0.17942163 0 0 Z " fill="#263402" transform="translate(150,97)"/>
<path d="M0 0 C1.43655854 -0.08131463 2.8744483 -0.13933559 4.3125 -0.1875 C5.51326172 -0.23970703 5.51326172 -0.23970703 6.73828125 -0.29296875 C9.47851584 0.06198392 10.29171079 0.89366282 12 3 C10.56163249 2.88541307 9.12429034 2.75790884 7.6875 2.625 C6.88699219 2.55539062 6.08648437 2.48578125 5.26171875 2.4140625 C3 2 3 2 0 0 Z " fill="#3B4B09" transform="translate(109,266)"/>
<path d="M0 0 C0.33 1.32 0.66 2.64 1 4 C-1.90600261 5.25664978 -3.79604584 6 -7 6 C-4.69 4.02 -2.38 2.04 0 0 Z " fill="#C6E641" transform="translate(159,255)"/>
<path d="M0 0 C0.99 0.33 1.98 0.66 3 1 C0.11964908 3.24027294 -2.84866512 5.16172132 -6 7 C-6 6.01 -6 5.02 -6 4 C-3.1875 1.75 -3.1875 1.75 0 0 Z " fill="#232D02" transform="translate(267,237)"/>
<path d="M0 0 C2.31 0.33 4.62 0.66 7 1 C5.3125 2.5625 5.3125 2.5625 3 4 C0.25 3.6875 0.25 3.6875 -2 3 C-1.34 2.01 -0.68 1.02 0 0 Z " fill="#1A1F0D" transform="translate(268,234)"/>
<path d="M0 0 C-0.66 1.98 -1.32 3.96 -2 6 C-3.32 5.34 -4.64 4.68 -6 4 C-2.25 0 -2.25 0 0 0 Z " fill="#202B07" transform="translate(240,221)"/>
<path d="M0 0 C0.598125 0.20625 1.19625 0.4125 1.8125 0.625 C-0.4975 1.945 -2.8075 3.265 -5.1875 4.625 C-5.1875 3.635 -5.1875 2.645 -5.1875 1.625 C-2.1875 -0.375 -2.1875 -0.375 0 0 Z " fill="#253004" transform="translate(147.1875,170.375)"/>
<path d="M0 0 C0 3.16880694 -0.2058242 4.43689172 -2 7 C-4.625 7.75 -4.625 7.75 -7 8 C-6.02133662 6.85373678 -5.04205413 5.70800212 -4.0625 4.5625 C-3.51722656 3.92441406 -2.97195312 3.28632813 -2.41015625 2.62890625 C-1.63204305 1.73008851 -0.84063472 0.84063472 0 0 Z " fill="#212B01" transform="translate(105,167)"/>
<path d="M0 0 C0 0.99 0 1.98 0 3 C-2.3125 4.75 -2.3125 4.75 -5 6 C-5.99 5.67 -6.98 5.34 -8 5 C-2.25 0 -2.25 0 0 0 Z " fill="#273105" transform="translate(114,161)"/>
<path d="M0 0 C1.32 0.33 2.64 0.66 4 1 C1.03 3.475 1.03 3.475 -2 6 C-2.33 4.68 -2.66 3.36 -3 2 C-2.01 2 -1.02 2 0 2 C0 1.34 0 0.68 0 0 Z " fill="#BBDC35" transform="translate(211,145)"/>
<path d="M0 0 C1.32 0.33 2.64 0.66 4 1 C3.34 1 2.68 1 2 1 C2 1.99 2 2.98 2 4 C1.01 4.33 0.02 4.66 -1 5 C-1.99 4.34 -2.98 3.68 -4 3 C-3.67 2.34 -3.34 1.68 -3 1 C-2.01 1.33 -1.02 1.66 0 2 C0 1.34 0 0.68 0 0 Z " fill="#D1FA24" transform="translate(100,137)"/>
<path d="M0 0 C2.64 0 5.28 0 8 0 C8.33 1.65 8.66 3.3 9 5 C8.34 5 7.68 5 7 5 C6 4 5 3 4 2 C1.90010348 0.82425289 1.90010348 0.82425289 0 0 Z " fill="#CFF72E" transform="translate(272,124)"/>
<path d="M0 0 C0.66 0 1.32 0 2 0 C0.75023244 3.65316671 0.32901247 4.78065836 -3 7 C-3.99 6.67 -4.98 6.34 -6 6 C-5.67 5.34 -5.34 4.68 -5 4 C-4.01 4.33 -3.02 4.66 -2 5 C-1.34 3.35 -0.68 1.7 0 0 Z " fill="#C5E938" transform="translate(158,122)"/>
<path d="M0 0 C-2.31 1.65 -4.62 3.3 -7 5 C-7.33 3.68 -7.66 2.36 -8 1 C-3.375 -1.125 -3.375 -1.125 0 0 Z " fill="#1D2801" transform="translate(138,104)"/>
<path d="M0 0 C-3.42346555 3.14958831 -6.44262737 3.56179109 -11 4 C-3.77464789 -1.88732394 -3.77464789 -1.88732394 0 0 Z " fill="#314103" transform="translate(138,72)"/>
<path d="M0 0 C2.97 0.495 2.97 0.495 6 1 C6 1.66 6 2.32 6 3 C6.66 3 7.32 3 8 3 C7.67 3.66 7.34 4.32 7 5 C4.69 4.34 2.38 3.68 0 3 C0 2.01 0 1.02 0 0 Z " fill="#BCDB32" transform="translate(170,67)"/>
<path d="M0 0 C0.99 0 1.98 0 3 0 C3.33 1.65 3.66 3.3 4 5 C3.01 5.33 2.02 5.66 1 6 C0.34 5.01 -0.32 4.02 -1 3 C-0.67 2.01 -0.34 1.02 0 0 Z " fill="#D3FA26" transform="translate(217,323)"/>
<path d="M0 0 C0.33 0 0.66 0 1 0 C1.6875 3.3125 1.6875 3.3125 2 7 C0.5625 8.9375 0.5625 8.9375 -1 10 C-1.125 3.375 -1.125 3.375 0 0 Z " fill="#1D2702" transform="translate(204,268)"/>
<path d="M0 0 C-2.35968744 2.09749995 -3.54616994 2.96905704 -6.75 3.1875 C-7.86375 3.0946875 -7.86375 3.0946875 -9 3 C-6.07868595 -0.19953443 -4.37453972 -1.45817991 0 0 Z " fill="#CAEF35" transform="translate(164,164)"/>
<path d="M0 0 C2.50037734 2.17424117 3.43628586 3.73045798 4 7 C2.68 6.67 1.36 6.34 0 6 C0 4.02 0 2.04 0 0 Z " fill="#242E06" transform="translate(307,154)"/>
<path d="M0 0 C-0.66 1.98 -1.32 3.96 -2 6 C-3.65 5.67 -5.3 5.34 -7 5 C-2.25 0 -2.25 0 0 0 Z " fill="#232C06" transform="translate(145,139)"/>
<path d="M0 0 C0 0.99 0 1.98 0 3 C-1.75 4.75 -1.75 4.75 -4 6 C-5.32 5.67 -6.64 5.34 -8 5 C-4.04 2.525 -4.04 2.525 0 0 Z " fill="#283304" transform="translate(234,131)"/>
<path d="M0 0 C0.66 0 1.32 0 2 0 C2 2.31 2 4.62 2 7 C0.68 5.68 -0.64 4.36 -2 3 C-1.34 2.67 -0.68 2.34 0 2 C0 1.34 0 0.68 0 0 Z " fill="#1C2406" transform="translate(162,96)"/>
<path d="M0 0 C0.99 0.33 1.98 0.66 3 1 C2.01 2.32 1.02 3.64 0 5 C-1.32 4.67 -2.64 4.34 -4 4 C-2.68 2.68 -1.36 1.36 0 0 Z " fill="#D0FC17" transform="translate(118,76)"/>
</svg>
