<?xml version="1.0" encoding="UTF-8"?>
<svg version="1.1" xmlns="http://www.w3.org/2000/svg" width="1024" height="1024">
<path d="M0 0 C1.97142363 1.84267759 3.93060051 3.69191511 5.875 5.5625 C6.72989014 6.38451904 6.72989014 6.38451904 7.60205078 7.22314453 C15.23609778 14.60980141 22.36105588 22.15163809 28.875 30.5625 C29.66132812 31.54347656 30.44765625 32.52445312 31.2578125 33.53515625 C51.42663779 58.88547534 65.41368217 87.49929079 75.94873047 117.96972656 C76.25439941 118.8253418 76.56006836 119.68095703 76.875 120.5625 C77.17559326 121.46073486 77.47618652 122.35896973 77.78588867 123.28442383 C79.50531028 126.8809096 82.78391589 127.65102561 86.3125 129 C87.7787731 129.60330859 89.24361902 130.21009721 90.70703125 130.8203125 C91.4232666 131.11583008 92.13950195 131.41134766 92.87744141 131.71582031 C108.17829953 138.20119992 121.19479068 148.94577008 132.875 160.5625 C133.60396484 161.28542236 133.60396484 161.28542236 134.34765625 162.02294922 C160.21363055 188.03869245 173.87796404 225.17371083 174.125 261.5625 C173.80137246 302.84496159 156.89293463 337.99985034 128.875 367.5625 C129.638125 368.449375 130.40125 369.33625 131.1875 370.25 C131.73535156 370.89453125 132.28320312 371.5390625 132.84765625 372.203125 C134.33774897 373.93725988 135.84869771 375.65352905 137.37109375 377.359375 C162.4060524 405.6925686 175.89219151 443.21642843 174.0390625 481.08203125 C171.28676473 522.69415227 153.01968876 558.25801638 121.87109375 585.91796875 C119.875 587.5625 119.875 587.5625 117.875 588.5625 C119.14993731 592.01842145 120.72518761 595.16581012 122.54003906 598.3684082 C134.64111396 619.89780387 140.10428627 643.29658416 140.125 667.875 C140.12601212 668.94971558 140.12601212 668.94971558 140.12704468 670.04614258 C140.0705396 707.81054761 125.82160889 742.11302109 99.875 769.5625 C98.75544922 770.77873047 98.75544922 770.77873047 97.61328125 772.01953125 C77.72730743 792.89158642 50.05321119 806.4213598 21.875 811.5625 C20.66972656 811.78679688 19.46445312 812.01109375 18.22265625 812.2421875 C-7.07254515 816.25206742 -32.04343218 812.68942589 -56.125 804.5625 C-57.115 804.2325 -58.105 803.9025 -59.125 803.5625 C-59.72634766 805.0165625 -59.72634766 805.0165625 -60.33984375 806.5 C-75.81732474 843.28450422 -102.54570066 873.01580964 -139.859375 888.6015625 C-167.11699415 899.37614187 -200.52978054 903.29675985 -229.125 895.5625 C-229.90020996 895.36382324 -230.67541992 895.16514648 -231.47412109 894.96044922 C-260.75501734 887.34502033 -289.4725676 870.91428674 -308.125 846.5625 C-308.125 845.9025 -308.125 845.2425 -308.125 844.5625 C-308.74205811 844.80895264 -309.35911621 845.05540527 -309.99487305 845.30932617 C-340.09314915 857.22792086 -368.81451364 861.75074204 -401.11450195 861.74780273 C-403.81932965 861.75000556 -406.52375865 861.7682907 -409.22851562 861.78710938 C-424.33139992 861.83726381 -438.73396912 861.70350053 -450.4375 850.875 C-458.36401213 842.3560011 -461.66015711 831.66336474 -461.375 820.16796875 C-460.35005031 809.48607118 -456.06486816 799.54413364 -448.22265625 792.1328125 C-441.93677539 787.42718102 -434.32301001 784.48173745 -426.47436523 784.38891602 C-425.55497665 784.37542618 -424.63558807 784.36193634 -423.68833923 784.34803772 C-422.69677322 784.33759933 -421.70520721 784.32716095 -420.68359375 784.31640625 C-418.55012704 784.28340739 -416.41666359 784.25019698 -414.28320312 784.21679688 C-410.94672424 784.16988638 -407.61025218 784.12557071 -404.27368164 784.08569336 C-393.34293672 783.94882342 -382.4549604 783.78486671 -371.57421875 782.65625 C-370.47031044 782.54253807 -370.47031044 782.54253807 -369.34410095 782.42652893 C-345.82464804 779.70310596 -323.54634027 767.2757344 -308.21484375 749.2890625 C-290.89950188 726.69820526 -283.20113514 700.39739391 -286.41357422 672.01269531 C-290.21496119 647.14295023 -304.26215213 623.72550234 -324.27734375 608.5 C-349.47798998 591.3538813 -374.57258975 589.09348739 -404.26111531 589.20305538 C-408.17518072 589.21409365 -412.0892231 589.20747074 -416.0032959 589.20292664 C-422.76703893 589.19721426 -429.53070988 589.20175305 -436.29444504 589.21294022 C-446.08641389 589.22868067 -455.87828708 589.22298796 -465.67025752 589.21132378 C-481.57916327 589.19248343 -497.48805594 589.1832108 -513.39697266 589.18359375 C-514.34662386 589.18361119 -515.29627506 589.18362863 -516.27470358 589.1836466 C-526.87755539 589.18409915 -537.48040248 589.1874355 -548.08325195 589.19451904 C-549.03771714 589.19515143 -549.99218234 589.19578381 -550.97557072 589.19643535 C-552.40600126 589.1973842 -552.40600126 589.1973842 -553.86532938 589.19835222 C-555.78863756 589.19962202 -557.71194573 589.20088744 -559.63525391 589.20214844 C-560.58555262 589.20277663 -561.53585134 589.20340482 -562.51494698 589.20405205 C-578.37646034 589.21401528 -594.23789568 589.20466445 -610.09939253 589.17996442 C-619.86472455 589.16556158 -629.6297812 589.16755019 -639.39509721 589.19092642 C-646.08375192 589.20570208 -652.77224545 589.2024921 -659.46089379 589.1852975 C-663.31472361 589.17598632 -667.16810535 589.1747325 -671.02190018 589.19552803 C-675.20783772 589.21793939 -679.39275476 589.20144767 -683.57870483 589.18154907 C-684.78435793 589.19426869 -685.99001103 589.20698831 -687.23219907 589.22009337 C-699.14093036 589.09844377 -708.46701921 585.24191801 -717 576.94140625 C-724.28152185 568.78984962 -727.63626682 558.33906964 -727.0625 547.4375 C-725.69448786 536.07705139 -720.55899474 526.91938523 -711.83284497 519.56930661 C-703.28089186 513.23138246 -694.41500402 511.82827128 -684.02081299 511.92999268 C-682.75594771 511.92234257 -681.49108243 511.91469245 -680.18788791 511.90681052 C-676.71117218 511.88642464 -673.23514535 511.89665924 -669.75843048 511.91228795 C-665.99547171 511.92368084 -662.23263046 511.9060561 -658.46969604 511.89204407 C-651.95792151 511.87166949 -645.44634348 511.86928265 -638.93454742 511.87921906 C-629.50238014 511.89349564 -620.07042183 511.87912578 -610.63827571 511.85779712 C-595.30962245 511.82381434 -579.9810318 511.81126701 -564.65234375 511.81298828 C-549.80792522 511.81459575 -534.9635491 511.80859516 -520.11914062 511.79052734 C-519.20537113 511.78941937 -518.29160163 511.78831139 -517.35014215 511.78716984 C-507.35916217 511.77486446 -497.36818512 511.76073279 -487.37720871 511.74583054 C-484.72097284 511.74189869 -482.06473696 511.73797545 -479.40850106 511.7340633 C-477.65657902 511.73146991 -475.90465703 511.72884632 -474.15273508 511.72619209 C-463.04759974 511.70950421 -451.94249717 511.70068521 -440.83734941 511.70051527 C-435.22297388 511.70030488 -429.60860198 511.69678622 -423.99422839 511.6922656 C-420.28186806 511.68947737 -416.56952651 511.68838882 -412.85716629 511.69178963 C-376.46447288 511.72300473 -343.2515612 510.05517404 -315.87109375 483.37109375 C-297.4667718 464.54789676 -287.44592178 440.71760362 -286.9375 414.375 C-287.2024679 391.53476722 -294.77165468 370.35634757 -309.125 352.5625 C-309.81335938 351.70914062 -310.50171875 350.85578125 -311.2109375 349.9765625 C-328.0187744 330.25617624 -353.55938768 319.00290197 -379.125 316.5625 C-383.41555223 316.41677128 -387.70382519 316.42931634 -391.99650574 316.43792725 C-393.29667312 316.4365171 -394.59684051 316.43510695 -395.93640691 316.43365407 C-398.78451081 316.43060338 -401.63259134 316.43069637 -404.48069572 316.43321037 C-409.11566658 316.4372813 -413.75061926 316.43449521 -418.3855896 316.43086243 C-424.24396986 316.42677605 -430.10234603 316.42453289 -435.96072773 316.42444643 C-447.4764666 316.42424341 -458.9921635 316.41176698 -470.50788879 316.39483643 C-472.32242255 316.3922307 -474.13695632 316.38963189 -475.9514901 316.3870399 C-478.70127976 316.38310155 -481.4510694 316.379155 -484.20085901 316.37517868 C-494.56237116 316.36023966 -504.92388458 316.3466116 -515.28540039 316.33447266 C-516.70575021 316.33280231 -516.70575021 316.33280231 -518.15479396 316.33109823 C-533.49454869 316.31352828 -548.83427704 316.31065391 -564.17404016 316.31232306 C-579.93577789 316.3136033 -595.69741763 316.29583717 -611.45911771 316.26130509 C-621.17379349 316.24068455 -630.88823431 316.2352954 -640.60292248 316.2496334 C-647.26460165 316.25811002 -653.92609854 316.24831516 -660.58773925 316.2243239 C-664.42730171 316.21105329 -668.26642662 316.20576497 -672.10598564 316.22244453 C-676.2772152 316.24036386 -680.44737946 316.21940405 -684.61857605 316.19500732 C-685.82005962 316.2063627 -687.02154319 316.21771808 -688.25943536 316.22941756 C-699.0754814 316.10677406 -708.50098334 313.04987918 -716.3828125 305.4296875 C-723.9530145 297.316332 -728.22813314 288.74782246 -728.5625 277.4375 C-728.13397567 266.82115542 -724.45193027 256.8986305 -716.86328125 249.296875 C-707.36267792 241.24298835 -698.53551808 238.96140132 -686.23681641 239.05024719 C-684.97098756 239.04345151 -683.70515871 239.03665582 -682.40097141 239.0296542 C-678.91229061 239.01143733 -675.42403296 239.01778437 -671.93533683 239.02835357 C-668.16277025 239.03538559 -664.39029201 239.01927685 -660.61775208 239.00601196 C-654.08578553 238.98613923 -647.55393572 238.98065607 -641.02194214 238.98494911 C-631.55832803 238.99105942 -622.09486197 238.97413112 -612.63127792 238.95153918 C-597.24946846 238.91535004 -581.8676882 238.89617514 -566.48583984 238.88842773 C-551.59292242 238.8808769 -536.70003203 238.86779757 -521.80712891 238.84545898 C-520.43290221 238.84340294 -520.43290221 238.84340294 -519.03091335 238.84130535 C-509.0110238 238.82615168 -498.99113742 238.80939688 -488.97125244 238.79148388 C-488.08832897 238.78991191 -487.2054055 238.78833994 -486.29572678 238.78672033 C-480.99823508 238.77729085 -480.99823508 238.77729085 -475.70074368 238.76770272 C-465.39758794 238.74897091 -455.09445132 238.73503542 -444.79127938 238.72990706 C-438.31887788 238.72664641 -431.84648438 238.72035622 -425.37408775 238.7117788 C-421.64934352 238.70702325 -417.92461658 238.70391103 -414.19986916 238.70524788 C-387.42799764 239.38520362 -387.42799764 239.38520362 -361 235.9375 C-360.269021 235.76710205 -359.53804199 235.5967041 -358.78491211 235.42114258 C-333.718164 229.16188454 -312.66519446 213.07103439 -299.23046875 191.171875 C-286.51017129 169.75183334 -281.84470142 142.82373555 -287.6875 118.375 C-292.24392157 101.14432176 -300.83818814 86.40780331 -313.125 73.5625 C-313.73859375 72.87414062 -314.3521875 72.18578125 -314.984375 71.4765625 C-330.30625343 54.91059992 -354.29816003 45.62048385 -376.4485321 44.37573242 C-379.86521788 44.30474521 -383.27790584 44.28614308 -386.6953125 44.2890625 C-389.24609824 44.26878684 -391.79687947 44.24793633 -394.34765625 44.2265625 C-398.30814481 44.2039508 -402.26845365 44.18747283 -406.22900391 44.18164062 C-410.09309065 44.1720796 -413.95640134 44.13828102 -417.8203125 44.1015625 C-419.57699753 44.10913071 -419.57699753 44.10913071 -421.36917114 44.11685181 C-432.367449 43.98642335 -442.02254212 41.27096944 -450.125 33.5625 C-455.25368515 28.09327841 -458.3321891 22.834141 -460.125 15.5625 C-460.351875 14.758125 -460.57875 13.95375 -460.8125 13.125 C-462.2945873 0.97188415 -460.05514172 -9.87157741 -453.0703125 -20.02734375 C-447.11743618 -27.40269453 -438.53636592 -31.87564766 -429.13671875 -32.97241211 C-423.80726018 -33.53407579 -418.50767912 -33.6172086 -413.15234375 -33.640625 C-412.1121962 -33.64632507 -411.07204865 -33.65202515 -410.00038147 -33.65789795 C-407.80096436 -33.66730485 -405.60153343 -33.67386469 -403.40209961 -33.67773438 C-400.12391595 -33.68732041 -396.84639313 -33.71833535 -393.56835938 -33.75 C-375.44304486 -33.84046485 -357.14618783 -32.83766918 -339.61328125 -27.890625 C-334.2342464 -26.91108333 -330.92134837 -28.97604203 -326.5 -31.875 C-291.68585072 -53.91322232 -251.07269149 -66.61393706 -210.125 -70.4375 C-208.94808594 -70.54835938 -207.77117188 -70.65921875 -206.55859375 -70.7734375 C-130.80052394 -76.82100726 -56.216056 -50.77338745 0 0 Z M-258.125 19.5625 C-255.80302366 23.16821216 -253.46958857 26.41036424 -250.5 29.5 C-227.88675868 54.58853119 -217.20690069 87.00676625 -211.125 119.5625 C-209.97294067 119.45856934 -209.97294067 119.45856934 -208.79760742 119.35253906 C-189.40550354 117.71749857 -169.13709354 116.7696438 -150.125 121.5625 C-149.32980957 121.76117676 -148.53461914 121.95985352 -147.71533203 122.16455078 C-121.93469782 128.822927 -100.50522829 141.40762191 -81.3515625 159.875 C-79.05931772 161.96517946 -79.05931772 161.96517946 -75.125 161.5625 C-73.01418154 159.80793782 -71.1189146 158.05931506 -69.1875 156.125 C-62.94052185 150.13732039 -56.48343433 145.15555712 -49.125 140.5625 C-48.23868896 140.0041748 -48.23868896 140.0041748 -47.33447266 139.43457031 C-34.45208788 131.44142704 -20.49508542 126.2504459 -6.125 121.5625 C-7.96156088 115.33664 -10.3233724 109.91869399 -13.6875 104.375 C-14.34504272 103.27816895 -14.34504272 103.27816895 -15.01586914 102.15917969 C-43.20719464 55.77616655 -87.45469667 23.24045552 -140.26953125 10.25 C-144.8624948 9.19392329 -149.47624672 8.33222364 -154.125 7.5625 C-154.79418457 7.44680664 -155.46336914 7.33111328 -156.15283203 7.21191406 C-190.74737641 1.45043076 -225.65104804 7.32167096 -258.125 19.5625 Z M-222.23046875 206.7578125 C-224.54698076 210.18720554 -226.15442602 213.72010282 -227.8125 217.5 C-238.62214793 241.19866236 -255.90001385 260.32419764 -275.125 277.5625 C-272.51693214 280.21886541 -269.88577934 282.80873704 -267.109375 285.2890625 C-260.06846867 291.57999218 -253.86011044 298.02636365 -248.125 305.5625 C-247.27958799 306.61143713 -246.43319125 307.65958118 -245.5859375 308.70703125 C-231.87562634 326.056607 -223.13266149 346.16736446 -216.83056641 367.22021484 C-215.98685362 370.02110774 -215.06951007 372.79410841 -214.125 375.5625 C-213.04089844 375.3459375 -211.95679688 375.129375 -210.83984375 374.90625 C-190.05571565 371.10518264 -166.69008785 370.10877504 -146.125 375.5625 C-145.35752441 375.75585938 -144.59004883 375.94921875 -143.79931641 376.1484375 C-118.96241087 382.51863928 -98.07343215 394.46578879 -79.125 411.5625 C-78.33738281 412.26632812 -77.54976562 412.97015625 -76.73828125 413.6953125 C-57.10777233 432.23327963 -45.33689097 457.31069491 -38.68359375 483.109375 C-33.46794917 503.30907829 -25.33590721 519.96337757 -7.125 531.5625 C8.51039021 540.66256307 26.37479936 544.84185605 44.328125 540.6484375 C63.66302071 535.32682368 78.53275543 523.80090429 88.66015625 506.515625 C93.33918872 497.64040862 96.06915794 488.55494155 96.875 478.5625 C96.92785156 477.92570312 96.98070312 477.28890625 97.03515625 476.6328125 C97.77344943 459.61996964 91.2215634 442.209767 79.875 429.5625 C78.92753906 428.47775391 78.92753906 428.47775391 77.9609375 427.37109375 C64.22575714 412.61201813 47.38250856 407.39872263 27.93261719 405.7253418 C15.87763678 404.59246184 6.88650693 400.89776711 -1.125 391.5625 C-7.75170721 380.84954736 -10.28774265 369.79617845 -7.37109375 357.34375 C-3.88106669 347.3800649 1.97371296 339.46614534 11.28515625 334.19921875 C17.36436832 331.40826162 23.04217801 330.51671527 29.66455078 330.01855469 C43.7605389 328.89513505 56.1280409 325.86026809 67.875 317.5625 C68.70515625 316.98886719 69.5353125 316.41523438 70.390625 315.82421875 C85.31563324 304.76780927 94.10577546 287.71338878 96.875 269.5625 C98.52720301 251.20262613 93.35149524 234.38509068 82.5 219.625 C70.75396346 205.77205108 54.75879894 195.96355177 36.39501953 194.34375 C15.71640577 193.1203896 -1.60065376 198.33058423 -17.55859375 212.05859375 C-31.23646746 225.40336855 -37.46891652 241.97461345 -39.0625 260.625 C-39.68373517 267.84769029 -40.54760534 274.12584939 -44.125 280.5625 C-44.681875 281.59375 -45.23875 282.625 -45.8125 283.6875 C-53.37288507 293.08689766 -61.48488454 298.12356672 -73.5 299.5 C-83.39288354 299.97718615 -93.12652239 297.55018715 -101.125 291.5625 C-110.65270628 282.8330151 -113.29908011 274.29754711 -114.640625 261.82421875 C-116.44933015 245.23808859 -120.58644966 231.81999632 -131.125 218.5625 C-131.58390625 217.92699219 -132.0428125 217.29148437 -132.515625 216.63671875 C-139.38311304 207.63865461 -150.73971445 201.4858301 -161.125 197.5625 C-161.90230469 197.24410156 -162.67960938 196.92570312 -163.48046875 196.59765625 C-180.71146624 190.65309909 -209.08295308 193.04927111 -222.23046875 206.7578125 Z M-215.125 458.5625 C-216.3080873 461.25453736 -217.24379005 463.77681637 -218.125 466.5625 C-218.69281789 468.15771078 -219.26867011 469.75007928 -219.8515625 471.33984375 C-220.15642578 472.17459229 -220.46128906 473.00934082 -220.77539062 473.86938477 C-231.63384747 503.17797005 -249.62119302 529.83992365 -274.125 549.5625 C-272.99028532 552.96664403 -271.95274013 553.80526648 -269.25 556.0625 C-265.26470588 559.41544118 -265.26470588 559.41544118 -263.4921875 561.28125 C-262.19406322 562.79043414 -262.19406322 562.79043414 -260.125 562.5625 C-259.85558594 563.16449219 -259.58617187 563.76648438 -259.30859375 564.38671875 C-258.11459865 566.58162064 -257.03929481 567.73147551 -255.1875 569.375 C-229.15107236 594.7062744 -212.49095528 636.31767684 -210.96386719 672.36621094 C-210.51977931 713.93490195 -217.0613697 753.82443963 -242.80029297 787.90942383 C-245.12993236 791.0132847 -246.87884832 793.87882085 -248.125 797.5625 C-234.10163961 812.56234197 -218.67695111 821.09705176 -197.80078125 822.74609375 C-181.25548379 823.25106692 -164.34220935 817.13731371 -151.9375 806.25 C-150.31601268 804.70548201 -148.7111117 803.14332466 -147.125 801.5625 C-146.4134375 800.87414062 -145.701875 800.18578125 -144.96875 799.4765625 C-133.45915597 787.56855945 -127.9238292 771.13373194 -127.9375 754.8125 C-127.9365332 753.60509155 -127.9365332 753.60509155 -127.93554688 752.37329102 C-127.97189992 748.28481287 -128.15300604 744.49137944 -129.125 740.5 C-132.01410925 728.39923805 -131.07940739 715.82860677 -124.65234375 705.10546875 C-118.9208442 696.93503322 -109.94600643 691.42136557 -100.125 689.5625 C-88.02076324 688.46488659 -76.67914318 690.71445382 -67.125 698.5625 C-63.4251312 702.59909534 -60.3052199 707.11577148 -57.125 711.5625 C-47.75326124 724.24051208 -32.89424057 732.71342503 -17.609375 736.08984375 C2.46335758 738.81271442 20.00145618 735.15590796 36.8125 723.53125 C51.71673941 712.10466645 59.99749366 696.2116232 63.5625 678.0625 C65.33100771 658.25521367 60.21189198 641.08785312 47.875 625.5625 C46.85599609 624.23025391 46.85599609 624.23025391 45.81640625 622.87109375 C43.61398675 620.25212006 42.01564499 618.69505822 38.54101562 618.29125977 C37.17493164 618.27276978 37.17493164 618.27276978 35.78125 618.25390625 C34.2502063 618.21970581 34.2502063 618.21970581 32.68823242 618.18481445 C31.59486572 618.16507568 30.50149902 618.14533691 29.375 618.125 C-1.25857994 617.18488942 -31.32029599 609.31455917 -56.125 590.5625 C-57.00671875 589.90121094 -57.8884375 589.23992187 -58.796875 588.55859375 C-86.29879563 566.97832944 -103.09559301 538.85079421 -111.6875 505.1875 C-116.96395329 484.61141536 -126.43564613 468.17413386 -144.9375 456.8125 C-164.38685855 445.91886951 -197.08655778 442.5992768 -215.125 458.5625 Z " fill="#000000" transform="translate(808.125,98.4375)"/>
<path d="M0 0 C1.59638033 -0.00489485 3.19275712 -0.01108739 4.78912795 -0.01845789 C9.15582988 -0.03480507 13.52235065 -0.03255017 17.88907242 -0.02708292 C22.60630234 -0.02440629 27.32348467 -0.03895632 32.04069519 -0.05117798 C41.27437892 -0.07220687 50.50799983 -0.07677431 59.74170469 -0.07499009 C67.24852239 -0.07368128 74.75532053 -0.07749268 82.26213455 -0.08491516 C84.42635047 -0.0870144 86.5905664 -0.089112 88.75478232 -0.09120798 C89.83204552 -0.09225151 90.90930872 -0.09329504 92.01921625 -0.09437019 C112.38153494 -0.11326203 132.74381758 -0.11222548 153.1061414 -0.10540086 C171.72428491 -0.09982515 190.34229082 -0.12065394 208.96040218 -0.15376133 C228.08963847 -0.18751295 247.21880888 -0.20266489 266.34807551 -0.1980443 C277.08285374 -0.19580124 287.81750478 -0.2010191 298.55225754 -0.22593689 C307.69057209 -0.24696889 316.82868969 -0.25052301 325.96701239 -0.2316373 C330.62681358 -0.22249156 335.28624772 -0.22130085 339.94602013 -0.24199295 C344.21725564 -0.26074955 348.48782467 -0.25614742 352.75903518 -0.23344713 C354.29864451 -0.22927319 355.8383054 -0.23342064 357.37786011 -0.24704307 C369.43243471 -0.34638543 381.09743677 1.81967497 390.18618774 10.39440918 C398.55532942 19.61465001 401.59843104 29.62962765 401.45962524 41.91394043 C400.62146818 52.5824825 396.06898256 60.92744602 388.30728149 68.14050293 C376.5561159 77.66013405 363.49852341 77.54467481 349.0617218 77.52812195 C347.51585628 77.52999168 345.96999123 77.53229303 344.42412692 77.53498727 C340.18784287 77.54109153 335.95157859 77.5409733 331.71529114 77.5397929 C327.14189674 77.53958854 322.56850864 77.54511092 317.99511719 77.54985046 C309.03957451 77.55814988 300.08403841 77.56090498 291.1284922 77.56146284 C283.84807418 77.56193831 276.56765832 77.56399459 269.28724098 77.56716347 C248.63865421 77.57596787 227.99007263 77.58058314 207.34148397 77.57983299 C206.22877382 77.57979304 205.11606366 77.57975308 203.96963501 77.57971191 C202.8555639 77.57967103 201.74149278 77.57963015 200.59366194 77.57958803 C182.53735114 77.57918155 164.4810612 77.58875212 146.42475643 77.60285028 C127.87755503 77.6172173 109.3303638 77.62412029 90.78315669 77.6232565 C80.37315128 77.62292466 69.96316774 77.62566619 59.55316734 77.63643456 C50.69041039 77.6455438 41.82768522 77.64771128 32.96492561 77.64092513 C28.4451153 77.63766217 23.92536594 77.6375952 19.40556145 77.64627838 C15.26340448 77.65415406 11.12135671 77.65270105 6.97920237 77.64399425 C5.48531171 77.64246163 3.99141285 77.64426642 2.49753185 77.64985432 C-11.4377787 77.69850377 -24.2327126 77.03992045 -35.10678101 67.35144043 C-44.10316758 57.81493309 -47.34266496 48.19041852 -47.09115601 35.28894043 C-46.37942407 25.29462021 -41.79091555 15.86988317 -34.33334351 9.16394043 C-23.52646799 0.79585206 -13.29277484 -0.05063662 0 0 Z " fill="#000000" transform="translate(47.813812255859375,474.6055908203125)"/>
<path d="M0 0 C1.63863353 -0.00435318 3.27726504 -0.00953835 4.91589355 -0.01548767 C9.34573311 -0.02882382 13.77548707 -0.02946235 18.20534277 -0.02692437 C21.91287418 -0.02585098 25.62038853 -0.03074743 29.32791626 -0.03552979 C38.07962655 -0.0466064 46.83129391 -0.04707282 55.58300781 -0.04101562 C64.59040409 -0.03497702 73.59764411 -0.04728822 82.60501373 -0.06858569 C90.35817927 -0.08623885 98.11129525 -0.0921972 105.86448014 -0.08894795 C110.48639627 -0.08714084 115.10820092 -0.08971385 119.73009872 -0.10366249 C124.0788046 -0.1162968 128.42726803 -0.11424411 132.77597046 -0.1012516 C134.36456512 -0.09889841 135.95317714 -0.101575 137.54175186 -0.10987473 C151.57630838 -0.17786731 163.89426035 1.41981671 174.73486328 11.0559082 C182.67921091 19.42921629 186.14659647 29.78284447 186.00830078 41.16918945 C184.88600932 53.73569245 179.34933803 62.77758358 169.88330078 70.7355957 C163.0037206 75.65493253 156.05623565 77.39366504 147.71824646 77.42182922 C147.01205187 77.42550591 146.30585729 77.4291826 145.57826287 77.4329707 C143.21175444 77.44398408 140.84528996 77.44784743 138.47875977 77.45166016 C136.78175213 77.45792671 135.08474586 77.46457368 133.38774109 77.47157288 C127.81335401 77.49259748 122.23896671 77.50297559 116.66455078 77.51293945 C114.74306791 77.51698798 112.82158519 77.52110493 110.90010262 77.52528954 C101.86963714 77.54433978 92.83917982 77.55856967 83.80869812 77.5669015 C73.39856884 77.57666567 62.98865266 77.60296446 52.57859844 77.6434024 C44.52405828 77.6736119 36.46957902 77.68837507 28.41498333 77.69168252 C23.60849839 77.69402799 18.80224114 77.70292256 13.99581718 77.72814369 C9.46904073 77.75151334 4.94264043 77.75562209 0.41581917 77.74538231 C-1.23889801 77.74488895 -2.89363426 77.75114995 -4.54829407 77.76493835 C-16.41661483 77.85824434 -26.50697483 76.71242441 -36.26904297 69.2746582 C-37.09404297 68.7177832 -37.91904297 68.1609082 -38.76904297 67.5871582 C-46.41772991 60.51212278 -50.23720281 51.80623983 -50.67138672 41.49560547 C-50.86324088 30.0576333 -48.07054966 20.78709356 -40.26904297 12.2746582 C-28.85075282 0.69516867 -15.49444637 -0.0272703 0 0 Z " fill="#000000" transform="translate(264.26904296875,199.725341796875)"/>
<path d="M0 0 C0.69802748 -0.00367669 1.39605496 -0.00735338 2.11523479 -0.01114148 C4.45410424 -0.02215384 6.79292922 -0.02601803 9.13182068 -0.02983093 C10.80912415 -0.03609757 12.48642623 -0.04274455 14.16372681 -0.04974365 C19.67318254 -0.07076742 25.18263849 -0.08114633 30.69212341 -0.09111023 C32.59131828 -0.09515879 34.490513 -0.09927575 36.38970757 -0.10346031 C45.31552156 -0.12251043 54.2413273 -0.13674031 63.16715771 -0.14507228 C73.45616703 -0.15483619 83.74496074 -0.18113435 94.03389412 -0.22157317 C101.99501682 -0.2517843 109.95607789 -0.266546 117.91725677 -0.26985329 C122.6678515 -0.2721986 127.41821584 -0.28109088 132.16874886 -0.30631447 C136.64299695 -0.32968697 141.11686447 -0.33379174 145.59115791 -0.32355309 C147.22652455 -0.32305979 148.86191051 -0.32931879 150.49721909 -0.34310913 C164.2253657 -0.45232761 175.04201355 1.70095995 185.56321716 11.14717102 C193.6936495 19.49441489 196.41249535 29.72364309 196.27415466 41.02607727 C195.58071187 51.28646228 190.84556093 60.84492503 183.43821716 67.95967102 C174.61577515 75.12261339 164.25567412 77.26503077 153.13858032 77.28088379 C152.14788913 77.28428212 152.14788913 77.28428212 151.13718396 77.28774911 C148.94348344 77.29403476 146.74984557 77.29326327 144.55613708 77.29243469 C142.97529013 77.29542958 141.39444391 77.29883287 139.81359863 77.3026123 C135.53248258 77.31142297 131.25138653 77.31378918 126.97026229 77.31442809 C124.29183162 77.31514026 121.61340599 77.31727775 118.93497658 77.31992531 C109.58017785 77.32916905 100.22539335 77.33326141 90.87059021 77.33247375 C82.16771879 77.33187324 73.4649094 77.34242249 64.76205367 77.35821742 C57.27561566 77.37131767 49.78919787 77.37665661 42.3027485 77.37601835 C37.83791025 77.37576409 33.37312717 77.37857531 28.9083004 77.3891964 C24.70659048 77.39891928 20.50498799 77.39892799 16.30327415 77.39167976 C14.76747479 77.39063911 13.23166859 77.39296571 11.69588089 77.39904022 C-2.12486342 77.45013408 -15.71697135 76.57427237 -26.49928284 66.77217102 C-33.97929915 58.31650041 -38.70847046 47.94918696 -38.21803284 36.52607727 C-36.71655457 23.82607356 -32.04466905 15.12695798 -22.31178284 6.87373352 C-15.38372683 1.83721912 -8.45382814 0.02889228 0 0 Z " fill="#000000" transform="translate(253.93678283691406,748.8528289794922)"/>
</svg>
