<?xml version="1.0" encoding="UTF-8"?>
<svg version="1.1" xmlns="http://www.w3.org/2000/svg" width="800" height="951">
<path d="M0 0 C0.65880157 0.00054382 1.31760315 0.00108765 1.99636841 0.00164795 C34.42954573 0.12441347 62.19051465 14.22426639 85.4375 36.375 C86.02547363 36.9304248 86.61344727 37.48584961 87.21923828 38.05810547 C112.03715103 61.6398052 129.59433345 90.72274465 144.44873047 121.35302734 C145.42806608 123.35570822 146.43296437 125.34387664 147.44140625 127.33203125 C163.90909415 160.32133632 189.4375 211.9874205 189.4375 249.375 C190.09306885 249.24971924 190.7486377 249.12443848 191.42407227 248.99536133 C242.86646783 239.20927883 242.86646783 239.20927883 266.4375 237.375 C267.14970703 237.31860352 267.86191406 237.26220703 268.59570312 237.20410156 C310.05203426 234.05103227 359.7550963 236.81368814 393.15234375 264.63671875 C395.63266396 266.83357379 398.04297878 269.08531771 400.4375 271.375 C401.03949219 271.91382813 401.64148438 272.45265625 402.26171875 273.0078125 C424.24909326 293.40635575 432.27072016 324.45114182 433.4375 353.375 C434.55234627 412.9871727 412.33891923 471.15334185 387.4375 524.375 C396.37361402 532.79664324 396.37361402 532.79664324 405.5625 540.9375 C414.78506779 548.93565836 422.92497407 557.76750681 430.4375 567.375 C431.21480469 568.32375 431.99210938 569.2725 432.79296875 570.25 C454.79027306 597.66794369 468.92772476 631.12572862 468.75 666.5625 C468.74508545 667.73796387 468.7401709 668.91342773 468.73510742 670.12451172 C468.60601731 679.79634029 467.70392664 688.97468322 465.4375 698.375 C465.18806641 699.42059082 465.18806641 699.42059082 464.93359375 700.48730469 C458.77362704 725.36672578 445.87500781 747.87627917 429.4375 767.375 C428.47111251 768.54537342 427.50497096 769.71594995 426.5390625 770.88671875 C374.98553013 832.74586002 296.48125839 870.53462537 116.4375 930.375 C115.71943176 930.54753296 115.00136353 930.72006592 114.26153564 930.89782715 C83.98939947 938.15162855 53.381098 943.74831232 22.5 947.6875 C21.34983398 947.83477539 20.19966797 947.98205078 19.01464844 948.13378906 C-1.22474924 950.55933574 -21.46884012 951.73096973 -41.84960938 951.69067383 C-45.19433679 951.6874935 -48.53819173 951.71119711 -51.8828125 951.73632812 C-71.04504318 951.79300971 -89.9774132 950.10582861 -108.6875 945.8125 C-109.78457275 945.56346924 -110.88164551 945.31443848 -112.01196289 945.05786133 C-132.89550056 940.09972995 -153.34536284 932.94093961 -172.5625 923.375 C-173.28115234 923.02115234 -173.99980469 922.66730469 -174.74023438 922.30273438 C-192.95695713 913.25228265 -209.74219345 902.13034694 -225.5625 889.375 C-226.14241699 888.91222656 -226.72233398 888.44945312 -227.31982422 887.97265625 C-235.47874074 881.41320108 -242.9489229 874.18406902 -250.375 866.8125 C-251.24672852 865.95011719 -252.11845703 865.08773437 -253.01660156 864.19921875 C-258.95228328 858.23416366 -264.35485369 851.98224479 -269.5625 845.375 C-270.10189209 844.69493896 -270.64128418 844.01487793 -271.19702148 843.31420898 C-290.75463676 818.37981636 -306.17408146 790.31808874 -316.5625 760.375 C-317.03526367 759.02438477 -317.03526367 759.02438477 -317.51757812 757.64648438 C-323.25779313 740.92915676 -326.67812208 723.77502833 -329.5625 706.375 C-329.71090332 705.48876953 -329.85930664 704.60253906 -330.01220703 703.68945312 C-334.66494223 674.12506912 -332.195782 642.76540343 -327.5625 613.375 C-327.44370483 612.60859192 -327.32490967 611.84218384 -327.20251465 611.05255127 C-320.57876264 568.33120102 -311.17187095 526.26620185 -300.5625 484.375 C-300.32595703 483.43720703 -300.08941406 482.49941406 -299.84570312 481.53320312 C-275.90997179 386.63813749 -245.32608888 293.15484307 -165.5625 132.375 C-165.00965332 131.45509277 -164.45680664 130.53518555 -163.88720703 129.58740234 C-156.59786196 117.48696123 -148.91423317 105.76863598 -140.5625 94.375 C-139.93601563 93.51890137 -139.93601563 93.51890137 -139.296875 92.64550781 C-134.22928984 85.74750431 -128.9998858 78.98515528 -123.5625 72.375 C-123.15757324 71.87838867 -122.75264648 71.38177734 -122.33544922 70.87011719 C-110.55255429 56.48786022 -97.51026065 42.50446475 -82.5625 31.375 C-81.77528564 30.78114502 -81.77528564 30.78114502 -80.97216797 30.17529297 C-56.93028787 12.11790852 -30.45210996 -0.04257142 0 0 Z M-61.5625 96.375 C-62.38621094 97.15875 -63.20992187 97.9425 -64.05859375 98.75 C-69.20201976 103.74188659 -73.79270129 109.06150096 -78.22705078 114.68896484 C-79.70934312 116.5603928 -81.21249859 118.41416867 -82.71484375 120.26953125 C-139.36601391 190.92345095 -172.61282154 280.17657214 -215.3125 407.375 C-215.54948608 408.12239441 -215.78647217 408.86978882 -216.03063965 409.63983154 C-218.61998081 417.8302639 -221.09409393 426.05269919 -223.453125 434.3125 C-223.67981873 435.08875732 -223.90651245 435.86501465 -224.14007568 436.66479492 C-225.47662467 440.5668031 -225.47662467 440.5668031 -224.5625 444.375 C-223.53253906 443.57578125 -222.50257813 442.7765625 -221.44140625 441.953125 C-212.05855349 434.70531929 -202.53906314 427.7159443 -192.80761719 420.94482422 C-190.46964382 419.31007338 -188.1441261 417.6587146 -185.8203125 416.00390625 C-173.6591841 407.36811143 -161.23596782 399.23756481 -148.5625 391.375 C-147.49499512 390.71097168 -146.42749023 390.04694336 -145.32763672 389.36279297 C-76.48485557 346.66967285 -2.42269878 312.79484893 130.4375 266.375 C129.7775 266.045 129.1175 265.715 128.4375 265.375 C127.83477486 263.31386741 127.33683072 261.22220231 126.875 259.125 C123.78790466 246.0044648 119.58631662 233.19073275 115.4375 220.375 C115.22675842 219.72390259 115.01601685 219.07280518 114.79888916 218.40197754 C97.68708474 165.71086693 74.28810205 97.59829923 23.3359375 68.84765625 C-8.60646943 52.61815839 -39.16686203 74.64141453 -61.5625 96.375 Z M183.4375 250.375 C187.4375 251.375 187.4375 251.375 187.4375 251.375 Z M174.4375 252.375 C178.4375 253.375 178.4375 253.375 178.4375 253.375 Z M170.4375 253.375 C174.4375 254.375 174.4375 254.375 174.4375 254.375 Z M166.4375 254.375 C170.4375 255.375 170.4375 255.375 170.4375 255.375 Z M162.4375 255.375 C166.4375 256.375 166.4375 256.375 166.4375 256.375 Z M155.4375 258.375 C158.9025 257.88 158.9025 257.88 162.4375 257.375 C158.95168144 256.1729936 158.75757656 256.16161563 155.4375 258.375 Z M151.4375 258.375 C155.4375 259.375 155.4375 259.375 155.4375 259.375 Z M144.4375 261.375 C147.9025 260.88 147.9025 260.88 151.4375 260.375 C147.95168144 259.1729936 147.75757656 259.16161563 144.4375 261.375 Z M137.4375 262.375 C141.4375 263.375 141.4375 263.375 141.4375 263.375 Z M219.4375 308.375 C218.14021973 308.6121875 216.84293945 308.849375 215.50634766 309.09375 C214.23194824 309.34125 212.95754883 309.58875 211.64453125 309.84375 C210.48026611 310.06482422 209.31600098 310.28589844 208.11645508 310.51367188 C206.79037231 310.9400293 206.79037231 310.9400293 205.4375 311.375 C204.17572552 315.16032345 204.97452562 317.88387634 205.80859375 321.66015625 C206.13554551 323.21360887 206.46201808 324.76716239 206.78808594 326.32080078 C206.96496948 327.15129944 207.14185303 327.9817981 207.32409668 328.83746338 C210.92155147 345.81596733 213.97093479 362.85972073 216.6875 380 C216.85580322 381.06132141 217.02410645 382.12264282 217.19750977 383.21612549 C219.76143153 399.46807118 222.11155389 415.73890986 224.08374023 432.07397461 C224.39488764 434.52782731 224.39488764 434.52782731 225.4375 437.375 C228.2601451 438.8759795 228.2601451 438.8759795 231.8125 440.203125 C232.47583847 440.46861145 233.13917694 440.7340979 233.82261658 441.00762939 C235.26532833 441.58473492 236.7098714 442.15727809 238.15597534 442.72583008 C242.05448805 444.26226991 245.93529806 445.84208773 249.81640625 447.421875 C251.01784019 447.91022827 251.01784019 447.91022827 252.24354553 448.40844727 C280.14522967 459.80365809 307.53006051 472.95504526 333.4375 488.375 C358.2443628 451.16470579 376.80383122 381.99445083 368.1875 338.25 C365.13151374 326.82203278 360.30116316 317.09539322 349.97265625 310.75 C336.16125386 303.25906989 320.92081167 300.26943447 305.29296875 300.171875 C304.53425476 300.16486069 303.77554077 300.15784637 302.99383545 300.15061951 C300.53749619 300.13313227 298.08139938 300.12675953 295.625 300.125 C294.77914337 300.12432526 293.93328674 300.12365051 293.0617981 300.12295532 C268.10542529 300.15443284 243.92573746 303.69665016 219.4375 308.375 Z M142.4375 328.375 C130.42383529 332.33436854 118.42322842 336.3318097 106.4375 340.375 C105.74372253 340.60892456 105.04994507 340.84284912 104.33514404 341.0838623 C72.55998 351.82107162 41.40958792 364.482672 10.84716797 378.28759766 C7.05152929 380.0004421 3.24430342 381.68714889 -0.5625 383.375 C-0.5625 383.705 -0.5625 384.035 -0.5625 384.375 C0.27369873 384.46475098 1.10989746 384.55450195 1.97143555 384.64697266 C46.5787728 389.50157614 90.17648889 397.53231351 133.64282227 408.64331055 C135.00534874 408.99091934 135.00534874 408.99091934 136.395401 409.34555054 C138.08564414 409.77774194 139.77526979 410.21235977 141.46409607 410.65005493 C147.08676617 412.09071167 152.73658915 413.2860046 158.4375 414.375 C157.83339935 402.27045308 155.76033884 390.48734969 153.6875 378.5625 C153.50797791 377.52018219 153.32845581 376.47786438 153.14349365 375.40396118 C151.0804991 363.43243907 148.99766512 351.46489351 146.5625 339.5625 C146.27681152 338.14457153 146.27681152 338.14457153 145.98535156 336.69799805 C145.11225982 332.08869823 145.11225982 332.08869823 142.4375 328.375 Z M-88.5625 448.375 C-89.51995117 448.57367676 -90.47740234 448.77235352 -91.46386719 448.97705078 C-132.70528533 457.85439571 -170.21914808 476.93071036 -200.5625 506.375 C-201.15417969 506.94089844 -201.74585938 507.50679688 -202.35546875 508.08984375 C-211.24506055 516.61285445 -219.37236953 525.36795694 -226.5625 535.375 C-227.03751953 536.03274414 -227.51253906 536.69048828 -228.00195312 537.36816406 C-261.89132672 584.85347212 -276.50446676 644.03540324 -267.171875 701.79248047 C-261.71869325 733.91197341 -249.80222557 765.91071884 -230.5625 792.375 C-229.87929687 793.33019531 -229.19609375 794.28539062 -228.4921875 795.26953125 C-194.67229538 841.51429413 -143.80088461 876.27070841 -86.5625 885.375 C-65.64384612 889.25898947 -65.64384612 889.25898947 -44.671875 887.88476562 C-42.42351376 887.34141166 -40.32764191 887.15328096 -38.01953125 887.015625 C10.54750421 883.7222043 55.14934635 865.64512885 92.4375 834.375 C93.90703125 833.16457031 93.90703125 833.16457031 95.40625 831.9296875 C104.06303575 824.75095446 112.32711444 817.16358967 120.4375 809.375 C121.03618896 808.80765137 121.63487793 808.24030273 122.25170898 807.65576172 C126.29523021 803.7411898 129.6250929 799.67439422 132.75 795 C133.44875244 793.96516479 133.44875244 793.96516479 134.16162109 792.90942383 C168.5809907 741.33856923 174.67330536 686.39846519 174.625 625.9375 C174.62473312 625.18850433 174.62446625 624.43950867 174.62419128 623.66781616 C174.60633535 583.66467017 172.56026642 544.01743759 169.33984375 504.14453125 C169.26384445 503.20176834 169.18784515 502.25900543 169.10954285 501.28767395 C168.61892737 495.3095081 168.05439128 489.3414364 167.4375 483.375 C112.33307882 461.85932025 50.18370685 451.46003296 -8.5625 446.375 C-9.61977295 446.27928711 -10.6770459 446.18357422 -11.76635742 446.08496094 C-36.79437673 444.03073798 -63.90555702 443.23004733 -88.5625 448.375 Z M233.4375 508.375 C233.85362612 518.00065422 234.31724668 527.62194779 234.9140625 537.23828125 C234.95671234 537.92728012 234.99936218 538.61627899 235.04330444 539.32615662 C235.25423895 542.7196079 235.46910475 546.11272572 235.68896484 549.50561523 C235.95899269 553.79449563 236.20653072 558.08386262 236.4375 562.375 C236.48373505 563.22053436 236.52997009 564.06606873 236.5776062 564.93722534 C237.594698 584.26674968 237.55898663 603.58258163 237.50616455 622.93164062 C237.49573816 627.16991663 237.49132657 631.4081991 237.48632812 635.64648438 C237.47576089 643.88933997 237.4588078 652.13216518 237.4375 660.375 C239.68021022 657.58875474 241.87680716 654.84501321 243.8125 651.8359375 C244.2338623 651.18343018 244.65522461 650.53092285 245.08935547 649.85864258 C245.53424316 649.16279053 245.97913086 648.46693848 246.4375 647.75 C246.91461426 647.00709717 247.39172852 646.26419434 247.88330078 645.4987793 C249.40457146 643.1262212 250.92102107 640.75062294 252.4375 638.375 C253.16598145 637.23973877 253.16598145 637.23973877 253.90917969 636.08154297 C262.06859242 623.36149398 269.8273208 610.4299126 277.4375 597.375 C278.0346582 596.35486816 278.63181641 595.33473633 279.24707031 594.28369141 C288.67490213 578.16602106 297.68894362 561.86854789 306.4375 545.375 C303.97694783 542.62369748 301.2957227 541.0130608 298.08203125 539.22265625 C296.99639893 538.61679687 295.9107666 538.0109375 294.79223633 537.38671875 C293.61181782 536.73638539 292.43106407 536.08666022 291.25 535.4375 C290.65158295 535.10685547 290.05316589 534.77621094 289.43661499 534.43554688 C274.30031455 526.07990453 258.93328745 518.14032803 243.125 511.125 C242.15590698 510.6928418 242.15590698 510.6928418 241.16723633 510.25195312 C238.39701369 509.05771482 236.49224128 508.375 233.4375 508.375 Z M357.4375 582.375 C357.1472998 582.94605469 356.85709961 583.51710938 356.55810547 584.10546875 C349.20593132 598.51767768 341.36416518 612.5526193 333.13378906 626.47900391 C330.98319577 630.15061266 328.88848665 633.85216311 326.79736328 637.55786133 C321.16011793 647.54121707 315.20828046 657.2727282 309.01025391 666.91650391 C307.38263443 669.46076471 305.77346568 672.01594685 304.16796875 674.57421875 C295.25916822 688.73959725 285.94073668 702.60245636 276.4375 716.375 C275.81311035 717.28056641 275.1887207 718.18613281 274.54541016 719.11914062 C266.07455553 731.37796185 257.34217785 743.4282456 248.4375 755.375 C247.78225342 756.25623535 247.78225342 756.25623535 247.11376953 757.15527344 C244.57088693 760.57398051 242.01055091 763.97895119 239.4375 767.375 C238.674375 768.38304687 237.91125 769.39109375 237.125 770.4296875 C230.89736021 778.61220875 224.4394562 786.59881201 217.92578125 794.5546875 C216.62340621 796.14761865 215.32683968 797.7452952 214.03125 799.34375 C205.77941879 809.50904931 197.25542717 819.43738086 188.4609375 829.13671875 C183.34882233 834.79162608 178.38827874 840.57896635 173.4375 846.375 C177.29300232 847.66016744 178.69066265 846.83696657 182.4921875 845.48828125 C183.73218506 845.05064453 184.97218262 844.61300781 186.24975586 844.16210938 C187.60432762 843.67146571 188.95856744 843.17990479 190.3125 842.6875 C191.00022491 842.4402417 191.68794983 842.1929834 192.39651489 841.93823242 C215.56617835 833.60110133 238.2088155 823.9648452 260.4375 813.375 C261.81446045 812.72047852 261.81446045 812.72047852 263.21923828 812.05273438 C278.08710868 804.93387464 292.32340416 796.88145798 306.4375 788.375 C307.20852051 787.91206543 307.97954102 787.44913086 308.77392578 786.97216797 C323.39861667 778.15055442 337.4358336 768.46629316 350.4375 757.375 C351.5685581 756.42914636 352.70009642 755.48386676 353.83203125 754.5390625 C378.62106043 733.72614225 401.79251338 707.57405167 406.4375 674.375 C408.65399329 645.40877261 394.54027405 621.4927866 376.4375 600.1875 C368.06416785 589.90091012 368.06416785 589.90091012 357.4375 582.375 Z " fill="#000000" transform="translate(331.5625,-0.375)"/>
</svg>
