<?xml version="1.0" encoding="UTF-8"?>
<svg version="1.1" xmlns="http://www.w3.org/2000/svg" width="820" height="820">
<path d="M0 0 C1.42302538 0.66438753 2.84618543 1.32848674 4.26953125 1.9921875 C22.82351755 10.79587666 40.11641286 22.02112806 56 35 C56.57363281 35.46470703 57.14726563 35.92941406 57.73828125 36.40820312 C69.55398903 46.02403089 81.30260238 56.22142572 91 68 C92.18722656 69.33804688 92.18722656 69.33804688 93.3984375 70.703125 C129.12381637 111.17098422 151.09878483 165.05301965 153 219 C153.061875 220.72476563 153.061875 220.72476563 153.125 222.484375 C153.93947489 269.1130627 139.24001559 314.31479066 106.8828125 348.296875 C101.94382053 353.39064146 97.01360124 358.17316285 91 362 C94.16287543 365.26830461 97.46178121 368.30512125 100.875 371.3125 C105.30328963 375.29012299 109.25811585 379.37627054 113 384 C114.17369141 385.43472656 114.17369141 385.43472656 115.37109375 386.8984375 C134.89435212 411.20588853 143.20586146 438.91925922 141 470 C139.62843734 482.37006513 136.19607615 493.72715683 131 505 C130.49855469 506.134375 129.99710938 507.26875 129.48046875 508.4375 C122.68966477 522.97742094 113.00158774 535.41938132 102 547 C100.84763825 548.3486155 99.70130164 549.70241463 98.5625 551.0625 C41.68277661 615.76970826 -62.70810843 640.68000549 -145 648 C-146.13147461 648.10296387 -147.26294922 648.20592773 -148.42871094 648.31201172 C-184.72740909 651.46041894 -221.71900765 651.2508925 -258 648 C-259.63557861 647.86319824 -259.63557861 647.86319824 -261.30419922 647.72363281 C-308.54954534 643.64397105 -369.24825914 632.4812993 -404 598 C-404.59039062 597.18273437 -405.18078125 596.36546875 -405.7890625 595.5234375 C-408.63375223 592.27667149 -411.70398732 590.71005612 -415.5 588.75 C-422.90013928 584.75521967 -429.45745189 580.31462119 -436 575 C-436.77601563 574.38898437 -437.55203125 573.77796875 -438.3515625 573.1484375 C-453.84670667 560.28144499 -465.45582625 541.12006192 -468 521 C-470.08190426 496.41847986 -463.72728107 469.38381815 -447.7734375 450.0859375 C-447.18820312 449.39757812 -446.60296875 448.70921875 -446 448 C-445.45601562 447.31164062 -444.91203125 446.62328125 -444.3515625 445.9140625 C-439.18262941 439.58029942 -432.57233616 434.22960921 -425 431 C-424.01 431 -423.02 431 -422 431 C-421.82460693 431.56807373 -421.64921387 432.13614746 -421.46850586 432.72143555 C-414.97884002 453.51905917 -407.12857421 472.95625477 -387 484 C-377.49518035 488.55922243 -367.66229538 491.61142441 -357.30810547 493.54785156 C-355.71176974 493.86056721 -354.12211711 494.20871278 -352.53955078 494.58496094 C-342.50519841 497.08734831 -342.50519841 497.08734831 -332.76806641 494.81591797 C-328.52180808 491.67686979 -325.04083791 487.92315188 -321.64428711 483.90112305 C-319.9634696 481.95776359 -318.19484099 480.16437884 -316.359375 478.3671875 C-313.53813759 475.58440903 -311.00443542 472.68989098 -308.5625 469.5625 C-307.88316406 468.69753906 -307.20382812 467.83257813 -306.50390625 466.94140625 C-306.00761719 466.30074219 -305.51132812 465.66007812 -305 465 C-305.60247559 464.98541748 -306.20495117 464.97083496 -306.82568359 464.95581055 C-352.07186759 463.74071565 -392.66223025 449.9813801 -424.5234375 416.8203125 C-429.65782598 411.2950516 -433.98895995 405.37679166 -438 399 C-438.38349609 398.39639648 -438.76699219 397.79279297 -439.16210938 397.17089844 C-449.67570831 380.34385693 -456.19740037 361.41094464 -460 342 C-460.16371094 341.16919922 -460.32742188 340.33839844 -460.49609375 339.48242188 C-467.46223403 301.7443644 -463.54964777 261.82320155 -454 225 C-453.66210449 223.68636475 -453.66210449 223.68636475 -453.31738281 222.34619141 C-439.82626944 171.07391078 -409.51345497 121.96029001 -374 83 C-373.37383789 82.31212402 -372.74767578 81.62424805 -372.10253906 80.91552734 C-370.13941256 78.76893562 -368.16636188 76.63208961 -366.1875 74.5 C-365.58945557 73.85329346 -364.99141113 73.20658691 -364.37524414 72.5402832 C-360.72475335 68.65411443 -356.90959267 65.08426045 -352.86401367 61.61230469 C-350.35648651 59.44338401 -347.96831192 57.1556954 -345.5625 54.875 C-338.15683359 48.00337872 -330.11984336 41.99417265 -322 36 C-321.3287207 35.49855469 -320.65744141 34.99710937 -319.96582031 34.48046875 C-302.87546301 21.76128285 -284.28542254 11.0299949 -265 2 C-264.26990723 1.65163086 -263.53981445 1.30326172 -262.78759766 0.94433594 C-178.18559769 -39.29168751 -84.37303091 -40.27973703 0 0 Z " fill="#C4F854" transform="translate(623,100)"/>
<path d="M0 0 C13.98898541 -0.33131087 27.77049306 0.49855428 41.67041016 2.06201172 C42.46592285 2.14789551 43.26143555 2.2337793 44.08105469 2.32226562 C89.75006013 7.5139252 136.57236209 29.74385751 171.67041016 59.06201172 C172.25129395 59.54138184 172.83217773 60.02075195 173.43066406 60.51464844 C185.73172929 70.688941 196.82139668 81.4664705 206.67041016 94.06201172 C207.44771484 95.01076172 208.22501953 95.95951172 209.02587891 96.93701172 C241.40956929 137.30078479 257.68358689 190.05993056 252.17431641 241.60888672 C251.56692992 246.14620565 250.69715682 250.60233356 249.67041016 255.06201172 C249.42097656 256.17310303 249.42097656 256.17310303 249.16650391 257.30664062 C243.32423877 282.50952326 230.35128181 307.85883337 209.67041016 324.06201172 C208.50832031 324.9959375 208.50832031 324.9959375 207.32275391 325.94873047 C185.21157853 342.92397672 159.93986049 349.52900338 132.35791016 349.18701172 C130.92367172 349.17694689 129.48942633 349.16782732 128.05517578 349.15966797 C124.59343901 349.13796621 121.13197163 349.10363627 117.67041016 349.06201172 C117.90228027 349.74191162 118.13415039 350.42181152 118.37304688 351.12231445 C119.43538303 354.24641096 120.49043693 357.37292152 121.54541016 360.49951172 C122.09261719 362.10342773 122.09261719 362.10342773 122.65087891 363.73974609 C128.71937213 381.77972141 130.25432854 398.21182214 122.67041016 416.06201172 C108.61903087 444.27426156 76.98463937 459.32087782 48.67041016 469.06201172 C30.11933806 475.18089997 11.2354861 479.51550122 -8.32958984 480.06201172 C-5.69695987 477.2383519 -3.33544814 475.34901792 0.10791016 473.62451172 C28.103169 458.83669354 69.14400726 436.93857643 79.67041016 405.06201172 C80.00041016 404.07201172 80.33041016 403.08201172 80.67041016 402.06201172 C82.32803883 380.30389422 80.20936129 356.52658669 66.18994141 338.95263672 C53.84830662 324.64237041 37.50875058 315.83109811 18.61621094 313.84619141 C-2.2440889 312.45517117 -21.60893001 319.52797368 -37.32958984 333.06201172 C-38.11720703 333.73748047 -38.90482422 334.41294922 -39.71630859 335.10888672 C-64.93778305 358.52568325 -73.3450621 397.09063663 -76.10839844 429.91137695 C-76.42509759 432.99062954 -77.03012889 435.9794612 -77.68115234 439.00341797 C-78.19010632 441.40408643 -78.65672989 443.80186377 -79.10302734 446.21435547 C-82.19064664 462.43935769 -86.90517578 478.73082458 -95.32958984 493.06201172 C-95.71630859 493.80451172 -96.10302734 494.54701172 -96.50146484 495.31201172 C-100.68587548 499.31760139 -109.47655461 498.22175033 -115.06396484 498.22998047 C-115.86441223 498.23330887 -116.66485962 498.23663727 -117.48956299 498.24006653 C-119.16686433 498.24509274 -120.84417551 498.2474762 -122.52148438 498.24731445 C-125.08659052 498.24951773 -127.65127734 498.26776417 -130.21630859 498.28662109 C-131.85302588 498.28955259 -133.4897452 498.29153902 -135.12646484 498.29248047 C-135.8900531 498.29966599 -136.65364136 498.3068515 -137.44036865 498.31425476 C-141.2220142 498.29797432 -144.1231159 498.18685336 -147.32958984 496.06201172 C-146.56775391 495.35818359 -145.80591797 494.65435547 -145.02099609 493.92919922 C-137.35381096 486.66843723 -131.5762084 479.20942282 -126.32958984 470.06201172 C-125.79978516 469.16740234 -125.26998047 468.27279297 -124.72412109 467.35107422 C-117.29099352 453.76020825 -113.24772949 437.96706189 -109.32958984 423.06201172 C-111.02692261 423.27422363 -111.02692261 423.27422363 -112.75854492 423.49072266 C-124.00192733 424.82603227 -135.08209521 425.37783949 -146.40112305 425.32275391 C-149.02659951 425.31197267 -151.65139861 425.32276467 -154.27685547 425.33544922 C-164.79483616 425.34449454 -174.93135893 424.68341088 -185.32958984 423.06201172 C-186.25682861 422.92134277 -187.18406738 422.78067383 -188.1394043 422.63574219 C-210.99606862 418.93784017 -233.83108394 410.60196926 -251.32958984 395.06201172 C-252.02181641 394.49998047 -252.71404297 393.93794922 -253.42724609 393.35888672 C-274.59976779 375.89869542 -285.44431128 347.20457422 -288.98974609 320.65576172 C-289.26374843 317.75826572 -289.43749565 314.96798352 -289.39208984 312.06201172 C-289.38306641 311.29888672 -289.37404297 310.53576172 -289.36474609 309.74951172 C-289.35314453 309.19263672 -289.34154297 308.63576172 -289.32958984 308.06201172 C-287.8391731 310.92772336 -286.61663733 313.80921295 -285.48974609 316.83544922 C-285.14878906 317.74294922 -284.80783203 318.65044922 -284.45654297 319.58544922 C-283.74994486 321.47835425 -283.04420804 323.37158102 -282.33935547 325.26513672 C-281.99710938 326.17521484 -281.65486328 327.08529297 -281.30224609 328.02294922 C-280.99552979 328.84585449 -280.68881348 329.66875977 -280.37280273 330.51660156 C-279.17184074 333.44691509 -277.77401559 336.24488203 -276.32958984 339.06201172 C-275.21849854 339.04106445 -274.10740723 339.02011719 -272.96264648 338.99853516 C-251.74451883 338.63420429 -231.13460942 338.30802959 -210.32958984 343.06201172 C-209.49459961 343.24393066 -208.65960938 343.42584961 -207.79931641 343.61328125 C-180.27561187 349.72177498 -149.4215223 361.53872767 -132.70458984 385.56201172 C-131.32958984 388.06201172 -131.32958984 388.06201172 -131.32958984 390.06201172 C-130.56291992 389.91054688 -129.79625 389.75908203 -129.00634766 389.60302734 C-125.53151472 388.9187979 -122.05557879 388.24034289 -118.57958984 387.56201172 C-117.37302734 387.32353516 -116.16646484 387.08505859 -114.92333984 386.83935547 C-113.76318359 386.61376953 -112.60302734 386.38818359 -111.40771484 386.15576172 C-110.3394043 385.94628906 -109.27109375 385.73681641 -108.17041016 385.52099609 C-105.32958984 385.06201172 -105.32958984 385.06201172 -101.32958984 385.06201172 C-101.20841797 383.78068359 -101.08724609 382.49935547 -100.96240234 381.17919922 C-97.07249581 346.46822144 -80.66469864 313.69019816 -53.36083984 291.66748047 C-51.41027437 290.21242155 -49.44640411 288.77504318 -47.47021484 287.35498047 C-43.95000337 284.78487582 -40.58254533 282.06425554 -37.20458984 279.31201172 C-32.43179449 275.43210309 -27.56280548 271.7737019 -22.52172852 268.24926758 C-7.71586591 257.86753587 3.10198431 246.39545158 12.67041016 231.06201172 C13.05648438 230.45615234 13.44255859 229.85029297 13.84033203 229.22607422 C22.96860949 214.734736 28.67270885 198.46306425 34.79541016 182.54638672 C44.86907175 156.50521974 58.8390639 133.26099867 79.04541016 113.81201172 C86.77028939 106.27372378 90.74756806 99.00619359 91.04541016 88.24951172 C91.11466068 74.50074986 85.63509894 61.6815003 76.38525391 51.56201172 C68.07365672 43.55337291 58.6296908 40.05041583 47.67041016 37.06201172 C47.54537109 38.33431641 47.42033203 39.60662109 47.29150391 40.91748047 C42.61876732 82.47001329 22.27240407 124.96233487 -1.32958984 159.06201172 C-1.74805176 159.6757666 -2.16651367 160.28952148 -2.59765625 160.921875 C-8.6480994 169.77681541 -15.26451241 177.9996351 -22.32958984 186.06201172 C-23.02181641 186.86638672 -23.71404297 187.67076172 -24.42724609 188.49951172 C-59.08856007 228.03611649 -105.30147957 252.44266806 -158.32958984 256.06201172 C-189.23994461 257.21143934 -221.97756992 254.71474034 -247.32958984 235.06201172 C-249.12612887 233.13390503 -250.71475761 231.15108836 -252.32958984 229.06201172 C-248.21766764 230.39378354 -244.21375265 231.88680337 -240.20458984 233.49951172 C-211.77124936 244.49027845 -178.05242067 242.23318574 -149.32958984 233.06201172 C-148.5682373 232.81966797 -147.80688477 232.57732422 -147.02246094 232.32763672 C-106.78716859 219.30681635 -71.2532199 194.62811898 -45.32958984 161.06201172 C-44.31296361 159.77401378 -43.29601313 158.48627174 -42.27880859 157.19873047 C-29.43921615 140.82099825 -18.91780295 123.52067622 -9.32958984 105.06201172 C-8.91966797 104.27632813 -8.50974609 103.49064453 -8.08740234 102.68115234 C3.52188022 80.14434038 12.2368641 55.0510895 16.67041016 30.06201172 C-9.32816316 27.3772907 -35.65517334 28.24906975 -61.32958984 33.06201172 C-62.23386719 33.22797852 -63.13814453 33.39394531 -64.06982422 33.56494141 C-124.10758752 45.05421544 -186.78068942 78.82562011 -226.32958984 126.06201172 C-227.80402599 127.73286475 -229.28325728 129.39949774 -230.76708984 131.06201172 C-231.44642578 131.82513672 -232.12576172 132.58826172 -232.82568359 133.37451172 C-233.32197266 133.93138672 -233.81826172 134.48826172 -234.32958984 135.06201172 C-234.32958984 131.00303645 -232.32794711 128.83673889 -230.01708984 125.68701172 C-229.56922119 125.06922852 -229.12135254 124.45144531 -228.65991211 123.81494141 C-223.86803912 117.2928775 -218.69153741 111.12164446 -213.32958984 105.06201172 C-212.67087891 104.3157251 -212.01216797 103.56943848 -211.33349609 102.80053711 C-199.65590189 89.68757195 -187.36996784 76.66789726 -173.32958984 66.06201172 C-172.36794922 65.29501953 -171.40630859 64.52802734 -170.41552734 63.73779297 C-143.83671206 42.60878678 -113.49258584 25.90933607 -81.32958984 15.06201172 C-80.6512207 14.83175293 -79.97285156 14.60149414 -79.27392578 14.36425781 C-74.65762539 12.81526288 -70.01173814 11.3980517 -65.32958984 10.06201172 C-64.23952637 9.74901123 -64.23952637 9.74901123 -63.12744141 9.4296875 C-42.59673346 3.64694439 -21.30882547 0.56722298 0 0 Z " fill="#181818" transform="translate(486.32958984375,105.93798828125)"/>
<path d="M0 0 C14.04450818 2.46854436 24.95868186 8.2121049 34 19.49609375 C42.02993223 31.14295667 45.63353069 43.93882402 44 58 C42.3372727 66.71070572 36.4770214 72.3676906 30.4921875 78.4765625 C8.48133363 100.94837666 -5.31897858 127.19307411 -16.21496582 156.48452759 C-19.9002993 166.36986108 -23.90917862 175.76695751 -29 185 C-29.63973823 186.20290422 -30.2790569 187.40603165 -30.91796875 188.609375 C-40.56825229 206.46143064 -53.72872567 221.10264548 -70.4609375 232.5390625 C-74.11641989 235.04400653 -77.5950928 237.74263384 -81.0625 240.5 C-85.04399415 243.66607437 -89.04017712 246.80257314 -93.09692383 249.87182617 C-99.35448532 254.61559565 -105.2701904 259.62766515 -111 265 C-111.88365234 265.76957031 -111.88365234 265.76957031 -112.78515625 266.5546875 C-135.18674596 286.9968001 -143.42554746 319.50965767 -149 348 C-153.24882398 348.83940617 -157.49923705 349.67047347 -161.75 350.5 C-162.9565625 350.73847656 -164.163125 350.97695313 -165.40625 351.22265625 C-166.56640625 351.44824219 -167.7265625 351.67382812 -168.921875 351.90625 C-169.99018555 352.11572266 -171.05849609 352.32519531 -172.15917969 352.54101562 C-175 353 -175 353 -179 353 C-180.60546875 351.12890625 -180.60546875 351.12890625 -182.1875 348.5625 C-198.92833447 323.50411409 -231.27160548 312.37602093 -259.56323242 306.71337891 C-270.66990678 304.6099198 -281.43178743 302.83406303 -292.75 302.90234375 C-294.09807739 302.90446617 -294.09807739 302.90446617 -295.47338867 302.90663147 C-298.31562775 302.91218417 -301.15778513 302.92472763 -304 302.9375 C-305.93880094 302.94252112 -307.87760312 302.94708295 -309.81640625 302.95117188 C-314.54430183 302.96213806 -319.27213711 302.97936956 -324 303 C-328.04759846 295.21330479 -331.82388625 287.61502316 -334.375 279.1875 C-335.5512247 274.21269194 -335.5512247 274.21269194 -338 270 C-340.57305799 232.10684111 -333.25945106 193.71409863 -318 159 C-317.67 159 -317.34 159 -317 159 C-316.78085937 159.96679688 -316.56171875 160.93359375 -316.3359375 161.9296875 C-313.64343877 173.22306229 -310.22549131 182.10902027 -300.734375 189.4296875 C-298.82237428 191.16082329 -298.13224267 192.70876877 -297 195 C-278.80073203 213.64315256 -247.55782407 217.93975358 -222.85571289 218.24121094 C-209.95111778 218.27631752 -197.68456032 217.33188856 -185 215 C-184.21641113 214.86609863 -183.43282227 214.73219727 -182.62548828 214.59423828 C-156.14571426 210.03638025 -129.91287748 199.62552644 -108 184 C-106.93523437 183.25105469 -105.87046875 182.50210938 -104.7734375 181.73046875 C-96.93813148 176.0014651 -90.06061479 169.33639236 -83.1875 162.5 C-82.31601318 161.63407227 -81.44452637 160.76814453 -80.54663086 159.87597656 C-74.6233922 153.88680517 -69.22580296 147.60293884 -64 141 C-63.51184814 140.3915625 -63.02369629 139.783125 -62.52075195 139.15625 C-30.23912752 98.74202902 -9.74801249 50.53264999 0 0 Z " fill="#FE3E8E" transform="translate(534,143)"/>
<path d="M0 0 C28.27897064 8.63840897 55.62187077 32.68879824 70 58 C79.38222361 76.36669708 80.19638313 95.59763056 74 115 C60.83157548 152.88779019 26.32830104 177.75899088 -7 197 C-7.6398584 197.37366699 -8.2797168 197.74733398 -8.93896484 198.13232422 C-77.5455342 237.88797564 -164.00568676 248.30170633 -322 240 C-318.38462459 237.58974973 -315.46454763 237.53089381 -311.265625 237.2890625 C-309.65892247 237.18020588 -308.05223358 237.07114769 -306.44555664 236.96191406 C-305.59897491 236.90749146 -304.75239319 236.85306885 -303.88015747 236.79699707 C-234.34760434 232.24997068 -168.75751053 215.70627004 -113 172 C-112.01515625 171.23945312 -111.0303125 170.47890625 -110.015625 169.6953125 C-108.00316023 168.13908974 -105.99727523 166.57562824 -104 165 C-104.91136719 165.46148438 -105.82273437 165.92296875 -106.76171875 166.3984375 C-110.35119795 168.20993272 -113.95080805 170.00052713 -117.55371094 171.78515625 C-119.16578889 172.5857251 -120.77587419 173.39032098 -122.38378906 174.19921875 C-162.90218108 194.53244349 -207.59371373 205.96268609 -252.4375 211.6875 C-253.37158691 211.80697998 -254.30567383 211.92645996 -255.26806641 212.04956055 C-288.50709152 216.06557924 -324.97743896 216.84866827 -358 211 C-359.1741748 210.79600586 -360.34834961 210.59201172 -361.55810547 210.38183594 C-392.054149 204.92661347 -430.1649206 195.93254245 -449.828125 169.546875 C-457.53897021 158.20739675 -460.65949322 146.61592306 -459 133 C-457.66411782 126.71157903 -456.15959382 121.00581491 -452 116 C-451.84144531 116.90621094 -451.68289063 117.81242188 -451.51953125 118.74609375 C-449.02284362 131.78128609 -444.32049844 141.53072946 -433.5 149.5 C-372.90911521 189.80375818 -279.73101658 176.05892526 -212.77392578 163.13183594 C-208.15797083 162.1844317 -203.57683458 161.12012822 -199 160 C-197.91138672 159.73670898 -196.82277344 159.47341797 -195.70117188 159.20214844 C-131.44927701 143.43252178 -66.95834969 117.68693923 -18 72 C-16.86994766 75.39015702 -17.08765662 75.94663606 -18.30078125 79.1484375 C-18.61321777 79.97827148 -18.9256543 80.80810547 -19.24755859 81.66308594 C-19.59898926 82.55801758 -19.95041992 83.45294922 -20.3125 84.375 C-20.85511475 85.77153809 -20.85511475 85.77153809 -21.40869141 87.19628906 C-34.13088545 119.33941201 -52.18259477 147.93067405 -76 173 C-76.50692383 173.53560547 -77.01384766 174.07121094 -77.53613281 174.62304688 C-85.43999142 182.91642815 -93.82734876 190.14908879 -103 197 C-104.47269293 198.10541988 -105.94534878 199.21088917 -107.41796875 200.31640625 C-108.61186582 201.21108877 -109.80583491 202.10567524 -111 203 C-59.51399672 181.09023074 -1.37144624 153.57481329 22 99 C30.33553241 75.87398019 29.18167326 51.82268589 19.01953125 29.55078125 C14.51196539 20.25666945 8.67483285 12.10323898 2.30859375 4 C0 1 0 1 0 0 Z " fill="#191918" transform="translate(650,467)"/>
<path d="M0 0 C15.04856392 12.81640272 23.06654134 28.96131735 25.296875 48.484375 C25.43044387 50.461775 25.52912525 52.44159437 25.609375 54.421875 C25.64192383 55.16421387 25.67447266 55.90655273 25.70800781 56.67138672 C26.47220317 76.40538109 26.47220317 76.40538109 21.609375 85.421875 C21.135 86.31777344 20.660625 87.21367188 20.171875 88.13671875 C6.18923073 112.10216434 -22.7924784 127.2507379 -45.90234375 141.0859375 C-49.09298776 143.00216539 -52.22545187 144.9516131 -55.28515625 147.0703125 C-66.54557042 154.73228307 -79.24666313 157.44216923 -92.390625 160.421875 C-93.93484131 160.77741455 -93.93484131 160.77741455 -95.51025391 161.14013672 C-108.27159854 164.02611635 -121.11156033 166.05587067 -134.078125 167.734375 C-134.75201263 167.82181976 -135.42590027 167.90926453 -136.12020874 167.99935913 C-142.24048247 168.78374513 -148.21177354 169.52595088 -154.390625 169.421875 C-153.25848542 167.12429761 -152.08768548 164.85815764 -150.875 162.6015625 C-143.21078703 147.99812967 -138.88976396 132.85676809 -135.82885742 116.69873047 C-135.52645399 115.12758039 -135.21067179 113.55896682 -134.8840332 111.99267578 C-133.84201786 106.98924348 -133.02641865 102.01287005 -132.40332031 96.94067383 C-128.10782724 62.01883112 -119.29255072 26.28742663 -91.390625 2.421875 C-64.74734905 -18.11703442 -27.27891937 -21.67498552 0 0 Z " fill="#FEFEFE" transform="translate(542.390625,433.578125)"/>
<path d="M0 0 C14.04450818 2.46854436 24.95868186 8.2121049 34 19.49609375 C42.02993223 31.14295667 45.63353069 43.93882402 44 58 C42.3372727 66.71070572 36.4770214 72.3676906 30.4921875 78.4765625 C8.48133363 100.94837666 -5.31897858 127.19307411 -16.21496582 156.48452759 C-19.9002993 166.36986108 -23.90917862 175.76695751 -29 185 C-29.63973823 186.20290422 -30.2790569 187.40603165 -30.91796875 188.609375 C-40.56825229 206.46143064 -53.72872567 221.10264548 -70.4609375 232.5390625 C-74.11641989 235.04400653 -77.5950928 237.74263384 -81.0625 240.5 C-85.04399415 243.66607437 -89.04017712 246.80257314 -93.09692383 249.87182617 C-99.35448532 254.61559565 -105.2701904 259.62766515 -111 265 C-111.58910156 265.51304687 -112.17820312 266.02609375 -112.78515625 266.5546875 C-135.21138023 287.01927959 -143.37239291 319.49889312 -149 348 C-152.3 348.66 -155.6 349.32 -159 350 C-159.11085938 348.69546875 -159.22171875 347.3909375 -159.3359375 346.046875 C-159.87798455 341.21566817 -161.05253116 336.8386398 -162.625 332.25 C-162.89006348 331.47213135 -163.15512695 330.6942627 -163.42822266 329.89282227 C-169.09162332 313.84211736 -177.48689436 303.37232619 -191.12548828 293.4543457 C-197.95448055 288.43350079 -205.42898101 282.35581172 -208 274 C-208.79324417 266.34870815 -208.9342585 259.23065886 -204 253 C-196.79390939 245.31255952 -189.11078498 241.28045017 -179 238.8125 C-135.00067438 227.20383043 -96.21317553 201.52290067 -69.2265625 164.67089844 C-68.01342434 163.01828746 -66.77461088 161.38775631 -65.53125 159.7578125 C-54.89737555 145.60175645 -46.75836412 129.89379961 -39.0625 114 C-38.26525513 112.35511597 -38.26525513 112.35511597 -37.4519043 110.67700195 C-33.0400575 101.40688396 -28.65167469 92.18008385 -27 82 C-25.87014831 79.42754466 -24.69852694 76.94262534 -23.4375 74.4375 C-11.9110974 50.67573994 -4.98641644 25.84904739 0 0 Z " fill="#C81C64" transform="translate(534,143)"/>
<path d="M0 0 C-0.781658 4.07729712 -1.82827534 8.01613614 -3 12 C-2.01 12 -1.02 12 0 12 C0 12.66 0 13.32 0 14 C-1.20527344 14.06316406 -2.41054688 14.12632812 -3.65234375 14.19140625 C-41.55998302 16.33427364 -41.55998302 16.33427364 -75 30 C-74.31292969 30.31453125 -73.62585938 30.6290625 -72.91796875 30.953125 C-72.01691406 31.38109375 -71.11585938 31.8090625 -70.1875 32.25 C-69.29417969 32.66765625 -68.40085937 33.0853125 -67.48046875 33.515625 C-64.7473726 35.1511786 -63.62352426 36.27632252 -62 39 C-61.64355469 41.84643555 -61.64355469 41.84643555 -61.671875 45.13671875 C-61.67590332 46.34424805 -61.67993164 47.55177734 -61.68408203 48.79589844 C-61.70583496 50.08012695 -61.72758789 51.36435547 -61.75 52.6875 C-61.76595539 54.02505931 -61.78141482 55.36262463 -61.79638672 56.70019531 C-61.83266964 59.31962982 -61.87719202 61.93896547 -61.93066406 64.55810547 C-61.98424897 67.21810535 -62.01198991 69.87486361 -62.0234375 72.53515625 C-62.2955184 82.48703826 -64.09050776 92.21785046 -65.8125 102 C-65.99948456 103.08504822 -65.99948456 103.08504822 -66.19024658 104.1920166 C-69.64175664 123.98577182 -69.64175664 123.98577182 -75.40234375 129.15625 C-76.23894531 129.5996875 -77.07554687 130.043125 -77.9375 130.5 C-78.77152344 130.9640625 -79.60554687 131.428125 -80.46484375 131.90625 C-87.83653735 135.08664169 -97.24648106 135.33555439 -104.75 132.5 C-105.8225 132.005 -106.895 131.51 -108 131 C-108 130.67 -108 130.34 -108 130 C-107.13117188 129.90203125 -106.26234375 129.8040625 -105.3671875 129.703125 C-96.37576547 128.74945646 -96.37576547 128.74945646 -89 124 C-75.15309831 104.05036048 -74.86423688 72.13716149 -74.6875 48.9375 C-74.65849609 47.63361328 -74.62949219 46.32972656 -74.59960938 44.98632812 C-74.59123047 43.74173828 -74.58285156 42.49714844 -74.57421875 41.21484375 C-74.55963623 40.09198975 -74.54505371 38.96913574 -74.5300293 37.81225586 C-74.73517394 34.90078872 -74.73517394 34.90078872 -76.8737793 33.14086914 C-81.04807878 30.90105958 -85.4171599 31.3505114 -90 32 C-94.88355915 33.69771799 -98.83681843 35.96941777 -102.70703125 39.3984375 C-106.51039857 42.63433544 -110.84232224 44.42581551 -115.375 46.4375 C-123.76143007 50.29137107 -131.789914 54.57971178 -139.75 59.25 C-140.73661621 59.82806396 -141.72323242 60.40612793 -142.73974609 61.00170898 C-148.61993877 64.48810194 -154.35620036 68.14287809 -160 72 C-159.39599365 72.44102051 -158.7919873 72.88204102 -158.16967773 73.33642578 C-152.125 77.75 -152.125 77.75 -151 80 C-150.7175754 85.20089182 -150.75404874 90.41694972 -150.75 95.625 C-150.74932526 96.39430847 -150.74865051 97.16361694 -150.74795532 97.95623779 C-150.77316649 116.06916486 -152.93240335 133.3691078 -156.5 151.125 C-156.70133545 152.12740723 -156.9026709 153.12981445 -157.11010742 154.16259766 C-159.65116938 166.04127237 -159.65116938 166.04127237 -164.234375 169.86328125 C-169.21101447 172.73025834 -173.14407189 174.79452884 -179 175 C-179.86753906 175.04898438 -180.73507812 175.09796875 -181.62890625 175.1484375 C-187.59720199 175.35956089 -191.72134702 174.81528159 -197 172 C-197 171.67 -197 171.34 -197 171 C-195.93072266 170.96132813 -195.93072266 170.96132813 -194.83984375 170.921875 C-193.88207031 170.86515625 -192.92429687 170.8084375 -191.9375 170.75 C-190.99777344 170.70359375 -190.05804688 170.6571875 -189.08984375 170.609375 C-183.51244384 169.50940738 -180.08966653 167.45351711 -176.7421875 162.98828125 C-176.0892503 161.77902004 -175.46836945 160.55207749 -174.875 159.3125 C-174.54226074 158.62969971 -174.20952148 157.94689941 -173.86669922 157.2434082 C-169.28177662 147.06790256 -167.68719535 135.9532361 -166 125 C-165.86867676 124.17661133 -165.73735352 123.35322266 -165.60205078 122.50488281 C-164.05988323 112.41266149 -163.77103588 102.25686369 -163.65054321 92.06210327 C-163.6336031 90.69452804 -163.6110186 89.32701033 -163.58261108 87.95962524 C-163.54698305 86.03585862 -163.54242086 84.11159358 -163.5390625 82.1875 C-163.53084473 81.06730469 -163.52262695 79.94710937 -163.51416016 78.79296875 C-163.73950067 75.89692936 -163.73950067 75.89692936 -165.88525391 74.13818359 C-170.28206787 71.77176167 -175.46907319 72.42519444 -180.21875 73.50390625 C-184.97122275 75.10329612 -188.47067573 77.35154242 -192 81 C-192.390049 84.42659873 -192.336798 87.36193209 -191.97070312 90.765625 C-191.90779905 93.18859687 -192.0818819 94.74061754 -193 97 C-195.45515234 99.48751674 -198.08775919 101.51021621 -200.88305664 103.60742188 C-206.06089867 107.58195402 -210.53578593 112.24705838 -215.125 116.875 C-216.04925781 117.79152344 -216.97351563 118.70804687 -217.92578125 119.65234375 C-224.04730771 125.79113826 -229.62318056 132.20363477 -235 139 C-235.8924703 140.09567065 -236.7855482 141.19084719 -237.6796875 142.28515625 C-244.6021038 151.04287509 -250.32482911 160.40006043 -256 170 C-256.99905197 171.66723512 -257.99854223 173.33420886 -259 175 C-260.33702818 172.32594365 -259.70180459 171.45599153 -258.76953125 168.65234375 C-249.96596058 142.3355866 -238.09474508 116.45809702 -219.27734375 95.76171875 C-216.9030975 93.10246616 -216.9030975 93.10246616 -215.5234375 89.96484375 C-213.71912795 86.45337978 -211.63916026 84.48715942 -208.6875 81.875 C-208.16043457 81.40690918 -207.63336914 80.93881836 -207.09033203 80.45654297 C-205.96868396 79.46453096 -204.84293064 78.47714373 -203.71337891 77.49414062 C-202.04033302 76.03517214 -200.38464869 74.55841541 -198.73046875 73.078125 C-144.5915967 25.11312373 -72.20532484 -2.08153725 0 0 Z " fill="#E7FDCB" transform="translate(483,134)"/>
<path d="M0 0 C6.86515862 -0.26404456 13.25846717 0.74158054 20 2 C15.43322224 49.71816765 -12.11982118 97.55594457 -42 134 C-42.46486816 134.56928223 -42.92973633 135.13856445 -43.40869141 135.72509766 C-54.3316254 149.01622867 -66.248937 161.60427395 -80 172 C-81.00675781 172.7734375 -82.01351562 173.546875 -83.05078125 174.34375 C-109.12889197 193.93163868 -140.59479778 207.69695987 -173 212 C-173.65822754 212.0935376 -174.31645508 212.1870752 -174.99462891 212.28344727 C-181.90185159 213.1771832 -188.79376604 213.18376811 -195.75 213.1875 C-196.9359375 213.19974609 -198.121875 213.21199219 -199.34375 213.22460938 C-207.40606659 213.23781186 -215.07234736 212.45813953 -223 211 C-223.33 210.01 -223.66 209.02 -224 208 C-226.20615997 206.13922711 -228.5266966 204.4985018 -230.87109375 202.81640625 C-233.02381354 200.97968203 -233.95535285 199.59734674 -235 197 C-233.63875 197.185625 -233.63875 197.185625 -232.25 197.375 C-231.59515625 197.46394531 -230.9403125 197.55289063 -230.265625 197.64453125 C-228.72616279 197.88606756 -227.19383959 198.17719298 -225.671875 198.51171875 C-188.16643846 206.2431026 -149.10001478 192.75127106 -117.95556641 172.3125 C-108.41689176 165.91051312 -99.6438495 158.54626042 -91 151 C-90.24275635 150.33967773 -90.24275635 150.33967773 -89.47021484 149.66601562 C-84.20965531 145.0520342 -79.20955339 140.38017165 -74.7109375 135.015625 C-73.54373126 133.64056012 -72.33820058 132.29734876 -71.1015625 130.984375 C-57.81998233 116.86343846 -46.92614729 100.59185413 -37 84 C-36.61183105 83.35740234 -36.22366211 82.71480469 -35.82373047 82.05273438 C-22.99135085 60.64848338 -12.88290275 37.64870825 -5 14 C-3.35 14 -1.7 14 0 14 C0 13.34 0 12.68 0 12 C-0.99 12 -1.98 12 -3 12 C-2.49202991 7.6822542 -1.80317221 3.96697886 0 0 Z " fill="#67B700" transform="translate(483,134)"/>
<path d="M0 0 C0.99 0.495 0.99 0.495 2 1 C1.34515625 1.52464844 0.6903125 2.04929688 0.015625 2.58984375 C-22.55798934 21.75190903 -35.8269118 52.60325572 -38.82275391 81.74462891 C-39.97368442 96.38966486 -39.1520091 110.6686689 -36 125 C-35.80664062 125.91394531 -35.61328125 126.82789063 -35.4140625 127.76953125 C-32.44008301 139.41439901 -25.95996903 150.48803836 -18.46875 159.765625 C-17 162 -17 162 -17 166 C-18.8359375 168.04296875 -18.8359375 168.04296875 -21.375 170.1875 C-22.2825 170.96738281 -23.19 171.74726563 -24.125 172.55078125 C-25.07375 173.35902344 -26.0225 174.16726563 -27 175 C-28.79611827 176.62007827 -30.58798763 178.24488306 -32.375 179.875 C-33.90376333 181.26433214 -35.44434379 182.64084774 -37 184 C-38.00933594 184.90105469 -38.00933594 184.90105469 -39.0390625 185.8203125 C-41 187 -41 187 -42.921875 186.87890625 C-58.8120402 180.15844165 -67.39354831 167.70613033 -73.82421875 152.34765625 C-77.09956493 143.02216894 -78.49731227 134.7830007 -78.375 124.875 C-78.36557373 123.68793457 -78.35614746 122.50086914 -78.34643555 121.27783203 C-78.18599641 111.87776045 -77.2556057 103.11411408 -75 94 C-74.76651855 93.00178223 -74.76651855 93.00178223 -74.52832031 91.98339844 C-66.45695776 58.10300832 -44.22864429 26.82098812 -15 8 C-12.26664799 6.34348075 -9.49808653 4.77143602 -6.6875 3.25 C-6.0471582 2.90235596 -5.40681641 2.55471191 -4.74707031 2.1965332 C-3.19877223 1.39484111 -1.60223808 0.68758296 0 0 Z " fill="#4C8500" transform="translate(640,210)"/>
<path d="M0 0 C15.41871042 12.25123036 23.64717525 28.04663605 26.66601562 47.30273438 C26.9878249 50.11966766 27.14883615 52.90258775 27.26367188 55.73632812 C27.2962207 56.47866699 27.32876953 57.22100586 27.36230469 57.98583984 C28.12650005 77.71983422 28.12650005 77.71983422 23.26367188 86.73632812 C22.78929687 87.63222656 22.31492187 88.528125 21.82617188 89.45117188 C7.33679552 114.28512703 -26.62601476 134.18117144 -51.73632812 146.73632812 C-50.19355738 143.0690862 -47.94492368 140.74696304 -45.17382812 137.92382812 C-21.78612252 112.9650205 -15.83889288 76.77388043 -16.60009766 43.89550781 C-17.31332271 27.35584435 -22.19115765 10.60052926 -34.48632812 -1.07617188 C-43.33424474 -8.25781418 -52.70965657 -8.9696273 -63.73632812 -9.26367188 C-46.17558135 -20.97083639 -15.58128381 -11.33980948 0 0 Z " fill="#FD96C1" transform="translate(540.736328125,432.263671875)"/>
<path d="M0 0 C0.66 0 1.32 0 2 0 C2.11304977 0.53854111 2.22609955 1.07708221 2.34257507 1.63194275 C7.67537923 28.97815738 7.67537923 28.97815738 24.20556641 49.81494141 C35.97731198 56.16686505 49.26294324 59.65092368 62.2857666 62.42364502 C64 63 64 63 65 65 C58.93133779 67.26105209 52.86237929 69.52130748 46.79321289 71.78100586 C44.72804014 72.55002743 42.6629356 73.31923221 40.59790039 74.08862305 C37.63185195 75.19367736 34.66555984 76.29807529 31.69921875 77.40234375 C30.7741301 77.74716293 29.84904144 78.09198212 28.8959198 78.44725037 C28.03525406 78.76750687 27.17458832 79.08776337 26.2878418 79.41772461 C25.53061325 79.69974228 24.7733847 79.98175995 23.99320984 80.27232361 C22.3387956 80.87631329 20.67083842 81.44305386 19 82 C17.90653738 83.91969475 17.90653738 83.91969475 17.09887695 86.33618164 C16.75875076 87.2570607 16.41862457 88.17793976 16.06819153 89.12672424 C15.71182114 90.12775681 15.35545074 91.12878937 14.98828125 92.16015625 C14.61519333 93.17975937 14.24210541 94.19936249 13.85771179 95.24986267 C12.66508822 98.51689824 11.48866763 101.78950855 10.3125 105.0625 C9.5082195 107.27447354 8.70289435 109.48606753 7.89648438 111.69726562 C5.91883334 117.12715963 3.95446455 122.56172016 2 128 C1.34 128 0.68 128 0 128 C-0.11082916 127.46145889 -0.22165833 126.92291779 -0.33584595 126.36805725 C-5.30240252 100.75189471 -5.30240252 100.75189471 -19.52215576 79.93096924 C-32.40635744 71.74205095 -48.18780958 68.04827735 -63 65 C-62 63 -62 63 -60.2588501 62.34962463 C-59.50086121 62.15762985 -58.74287231 61.96563507 -57.96191406 61.76782227 C-31.90214141 55.94338834 -31.90214141 55.94338834 -12.37039185 39.74613953 C-8.5442523 31.90012585 -6.47141009 23.4525079 -4.82373047 14.91503906 C-3.80416917 9.73428359 -1.99208877 4.87952801 0 0 Z " fill="#C5F954" transform="translate(152,70)"/>
<path d="M0 0 C21.67552824 -0.43221392 42.7297679 -0.80079237 64 4 C64.83789062 4.18191895 65.67578125 4.36383789 66.5390625 4.55126953 C94.05915 10.6613842 124.91036561 22.48001841 141.625 46.5 C143 49 143 49 143 51 C132.06098492 52.60147987 121.36567411 53.37117082 110.3125 53.3125 C109.57432037 53.31034485 108.83614075 53.3081897 108.07559204 53.30596924 C72.94260571 53.14224086 38.92656566 44.84252807 13 20 C12.36320313 19.41476562 11.72640625 18.82953125 11.0703125 18.2265625 C6.375947 13.78256316 2.04357411 8.72672497 -1 3 C-0.67 2.01 -0.34 1.02 0 0 Z " fill="#C4F654" transform="translate(212,445)"/>
<path d="M0 0 C2.38525391 2.35302734 2.38525391 2.35302734 3.00048828 5.18017578 C2.99339844 6.26331055 2.98630859 7.34644531 2.97900391 8.46240234 C2.97852051 10.28892334 2.97852051 10.28892334 2.97802734 12.15234375 C2.94741211 13.45606934 2.91679687 14.75979492 2.88525391 16.10302734 C2.86700937 17.46028192 2.84910932 18.81754117 2.83154297 20.17480469 C2.6113297 32.36952104 1.34901445 44.32259005 -0.61474609 56.35302734 C-0.74864746 57.24731445 -0.88254883 58.14160156 -1.02050781 59.06298828 C-2.89046107 71.39787992 -5.65919751 87.84616913 -16.36474609 95.85302734 C-21.33951259 98.22667338 -27.25977519 98.30502217 -32.61474609 97.35302734 C-34.64477333 95.78970764 -35.51236528 94.92148263 -35.97143555 92.37255859 C-35.83859922 87.1287141 -35.12022073 82.41901089 -33.80224609 77.35302734 C-30.37289113 62.83364254 -28.56842269 48.13467574 -28.48974609 33.21630859 C-28.47840889 32.03933159 -28.47840889 32.03933159 -28.46684265 30.83857727 C-28.4319569 26.93744979 -28.43945147 23.04474897 -28.52026367 19.14428711 C-28.58130105 8.77411618 -28.58130105 8.77411618 -25.89892578 4.83032227 C-19.36455635 -1.04835699 -8.01544307 -5.0487562 0 0 Z " fill="#1A1919" transform="translate(317.61474609375,207.64697265625)"/>
<path d="M0 0 C4.77876727 3.03921786 4.77876727 3.03921786 5.61523438 6.671875 C5.60814453 7.68765625 5.60105469 8.7034375 5.59375 9.75 C5.5935083 10.90193848 5.5932666 12.05387695 5.59301758 13.24072266 C5.56232178 14.48128418 5.53162598 15.7218457 5.5 17 C5.47232544 18.92851807 5.47232544 18.92851807 5.4440918 20.89599609 C5.0155523 43.25927563 4.08017607 68.93712974 -7 89 C-7.5775 90.093125 -8.155 91.18625 -8.75 92.3125 C-12.41204738 96.68661215 -16.18268084 98.6574571 -21.859375 99.34765625 C-29.1952415 99.57083737 -29.1952415 99.57083737 -31.80078125 97.72265625 C-34.09988445 94.42003569 -33.39245297 90.85081316 -33 87 C-32.5744304 85.33100074 -32.10832401 83.67198774 -31.609375 82.0234375 C-29.81303894 75.61817973 -28.76894035 69.21108664 -27.875 62.625 C-27.69815674 61.3565625 -27.52131348 60.088125 -27.33911133 58.78125 C-26.34583784 51.18703812 -25.85407003 43.68219185 -25.76953125 36.0234375 C-25.75865479 35.18833649 -25.74777832 34.35323547 -25.73657227 33.49282837 C-25.69232411 29.38029092 -25.69687647 25.27475048 -25.76708984 21.16259766 C-25.82709177 10.28933 -25.82709177 10.28933 -23.51123047 6.67919922 C-21.72852203 5.11468564 -20.12131536 4.04405164 -18 3 C-16.9275 2.38125 -15.855 1.7625 -14.75 1.125 C-9.84984751 -0.34504575 -5.06376658 -0.94852265 0 0 Z " fill="#1A1919" transform="translate(404,165)"/>
<path d="M0 0 C1.7015625 0.5878125 1.7015625 0.5878125 3.4375 1.1875 C8.00558109 2.69582866 12.58782169 4.15381925 17.1875 5.5625 C17.84484131 5.77221436 18.50218262 5.98192871 19.17944336 6.19799805 C31.80040894 10.00336715 44.68511534 10.36873091 57.75 10.3125 C58.54004425 10.31200653 59.3300885 10.31151306 60.14407349 10.31100464 C71.69973428 10.28889905 82.70809785 9.69386541 94 7 C104.12643788 4.90537305 104.12643788 4.90537305 108.1328125 7.24609375 C115.65811536 12.9228466 123.34761696 19.70662154 128 28 C128 28.66 128 29.32 128 30 C117.06098492 31.60147987 106.36567411 32.37117082 95.3125 32.3125 C94.57432037 32.31034485 93.83614075 32.3081897 93.07559204 32.30596924 C60.03821373 32.15200691 26.57652222 24.8762058 1.328125 2.34765625 C0 1 0 1 0 0 Z " fill="#67B601" transform="translate(227,466)"/>
<path d="M0 0 C2.76436187 2.38764933 3.82081226 4.61774162 5.04296875 8.03515625 C5.39423828 9.00904297 5.74550781 9.98292969 6.10742188 10.98632812 C6.46384766 12.00146484 6.82027344 13.01660156 7.1875 14.0625 C7.55552734 15.08150391 7.92355469 16.10050781 8.30273438 17.15039062 C11 24.70173353 11 24.70173353 11 27 C11.53625 27.14695313 12.0725 27.29390625 12.625 27.4453125 C20.92834761 29.82159948 28.94236411 32.91090634 37 36 C36 39 36 39 33.91455078 40.07495117 C33.01720215 40.39439697 32.11985352 40.71384277 31.1953125 41.04296875 C30.21949219 41.39423828 29.24367188 41.74550781 28.23828125 42.10742188 C27.21089844 42.46384766 26.18351562 42.82027344 25.125 43.1875 C24.10535156 43.55552734 23.08570313 43.92355469 22.03515625 44.30273438 C14.43877551 47 14.43877551 47 11 47 C10.85304687 47.6084375 10.70609375 48.216875 10.5546875 48.84375 C8.34414272 57.48266062 5.21840771 65.69879952 2 74 C1.34 74 0.68 74 0 74 C-0.25015869 72.89712646 -0.25015869 72.89712646 -0.50537109 71.77197266 C-3.89767135 57.10235242 -3.89767135 57.10235242 -13.02539062 45.78710938 C-20.30666523 42.09046227 -28.05451187 39.80223104 -36 38 C-34.55171842 35.10343685 -32.72697742 34.95119093 -29.72265625 33.8359375 C-28.65208984 33.43632812 -27.58152344 33.03671875 -26.47851562 32.625 C-25.35123047 32.2125 -24.22394531 31.8 -23.0625 31.375 C-21.37737305 30.74464844 -21.37737305 30.74464844 -19.65820312 30.1015625 C-11.28499138 27 -11.28499138 27 -9 27 C-8.85304688 26.47535156 -8.70609375 25.95070312 -8.5546875 25.41015625 C-6.0660261 16.81426257 -3.01845906 8.42042625 0 0 Z " fill="#C5F954" transform="translate(80,190)"/>
<path d="M0 0 C8.4107872 -0.6503186 15.00576802 -0.04327923 22 5 C25.36358419 8.47367257 25.38562361 11.24811759 25.3984375 15.984375 C25.40471413 17.01013138 25.40471413 17.01013138 25.41111755 18.05661011 C25.41742575 20.28820024 25.39846061 22.51853585 25.375 24.75 C25.37067963 25.51431335 25.36635925 26.27862671 25.36190796 27.06610107 C25.24223713 45.11680505 23.05504345 62.43158497 19.5 80.125 C19.29866455 81.12740723 19.0973291 82.12981445 18.88989258 83.16259766 C16.34883062 95.04127237 16.34883062 95.04127237 11.765625 98.86328125 C6.78898553 101.73025834 2.85592811 103.79452884 -3 104 C-3.86753906 104.04898438 -4.73507812 104.09796875 -5.62890625 104.1484375 C-11.59720199 104.35956089 -15.72134702 103.81528159 -21 101 C-21 100.67 -21 100.34 -21 100 C-20.28714844 99.97421875 -19.57429688 99.9484375 -18.83984375 99.921875 C-17.88207031 99.86515625 -16.92429687 99.8084375 -15.9375 99.75 C-14.99777344 99.70359375 -14.05804688 99.6571875 -13.08984375 99.609375 C-7.51244384 98.50940738 -4.08966653 96.45351711 -0.7421875 91.98828125 C-0.0892503 90.77902004 0.53163055 89.55207749 1.125 88.3125 C1.45773926 87.62969971 1.79047852 86.94689941 2.13330078 86.2434082 C6.71822338 76.06790256 8.31280465 64.9532361 10 54 C10.13132324 53.17661133 10.26264648 52.35322266 10.39794922 51.50488281 C11.94011677 41.41266149 12.22896412 31.25686369 12.34945679 21.06210327 C12.3663969 19.69452804 12.3889814 18.32701033 12.41738892 16.95962524 C12.45301695 15.03585862 12.45757914 13.11159358 12.4609375 11.1875 C12.47326416 9.50720703 12.47326416 9.50720703 12.48583984 7.79296875 C12.26192872 4.89508893 12.26192872 4.89508893 10.10498047 3.14526367 C6.76145014 1.32613809 3.77044033 1.31420336 0 1 C0 0.67 0 0.34 0 0 Z " fill="#F93F8C" transform="translate(307,205)"/>
<path d="M0 0 C8.07856658 -0.69113212 14.27598534 0.23297468 21 5 C24.11971917 8.31127257 24.36672347 10.65230894 24.328125 15.13671875 C24.32409668 16.34424805 24.32006836 17.55177734 24.31591797 18.79589844 C24.28328857 20.72224121 24.28328857 20.72224121 24.25 22.6875 C24.23404461 24.02505931 24.21858518 25.36262463 24.20361328 26.70019531 C24.16733036 29.31962982 24.12280798 31.93896547 24.06933594 34.55810547 C24.01575103 37.21810535 23.98801009 39.87486361 23.9765625 42.53515625 C23.7044816 52.48703826 21.90949224 62.21785046 20.1875 72 C20.06284363 72.72336548 19.93818726 73.44673096 19.80975342 74.1920166 C16.35824336 93.98577182 16.35824336 93.98577182 10.59765625 99.15625 C9.76105469 99.5996875 8.92445313 100.043125 8.0625 100.5 C6.81146484 101.19609375 6.81146484 101.19609375 5.53515625 101.90625 C-1.83653735 105.08664169 -11.24648106 105.33555439 -18.75 102.5 C-19.8225 102.005 -20.895 101.51 -22 101 C-22 100.67 -22 100.34 -22 100 C-21.13117188 99.90203125 -20.26234375 99.8040625 -19.3671875 99.703125 C-10.37576547 98.74945646 -10.37576547 98.74945646 -3 94 C10.84690169 74.05036048 11.13576312 42.13716149 11.3125 18.9375 C11.34150391 17.63361328 11.37050781 16.32972656 11.40039062 14.98632812 C11.41295898 13.11944336 11.41295898 13.11944336 11.42578125 11.21484375 C11.44036377 10.09198975 11.45494629 8.96913574 11.4699707 7.81225586 C11.26040088 4.91801552 11.26040088 4.91801552 9.20776367 3.15454102 C6.20586048 1.58470797 3.34552523 1.32168512 0 1 C0 0.67 0 0.34 0 0 Z " fill="#F93E8C" transform="translate(397,164)"/>
<path d="M0 0 C-0.781658 4.07729712 -1.82827534 8.01613614 -3 12 C-3.95132813 11.855625 -4.90265625 11.71125 -5.8828125 11.5625 C-39.12667283 6.9747494 -78.82699911 8.17587397 -109.82617188 22.33032227 C-112.31512582 23.09707885 -113.57771314 22.85944336 -116 22 C-78.35559025 6.79831482 -40.71620186 -1.17376788 0 0 Z " fill="#C0F354" transform="translate(483,134)"/>
<path d="M0 0 C-1.42169943 2.84339885 -3.03287845 2.97927713 -6 4 C-7.95112596 4.50771806 -9.91014092 4.98583759 -11.875 5.4375 C-15.42922027 6.28894097 -18.69681028 7.18420227 -22 8.75 C-25.21089336 10.08787223 -25.86314199 10.00054954 -29 9 C-26.18857876 7.89302184 -23.37592348 6.78936877 -20.5625 5.6875 C-19.77939453 5.37876953 -18.99628906 5.07003906 -18.18945312 4.75195312 C-14.15740508 3.17563804 -10.11107624 1.64464255 -6.02734375 0.20703125 C-5.301521 -0.04973389 -4.57569824 -0.30649902 -3.82788086 -0.57104492 C-2 -1 -2 -1 0 0 Z " fill="#B6E259" transform="translate(396,147)"/>
<path d="M0 0 C0.33 0.66 0.66 1.32 1 2 C-0.70025237 4.23574111 -2.40968095 6.46336222 -4.125 8.6875 C-4.599375 9.31333984 -5.07375 9.93917969 -5.5625 10.58398438 C-8.70436345 14.63868653 -11.8691238 17.939875 -16 21 C-16.66 21 -17.32 21 -18 21 C-16.74502777 17.23508331 -14.86334137 15.72969177 -12 13 C-10.26958361 11.29293256 -8.54040649 9.58460794 -6.8125 7.875 C-5.95269531 7.02679688 -5.09289062 6.17859375 -4.20703125 5.3046875 C-1.87938579 3.00850005 -1.87938579 3.00850005 0 0 Z " fill="#B2DD54" transform="translate(267,223)"/>
<path d="M0 0 C0.66 0.33 1.32 0.66 2 1 C-0.07430827 3.15524226 -2.15853821 5.29901391 -4.25 7.4375 C-4.83652344 8.04916016 -5.42304688 8.66082031 -6.02734375 9.29101562 C-6.88779297 10.1659668 -6.88779297 10.1659668 -7.765625 11.05859375 C-8.55114746 11.86768188 -8.55114746 11.86768188 -9.35253906 12.69311523 C-11.21582454 14.17120758 -12.67793522 14.59165211 -15 15 C-10 10 -5 5 0 0 Z " fill="#CFEC9E" transform="translate(283,208)"/>
<path d="M0 0 C1.23593891 3.70781672 0.5678132 4.67510253 -0.9375 8.1875 C-1.31777344 9.08855469 -1.69804687 9.98960937 -2.08984375 10.91796875 C-2.54037109 11.94857422 -2.54037109 11.94857422 -3 13 C-3.99 13 -4.98 13 -6 13 C-4.58707905 8.1725201 -2.57025846 4.2837641 0 0 Z " fill="#E63881" transform="translate(506,228)"/>
<path d="M0 0 C0.99 0.33 1.98 0.66 3 1 C0.36 3.97 -2.28 6.94 -5 10 C-5 6.60406522 -4.47834052 5.93380119 -2.5 3.3125 C-2.0359375 2.68988281 -1.571875 2.06726563 -1.09375 1.42578125 C-0.7328125 0.95527344 -0.371875 0.48476562 0 0 Z " fill="#2C2D20" transform="translate(257,231)"/>
<path d="M0 0 C0.66 0.33 1.32 0.66 2 1 C1.43454163 4.95820859 0.19097652 7.6659053 -2 11 C-3 9 -3 9 -2.44140625 6.8359375 C-2.15136719 6.02382813 -1.86132812 5.21171875 -1.5625 4.375 C-1.27503906 3.55773437 -0.98757812 2.74046875 -0.69140625 1.8984375 C-0.46324219 1.27195312 -0.23507813 0.64546875 0 0 Z " fill="#DEFDAB" transform="translate(226,298)"/>
<path d="M0 0 C2.97 0.33 5.94 0.66 9 1 C9 1.66 9 2.32 9 3 C6.03 3 3.06 3 0 3 C0 2.01 0 1.02 0 0 Z " fill="#D0F2A0" transform="translate(474,145)"/>
</svg>
