<?xml version="1.0" encoding="UTF-8"?>
<svg version="1.1" xmlns="http://www.w3.org/2000/svg" width="1024" height="1024">
<path d="M0 0 C2.32466329 -0.09628572 4.64770457 -0.15961937 6.97375369 -0.21084881 C7.65723579 -0.23996719 8.34071789 -0.26908557 9.04491156 -0.29908633 C14.02257846 -0.35097837 16.74964876 1.03405965 20.591048 4.11245441 C23.74155594 7.78804701 23.96225584 11.07946658 24.08714175 15.73354816 C22.85976826 21.61914232 18.33496345 25.55434133 14.028548 29.42495441 C13.49971011 29.90077961 12.97087222 30.3766048 12.42600894 30.86684895 C8.25101138 34.59443632 3.96809882 38.17884068 -0.393327 41.68667316 C-2.60537415 43.46605307 -4.80102039 45.25875994 -6.987077 47.06948566 C-17.17725165 55.48273974 -27.68866423 63.38870257 -38.408952 71.11245441 C-39.12164243 71.62662922 -39.83433286 72.14080402 -40.56861997 72.67055988 C-65.3322099 90.47971314 -91.04804044 106.78470037 -117.408952 122.11245441 C-118.26714536 122.61244953 -119.12533872 123.11244465 -120.00953794 123.62759113 C-140.01166362 135.25397044 -160.42906084 146.10269563 -180.971452 156.73745441 C-181.63030393 157.07933796 -182.28915586 157.4212215 -182.96797299 157.77346516 C-202.91423651 168.11245441 -202.91423651 168.11245441 -206.408952 168.11245441 C-206.408952 168.77245441 -206.408952 169.43245441 -206.408952 170.11245441 C-205.67805356 170.39218098 -204.94715512 170.67190754 -204.19410825 170.96011066 C-201.63289779 172.01979802 -199.27942124 173.22849396 -196.846452 174.54995441 C-184.7662817 180.61696416 -172.89998514 181.55767724 -159.89723325 178.27261066 C-144.50981479 173.15495861 -132.40911532 162.57547068 -120.28126645 152.22305012 C-101.73701267 136.44052877 -80.66679816 120.64182859 -55.408952 119.11245441 C-54.55172544 119.05960285 -53.69449887 119.00675129 -52.81129575 118.95229816 C-24.41000623 118.07311962 -1.86566083 132.71472221 18.841048 150.42495441 C37.48300437 166.33055519 54.06990243 178.97336085 79.27464175 180.80776691 C82.30466971 181.20632034 84.25597268 182.15400415 86.591048 184.11245441 C89.07938062 187.84495335 88.95414318 190.03191844 89.028548 194.48745441 C89.06850894 195.79456379 89.10846988 197.10167316 89.14964175 198.44839191 C88.46277898 202.95382743 87.12800548 204.33898115 83.591048 207.11245441 C70.67336636 211.41834829 54.13665553 206.95027057 42.26341128 201.32558918 C29.42253107 194.89289925 18.39427567 186.8441656 7.5363605 177.47964191 C-11.40110337 161.18447891 -30.0953648 146.6090639 -56.23512387 147.91714191 C-61.3357413 148.37541841 -65.78893904 149.98831053 -70.408952 152.11245441 C-71.3061395 152.52495441 -72.203327 152.93745441 -73.127702 153.36245441 C-83.33828844 158.52642917 -92.01676134 166.02540541 -100.658952 173.42495441 C-124.69444282 193.96270204 -149.0832067 210.09495623 -181.98854184 208.31509113 C-199.76077898 206.82719958 -215.83893073 198.10275883 -229.737077 187.39907551 C-231.41772661 186.10570175 -233.11421733 184.83595848 -234.815202 183.56948566 C-239.85629562 179.78738524 -244.72233032 175.90466523 -249.346452 171.61245441 C-263.03474783 159.09617745 -279.62522988 147.64663207 -298.783952 147.79995441 C-299.90193173 147.80841389 -299.90193173 147.80841389 -301.04249692 147.81704426 C-306.9266742 147.94628247 -311.97303794 148.76106396 -317.408952 151.11245441 C-318.337077 151.50304035 -319.265202 151.89362629 -320.221452 152.29604816 C-328.51065748 156.10606058 -335.40064363 161.38081878 -342.408952 167.11245441 C-343.30098325 167.83432941 -344.1930145 168.55620441 -345.112077 169.29995441 C-349.11181507 172.55722614 -353.08806607 175.83813888 -357.018327 179.17886066 C-379.54771513 198.14517248 -403.224347 210.58660237 -433.408952 208.11245441 C-456.53684936 205.32412403 -475.34282537 191.27076758 -492.4948895 176.44839191 C-500.15721963 169.8472875 -508.04019974 163.79481722 -516.408952 158.11245441 C-517.28293637 157.51304035 -518.15692075 156.91362629 -519.0573895 156.29604816 C-531.56733526 148.21923852 -545.45897367 146.07664986 -559.95973325 148.77261066 C-575.83111931 153.16337735 -588.4606668 163.97255375 -600.721452 174.48745441 C-622.31716054 192.98159909 -646.22822847 210.28911339 -676.09059262 208.3551302 C-702.48197595 205.59259491 -726.59638014 194.18747067 -747.408952 178.11245441 C-748.32805356 177.40604816 -749.24715512 176.69964191 -750.19410825 175.97182941 C-758.91179986 169.03876098 -766.93690579 161.28858995 -774.9895184 153.60415363 C-784.42052032 143.98640622 -784.42052032 143.98640622 -796.45973325 138.83511066 C-802.04499593 139.2716342 -807.34281249 141.87425814 -812.408952 144.11245441 C-813.07765317 144.39540363 -813.74635434 144.67835285 -814.43531919 144.96987629 C-819.80524219 147.27887377 -824.80948622 149.92255074 -829.783952 152.98745441 C-830.55070249 153.45868732 -831.31745297 153.92992023 -832.10743833 154.41543293 C-843.98213454 161.84329089 -855.09335215 170.36977919 -865.971452 179.17495441 C-902.73468865 208.86260865 -902.73468865 208.86260865 -923.14723325 208.36245441 C-927.48588037 207.88288029 -929.62707288 205.87261467 -932.658952 202.92495441 C-934.871434 199.36917976 -935.72870725 196.2540463 -935.408952 192.11245441 C-934.14710379 187.95577798 -932.66253278 185.01240683 -929.096452 182.45229816 C-926.33512707 181.07564925 -924.06097594 180.52163511 -921.033952 179.98745441 C-908.05351637 176.90141947 -897.4699177 167.91176022 -887.31910825 159.65737629 C-877.85716689 152.00462004 -868.22383859 144.5717294 -858.283952 137.54995441 C-857.27304502 136.83561237 -857.27304502 136.83561237 -856.24171567 136.10683918 C-851.7251634 132.95125521 -847.10663902 129.99070249 -842.408952 127.11245441 C-843.82952217 122.43076483 -845.7743226 118.1881599 -848.0417645 113.87026691 C-848.39729398 113.18423389 -848.75282346 112.49820087 -849.11912656 111.79137897 C-850.2533145 109.60458487 -851.39333197 107.42089937 -852.533952 105.23745441 C-855.12791951 100.25341203 -857.71477062 95.26574871 -860.29130673 90.2726717 C-861.04908794 88.80801015 -861.80999376 87.34496176 -862.5737164 85.88338947 C-863.70592902 83.7141446 -864.82613958 81.53906711 -865.94410825 79.36245441 C-866.28874112 78.70850697 -866.63337399 78.05455952 -866.98845029 77.38079548 C-869.16853708 73.09868431 -870.38171415 69.68524431 -869.221452 64.94448566 C-867.34943224 60.7234411 -865.16828457 57.85568125 -860.77441996 55.99950117 C-856.73660758 54.93524253 -852.90557757 54.6022845 -848.74896455 54.35720634 C-847.88491308 54.29980825 -847.02086161 54.24241016 -846.13062676 54.18327273 C-843.22510928 53.99224182 -840.31899498 53.81272038 -837.41275144 53.63309956 C-835.3082097 53.497129 -833.20371353 53.36045168 -831.09925961 53.2231285 C-825.29806634 52.84664404 -819.49627377 52.48022572 -813.69433792 52.11538905 C-807.41888813 51.71901304 -801.14403825 51.31334553 -794.86911035 50.9088068 C-783.92987606 50.20484708 -772.99028159 49.50676534 -762.05041623 48.81268978 C-750.4396976 48.07601988 -738.8292092 47.33586525 -727.21899533 46.59128094 C-726.49140472 46.54462094 -725.76381411 46.49796095 -725.01417529 46.44988701 C-721.31174191 46.21243375 -717.60931245 45.97491939 -713.90688451 45.73738136 C-687.40579603 44.03724806 -660.90423328 42.34461189 -634.40239072 40.65627766 C-608.52202964 39.00751195 -582.64185459 37.35587692 -556.76194882 35.69997883 C-555.96416809 35.64893477 -555.16638736 35.59789072 -554.34443146 35.54529988 C-544.6799328 34.92693381 -535.01544233 34.30843963 -525.35095521 33.68989323 C-510.90953445 32.76561991 -496.46809754 31.84159887 -482.02665738 30.91762868 C-479.63079318 30.76433898 -477.23492928 30.61104452 -474.83906541 30.45774962 C-452.56613363 29.03267811 -430.29310737 27.60909111 -408.02000863 26.18663163 C-339.84713686 21.83279 -271.67526733 17.46453901 -203.50688581 13.04081884 C-194.43096751 12.45186242 -185.35500256 11.86362654 -176.27903513 11.27542775 C-149.38252372 9.53221702 -122.48604533 7.78854027 -95.59034459 6.03286023 C-83.78626388 5.26238238 -71.98194484 4.49566418 -60.17737186 3.73276323 C-52.90505301 3.26259041 -45.63303835 2.78808542 -38.36126596 2.30953878 C-34.07186727 2.02839714 -29.7821848 1.75180196 -25.4924022 1.47658622 C-23.56816768 1.35224559 -21.64404966 1.22608405 -19.72007406 1.09779942 C-13.14906095 0.66029646 -6.57821334 0.30708338 0 0 Z M-52.74387383 30.76165485 C-53.8480839 30.83185815 -54.95229397 30.90206145 -56.08996496 30.97439212 C-59.78739181 31.21024982 -63.48450768 31.45066839 -67.18164182 31.6910677 C-69.86208553 31.8630055 -72.54254444 32.03468902 -75.22302419 32.20606232 C-81.05208352 32.57925016 -86.88098633 32.95480871 -92.70979238 33.33193111 C-101.38354657 33.89311043 -110.05753477 34.45060671 -118.73157389 35.00736246 C-133.355481 35.94612569 -147.97919359 36.88788727 -162.60279775 37.831357 C-177.16112199 38.77060712 -191.71952956 39.70854882 -206.27804875 40.64477253 C-207.64144114 40.7324504 -207.64144114 40.7324504 -209.03237681 40.82189954 C-213.65165022 41.1189525 -218.27092505 41.41598346 -222.89020038 41.71300662 C-255.67176491 43.82093386 -288.45313325 45.93189811 -321.23439145 48.04458332 C-352.7733452 50.07719975 -384.31239622 52.10829636 -415.85157895 54.13735676 C-416.81497031 54.19933666 -417.77836166 54.26131655 -418.77094669 54.32517463 C-427.49477198 54.88642203 -436.21859815 55.44765591 -444.9424251 56.00887752 C-479.85709406 58.25502661 -514.77169136 60.50228959 -549.68626424 62.74993169 C-551.49484731 62.86636 -553.30343044 62.98278751 -555.11201362 63.0992142 C-581.80536967 64.81758782 -608.49868538 66.53658672 -635.19191098 68.25698566 C-636.00159831 68.30917004 -636.81128564 68.36135441 -637.64550895 68.41512012 C-702.90172182 72.62098369 -768.15592233 76.85749701 -833.408952 81.11245441 C-832.00717637 84.09963065 -830.60099836 87.08471525 -829.19410825 90.06948566 C-828.60756467 91.31961445 -828.60756467 91.31961445 -828.00917172 92.59499836 C-824.3994918 100.24350699 -820.47581555 107.6990165 -816.408952 115.11245441 C-815.728327 114.89589191 -815.047702 114.67932941 -814.346452 114.45620441 C-802.57426196 111.07483068 -790.54996809 109.99599522 -779.26442075 115.44839191 C-768.18411633 121.9055871 -759.05426504 130.79871657 -749.84401059 139.60952473 C-728.02421073 160.45909697 -701.55770715 179.68587968 -670.24879575 181.27261066 C-649.00343851 180.01928743 -632.35067516 164.80810584 -616.971452 151.61245441 C-595.68227329 133.41285437 -571.67677591 117.8691721 -542.408952 120.11245441 C-518.22407185 123.24889277 -499.48829503 134.72361093 -481.221452 150.36245441 C-453.40869348 174.37236519 -453.40869348 174.37236519 -418.408952 181.11245441 C-398.99002112 178.18078756 -383.85893339 165.7054278 -369.533952 153.17495441 C-348.41012047 134.73071722 -324.73112954 119.21536294 -295.627702 119.86636066 C-270.18167993 121.81186963 -250.65133198 134.29762337 -231.408952 150.11245441 C-207.67345667 139.80845703 -184.61523246 128.10883353 -162.00367856 115.54214191 C-159.39740439 114.10609171 -156.77740292 112.69907366 -154.1511395 111.29995441 C-140.0241277 103.75142585 -126.34361641 95.5464996 -112.7136395 87.14614582 C-109.69055255 85.28575026 -106.6606619 83.43716187 -103.627702 81.59292316 C-91.95389679 74.46959969 -80.61416711 66.94985047 -69.408952 59.11245441 C-68.66097348 58.59263996 -67.91299497 58.07282551 -67.14235044 57.5372591 C-58.68186715 51.65731538 -50.36091516 45.64949163 -42.237077 39.31167316 C-39.10044471 36.87255164 -35.91428862 34.5091221 -32.70192075 32.17104816 C-32.27524106 31.82171223 -31.84856137 31.47237629 -31.408952 31.11245441 C-31.408952 30.78245441 -31.408952 30.45245441 -31.408952 30.11245441 C-38.55043694 30.02134612 -45.61891115 30.29199777 -52.74387383 30.76165485 Z " fill="#000000" transform="translate(935.408951997757,730.8875455856323)"/>
<path d="M0 0 C1.28825326 0.5931455 2.57683314 1.18558208 3.86572266 1.77734375 C24.63496656 11.36500747 44.85565704 21.80321228 64.625 33.3125 C65.5423291 33.84343262 66.4596582 34.37436523 67.40478516 34.92138672 C103.15803204 55.64251958 136.92322251 79.08752579 169.625 104.3125 C170.31142578 104.84149902 170.99785156 105.37049805 171.70507812 105.91552734 C179.13992642 111.65942425 186.38901661 117.58417669 193.53125 123.6875 C196.4205132 126.15165964 199.36018458 128.54911 202.3125 130.9375 C206.76691113 134.56318347 211.05448601 138.33679653 215.30078125 142.203125 C217.34542335 144.05876657 219.41284149 145.88006376 221.5 147.6875 C226.41097914 151.97112851 231.20317656 156.38315535 235.98876953 160.80566406 C237.5682941 162.26027845 239.15643566 163.70491501 240.74609375 165.1484375 C249.78352805 173.4130301 258.45858235 182.03797187 267.125 190.6875 C267.73931885 191.29923065 268.3536377 191.9109613 268.98657227 192.54122925 C280.76724155 204.28275814 280.76724155 204.28275814 286.08105469 210.5234375 C288.93640546 213.83210455 291.98782739 216.95975873 295 220.125 C300.10140396 225.52199231 304.95379066 230.99160122 309.58203125 236.80078125 C311.70309651 239.4085154 313.92100405 241.89301377 316.1875 244.375 C319.75822471 248.30279718 323.12567202 252.33488766 326.41015625 256.50390625 C328.05154777 258.58531807 329.7041002 260.65413528 331.37109375 262.71484375 C338.14068193 271.09357802 344.71713142 279.59551403 351.11279297 288.26318359 C352.10406366 289.60653622 353.09779444 290.94807777 354.09423828 292.28759766 C375.34298091 320.89411385 394.42138328 351.12497993 411.625 382.3125 C412.1936377 383.34004395 412.76227539 384.36758789 413.34814453 385.42626953 C448.73022749 449.56431832 474.38053091 518.88674119 488.1875 590.875 C488.56515503 592.81777832 488.56515503 592.81777832 488.95043945 594.79980469 C492.23164635 612.71361218 492.23164635 612.71361218 489.0625 619.8125 C485.73510542 623.22521239 482.59928354 625.25288685 477.68823242 625.35131836 C470.99965135 624.71233189 465.30680195 622.47490346 459.125 619.9375 C392.2168133 593.46431609 320.3799796 578.11341035 248.3125 578.0625 C247.43570587 578.06182526 246.55891174 578.06115051 245.6555481 578.06045532 C159.32095913 578.16433371 74.54868545 602.15247532 -11.25732422 652.07006836 C-16.01137008 654.85924745 -19.7590335 656.19980107 -25.375 655.3125 C-29.21824769 653.28210499 -32.32620023 651.1944364 -34.375 647.3125 C-35.73009029 641.89213882 -35.76360359 638.61778902 -32.91015625 633.59765625 C-30.66197734 630.25113039 -28.19745531 627.0862257 -25.70703125 623.91723633 C-10.4059155 604.38372267 2.71877438 583.23353133 14.48388672 561.4140625 C15.56589841 559.42134606 16.67195338 557.44416431 17.78515625 555.46875 C45.28436468 506.00771641 60.53087698 449.31963586 66.625 393.3125 C66.74214355 392.29397949 66.85928711 391.27545898 66.97998047 390.22607422 C75.66746511 312.27106716 61.60960139 231.76992748 32.625 147.3125 C32.40114624 146.6733667 32.17729248 146.0342334 31.94665527 145.37573242 C25.96260452 128.31956986 19.14940607 111.74314973 11.625 95.3125 C11.0779541 94.11157715 10.5309082 92.9106543 9.96728516 91.67333984 C-0.72244763 68.23657697 -12.29329138 45.50932052 -25.44140625 23.33984375 C-32.42930246 11.45041262 -32.42930246 11.45041262 -31.375 4.3125 C-29.79799677 0.13344145 -28.23567171 -2.39522617 -24.375 -4.6875 C-15.19902354 -7.74615882 -8.29192259 -3.89454701 0 0 Z M15.625 39.3125 C16.11331299 40.281875 16.60162598 41.25125 17.10473633 42.25 C30.11171985 68.12901066 42.18783628 94.28742569 52.625 121.3125 C52.86778687 121.9388031 53.11057373 122.5651062 53.36071777 123.21038818 C86.36880135 208.47527598 102.67276928 300.95483253 55.01593018 542.28207397 C48.2047416 557.56509688 40.58275775 572.29558534 32.11328125 586.73193359 C29.53014794 591.21089013 27.07808035 595.76136179 24.625 600.3125 C30.8294962 598.38970962 36.63113979 596.01788137 42.5 593.25 C93.33796176 569.95006838 149.05932768 557.06990969 204.625 552.3125 C205.59074951 552.2182373 206.55649902 552.12397461 207.55151367 552.02685547 C241.7724417 549.04834262 277.54397934 549.8738426 311.625 554.3125 C312.8052475 554.46522369 312.8052475 554.46522369 314.00933838 554.62103271 C336.09072402 557.50614925 357.96232887 561.10575444 379.625 566.3125 C380.80658691 566.59287109 381.98817383 566.87324219 383.20556641 567.16210938 C402.61809734 571.81803341 421.62320751 577.56590507 440.62109375 583.67578125 C441.31255997 583.89739426 442.00402618 584.11900726 442.71644592 584.34733582 C446.17830475 585.47015 449.56019872 586.68266768 452.93774414 588.03979492 C456.50644542 589.69004772 456.50644542 589.69004772 459.625 588.3125 C446.98520928 532.47365864 429.45119207 480.03438672 404.625 428.3125 C404.1520752 427.32668945 403.67915039 426.34087891 403.19189453 425.32519531 C396.26384688 410.97722584 388.63871828 397.08000859 380.625 383.3125 C380.06893066 382.35069824 379.51286133 381.38889648 378.93994141 380.39794922 C364.30965887 355.18012793 348.15819701 330.61342301 330.625 307.3125 C330.09116699 306.60287109 329.55733398 305.89324219 329.00732422 305.16210938 C325.24948297 300.18393256 321.44602218 295.24226294 317.625 290.3125 C316.90981201 289.3846167 316.90981201 289.3846167 316.18017578 288.43798828 C310.62960354 281.23992383 304.91727505 274.22288238 298.96459961 267.35302734 C295.94827204 263.87095411 293.00976381 260.34293688 290.125 256.75 C285.77882387 251.39235016 281.12399622 246.36309497 276.41796875 241.32421875 C274.1626955 238.90596824 271.96989735 236.44395939 269.8125 233.9375 C267.1574589 230.86459529 264.34666695 228.01050916 261.44824219 225.16821289 C259.77096608 223.46106563 258.22671636 221.70678214 256.68359375 219.87890625 C251.98802401 214.48042922 246.92158206 209.45931964 241.85522461 204.41235352 C240.19073723 202.7532268 238.53166553 201.08881949 236.87304688 199.42382812 C231.79402412 194.34195908 226.68191319 189.35251512 221.21459961 184.68383789 C219.24862954 182.9878075 217.42794182 181.1798326 215.625 179.3125 C212.4538397 176.09815269 209.16917247 173.09499037 205.74609375 170.15234375 C203.40008942 168.11741181 201.1076355 166.02959033 198.8125 163.9375 C194.51540173 160.05899273 190.08741246 156.38384032 185.5859375 152.74609375 C182.92730944 150.56096805 180.3245161 148.3285025 177.73046875 146.06811523 C170.71801596 139.966846 163.46385787 134.26771596 156.046875 128.66796875 C152.29152487 125.83146316 148.58500896 122.93742005 144.88671875 120.02709961 C135.68193571 112.79462813 126.26718174 105.94802307 116.625 99.3125 C115.76326172 98.71791992 114.90152344 98.12333984 114.01367188 97.51074219 C85.60399347 77.93491901 56.43350427 59.73502055 25.9375 43.5625 C25.12917725 43.13179199 24.32085449 42.70108398 23.48803711 42.25732422 C22.74561768 41.86818848 22.00319824 41.47905273 21.23828125 41.078125 C20.58641846 40.73555664 19.93455566 40.39298828 19.26293945 40.04003906 C17.61907447 39.17718792 17.61907447 39.17718792 15.625 39.3125 Z " fill="#000000" transform="translate(168.375,90.6875)"/>
<path d="M0 0 C0.99451172 0.35610352 1.98902344 0.71220703 3.01367188 1.07910156 C36.95006694 13.53663091 69.07131177 31.71988314 98.4375 52.6875 C99.52538818 53.45876221 99.52538818 53.45876221 100.63525391 54.24560547 C110.79175533 61.45323567 120.74226267 68.87014144 130.4375 76.6875 C131.37851562 77.44546875 132.31953125 78.2034375 133.2890625 78.984375 C143.91185132 87.61730424 154.31261354 96.47551313 164.4375 105.6875 C166.04117447 107.12554907 167.64535052 108.56303897 169.25 110 C179.74922885 119.46862308 190.0164885 129.10102376 199.99658203 139.11621094 C201.82860995 140.9536576 203.66600605 142.7856165 205.50390625 144.6171875 C210.81104543 149.92132931 216.06256932 155.21673797 220.92919922 160.93408203 C223.61489851 164.05624006 226.47999567 167.01161448 229.3125 170 C234.22790063 175.22216634 238.88270096 180.53649232 243.359375 186.140625 C245.49468453 188.7575833 247.72280363 191.25592779 250 193.75 C253.57515575 197.68267133 256.94641266 201.71985465 260.234375 205.89453125 C261.83593157 207.92487335 263.44867784 209.9415487 265.078125 211.94921875 C270.81447216 219.03115296 276.40280434 226.2117882 281.875 233.5 C282.43453369 234.24427246 282.99406738 234.98854492 283.57055664 235.75537109 C294.52129705 250.41481148 305.05826571 265.32461832 315.1875 280.5625 C316.02806946 281.82492523 316.02806946 281.82492523 316.88562012 283.112854 C337.75977126 314.50395063 356.46674962 347.01867742 373.4375 380.6875 C373.73849609 381.28371155 374.03949219 381.8799231 374.34960938 382.49420166 C392.70460071 418.90094702 408.46848348 456.85066785 420.375 495.875 C420.62838135 496.66318115 420.8817627 497.4513623 421.14282227 498.26342773 C422.69437692 503.6846158 422.59272796 508.40838003 420.4375 513.6875 C417.91833323 516.71475302 415.19162441 518.4361252 411.4375 519.6875 C406.01478227 520.06753975 402.26540746 519.14025996 397.2734375 517.0546875 C395.89992789 516.49253198 394.52639172 515.93044136 393.15283203 515.3684082 C392.44370667 515.07294098 391.7345813 514.77747375 391.00396729 514.47305298 C380.67651307 510.18200366 370.34633504 506.01184785 359.5625 503 C358.78181152 502.78134277 358.00112305 502.56268555 357.19677734 502.33740234 C347.18423162 499.67303592 337.49401022 498.29990765 327.125 498.3125 C326.00359619 498.31121094 324.88219238 498.30992187 323.72680664 498.30859375 C315.18397009 498.41464857 307.07177177 499.44493144 298.73120117 501.26416016 C292.05762487 502.71840022 285.55640632 504.04098765 279.125 501.25 C272.02823993 494.48332179 270.28772737 482.72462587 267.69406128 473.54534912 C262.08709898 453.75508592 255.86980685 434.2191111 249.15887451 414.77807617 C248.44893452 412.72063777 247.74207313 410.66216192 247.03564453 408.60351562 C227.68374197 352.32492742 203.86891365 296.87657409 173.97851562 245.359375 C172.44980261 242.70883076 170.94760248 240.04497558 169.453125 237.375 C151.42086146 205.23882389 130.53926268 174.4028489 107.4375 145.6875 C106.93250977 145.05634277 106.42751953 144.42518555 105.90722656 143.77490234 C89.68557072 123.51530202 72.38403508 104.44321673 54.00341797 86.12304688 C52.03884799 84.16391344 50.07978552 82.19938356 48.12109375 80.234375 C42.06345689 74.17325193 36.00592844 68.20035695 29.4375 62.6875 C28.35365144 61.73905191 27.27158038 60.78856824 26.19140625 59.8359375 C17.88060415 52.5883703 9.25299327 45.84258055 0.44775391 39.20849609 C-2.53204445 36.95392435 -5.48409711 34.66396528 -8.4375 32.375 C-13.2947595 28.61611577 -18.2509867 25.04151726 -23.3203125 21.57421875 C-26.41073889 18.97373801 -28.22417172 16.44010143 -28.99609375 12.44140625 C-29.00571065 7.04632351 -28.26277853 3.88781617 -24.5625 -0.3125 C-17.42034571 -6.43434654 -7.86385168 -2.87322548 0 0 Z M88.4375 80.6875 C92.4114044 85.40245261 96.51759218 89.95451426 100.75 94.4375 C105.44675682 99.45452051 109.92353837 104.57629797 114.21875 109.9453125 C116.1724057 112.35986585 118.1793196 114.71617226 120.21362305 117.06274414 C127.44152503 125.43402826 134.00406032 134.28195342 140.57177734 143.17480469 C142.28807632 145.48626099 144.02403074 147.78087502 145.76953125 150.0703125 C200.15956894 221.87747575 239.27946587 305.56338313 296.4375 472.6875 C297.1581665 472.62095215 297.87883301 472.5544043 298.62133789 472.48583984 C300.49602557 472.31354907 302.37098396 472.14419684 304.24609375 471.9765625 C306.2807282 471.79227492 308.31469709 471.60036901 310.34765625 471.3984375 C334.88202932 469.08698916 358.188224 472.69873679 381.3203125 480.98828125 C383.38240832 481.79203288 383.38240832 481.79203288 385.4375 481.6875 C384.81776017 476.9880318 383.51436717 472.7832223 381.8046875 468.38671875 C381.53614456 467.68560974 381.26760162 466.98450073 380.99092102 466.262146 C380.10597641 463.96329648 379.2104254 461.66880824 378.3125 459.375 C378.00470612 458.58449249 377.69691223 457.79398499 377.37979126 456.97952271 C371.18033587 441.10035935 364.29283315 425.58004367 357.05761719 410.14941406 C355.66144676 407.16603602 354.28285568 404.17568576 352.9140625 401.1796875 C347.77029429 390.00014199 341.94677806 379.23855337 335.97705078 368.48144531 C334.46357249 365.73481582 332.97557824 362.97600547 331.49609375 360.2109375 C321.08433301 340.7904685 309.56762703 322.07769259 297.4375 303.6875 C296.75429688 302.64851562 296.07109375 301.60953125 295.3671875 300.5390625 C282.72464211 281.44728343 269.55051802 262.72330577 255.4375 244.6875 C254.58051585 243.58349889 253.72374989 242.47932837 252.8671875 241.375 C239.28224011 223.91470713 225.16905535 206.80951459 210.10546875 190.6015625 C208.05516303 188.36213634 206.0465869 186.10300376 204.0546875 183.8125 C194.15390505 172.46024492 183.57152269 161.72366346 172.9375 151.0625 C172.01831787 150.13872559 171.09913574 149.21495117 170.15209961 148.26318359 C165.66164945 143.78294736 161.11914391 139.44065969 156.30517578 135.31005859 C153.15538364 132.57365094 150.15290701 129.68212456 147.125 126.8125 C141.96300214 121.95848043 136.71101594 117.31538255 131.171875 112.890625 C128.64447029 110.85425892 126.17181885 108.7695873 123.70727539 106.65844727 C117.32051448 101.18936256 110.7763546 95.98027336 104.06347656 90.91796875 C102.37667839 89.64147284 100.6996169 88.35289967 99.0234375 87.0625 C97.9325321 86.22885194 96.84139498 85.39550701 95.75 84.5625 C94.77675781 83.81742187 93.80351563 83.07234375 92.80078125 82.3046875 C90.63968089 80.49925573 90.63968089 80.49925573 88.4375 80.6875 Z " fill="#000000" transform="translate(439.5625,192.3125)"/>
</svg>
