<?xml version="1.0" encoding="UTF-8"?>
<svg version="1.1" xmlns="http://www.w3.org/2000/svg" width="1024" height="1024">
<path d="M0 0 C33.10784784 26.465521 46.18850778 73.25480558 52.8125 113.25 C52.93665283 113.98774658 53.06080566 114.72549316 53.1887207 115.4855957 C54.03661929 121.00913873 54.1239546 126.41841842 54 132 C54.55534424 131.71390869 55.11068848 131.42781738 55.68286133 131.13305664 C107.02416996 104.96346115 166.06634518 96.32253634 221.69042969 113.84765625 C253.06682893 124.06682893 253.06682893 124.06682893 261 132 C261.22550537 130.53699463 261.22550537 130.53699463 261.45556641 129.04443359 C266.50031071 96.55386602 273.09945005 65.1565178 289 36 C289.55171875 34.9584375 290.1034375 33.916875 290.671875 32.84375 C301.85664961 12.60463404 317.24003406 -2.87959848 339.265625 -10.81640625 C355.26607483 -15.18294122 371.47061036 -10.95839097 385.65405273 -3.28198242 C391.47624477 0.05736254 396.28245068 4.23647067 401 9 C401.886875 9.845625 402.77375 10.69125 403.6875 11.5625 C404.450625 12.366875 405.21375 13.17125 406 14 C406.50660156 14.51175781 407.01320313 15.02351563 407.53515625 15.55078125 C436.29025844 46.13992185 442.05206772 95.8402929 444.25 135.6875 C444.29119965 136.42823761 444.33239929 137.16897522 444.37484741 137.93215942 C445.1912648 153.10984197 445.18027635 168.24872873 444.625 183.4375 C444.58318604 184.61473633 444.54137207 185.79197266 444.49829102 187.00488281 C444.12746945 196.51566369 443.47485501 205.991757 442.66064453 215.47436523 C442.4936747 217.44028512 442.33763918 219.4071779 442.19482422 221.375 C442.07247117 223.02354638 441.92199268 224.67049488 441.73095703 226.3125 C441.47714058 228.64966396 441.47714058 228.64966396 442 232 C444.00380506 234.27932826 445.60588878 235.74597438 448 237.5 C449.29375185 238.53059893 450.58261911 239.56735194 451.8671875 240.609375 C452.54491211 241.15529297 453.22263672 241.70121094 453.92089844 242.26367188 C490.55196775 272.85551839 510.7447337 319.71575228 518 366 C518.11714355 366.69174316 518.23428711 367.38348633 518.35498047 368.09619141 C525.779304 412.96205142 518.93732268 466.20143661 492.8046875 504.19140625 C491.25747226 506.19276362 489.66725994 508.10060951 488 510 C488.24121582 510.50225098 488.48243164 511.00450195 488.73095703 511.52197266 C517.72429727 572.0040381 528.97196122 635.33749948 506.93359375 700.34814453 C501.82574123 714.85690343 496.08255086 728.88379233 488.31567383 742.18920898 C487.86732178 742.98528564 487.41896973 743.7813623 486.95703125 744.6015625 C486.55460205 745.28557129 486.15217285 745.96958008 485.73754883 746.67431641 C484.07087457 751.92977452 486.2856844 757.30386727 488.07421875 762.296875 C488.49179443 763.48917725 488.90937012 764.68147949 489.33959961 765.90991211 C489.55985809 766.53525848 489.78011658 767.16060486 490.00704956 767.80490112 C495.19942966 782.64755845 499.11285862 797.52769307 502 813 C502.17644043 813.87881836 502.35288086 814.75763672 502.53466797 815.66308594 C507.50816976 841.0678711 507.00608197 870.09503914 503.8125 895.75 C503.66143799 897.00296875 503.66143799 897.00296875 503.50732422 898.28125 C502.03693623 907.71706419 497.7493819 915.34032443 490.390625 921.37109375 C483.2946188 926.20611758 475.84752218 926.94225476 467.52734375 925.6015625 C459.842533 923.77241125 454.22745568 919.42214922 449.5859375 913.0625 C443.79298243 903.39368291 445.71121198 891.76660046 447 881.0625 C451.83021393 839.01922941 441.95895921 798.27622921 424.84448242 760.09619141 C422.04439663 753.14576162 421.8460204 745.29411272 424.4375 738.25 C426.99833476 732.5220551 430.37710791 727.23977566 433.640625 721.89453125 C458.45430891 681.11334261 467.60434475 633.36673831 456.35693359 586.67236328 C450.63703546 564.43240538 441.36154486 544.014307 429.39208984 524.48510742 C424.38670718 516.26368788 421.94330586 509.72158609 423 500 C425.2116322 491.35452865 429.67167479 485.23282157 436.9375 480.1875 C448.59163464 471.72385089 454.22168321 455.89694689 457.8125 442.4375 C458.00730957 441.70732666 458.20211914 440.97715332 458.40283203 440.22485352 C461.6279906 427.2546013 462.40871984 414.35816474 462.375 401.0625 C462.37445618 400.25185089 462.37391235 399.44120178 462.37335205 398.60598755 C462.33177432 385.07609392 461.34959707 372.16039726 458 359 C457.78037598 358.13149414 457.56075195 357.26298828 457.33447266 356.36816406 C448.51159751 322.58772913 429.94378619 291.98377901 400 273 C394.83057705 269.98699337 389.46840512 267.41929441 384 265 C382.91074219 264.51789063 381.82148437 264.03578125 380.69921875 263.5390625 C374.77211285 261.10326555 368.78102998 259.30972258 362.5625 257.8125 C361.91933838 257.65749023 361.27617676 257.50248047 360.61352539 257.34277344 C346.06600095 254.05709809 331.83858204 253.65148978 316.99975586 253.61914062 C297.39257153 253.54752275 297.39257153 253.54752275 291 249 C290.30269775 248.50975342 289.60539551 248.01950684 288.88696289 247.5144043 C283.53222056 243.29159895 280.63202568 238.47005612 277.625 232.4375 C261.51890694 201.7955458 236.37605514 178.84332252 203 168.25 C163.67961732 156.3078996 121.68935782 161.88300072 85.4375 180.75 C64.04661463 192.28916024 47.13266293 208.17970951 36.7890625 230.2734375 C32.78634754 238.78004022 28.32670717 245.17050984 20 250 C14.15059215 252.08746519 8.73609495 252.30912458 2.5625 252.4375 C-42.99336017 253.9758069 -84.73751539 266.03521991 -116.6875 299.8125 C-142.09792039 329.02303732 -150.84236633 369.6248905 -148.65185547 407.45507812 C-146.61856447 434.55944924 -139.15181599 463.69059321 -119.984375 483.81640625 C-113.92557707 490.48346932 -112.2288788 497.7222901 -112.265625 506.578125 C-113.11488691 514.30712209 -117.57649256 521.23906955 -121.04296875 528.05859375 C-137.20076239 559.92405998 -144.22391163 596.37447443 -144.25 631.875 C-144.25067474 632.70014099 -144.25134949 633.52528198 -144.25204468 634.37542725 C-144.23588508 646.82012869 -143.76224139 658.82003797 -141 671 C-140.75056641 672.16789063 -140.75056641 672.16789063 -140.49609375 673.359375 C-136.27387498 692.75030566 -128.26693351 711.03994545 -115.8125 726.5625 C-110.2239668 733.581506 -106.05427237 741.30314309 -106.55859375 750.52734375 C-107.98323748 758.50787011 -111.54772109 765.99088358 -114.7565918 773.38818359 C-129.71187206 808.00328054 -140.37375943 845.64902661 -134.06762695 883.46801758 C-132.37902766 893.82910252 -131.58657475 903.69643693 -137.8515625 912.64453125 C-143.68158649 919.67970155 -149.09207917 923.32357545 -158.20703125 924.3671875 C-167.19501769 924.72294016 -173.61298198 922.76605224 -180.75 917.375 C-191.17294423 907.65174415 -192.575956 890.50618921 -193.17700195 877.03198242 C-193.2031145 875.63990624 -193.22329851 874.2477092 -193.23828125 872.85546875 C-193.25297203 871.71705788 -193.25297203 871.71705788 -193.26795959 870.5556488 C-193.45763434 851.99950975 -192.7884037 834.24046224 -189 816 C-188.69449219 814.515 -188.69449219 814.515 -188.3828125 813 C-185.21623059 798.14443052 -180.4383125 783.8659353 -175.3671875 769.57421875 C-174.78203369 767.91036133 -174.78203369 767.91036133 -174.18505859 766.21289062 C-173.40618803 764.10124318 -172.57154693 762.00919238 -171.67822266 759.94335938 C-169.17819864 754.28664931 -169.17819864 754.28664931 -170.2265625 748.3828125 C-170.99260808 747.27303713 -171.79478217 746.18762202 -172.625 745.125 C-173.49816915 743.84304568 -174.3623183 742.55491478 -175.21875 741.26171875 C-175.90710938 740.23763916 -175.90710938 740.23763916 -176.609375 739.19287109 C-190.17026829 717.8087518 -196.05533314 692.67454323 -200 668 C-200.13277344 667.18031738 -200.26554688 666.36063477 -200.40234375 665.51611328 C-207.9397974 616.46973303 -198.56716326 561.95722069 -179.06176758 516.81616211 C-178.64822021 515.84557861 -178.23467285 514.87499512 -177.80859375 513.875 C-177.43532959 513.02679687 -177.06206543 512.17859375 -176.67749023 511.3046875 C-175.90452783 508.67522259 -176.03265929 507.53321738 -177 505 C-178.33824043 502.55325999 -179.70986996 500.15114305 -181.125 497.75 C-208.3359158 450.36978009 -213.0928211 390.34384762 -199.359375 337.9296875 C-198.91071339 336.28523406 -198.45775451 334.64194554 -198 333 C-197.79568359 332.2565332 -197.59136719 331.51306641 -197.38085938 330.74707031 C-191.39782977 309.57854175 -181.02163552 289.65823548 -168 272 C-167.30003906 271.03835938 -166.60007813 270.07671875 -165.87890625 269.0859375 C-161.17457752 263.01524429 -155.79897357 257.55005967 -150.4375 252.0625 C-149.67074951 251.26223389 -148.90399902 250.46196777 -148.11401367 249.63745117 C-144.36444319 245.85045905 -141.04228941 242.78162913 -136.171875 240.546875 C-131.26954308 238.22469035 -127.34781869 236.08845132 -125 231 C-124.07445762 222.97000844 -125.44875313 214.90661833 -126.42567444 206.93215942 C-128.1265159 192.91707577 -128.42219593 179.0154891 -128.38305664 164.90866089 C-128.37524065 161.05611876 -128.39284209 157.20429348 -128.41210938 153.35180664 C-128.44403107 102.24767735 -121.39457378 45.86880111 -85.3125 6.8125 C-61.01892873 -16.30557589 -27.00201325 -21.44532885 0 0 Z M-45.62890625 47.6015625 C-72.55867104 74.84188471 -72.33282297 128.19134126 -72.24291992 163.66894531 C-72.04812762 177.79437511 -70.97665966 191.91116497 -70 206 C-68.91847656 205.75765625 -67.83695313 205.5153125 -66.72265625 205.265625 C-57.29314575 203.19474058 -47.84522233 201.4046038 -38.3125 199.875 C-37.24990967 199.70009033 -36.18731934 199.52518066 -35.0925293 199.3449707 C-30.42430387 198.59850201 -25.82169365 197.92854289 -21.09765625 197.69140625 C-13.82074164 197.37418566 -13.82074164 197.37418566 -7.546875 193.99609375 C-2.10603612 186.57576268 -1.33629331 177.91177274 -1 169 C-0.96293945 168.02434082 -0.92587891 167.04868164 -0.88769531 166.04345703 C0.31921721 126.93829636 -5.90249981 82.26730795 -30 50 C-30.44214844 49.39414063 -30.88429688 48.78828125 -31.33984375 48.1640625 C-32.993424 46.02295251 -34.36730797 44.2756542 -36.8828125 43.1796875 C-40.70558192 42.85524581 -42.81100494 45.26025205 -45.62890625 47.6015625 Z M350.75 46.9375 C349.81813093 47.94447493 348.9031204 48.96716312 348 50 C347.47277344 50.58523437 346.94554687 51.17046875 346.40234375 51.7734375 C324.57728849 77.72486995 318.20988879 118.29519376 317 151 C316.95875 152.00160156 316.9175 153.00320312 316.875 154.03515625 C316.72840111 161.13603974 317.23163004 168.17795225 317.8125 175.25 C317.88251221 176.17304932 317.95252441 177.09609863 318.0246582 178.04711914 C318.55079947 183.88817901 319.22955852 189.74390149 322 195 C325.87314961 197.73971445 330.57836594 197.28062828 335.1875 197.375 C352.25593118 198.00083684 369.4058384 201.01740122 386 205 C387.2124805 201.08725486 387.3410431 197.100877 387.55078125 193.0390625 C387.59262039 192.24932037 387.63445953 191.45957825 387.67756653 190.64590454 C388.13773692 181.22484004 388.19905955 171.80566531 388.1875 162.375 C388.18689575 161.45624084 388.1862915 160.53748169 388.18566895 159.59088135 C388.1602726 145.31658521 387.86719752 131.1714203 386 117 C385.87109375 116.01483398 385.7421875 115.02966797 385.609375 114.01464844 C382.37721211 90.37945728 377.34505526 63.86153008 359 47 C355.34873886 44.56582591 354.14765292 44.01174332 350.75 46.9375 Z " fill="#000000" transform="translate(355,56)"/>
<path d="M0 0 C21.2093795 18.31796906 36.53474572 43.84935189 39.66015625 72.0078125 C41.52041702 99.49606143 34.29719993 124.82676017 16.875 146.125 C16.41609375 146.71925781 15.9571875 147.31351563 15.484375 147.92578125 C-7.01328257 176.04785321 -48.45097174 186.55957334 -82.4375 190.4375 C-129.08810159 194.86502166 -182.53869779 189.85593892 -220.125 159.125 C-223.5480698 156.2143658 -226.85953015 153.21086901 -230.125 150.125 C-230.8365625 149.46628906 -231.548125 148.80757812 -232.28125 148.12890625 C-250.39165298 130.81954033 -259.62260908 106.09335787 -260.4375 81.375 C-259.73337564 50.2278519 -244.49632174 24.28122775 -222.4375 3.15625 C-197.7924351 -19.75324695 -165.25310102 -33.43515141 -132.125 -37.875 C-131.14853516 -38.01421875 -131.14853516 -38.01421875 -130.15234375 -38.15625 C-83.00619102 -44.25649157 -36.17263893 -30.52397199 0 0 Z M-203.62890625 40.77734375 C-215.13166693 54.03179387 -221.50155937 69.57538316 -220.33642578 87.1484375 C-218.81232706 101.39682462 -211.00924302 113.24075698 -201.125 123.125 C-200.49851562 123.75148438 -199.87203125 124.37796875 -199.2265625 125.0234375 C-172.22017368 150.2066102 -132.07708442 153.28833832 -97.125 152.125 C-68.73416567 150.69603106 -36.6110477 144.24656377 -16.125 123.125 C-15.48046875 122.48949219 -14.8359375 121.85398437 -14.171875 121.19921875 C-3.49074714 109.9840345 0.41310611 95.17623154 0.22436523 80.00146484 C-0.35334538 63.72765052 -7.62151307 50.23108081 -18.125 38.125 C-18.75792969 37.29871094 -19.39085937 36.47242188 -20.04296875 35.62109375 C-23.80140674 31.11519905 -28.50903229 27.71244336 -33.125 24.125 C-33.91003906 23.51269531 -34.69507813 22.90039062 -35.50390625 22.26953125 C-86.49673072 -15.43582289 -161.31444288 -4.04562135 -203.62890625 40.77734375 Z " fill="#000000" transform="translate(621.125,472.875)"/>
<path d="M0 0 C8.78414611 6.38714118 14.75229041 14.63361562 16.53515625 25.45703125 C17.42820097 38.56074517 15.22609952 48.39650354 6.53515625 58.45703125 C-1.14541021 66.03615626 -9.76565086 69.61440042 -20.52734375 69.89453125 C-32.34500838 69.48213728 -41.00931043 65.77678854 -49.5078125 57.45703125 C-56.21867823 49.67299936 -59.30620538 39.51103366 -58.84375 29.27734375 C-57.3708798 18.31433048 -53.59046297 9.64960913 -45.10546875 2.45703125 C-31.60917188 -7.60232045 -14.5864489 -9.13097831 0 0 Z " fill="#000000" transform="translate(718.46484375,447.54296875)"/>
<path d="M0 0 C8.94482387 7.1152008 14.65506666 15.04502432 16.53125 26.5546875 C17.35521645 36.47171233 15.76865066 45.78447165 9.765625 53.85546875 C2.34540777 62.51665334 -6.00152677 68.38610805 -17.546875 69.5078125 C-29.18506524 69.88897594 -38.60184978 67.11338712 -47.25 59.1875 C-55.2102018 51.33811307 -58.46080903 43.14802643 -58.5625 32.0625 C-58.58944186 25.01196573 -57.75760766 19.43275267 -54.25 13.1875 C-53.693125 12.15625 -53.13625 11.125 -52.5625 10.0625 C-38.92026619 -6.89811501 -19.09415969 -10.64866598 0 0 Z " fill="#000000" transform="translate(347.25,447.8125)"/>
<path d="M0 0 C0.66 0.66 1.32 1.32 2 2 C6.1608567 1.72444658 8.21753421 0.24045057 11.25 -2.5 C15.72179201 -6.1101178 19.23596186 -7.53839917 25 -7 C30.89774456 -5.32897238 33.52524841 -2.80333308 37 2 C38.12844458 4.25688915 38.2304045 5.67710616 38.3125 8.1875 C38.36857422 9.29158203 38.36857422 9.29158203 38.42578125 10.41796875 C37.81335126 14.13187904 36.32155621 17.08420219 34 20 C31.81686671 21.40744124 29.58323598 22.73876255 27.3125 24 C23.74488995 26.31441369 21.40758256 28.34132167 20.36816406 32.57128906 C19.85375171 37.58891778 19.96896063 42.50719822 20.15234375 47.5390625 C20.24330211 52.78326693 19.19976355 56.78910341 16 61 C12.20348526 64.17177915 7.92996373 65.79877699 3 66 C-2.85064536 65.35249775 -6.2016083 63.66659551 -10 59 C-10.54398437 58.35804688 -11.08796875 57.71609375 -11.6484375 57.0546875 C-13.40847279 53.07680428 -13.06512116 49.92978459 -12.90795898 45.63378906 C-12.35607163 34.97393395 -12.35607163 34.97393395 -17.1015625 25.89453125 C-19.51589934 23.74345065 -22.07245334 21.93758197 -24.77734375 20.171875 C-29.04221446 17.29761062 -29.04221446 17.29761062 -30 14 C-30.70358198 9.11583208 -30.63851284 4.48851634 -28.3125 0.0625 C-25.58203339 -3.55352334 -23.29477433 -5.05043821 -19.1875 -6.75 C-11.13261599 -7.67055817 -6.18696796 -4.83918448 0 0 Z " fill="#000000" transform="translate(507,525)"/>
</svg>
