<?xml version="1.0" encoding="UTF-8"?>
<svg version="1.1" xmlns="http://www.w3.org/2000/svg" width="1024" height="1024">
<path d="M0 0 C3.55713883 1.77856942 5.11389431 2.91523182 7.75 5.6875 C10.95950202 9.052083 14.36810275 12.08969095 17.87695312 15.13305664 C21.28694661 18.13170201 24.57674022 21.25460935 27.875 24.375 C32.99043571 29.19392282 38.14310466 33.95712365 43.38671875 38.63671875 C47.41144864 42.27642216 51.363889 45.99276119 55.32568359 49.70068359 C61.17901728 55.17609712 67.08237164 60.59416653 73 66 C81.90518624 74.14830454 90.7803042 82.328744 99.64550781 90.52050781 C105.91278851 96.31113258 112.1872557 102.09354178 118.48071289 107.85571289 C122.7126428 111.7321468 126.92942924 115.62481704 131.14453125 119.51953125 C134.75544595 122.85467204 138.37458153 126.18063499 142 129.5 C148.90111729 135.81930071 155.77303161 142.17009509 162.64550781 148.52050781 C168.42124684 153.85697495 174.20049542 159.18935718 180 164.5 C186.90106977 170.81935299 193.7730313 177.1700948 200.64550781 183.52050781 C206.91278851 189.31113258 213.1872557 195.09354178 219.48071289 200.85571289 C223.7126428 204.7321468 227.92942924 208.62481704 232.14453125 212.51953125 C235.75544595 215.85467204 239.37458153 219.18063499 243 222.5 C249.90111729 228.81930071 256.77303161 235.17009509 263.64550781 241.52050781 C271.41408733 248.69825062 279.19977841 255.85663917 287 263 C290.96 266.63 294.92 270.26 299 274 C299.33 186.22 299.66 98.44 300 8 C315.84 8 331.68 8 348 8 C348.33 98.42 348.66 188.84 349 282 C358.23009442 273.54337599 358.23009442 273.54337599 367.4375 265.0625 C367.96915771 264.57144775 368.50081543 264.08039551 369.04858398 263.57446289 C370.69925282 262.04985482 372.34966444 260.52496882 374 259 C380.81550163 252.7022338 387.63643443 246.41077982 394.48071289 240.14428711 C398.16227511 236.7719882 401.8330747 233.38820414 405.5 230 C410.14988581 225.70354969 414.81103067 221.41971598 419.48046875 217.14453125 C423.16209047 213.77212711 426.83299023 210.38828219 430.5 207 C435.14988581 202.70354969 439.81103067 198.41971598 444.48046875 194.14453125 C448.16209047 190.77212711 451.83299023 187.38828219 455.5 184 C460.14988581 179.70354969 464.81103067 175.41971598 469.48046875 171.14453125 C473.16209047 167.77212711 476.83299023 164.38828219 480.5 161 C485.14988581 156.70354969 489.81103067 152.41971598 494.48046875 148.14453125 C498.16209047 144.77212711 501.83299023 141.38828219 505.5 138 C509.65844899 134.15763264 513.82409049 130.32338426 518 126.5 C524.35033154 120.68504962 530.67602169 114.84358114 537 109 C543.81550163 102.7022338 550.63643443 96.41077982 557.48071289 90.14428711 C561.16227511 86.7719882 564.8330747 83.38820414 568.5 80 C573.14988581 75.70354969 577.81103067 71.41971598 582.48046875 67.14453125 C586.16209047 63.77212711 589.83299023 60.38828219 593.5 57 C598.14988581 52.70354969 602.81103067 48.41971598 607.48046875 44.14453125 C611.16209047 40.77212711 614.83299023 37.38828219 618.5 34 C623.63592053 29.25445823 628.7866443 24.52548466 633.9453125 19.8046875 C636.11373009 17.817325 638.27379871 15.82125813 640.4296875 13.8203125 C641.00460937 13.28728516 641.57953125 12.75425781 642.171875 12.20507812 C643.26941965 11.18682856 644.36586057 10.16738738 645.4609375 9.14648438 C655.32454651 0 655.32454651 0 658 0 C658 102.3 658 204.6 658 310 C695.95 310 733.9 310 773 310 C773 455.86 773 601.72 773 752 C731.75 752 690.5 752 648 752 C648 841.76 648 931.52 648 1024 C644.1895365 1022.09476825 642.00406118 1020.32340956 638.9375 1017.4375 C635.28859927 1014.0431595 631.58418125 1010.80023354 627.6875 1007.6875 C622.63083286 1003.61186956 617.91651697 999.2463704 613.19213867 994.79760742 C609.72955888 991.55466358 606.20722279 988.46577823 602.5 985.5 C596.80368295 980.93958074 591.52680934 975.98265337 586.20703125 970.99609375 C581.5360668 966.61883286 576.70252459 962.4485711 571.828125 958.30078125 C570.63513685 957.28418244 569.44243795 956.26724412 568.25 955.25 C567.64631592 954.73518066 567.04263184 954.22036133 566.4206543 953.68994141 C561.96039016 949.86787748 557.62732886 945.92778734 553.32470703 941.93017578 C550.18496883 939.03251776 546.95833511 936.29653427 543.625 933.625 C538.58583594 929.57333783 533.89534229 925.22645384 529.19189453 920.79736328 C525.72938522 917.55451548 522.20713152 914.46570521 518.5 911.5 C513.4956568 907.49652544 508.85300698 903.18663292 504.19140625 898.796875 C500.72903789 895.55421929 497.20694897 892.46555917 493.5 889.5 C488.4956568 885.49652544 483.85300698 881.18663292 479.19140625 876.796875 C475.72903789 873.55421929 472.20694897 870.46555917 468.5 867.5 C463.4956568 863.49652544 458.85300698 859.18663292 454.19140625 854.796875 C450.72903789 851.55421929 447.20694897 848.46555917 443.5 845.5 C438.4956568 841.49652544 433.85300698 837.18663292 429.19140625 832.796875 C425.72903789 829.55421929 422.20694897 826.46555917 418.5 823.5 C413.4956568 819.49652544 408.85300698 815.18663292 404.19140625 810.796875 C400.72903789 807.55421929 397.20694897 804.46555917 393.5 801.5 C388.4956568 797.49652544 383.85300698 793.18663292 379.19140625 788.796875 C375.72903789 785.55421929 372.20694897 782.46555917 368.5 779.5 C361.74047752 773.96948161 355.40000951 767.94286598 349 762 C348.67 847.8 348.34 933.6 348 1022 C332.16 1022 316.32 1022 300 1022 C300 936.2 300 850.4 300 762 C297.36 764.31 294.72 766.62 292 769 C288.578125 771.921875 288.578125 771.921875 286.92895508 773.32299805 C281.79822134 777.683786 276.74562316 782.10408298 271.8125 786.6875 C268.18716792 790.05583447 264.48767607 793.2792202 260.625 796.375 C255.58583594 800.42666217 250.89534229 804.77354616 246.19189453 809.20263672 C241.898737 813.22343643 237.43753649 816.94997081 232.84375 820.625 C229.44364928 823.46464456 226.22413555 826.46388099 223 829.5 C218.10900556 834.10577446 213.09232912 838.4261367 207.84375 842.625 C204.44364928 845.46464456 201.22413555 848.46388099 198 851.5 C193.10900556 856.10577446 188.09232912 860.4261367 182.84375 864.625 C179.44364928 867.46464456 176.22413555 870.46388099 173 873.5 C168.10900556 878.10577446 163.09232912 882.4261367 157.84375 886.625 C154.44364928 889.46464456 151.22413555 892.46388099 148 895.5 C143.10900556 900.10577446 138.09232912 904.4261367 132.84375 908.625 C129.44364928 911.46464456 126.22413555 914.46388099 123 917.5 C118.10900556 922.10577446 113.09232912 926.4261367 107.84375 930.625 C104.44364928 933.46464456 101.22413555 936.46388099 98 939.5 C93.10900556 944.10577446 88.09232912 948.4261367 82.84375 952.625 C79.44364928 955.46464456 76.22413555 958.46388099 73 961.5 C68.94123272 965.32207891 64.85703191 969.01437447 60.5 972.5 C54.80368295 977.06041926 49.52680934 982.01734663 44.20703125 987.00390625 C39.5360668 991.38116714 34.70252459 995.5514289 29.828125 999.69921875 C28.63512763 1000.71580674 27.44242858 1001.7327449 26.25 1002.75 C25.6506665 1003.26119385 25.05133301 1003.7723877 24.43383789 1004.29907227 C19.38582939 1008.62545316 14.48414089 1013.09245121 9.62109375 1017.625 C2.58552632 1024 2.58552632 1024 0 1024 C0 933.25 0 842.5 0 749 C-40.59 749 -81.18 749 -123 749 C-123 602.81 -123 456.62 -123 306 C-82.41 306 -41.82 306 0 306 C0 205.02 0 104.04 0 0 Z M47 107 C47 172.67 47 238.34 47 306 C118.28 306 189.56 306 263 306 C261.35 304.35 259.7 302.7 258 301 C257.28199219 300.27039063 256.56398438 299.54078125 255.82421875 298.7890625 C255.11910156 298.07492187 254.41398438 297.36078125 253.6875 296.625 C252.64142578 295.56152344 252.64142578 295.56152344 251.57421875 294.4765625 C248.830166 291.83660887 245.98221988 289.35168852 243.10766602 286.85595703 C239.70448492 283.8592024 236.41865207 280.74103141 233.125 277.625 C228.00956429 272.80607718 222.85689534 268.04287635 217.61328125 263.36328125 C213.58855136 259.72357784 209.636111 256.00723881 205.67431641 252.29931641 C199.82098272 246.82390288 193.91762836 241.40583347 188 236 C179.09481376 227.85169546 170.2196958 219.671256 161.35449219 211.47949219 C155.08721149 205.68886742 148.8127443 199.90645822 142.51928711 194.14428711 C138.2873572 190.2678532 134.07057076 186.37518296 129.85546875 182.48046875 C126.24455405 179.14532796 122.62541847 175.81936501 119 172.5 C112.09888271 166.18069929 105.22696839 159.82990491 98.35449219 153.47949219 C92.57875316 148.14302505 86.79950458 142.81064282 81 137.5 C76.84607424 133.69622405 72.70070046 129.88337851 68.5625 126.0625 C68.03035889 125.57160889 67.49821777 125.08071777 66.94995117 124.57495117 C64.08020078 121.92638281 61.21639836 119.27167046 58.359375 116.609375 C57.46883423 115.78167603 57.46883423 115.78167603 56.56030273 114.93725586 C55.41743633 113.87484827 54.27624987 112.81062989 53.13696289 111.74438477 C50.29338667 109.06202084 50.29338667 109.06202084 47 107 Z M605.6796875 110.16015625 C604.73979224 111.12274785 603.80511437 112.09045424 602.875 113.0625 C599.08264458 116.97840241 595.18939903 120.62553053 591.06591797 124.19018555 C587.67051381 127.16467515 584.40367798 130.27313515 581.125 133.375 C576.00956429 138.19392282 570.85689534 142.95712365 565.61328125 147.63671875 C562.24893783 150.67921168 558.93674819 153.77546897 555.625 156.875 C549.12264912 162.96067958 542.57537779 168.99330353 536 175 C534.02006087 176.81165745 532.04108438 178.62436315 530.0625 180.4375 C529.56983643 180.88891357 529.07717285 181.34032715 528.56958008 181.80541992 C524.32207132 185.69971697 520.08813942 189.60861298 515.85571289 193.51928711 C512.24473418 196.85452815 508.62550329 200.18055733 505 203.5 C498.64966846 209.31495038 492.32397831 215.15641886 486 221 C479.18373698 227.29846975 472.36170543 233.59025261 465.51708984 239.85791016 C459.66225866 245.22148052 453.83169679 250.61130451 448 256 C441.18449837 262.2977662 434.36356557 268.58922018 427.51928711 274.85571289 C423.29426352 278.72582064 419.08214899 282.60978324 414.87744141 286.50195312 C412.13693992 289.03673111 409.38707605 291.55983929 406.6171875 294.0625 C406.07255859 294.55621094 405.52792969 295.04992187 404.96679688 295.55859375 C403.46712143 296.91658207 401.96413593 298.27091241 400.4609375 299.625 C397.74237401 302.12268431 397.74237401 302.12268431 395 306 C465.95 306 536.9 306 610 306 C610 240.66 610 175.32 610 108 C607.71560618 107.77286808 607.71560618 107.77286808 605.6796875 110.16015625 Z M-76 353 C-76 468.17 -76 583.34 -76 702 C-50.92 702 -25.84 702 0 702 C-0.04382813 694.09160156 -0.08765625 686.18320312 -0.1328125 678.03515625 C-0.13830509 673.01744765 -0.14085231 668.00008248 -0.1328125 662.98242188 C-0.12033773 655.02222201 -0.11861712 647.06332419 -0.18164062 639.10327148 C-0.23178438 632.68369376 -0.23311209 626.26577246 -0.20095444 619.84609795 C-0.19721049 617.40013495 -0.21089575 614.95407967 -0.24249649 612.50831795 C-0.48584321 592.30268074 -0.48584321 592.30268074 3.19195557 587.55038452 C5.69613856 585.27261782 8.05520069 583.64302381 11 582 C12.11389164 581.04494414 13.20247838 580.05866653 14.25 579.03125 C21.26093904 572.5779993 28.32784192 566.18987079 35.421875 559.828125 C40.48872009 555.27764629 45.52362488 550.69394033 50.53857422 546.08642578 C54.48063202 542.46771524 58.45499497 538.88654298 62.4375 535.3125 C65.30600445 532.72384964 68.15472981 530.11410892 71 527.5 C77.09987144 521.89696824 83.25561163 516.35787086 89.421875 510.828125 C94.48872009 506.27764629 99.52362488 501.69394033 104.53857422 497.08642578 C108.48063202 493.46771524 112.45499497 489.88654298 116.4375 486.3125 C119.30600409 483.72384997 122.1547665 481.11414854 125 478.5 C129.45064847 474.41082552 133.93078083 470.35630916 138.4296875 466.3203125 C141.34428447 463.68920217 144.23539224 461.03347525 147.125 458.375 C150.36213091 455.3977736 153.61137856 452.44047034 156.9375 449.5625 C161.069109 445.98062691 165.06929927 442.26162042 169.07958984 438.54541016 C173.17693929 434.75112961 177.31410773 431.00453553 181.47265625 427.27734375 C184.33082203 424.70190225 187.16710261 422.10314236 190 419.5 C194.45061978 415.41079455 198.93078117 411.35630885 203.4296875 407.3203125 C206.34428447 404.68920217 209.23539224 402.03347525 212.125 399.375 C215.36213091 396.3977736 218.61137856 393.44047034 221.9375 390.5625 C226.069109 386.98062691 230.06929927 383.26162042 234.07958984 379.54541016 C237.38523286 376.48427584 240.70851971 373.44582049 244.0625 370.4375 C247.90381923 366.98789425 251.7412651 363.53433892 255.5625 360.0625 C256.08787354 359.5893335 256.61324707 359.11616699 257.15454102 358.62866211 C259.95895611 356.11901818 259.95895611 356.11901818 262 353 C150.46 353 38.92 353 -76 353 Z M390 357 C395.09351906 362.96552859 395.09351906 362.96552859 400.625 368.25 C404.45304965 371.62971951 408.2439958 375.04087037 412 378.5 C415.64885653 381.8533791 419.3117011 385.18998817 423 388.5 C426.6883049 391.81001722 430.35065765 395.147145 434 398.5 C439.30121923 403.36943045 444.64104811 408.19423024 450 413 C455.87754442 418.27083016 461.72499827 423.57231672 467.53857422 428.91357422 C470.67631113 431.79393829 473.83003818 434.65516247 477 437.5 C481.20684327 441.27537217 485.37674853 445.08980448 489.5390625 448.9140625 C493.47829571 452.53007657 497.4494338 456.10897759 501.4296875 459.6796875 C504.34428447 462.31079783 507.23539224 464.96652475 510.125 467.625 C513.36213091 470.6022264 516.61137856 473.55952966 519.9375 476.4375 C524.069109 480.01937309 528.06929927 483.73837958 532.07958984 487.45458984 C536.17693929 491.24887039 540.31410773 494.99546447 544.47265625 498.72265625 C547.33082242 501.2980981 550.16706617 503.89689696 553 506.5 C558.30118479 511.3694675 563.64104859 516.19423067 569 521 C574.87754442 526.27083016 580.72499827 531.57231672 586.53857422 536.91357422 C589.67631113 539.79393829 592.83003818 542.65516247 596 545.5 C599.6883049 548.81001722 603.35065765 552.147145 607 555.5 C612.30121923 560.36943045 617.64104811 565.19423024 623 570 C624.62553457 571.45773745 626.25052763 572.91607895 627.875 574.375 C628.68839844 575.10460937 629.50179687 575.83421875 630.33984375 576.5859375 C632.30490138 578.36920566 634.25340185 580.16435737 636.19140625 581.9765625 C636.73104004 582.47881348 637.27067383 582.98106445 637.82666016 583.49853516 C638.88087589 584.48117031 639.93149079 585.46768637 640.97802734 586.45849609 C643.3256179 588.64228295 644.91588274 589.97196091 648 591 C648 628.62 648 666.24 648 705 C673.74 705 699.48 705 726 705 C726 590.16 726 475.32 726 357 C615.12 357 504.24 357 390 357 Z M297.43359375 385.50390625 C296.77488281 386.18324219 296.11617187 386.86257813 295.4375 387.5625 C292.18265042 390.85760391 288.83294562 393.94164012 285.32421875 396.9609375 C282.37589578 399.54753345 279.50085394 402.20836714 276.625 404.875 C271.96076165 409.19767547 267.26305663 413.47816805 262.52734375 417.72265625 C259.66917758 420.2980981 256.83293383 422.89689696 254 425.5 C247.90016822 431.10307436 241.74438779 436.64212966 235.578125 442.171875 C230.51127991 446.72235371 225.47637512 451.30605967 220.46142578 455.91357422 C216.51936798 459.53228476 212.54500503 463.11345702 208.5625 466.6875 C205.69399591 469.27615003 202.8452335 471.88585146 200 474.5 C195.54664513 478.59166107 191.06340146 482.64822946 186.5625 486.6875 C183.69399555 489.27615036 180.84527019 491.88589108 178 494.5 C171.90012856 500.10303176 165.74438837 505.64212914 159.578125 511.171875 C154.51127991 515.72235371 149.47637512 520.30605967 144.46142578 524.91357422 C140.51936798 528.53228476 136.54500503 532.11345702 132.5625 535.6875 C129.69399591 538.27615003 126.8452335 540.88585146 124 543.5 C119.54935153 547.58917448 115.06921917 551.64369084 110.5703125 555.6796875 C107.65571553 558.31079783 104.76460776 560.96652475 101.875 563.625 C98.63786909 566.6022264 95.38862144 569.55952966 92.0625 572.4375 C87.930891 576.01937309 83.93070073 579.73837958 79.92041016 583.45458984 C75.82845194 587.24387794 71.69745127 590.98629568 67.54296875 594.70703125 C65.66137596 596.40364411 63.78953977 598.10822182 61.92578125 599.82421875 C61.13409546 600.55306274 61.13409546 600.55306274 60.32641602 601.29663086 C58.8362594 602.67047356 57.34776567 604.0461193 55.859375 605.421875 C53 608 53 608 49.86638451 609.89512157 C47.71626811 611.7054809 47.06738484 612.6968896 46.45065999 615.47104037 C46.24005774 618.74658118 46.22985921 621.97404354 46.2784729 625.25617981 C46.27334635 626.51410251 46.2682198 627.77202521 46.2629379 629.06806678 C46.24952178 632.55746845 46.2735183 636.0457651 46.30360627 639.53502595 C46.32951111 643.29843559 46.32074926 647.06178264 46.31619263 650.82525635 C46.3130461 657.3449207 46.33187485 663.86422485 46.36561966 670.3837986 C46.41437693 679.80994979 46.43000778 689.23592677 46.43754761 698.6621904 C46.45068022 713.95547503 46.49061205 729.24856767 46.54736328 744.54174805 C46.60243528 759.39785806 46.64490686 774.25391594 46.67041016 789.11010742 C46.6719865 790.02580145 46.67356284 790.94149547 46.67518695 791.8849378 C46.68301716 796.47869417 46.69059941 801.07245092 46.69805837 805.66620791 C46.7602613 843.77760637 46.86594248 881.88879052 47 920 C48.27383916 919.05406897 49.54637199 918.10637863 50.81835938 917.15795898 C51.52714233 916.63040512 52.23592529 916.10285126 52.96618652 915.55931091 C55.61248345 913.53041312 58.0579578 911.33168681 60.5 909.0625 C65.97064609 904.02591338 71.52015964 899.10752878 77.18359375 894.2890625 C82.93971456 889.38650179 88.64779954 884.45949443 94.1875 879.3125 C97.81283208 875.94416553 101.51232393 872.7207798 105.375 869.625 C110.41416406 865.57333783 115.10465771 861.22645384 119.80810547 856.79736328 C124.101263 852.77656357 128.56246351 849.05002919 133.15625 845.375 C136.55635072 842.53535544 139.77586445 839.53611901 143 836.5 C147.89099444 831.89422554 152.90767088 827.5738633 158.15625 823.375 C161.55635072 820.53535544 164.77586445 817.53611901 168 814.5 C172.89099444 809.89422554 177.90767088 805.5738633 183.15625 801.375 C186.55635072 798.53535544 189.77586445 795.53611901 193 792.5 C197.05876728 788.67792109 201.14296809 784.98562553 205.5 781.5 C211.19631705 776.93958074 216.47319066 771.98265337 221.79296875 766.99609375 C226.4639332 762.61883286 231.29747541 758.4485711 236.171875 754.30078125 C237.36486315 753.28418244 238.55756205 752.26724412 239.75 751.25 C240.35368408 750.73518066 240.95736816 750.22036133 241.5793457 749.68994141 C245.52485283 746.3089801 249.38119366 742.84897957 253.1875 739.3125 C256.81283208 735.94416553 260.51232393 732.7207798 264.375 729.625 C269.40722926 725.57891365 274.09268564 721.2394244 278.78833008 716.81494141 C283.23178486 712.65153887 287.81523104 708.77288399 292.59765625 705 C293.39042969 704.34 294.18320312 703.68 295 703 C295.86214709 702.39201474 296.72429419 701.78402948 297.61256695 701.15762043 C301.32767431 696.24401714 300.67367403 691.47926192 300.60127258 685.47807312 C300.60554471 684.19156555 300.60981683 682.90505799 300.61421841 681.57956535 C300.62539968 678.01048605 300.60539855 674.44215684 300.58032811 670.87317312 C300.55874305 667.02387292 300.56604214 663.17461529 300.56983948 659.32527161 C300.57246171 652.65668904 300.55676949 645.988351 300.52865028 639.31982994 C300.48802124 629.67830173 300.47499369 620.0368918 300.46871033 610.39528725 C300.4577662 594.75263423 300.42448881 579.11011155 300.37719727 563.4675293 C300.33130473 548.27189791 300.29591133 533.07630193 300.2746582 517.88061523 C300.27334459 516.94401224 300.27203097 516.00740925 300.27067754 515.04242434 C300.26415237 510.34377936 300.25783383 505.64513414 300.25161803 500.94648874 C300.19978134 461.96423456 300.11171284 422.98212588 300 384 C298.75831047 383.88457179 298.75831047 383.88457179 297.43359375 385.50390625 Z M348 388 C347.70227207 427.28765464 347.47328777 466.57516193 347.33615072 505.86371984 C347.31989205 510.50485153 347.30306581 515.145981 347.28588867 519.78710938 C347.28247864 520.71105223 347.2790686 521.63499508 347.27555523 522.58693621 C347.21902845 537.53625107 347.11655257 552.4849143 346.99701365 567.43384293 C346.87532875 582.7794286 346.80321202 598.12467364 346.77684957 613.47072196 C346.75903463 622.93614737 346.70283032 632.39973087 346.59708593 641.86458907 C346.52822414 648.36013565 346.50762978 654.85473388 346.52448209 661.35061875 C346.532789 665.09606015 346.52031021 668.8382905 346.45032883 672.58315659 C345.4298602 688.27793568 345.4298602 688.27793568 350.80217934 702.34307098 C353.87233639 705.51639926 357.2324915 707.72102415 361 710 C362.83224938 711.45463139 364.64867649 712.92978626 366.4375 714.4375 C367.76587891 715.50291016 367.76587891 715.50291016 369.12109375 716.58984375 C373.16352415 719.97407653 376.97133817 723.58965623 380.80834961 727.20288086 C384.27078844 730.44563261 387.79295976 733.53436781 391.5 736.5 C397.19631705 741.06041926 402.47319066 746.01734663 407.79296875 751.00390625 C412.4639332 755.38116714 417.29747541 759.5514289 422.171875 763.69921875 C423.36486315 764.71581756 424.55756205 765.73275588 425.75 766.75 C426.35368408 767.26481934 426.95736816 767.77963867 427.5793457 768.31005859 C432.03960984 772.13212252 436.37267114 776.07221266 440.67529297 780.06982422 C443.81503117 782.96748224 447.04166489 785.70346573 450.375 788.375 C455.41416406 792.42666217 460.10465771 796.77354616 464.80810547 801.20263672 C468.27061478 804.44548452 471.79286848 807.53429479 475.5 810.5 C480.5043432 814.50347456 485.14699302 818.81336708 489.80859375 823.203125 C493.27096211 826.44578071 496.79305103 829.53444083 500.5 832.5 C505.5043432 836.50347456 510.14699302 840.81336708 514.80859375 845.203125 C518.27096211 848.44578071 521.79305103 851.53444083 525.5 854.5 C530.5043432 858.50347456 535.14699302 862.81336708 539.80859375 867.203125 C543.27096211 870.44578071 546.79305103 873.53444083 550.5 876.5 C555.5043432 880.50347456 560.14699302 884.81336708 564.80859375 889.203125 C569.09497779 893.21750655 573.54679482 896.9403295 578.13671875 900.60546875 C582.26901892 904.06126684 586.16871202 907.75523261 590.0546875 911.484375 C590.61027344 912.01160156 591.16585937 912.53882813 591.73828125 913.08203125 C592.46591675 913.78162964 592.46591675 913.78162964 593.20825195 914.49536133 C595.65991445 916.55416988 598.3300355 918.2379439 601 920 C601.2289255 881.42553912 601.40511491 842.85118062 601.51065329 804.2761778 C601.52316025 799.72130818 601.53610348 795.16643989 601.54931641 790.61157227 C601.55193951 789.70478617 601.55456261 788.79800007 601.55726521 787.86373561 C601.60076987 773.184126 601.67961044 758.5049083 601.77152796 743.82553113 C601.86506798 728.76131682 601.92059287 713.69730764 601.94088495 698.63281482 C601.95460153 689.33813836 601.9979089 680.04456961 602.07916467 670.75023418 C602.13205575 664.37533189 602.14799447 658.0010016 602.13501377 651.62589587 C602.12861244 647.94816247 602.13836738 644.27236321 602.19205475 640.59497452 C602.24990553 636.60315934 602.22985292 632.61544618 602.20254517 628.62330627 C602.23167358 627.46667357 602.26080199 626.31004086 602.29081309 625.11835867 C602.20022795 620.21900165 601.97784833 617.19268732 598.80757594 613.32588756 C596.29653574 611.04941329 593.72667757 609.00949314 591 607 C589.90124443 606.02756878 588.81503723 605.04049823 587.75 604.03125 C583.18703257 599.83124589 578.61562827 595.6422305 574 591.5 C570.3116951 588.18998278 566.64934235 584.852855 563 581.5 C557.69878077 576.63056955 552.35895189 571.80576976 547 567 C541.12245558 561.72916984 535.27500173 556.42768328 529.46142578 551.08642578 C526.32368887 548.20606171 523.16996182 545.34483753 520 542.5 C515.79315673 538.72462783 511.62325147 534.91019552 507.4609375 531.0859375 C503.52170429 527.46992343 499.5505662 523.89102241 495.5703125 520.3203125 C492.65571553 517.68920217 489.76460776 515.03347525 486.875 512.375 C483.63786909 509.3977736 480.38862144 506.44047034 477.0625 503.5625 C472.930891 499.98062691 468.93070073 496.26162042 464.92041016 492.54541016 C460.82306071 488.75112961 456.68589227 485.00453553 452.52734375 481.27734375 C449.66917797 478.70190225 446.83289739 476.10314236 444 473.5 C439.54938022 469.41079455 435.06921883 465.35630885 430.5703125 461.3203125 C427.65571553 458.68920217 424.76460776 456.03347525 421.875 453.375 C418.63786909 450.3977736 415.38862144 447.44047034 412.0625 444.5625 C407.930891 440.98062691 403.93070073 437.26162042 399.92041016 433.54541016 C395.82306071 429.75112961 391.68589227 426.00453553 387.52734375 422.27734375 C384.66917797 419.70190225 381.83289739 417.10314236 379 414.5 C374.55677789 410.41759149 370.08677755 406.36693875 365.58984375 402.34375 C363.64944786 400.58773562 361.72764231 398.81849855 359.81640625 397.03125 C359.27564453 396.52787109 358.73488281 396.02449219 358.17773438 395.50585938 C357.12193299 394.52155119 356.06968278 393.53341639 355.02148438 392.54101562 C352.67403487 390.35741494 351.08389457 389.02796486 348 388 Z " fill="#21B8CD" transform="translate(187,0)"/>
</svg>
