<?xml version="1.0" encoding="UTF-8"?>
<svg version="1.1" xmlns="http://www.w3.org/2000/svg" width="1024" height="1024">
<path d="M0 0 C3.9605329 0.56197725 7.41134191 1.397688 11.109375 2.9140625 C12.14223633 3.33276611 13.17509766 3.75146973 14.23925781 4.18286133 C15.39780273 4.65876709 16.55634766 5.13467285 17.75 5.625 C20.46747761 6.728408 23.18699375 7.82676515 25.90625 8.92578125 C27.05048431 9.38923195 27.05048431 9.38923195 28.21783447 9.86204529 C38.63743142 14.07734056 49.09175191 18.20549479 59.54202271 22.34399414 C63.29642376 23.83088565 67.05049991 25.31859432 70.80444336 26.80664062 C72.08166964 27.31291829 73.35889641 27.81919474 74.63612366 28.32546997 C75.5897111 28.70345922 75.5897111 28.70345922 76.56256294 29.08908463 C79.15202426 30.11545671 81.74155347 31.14165742 84.33108044 32.16786385 C92.48294054 35.39840559 100.63418743 38.63049125 108.78515625 41.86328125 C109.98814362 42.34040054 111.19113098 42.81751984 112.43057251 43.30909729 C114.84999673 44.26867473 117.26942016 45.2282542 119.68884277 46.18783569 C139.29111336 53.96221441 158.89483225 61.73293035 178.5 69.5 C204.22545309 79.6917713 229.94769895 89.89162183 255.66943359 100.09277344 C264.16039465 103.46023659 272.65146696 106.82741916 281.14257812 110.19450378 C287.16851062 112.58404255 293.1944072 114.9736718 299.22021484 117.36352539 C312.08822358 122.46689427 324.9570328 127.56823481 337.82703781 132.66656685 C348.13823427 136.75136583 358.44713112 140.84193939 368.75479126 144.93565369 C375.38040681 147.56623544 382.00911744 150.1887869 388.64071655 152.804245 C409.37209532 160.98468795 429.96549582 169.20831551 450 179 C450.99612305 179.48098145 451.99224609 179.96196289 453.01855469 180.45751953 C496.25753627 201.37494472 538.01075028 227.03650769 573.44921875 259.66796875 C575.60075151 261.63499028 577.78291973 263.54553129 580 265.4375 C587.93695961 272.34770714 595.20091506 279.97909218 602 288 C602.78503906 288.88429688 603.57007813 289.76859375 604.37890625 290.6796875 C617.59244543 305.69239161 628.49317158 322.43969035 638 340 C638.36818848 340.67981934 638.73637695 341.35963867 639.11572266 342.06005859 C657.61757041 376.66899628 670.84769539 419.51406528 669 459 C663.46182871 461.90025286 657.82801886 464.5386795 652.11010742 467.06103516 C624.61444753 479.21867528 598.41687355 494.46926302 574 512 C573.20126465 512.56960449 572.4025293 513.13920898 571.57958984 513.72607422 C560.94181064 521.33648464 550.74959755 529.28051272 541 538 C539.63101562 539.22009766 539.63101562 539.22009766 538.234375 540.46484375 C536.58616314 541.94368414 534.94260382 543.42773341 533.3046875 544.91796875 C531.76185535 546.31174762 530.20427572 547.6893651 528.6328125 549.05078125 C524.28248969 552.82252578 520.3773379 556.68986674 516.6640625 561.08984375 C515.10366192 562.8810078 513.47488078 564.49412931 511.75 566.125 C506.76602618 571.03092501 502.63573219 576.67430048 498.38769531 582.2109375 C497.11157728 583.85615089 495.803308 585.47629293 494.4921875 587.09375 C480.10827059 605.03895824 469.68494164 625.80011141 461 647 C460.64679687 647.82757812 460.29359375 648.65515625 459.9296875 649.5078125 C458.42327492 653.11228467 458.42327492 653.11228467 458.12890625 656.953125 C459.3888409 659.91368892 461.33484998 661.17491316 463.875 663.125 C467.89114135 666.290176 471.74607361 669.52734763 475.5 673 C479.9698512 677.11378909 484.59044893 680.97087297 489.31640625 684.78515625 C491.94708557 686.95632827 494.47942424 689.20241357 497 691.5 C500.41739372 694.61458668 503.9052235 697.5918662 507.5 700.5 C512.03307947 704.16872109 516.38736199 707.9885123 520.6953125 711.91796875 C522.8046275 713.82350247 524.95010888 715.67012173 527.125 717.5 C528.07375 718.325 529.0225 719.15 530 720 C530 720.33 530 720.66 530 721 C379.19 721 228.38 721 73 721 C71.31762466 715.95287399 69.64143593 710.91289867 68.01953125 705.84765625 C55.73547036 667.89773713 36.59983877 631.54412054 5 606 C3.96057987 605.12542487 2.92155521 604.25037961 1.8828125 603.375 C-31.01974806 575.99489772 -70.05740026 560.06492175 -110 546 C-109.2823592 549.26134956 -109.2823592 549.26134956 -106.12695312 550.65063477 C-104.84981262 551.25767717 -103.56746613 551.85383803 -102.28125 552.44140625 C-101.59572556 552.76531845 -100.91020111 553.08923065 -100.2039032 553.42295837 C-98.73476075 554.11700121 -97.2636711 554.8069342 -95.79086304 555.49316406 C-91.97938398 557.27229772 -88.18595479 559.08874762 -84.39453125 560.91015625 C-83.65390945 561.265867 -82.91328766 561.62157776 -82.15022278 561.98806763 C-74.13512707 565.86266685 -66.49808939 570.20542242 -59 575 C-58.00871094 575.62390625 -57.01742188 576.2478125 -55.99609375 576.890625 C-52.9500321 578.86331254 -49.96305898 580.90589514 -47 583 C-46.29085449 583.50015625 -45.58170898 584.0003125 -44.85107422 584.515625 C-35.30496181 591.29271165 -26.18716397 598.23840742 -17.76171875 606.37890625 C-15.82303175 608.21887651 -13.91378798 609.92511265 -11.8515625 611.609375 C-9.53651044 613.55021316 -7.61855661 615.38719742 -5.6875 617.6875 C-3.82348995 619.8852411 -1.95650589 622.04601308 0.0234375 624.140625 C23.6396616 649.20622025 43 685.98565308 43 721 C-79.1 721 -201.2 721 -327 721 C-331.50747835 709.73130412 -331.50747835 709.73130412 -332.9296875 704.59375 C-333.24703857 703.45156006 -333.56438965 702.30937012 -333.89135742 701.13256836 C-334.21595947 699.9338208 -334.54056152 698.73507324 -334.875 697.5 C-335.22087158 696.22970947 -335.56674316 694.95941895 -335.9230957 693.65063477 C-346.82233222 653.3192187 -355.05405552 611.13749767 -355.203125 569.22265625 C-355.20882507 567.93604599 -355.21452515 566.64943573 -355.22039795 565.32383728 C-355.23081573 562.60854715 -355.23671504 559.89328572 -355.24023438 557.17797852 C-355.24456971 554.46462187 -355.25828496 551.75159208 -355.28125 549.03833008 C-355.96481967 461.60015687 -329.87378949 371.44369799 -271.52001953 304.79101562 C-270.34648221 303.40825466 -269.20184052 302.00093774 -268.06982422 300.58398438 C-262.76812199 293.95064227 -257.12131112 287.80861484 -251.09863281 281.83789062 C-249.62587477 280.37586839 -248.16414955 278.90342512 -246.703125 277.4296875 C-241.19727401 271.91664015 -235.49869207 266.77648927 -229.38818359 261.92895508 C-227.16827303 260.13591548 -225.07742012 258.26721154 -223 256.3125 C-210.51667427 245.12209015 -196.206989 235.83308698 -182 227 C-181.40364746 226.62601074 -180.80729492 226.25202148 -180.19287109 225.86669922 C-175.84754821 223.15193715 -171.4451114 220.54781979 -167 218 C-166.17773926 217.52868652 -165.35547852 217.05737305 -164.50830078 216.57177734 C-139.1009624 202.14217885 -112.57951186 190.59806223 -85 181 C-83.99984863 180.64744141 -82.99969727 180.29488281 -81.96923828 179.93164062 C-59.12364609 171.91141956 -35.87372678 165.679324 -12.24822998 160.44992065 C-10.33725335 160.02597409 -8.42744283 159.59673559 -6.51885986 159.16213989 C-3.83649111 158.55476413 -1.15004823 157.97122012 1.5390625 157.39453125 C2.35022522 157.20759705 3.16138794 157.02066284 3.99713135 156.82806396 C6.26416016 156.35864258 6.26416016 156.35864258 10 156 C12.5554182 158.07408735 13.66536369 160.11564912 14.875 163.1484375 C15.2145874 163.97843262 15.5541748 164.80842773 15.90405273 165.66357422 C16.26571533 166.55834473 16.62737793 167.45311523 17 168.375 C27.53886404 193.61839077 41.34070002 216.59394058 59.921875 236.734375 C61.81818331 238.8017788 63.63029606 240.91750093 65.4375 243.0625 C95.32560467 277.19102226 142.37663879 296.24315437 186 304 C187.27738037 304.22743896 187.27738037 304.22743896 188.58056641 304.45947266 C203.94431951 307.09859045 219.45551626 308.05508268 235 309 C235 308.01 235 307.02 235 306 C234.29101562 305.92523438 233.58203125 305.85046875 232.8515625 305.7734375 C192.711985 300.81673423 150.22005131 286.44153229 117 263 C116.33758301 262.53384277 115.67516602 262.06768555 114.99267578 261.58740234 C106.34861067 255.43623292 98.19977567 248.90970565 90.57324219 241.52197266 C89.46803554 240.45278298 88.35608155 239.3905453 87.23925781 238.33349609 C77.37547985 228.98599689 68.84279571 219.09631246 61 208 C60.30511475 207.02353516 60.30511475 207.02353516 59.59619141 206.02734375 C20.4084668 150.22605304 -1.10427418 68.46499914 0 0 Z " fill="#000000" transform="translate(355,128)"/>
</svg>
