<?xml version="1.0" encoding="UTF-8"?>
<svg version="1.1" xmlns="http://www.w3.org/2000/svg" width="1024" height="1024">
<path d="M0 0 C0.79225983 -0.00559937 1.58451965 -0.01119873 2.40078735 -0.01696777 C4.97441663 -0.02886721 7.54746491 -0.0225895 10.12109375 -0.01171875 C11.00785797 -0.00989594 11.89462219 -0.00807312 12.80825806 -0.00619507 C79.60695659 0.22402891 144.25526356 18.15507145 203.55859375 48.30078125 C204.9338623 48.9959082 204.9338623 48.9959082 206.33691406 49.70507812 C247.28151728 70.62567831 289.03910154 102.27392149 317.47265625 138.66015625 C319.3867681 141.08326413 321.38799226 143.40307464 323.42797852 145.72021484 C330.96328851 154.34684559 337.26479708 163.74906429 343.55859375 173.30078125 C344.31076172 174.42564941 344.31076172 174.42564941 345.078125 175.57324219 C392.2470903 246.29557604 408.43800924 333.68626797 392.25732422 416.84667969 C386.58465316 444.8889404 377.25210545 471.66849496 364.55859375 497.30078125 C363.93235107 498.57187744 363.93235107 498.57187744 363.29345703 499.86865234 C350.58395355 525.42377854 334.2160165 549.82916213 314.82421875 570.82421875 C312.99562845 572.82305711 311.22820004 574.85082803 309.46484375 576.90625 C305.25013455 581.73368015 300.76601259 586.27944148 296.23535156 590.80932617 C294.81939428 592.22746409 293.41161086 593.6537479 292.00390625 595.08007812 C285.83384864 601.26302583 279.38732174 606.86185445 272.55859375 612.30078125 C271.53108828 613.16422254 270.50767735 614.03261495 269.4921875 614.91015625 C251.22692672 630.57426096 230.8121785 643.70121034 209.68115234 655.14697266 C208.22438137 655.93886357 206.77176995 656.73844018 205.32275391 657.54443359 C168.14214435 678.20377835 127.43460612 691.36309585 85.80859375 699.55078125 C84.62749023 699.78498779 83.44638672 700.01919434 82.22949219 700.26049805 C70.6948608 702.44655995 59.26228273 703.77421312 47.55859375 705.30078125 C166.02859375 705.63078125 284.49859375 705.96078125 406.55859375 706.30078125 C411.50859375 715.21078125 416.45859375 724.12078125 421.55859375 733.30078125 C425.64290583 740.60194091 429.72848678 747.9022835 433.8203125 755.19921875 C435.57850198 758.33630289 437.33450719 761.47459998 439.08984375 764.61328125 C444.72495633 774.68782567 450.37258293 784.75486235 456.05859375 794.80078125 C462.33823214 805.89550829 468.56960073 817.01691518 474.79248047 828.14355469 C477.71257511 833.36371834 480.63569207 838.58218898 483.55859375 843.80078125 C487.07183227 850.07336973 490.58441124 856.34632244 494.09375 862.62109375 C499.72793488 872.69282247 505.37401624 882.75739468 511.05859375 892.80078125 C517.33823214 903.89550829 523.56960073 915.01691518 529.79248047 926.14355469 C532.13154139 930.32502218 534.47257656 934.50538223 536.81396484 938.68554688 C537.96963447 940.74912713 539.12491307 942.81292642 540.27978516 944.87695312 C543.01932172 949.77235556 545.76234615 954.66570282 548.51712036 959.55255127 C549.502457 961.30085449 550.48658831 963.04983685 551.47070312 964.79882812 C552.71338543 967.00704775 553.95809435 969.21412843 555.20507812 971.41992188 C555.76130859 972.40927734 556.31753906 973.39863281 556.890625 974.41796875 C557.38280518 975.29050293 557.87498535 976.16303711 558.38208008 977.06201172 C559.55859375 979.30078125 559.55859375 979.30078125 560.55859375 982.30078125 C427.23859375 982.30078125 293.91859375 982.30078125 156.55859375 982.30078125 C142.80882374 958.23868373 142.80882374 958.23868373 137.68359375 949.05078125 C136.5000093 946.93358855 135.31641526 944.81640121 134.1328125 942.69921875 C133.54290527 941.6431543 132.95299805 940.58708984 132.34521484 939.49902344 C129.3980084 934.22320976 126.44769646 928.94913647 123.49609375 923.67578125 C122.91617676 922.63969727 122.33625977 921.60361328 121.73876953 920.53613281 C117.86197374 913.6149089 113.96619836 906.70465116 110.05859375 899.80078125 C102.58938051 886.60433951 95.18922975 873.36946404 87.78808594 860.13476562 C81.56664989 849.01107157 75.33661841 837.8926572 69.05859375 826.80078125 C62.77895536 815.70605421 56.54758677 804.58464732 50.32470703 793.45800781 C47.40461239 788.23784416 44.48149543 783.01937352 41.55859375 777.80078125 C38.04535523 771.52819277 34.53277626 765.25524006 31.0234375 758.98046875 C21.92758685 742.72047392 12.80230469 726.4772754 3.55859375 710.30078125 C3.22859375 800.06078125 2.89859375 889.82078125 2.55859375 982.30078125 C-130.10140625 982.30078125 -262.76140625 982.30078125 -399.44140625 982.30078125 C-397.09083874 972.8985112 -394.74334982 963.56263469 -392.06811523 954.25927734 C-391.75133536 953.14946251 -391.43455549 952.03964767 -391.10817623 950.89620209 C-390.05381625 947.20481185 -388.99566865 943.51451885 -387.9375 939.82421875 C-387.16368001 937.11929788 -386.39065604 934.41414967 -385.61758423 931.70901489 C-383.93482964 925.82234667 -382.25007161 919.93625475 -380.56399536 914.05053711 C-378.05710094 905.29950362 -375.55344609 896.54754553 -373.05031335 887.79543543 C-361.94821102 848.97884121 -350.82577214 810.16806549 -339.70651007 771.35638428 C-338.44449051 766.95130979 -337.18248289 762.54623188 -335.92047584 758.14115381 C-334.9690771 754.82026529 -334.01767592 751.49937747 -333.06627464 748.17848969 C-331.79272847 743.73314394 -330.5191913 739.28779561 -329.24566078 734.84244537 C-326.37597645 724.82563226 -323.50624214 714.80883348 -320.6362251 704.79211569 C-301.73058091 638.81030051 -301.73058091 638.81030051 -282.89453125 572.80859375 C-282.69215442 572.09806272 -282.48977758 571.38753169 -282.28126812 570.65546942 C-274.65377238 543.87461203 -267.05032313 517.08692302 -259.44140625 490.30078125 C-193.11140625 489.80578125 -193.11140625 489.80578125 -125.44140625 489.30078125 C-127.09140625 477.09078125 -128.74140625 464.88078125 -130.44140625 452.30078125 C-131.57077431 441.63452734 -132.637502 430.99162653 -133.44140625 420.30078125 C-133.49361328 419.61977356 -133.54582031 418.93876587 -133.59960938 418.23712158 C-136.92091886 374.47963791 -136.91117045 330.04887873 -133.44140625 286.30078125 C-133.37824219 285.49692993 -133.31507813 284.69307861 -133.25 283.86486816 C-127.01423155 205.47071302 -113.70060861 113.2408371 -42.4921875 17.6875 C-30.28725348 7.57571026 -16.09966931 -0.01676015 0 0 Z M-19.44140625 78.30078125 C-22.40299541 82.47604127 -24.99011986 86.81180998 -27.44140625 91.30078125 C-28.06660156 92.44160156 -28.69179688 93.58242187 -29.3359375 94.7578125 C-42.54404291 120.24702001 -49.06748496 149.3041885 -54.44140625 177.30078125 C-54.65089905 178.39105621 -54.65089905 178.39105621 -54.86462402 179.50335693 C-64.95130165 232.44730582 -68.68258576 286.47237987 -69.44140625 340.30078125 C-69.45800293 341.44063477 -69.47459961 342.58048828 -69.49169922 343.75488281 C-69.58342952 351.27223756 -69.54874741 358.78377361 -69.44140625 366.30078125 C-69.42352051 367.60869629 -69.40563477 368.91661133 -69.38720703 370.26416016 C-69.00882448 507.53320138 -69.00882448 507.53320138 -15.1796875 632.65234375 C-9.83307614 637.64493501 -5.36487349 640.88040976 2.05859375 641.67578125 C10.1383599 640.81009202 14.91951471 636.82406811 20.55859375 631.30078125 C21.33009766 630.54861328 21.33009766 630.54861328 22.1171875 629.78125 C65.30542246 583.54994158 67.66701739 486.3092581 71.55859375 426.30078125 C71.61080078 425.49757446 71.66300781 424.69436768 71.71679688 423.86682129 C74.76461441 376.1059213 74.66256367 328.05545428 71.55859375 280.30078125 C71.50767578 279.51562134 71.45675781 278.73046143 71.40429688 277.92150879 C65.96850631 166.42827896 65.96850631 166.42827896 16.8515625 71.1484375 C12.29920937 67.48018702 7.85712815 65.67690506 2.12109375 64.73828125 C-6.92629008 66.16681554 -13.7975795 71.27455969 -19.44140625 78.30078125 Z " fill="#000000" transform="translate(441.44140625,-0.30078125)"/>
</svg>
