<?xml version="1.0" encoding="UTF-8"?>
<svg version="1.1" xmlns="http://www.w3.org/2000/svg" width="1024" height="1024">
<path d="M0 0 C2.17122792 -0.00231017 4.34245505 -0.00549039 6.51368058 -0.00945449 C12.42326956 -0.01773491 18.3327932 -0.01370821 24.24238229 -0.00748205 C30.63788033 -0.00293062 37.03336766 -0.00995463 43.42886353 -0.01544189 C55.21465914 -0.02379796 67.00043174 -0.02310681 78.78622845 -0.01761896 C89.67835092 -0.01257262 100.57046586 -0.0112815 111.46258926 -0.01366425 C112.54956557 -0.0138934 112.54956557 -0.0138934 113.65850099 -0.01412719 C116.6006817 -0.01474994 119.5428624 -0.01538675 122.4850431 -0.01604671 C150.04420755 -0.02215468 177.60335891 -0.01663398 205.16252134 -0.00585292 C229.60217985 0.00363515 254.04181751 0.00278956 278.48147583 -0.0067749 C305.98968104 -0.01750446 333.49787469 -0.02171937 361.0060817 -0.01555037 C363.94328507 -0.01490902 366.88048843 -0.01428333 369.8176918 -0.01366425 C370.90237756 -0.01342701 370.90237756 -0.01342701 372.00897616 -0.01318499 C382.88803559 -0.01091821 393.76708661 -0.01355534 404.64614487 -0.01862335 C417.02827345 -0.02436308 429.41037395 -0.02267648 441.79250012 -0.01206186 C448.10205898 -0.00683006 454.4115757 -0.0047056 460.72113419 -0.01136017 C466.51087322 -0.01737381 472.30053154 -0.01395636 478.09026338 -0.00340506 C480.17079612 -0.00119375 482.25133585 -0.00225539 484.33186398 -0.00715664 C502.45005718 -0.04652304 520.62794644 0.7060064 538.3989563 4.50396729 C539.43761841 4.72085205 540.47628052 4.93773682 541.54641724 5.16119385 C571.2106558 11.5483178 599.13420145 23.26010804 623.14993286 41.98834229 C624.59337454 43.1132373 626.0536424 44.21646623 627.5161438 45.31646729 C648.56345259 61.69370452 664.56424782 82.29563261 677.7739563 105.25396729 C678.13827759 105.87416748 678.50259888 106.49436768 678.87796021 107.13336182 C690.9513155 127.79573946 698.21879043 151.16621764 703.0239563 174.50396729 C703.17517944 175.23446289 703.32640259 175.9649585 703.48220825 176.71759033 C706.34917461 191.56721338 707.1518129 206.29033021 707.0864563 221.37896729 C707.08430115 222.27849121 707.082146 223.17801514 707.07992554 224.10479736 C706.85149597 283.65493185 685.22229699 338.70293117 643.7114563 381.56646729 C639.00686575 386.12555504 633.92001265 390.20767298 628.7739563 394.25396729 C627.8355188 394.99775635 626.8970813 395.74154541 625.9302063 396.50787354 C618.24403636 402.44812584 610.19489005 407.45067534 601.7739563 412.25396729 C600.88716187 412.77023682 600.88716187 412.77023682 599.98245239 413.29693604 C578.06268103 425.99981769 553.36942276 432.90182965 528.60598755 437.49224854 C524.99085147 438.0354146 524.99085147 438.0354146 522.7739563 439.25396729 C538.9479833 455.45137144 555.12488534 471.64589917 571.30519962 487.83702278 C578.81820218 495.35517805 586.33026687 502.87426594 593.84011841 510.39556885 C600.38693722 516.95236577 606.93552153 523.5073934 613.48621744 530.06031692 C616.95355524 533.5289565 620.42001238 536.99846586 623.88435555 540.47009659 C627.14807124 543.74062184 630.41415039 547.00876831 633.68202209 550.27514076 C634.87809156 551.47148434 636.07331047 552.66867899 637.26759148 553.86680794 C642.93154606 559.54810834 648.58566162 565.13560226 654.7739563 570.25396729 C657.27778289 572.77961372 659.50815074 575.51362509 661.7739563 578.25396729 C662.20869263 578.77104248 662.64342896 579.28811768 663.09133911 579.82086182 C670.89526777 589.13002282 677.70435981 598.73220175 683.7739563 609.25396729 C684.18887329 609.96472412 684.60379028 610.67548096 685.03128052 611.40777588 C713.26168342 660.34698645 717.00990019 719.61792096 702.90579224 773.57525635 C698.81686017 788.41768949 693.63396816 802.47736614 686.7739563 816.25396729 C686.37418579 817.06446533 685.97441528 817.87496338 685.56253052 818.71002197 C675.12891263 839.69323287 661.99899878 858.34628582 645.7739563 875.25396729 C644.89610474 876.18064209 644.89610474 876.18064209 644.0005188 877.1260376 C602.70622552 920.54073286 549.61880197 938.69806967 490.7739563 940.25396729 C489.10550659 940.29916504 489.10550659 940.29916504 487.40335083 940.34527588 C429.96893438 941.69982048 381.51328932 914.42069488 338.91067505 877.91802979 C335.97447668 875.40800998 332.97383111 872.98467713 329.9614563 870.56646729 C326.03278208 867.37228433 322.40306358 864.0434246 318.91848755 860.37115479 C317.094545 858.57046833 315.23590559 856.92440183 313.28860474 855.26202393 C308.10007333 850.73439306 303.25723997 845.88074907 298.39505005 841.00787354 C297.41448749 840.02798676 296.43377671 839.04824828 295.45292664 838.06864929 C293.40995417 836.02714088 291.36877461 833.98386163 289.32888794 831.93927002 C286.73475764 829.33944325 284.13616196 826.74413356 281.53619289 824.15014744 C279.51387805 822.13147333 277.4939844 820.11038996 275.47477913 818.08860588 C274.05879384 816.67164405 272.64082115 815.25666911 271.22279358 813.8417511 C266.72856262 809.3313221 262.37989434 804.76429367 258.23136902 799.9337616 C256.4456549 797.8755715 254.56191787 795.94368237 252.6177063 794.03521729 C251.90485474 793.3301001 251.19200317 792.62498291 250.45755005 791.89849854 C249.73696411 791.19080322 249.01637817 790.48310791 248.2739563 789.75396729 C243.51048069 785.07570591 238.92942386 780.3456558 234.57376099 775.28521729 C231.25482699 771.53948603 227.69592523 768.03213603 224.1489563 764.50396729 C223.41161255 763.76275635 222.6742688 763.02154541 221.9145813 762.25787354 C218.34899098 758.69867316 214.8117631 755.28631231 210.7739563 752.25396729 C209.62026526 756.08235909 208.61051658 759.88459354 207.80130005 763.80084229 C197.12026511 815.29851098 171.47910855 861.65598468 128.7739563 893.25396729 C128.23512817 893.65357666 127.69630005 894.05318604 127.1411438 894.46490479 C78.71688486 930.00783376 15.6269241 942.91619618 -43.3979187 934.21881104 C-90.70771789 926.59352903 -133.48321827 907.38305492 -168.2260437 874.25396729 C-169.12838745 873.41607666 -170.0307312 872.57818604 -170.9604187 871.71490479 C-208.43039565 835.86934881 -227.96539054 782.1911114 -229.28350979 731.02319802 C-229.38139085 724.66068036 -229.36955097 718.29768815 -229.3664856 711.93458557 C-229.36907296 709.77637514 -229.37208715 707.61816518 -229.375489 705.45995587 C-229.3835188 699.55369473 -229.38534632 693.64744577 -229.38608646 687.74117982 C-229.38794408 681.36116169 -229.39549499 674.98114977 -229.40222168 668.60113525 C-229.4164837 653.93415039 -229.42232808 639.26716803 -229.42691362 624.60017744 C-229.42925464 617.34134425 -229.43285786 610.08251185 -229.436609 602.82367928 C-229.44944102 577.9420791 -229.4601599 553.06047934 -229.4636116 528.17887592 C-229.46383323 526.61877621 -229.46405501 525.05867649 -229.46427695 523.49857677 C-229.46449759 521.93485914 -229.46471807 520.37114152 -229.4649384 518.80742389 C-229.46538094 515.67070854 -229.46582806 512.53399318 -229.46627808 509.39727783 C-229.46638747 508.61956268 -229.46649686 507.84184752 -229.46660956 507.04056524 C-229.47023698 481.84571591 -229.4861469 456.65089541 -229.50946844 431.45605712 C-229.53411993 404.77532158 -229.54778692 378.0946025 -229.54897952 351.41385525 C-229.54915095 348.47927963 -229.54936637 345.54470402 -229.54961395 342.6101284 C-229.54966972 341.8876319 -229.54972549 341.1651354 -229.54978295 340.42074507 C-229.55092883 328.84364978 -229.56191127 317.26658431 -229.57650101 305.68949906 C-229.5909389 294.03038339 -229.59381173 282.37131429 -229.58606103 270.71219114 C-229.58217471 264.40823804 -229.58298461 258.1043843 -229.59711838 251.80044365 C-229.74376949 182.31045095 -218.00119084 120.18164342 -168.2260437 68.25396729 C-167.72347046 67.7241626 -167.22089722 67.19435791 -166.70309448 66.64849854 C-159.30555679 58.88442657 -151.56332796 51.94462034 -142.95700073 45.54498291 C-141.29220224 44.30331092 -139.647605 43.038319 -138.00338745 41.76959229 C-113.39878316 23.13647582 -83.71022693 11.28991263 -53.7885437 4.50396729 C-52.93276733 4.30512939 -52.07699097 4.1062915 -51.19528198 3.90142822 C-34.34163327 0.28439263 -17.16304708 -0.04033718 0 0 Z M-71.2260437 160.25396729 C-72.0304187 161.03513916 -72.8347937 161.81631104 -73.6635437 162.62115479 C-86.22575063 175.57593068 -93.40856552 192.63947239 -95.33865643 210.45174789 C-95.42262945 211.22575966 -95.50660248 211.99977143 -95.59312014 212.7972381 C-96.5326196 222.26066936 -96.50679964 231.71380345 -96.48674011 241.21447754 C-96.48976758 243.27261008 -96.49366002 245.33074149 -96.49833268 247.38887095 C-96.50854467 252.99513418 -96.50644834 258.60133297 -96.50215209 264.20760131 C-96.49967242 270.27320898 -96.50871435 276.33880162 -96.51618958 282.40440369 C-96.52890425 294.26860424 -96.53074004 306.13278269 -96.52838931 317.99698696 C-96.52655121 327.64597098 -96.52832708 337.29494838 -96.53261375 346.94393158 C-96.53321618 348.33394626 -96.53381737 349.72396095 -96.53441736 351.11397563 C-96.53532469 353.20901669 -96.53623336 355.30405775 -96.53714971 357.39909881 C-96.54556994 376.85840856 -96.54992136 396.31771582 -96.54574299 415.77702713 C-96.54558661 416.50943131 -96.54543024 417.24183548 -96.54526912 417.99643373 C-96.54446343 421.70790177 -96.54361766 425.4193698 -96.54275582 429.13083783 C-96.54258473 429.86784626 -96.54241364 430.6048547 -96.54223737 431.36419672 C-96.54189071 432.85460383 -96.54154218 434.34501094 -96.54119179 435.83541804 C-96.53583617 459.0193831 -96.54376429 482.2033101 -96.56222534 505.38726807 C-96.58297951 531.48106426 -96.59366158 557.5748369 -96.58964986 583.66864181 C-96.58925456 586.45534118 -96.588893 589.24204055 -96.58855247 592.02873993 C-96.58846174 592.71481171 -96.58837101 593.40088348 -96.58827753 594.10774531 C-96.58711563 604.42694526 -96.59372866 614.74612127 -96.6043644 625.06531525 C-96.61646018 636.81252334 -96.61764904 648.55968819 -96.60557423 660.30690035 C-96.5997069 666.29242491 -96.59852642 672.2778472 -96.61057663 678.26336479 C-96.62150773 683.75715174 -96.61824709 689.25075193 -96.60431495 694.74453041 C-96.60168776 696.71745277 -96.60397119 698.69039012 -96.61205081 700.66329768 C-96.72498666 730.33193628 -92.96026293 758.20650648 -71.2572937 780.25396729 C-52.97726425 797.03563367 -28.31350145 804.46971604 -3.8197937 803.57037354 C19.70385835 802.18692098 41.36173153 793.55484043 57.7739563 776.25396729 C76.7964208 754.26214247 77.93135395 729.31199673 77.90766907 701.67799377 C77.90953968 699.60070272 77.91184137 697.52341202 77.91453439 695.44612187 C77.92062784 689.76384724 77.9205217 684.08158738 77.91934001 678.39931023 C77.91913539 672.26075715 77.92466066 666.12220873 77.92939758 659.98365784 C77.93769108 647.96704857 77.94046482 635.95044555 77.94100996 623.93383417 C77.94147031 614.16313044 77.94353286 604.3924283 77.94671059 594.62172508 C77.94760819 591.80457455 77.94849801 588.98742402 77.94938546 586.17027348 C77.94960651 585.46983188 77.94982756 584.76939028 77.95005531 584.04772317 C77.95620551 564.35800178 77.96015627 544.66828094 77.95971203 524.97855854 C77.95969645 524.23690911 77.95968087 523.49525968 77.95966482 522.73113602 C77.95958172 518.97253926 77.95948268 515.21394249 77.95938011 511.45534573 C77.95936017 510.70893611 77.95934022 509.96252648 77.95931967 509.19349839 C77.95927924 507.68407776 77.95923744 506.17465714 77.95919428 504.66523652 C77.95858167 481.18675061 77.96608705 457.70827914 77.97976685 434.22979736 C77.99514627 407.82368174 78.00373196 381.41757562 78.00280362 355.01145524 C78.002729 352.19273293 78.00268029 349.37401062 78.00264931 346.55528831 C78.00263765 345.86129859 78.002626 345.16730887 78.00261399 344.45228915 C78.00258329 333.31250299 78.00895315 322.17272943 78.01758157 311.03294701 C78.02608175 299.82654157 78.02685879 288.62015423 78.02047225 277.41374574 C78.01721373 271.34978597 78.01712623 265.28587161 78.0258255 259.2219162 C78.03372088 253.66094442 78.03222819 248.10005385 78.02354137 242.53908398 C78.02201306 240.53714635 78.02379703 238.53520256 78.02940144 236.53327218 C78.05401467 227.11033065 77.90364279 217.78844061 76.89131641 208.41266155 C76.81484856 207.70039256 76.73838071 206.98812356 76.65959565 206.25427066 C74.36842958 187.39956514 64.98600495 172.31714778 51.7739563 159.25396729 C50.98247192 158.45217041 50.19098755 157.65037354 49.3755188 156.82427979 C32.82501319 140.93359499 10.47870296 132.63388172 -12.36373901 132.90264893 C-35.15940756 133.70480156 -55.3718103 144.44377342 -71.2260437 160.25396729 Z M193.7739563 133.25396729 C194.18922577 134.35191116 194.60449524 135.44985504 195.03234863 136.58106995 C195.58089251 138.03621765 196.1293606 139.49139392 196.67776489 140.94659424 C196.95104111 141.66851204 197.22431732 142.39042984 197.50587463 143.13422394 C199.40421593 148.17773278 201.12114992 153.20126694 202.3989563 158.44146729 C202.59714966 159.24261963 202.79534302 160.04377197 202.99954224 160.86920166 C207.58813025 180.53038357 209.51395022 201.04040433 210.30130005 221.18756104 C210.34262558 222.23673203 210.38395111 223.28590302 210.42652893 224.36686707 C210.97863997 239.53294048 211.12011176 254.70946225 211.30618286 269.88348389 C211.3574187 274.00115157 211.41255854 278.11876707 211.46731567 282.23638916 C211.57323065 290.24220378 211.67500818 298.24806353 211.7739563 306.25396729 C248.09774932 306.29979331 284.42153726 306.33501114 320.74535326 306.35609794 C325.0384163 306.35859921 329.33147928 306.36118787 333.62454224 306.36383057 C334.47917633 306.36435519 335.33381042 306.36487981 336.21434252 306.36542033 C350.0335603 306.37411148 363.85276137 306.38987433 377.67196925 306.40827288 C391.86273154 306.42700786 406.05348509 306.43809161 420.24425924 306.44214427 C428.99336587 306.44488188 437.74242522 306.45351328 446.49151729 306.46980022 C452.49957242 306.48041155 458.50760328 306.48355856 464.5156671 306.48097004 C467.97658925 306.47969518 471.43742908 306.4815824 474.89833641 306.49237823 C504.270407 306.57051745 529.97065745 303.9286331 551.7739563 282.25396729 C567.88738875 264.40790769 575.44740308 240.35340771 574.95755005 216.52349854 C573.78067152 195.56504476 567.06430024 174.96816796 552.7739563 159.25396729 C552.0005188 158.39931885 551.2270813 157.54467041 550.4302063 156.66412354 C533.66849512 139.02719643 512.15714884 133.82410971 488.53016686 133.16323459 C485.27873995 133.12969641 482.02874706 133.12524655 478.77716064 133.13371277 C477.54830009 133.13285834 476.31943954 133.13200392 475.05334079 133.1311236 C471.68728039 133.12977428 468.32127975 133.13284955 464.95522666 133.13790166 C461.3085403 133.14225868 457.66185547 133.14075605 454.01516724 133.13999939 C447.71189064 133.13947746 441.40862447 133.14258956 435.10535049 133.14823723 C425.9921051 133.15639725 416.8788647 133.15897205 407.76561604 133.16022522 C392.97656385 133.16240869 378.1875172 133.16904961 363.39846802 133.17852783 C349.04039538 133.18772022 334.68232426 133.1947921 320.32424927 133.19903564 C319.43780271 133.19929837 318.55135616 133.19956109 317.63804759 133.19983178 C313.19058325 133.2011369 308.7431189 133.20240059 304.29565454 133.20364368 C267.45508454 133.21399433 230.61452085 133.2315934 193.7739563 133.25396729 Z M211.7739563 439.25396729 C203.54620312 482.25441548 194.59719108 539.38574696 220.78659058 577.99206543 C232.11336651 594.23195443 245.87247154 608.55501486 259.87942505 622.47662354 C260.48265494 623.07741555 261.08588483 623.67820756 261.70739442 624.29720539 C277.33128913 639.82944942 293.51175899 654.71995084 309.91374314 669.4226526 C319.40036502 677.9372806 328.71879227 686.6112396 337.9446106 695.40753174 C338.92825476 696.34524773 338.92825476 696.34524773 339.93177053 697.30190749 C343.22521746 700.44311534 346.51621513 703.58687615 349.80620801 706.73170102 C369.76110728 725.79901736 389.88055245 744.67838502 410.31349909 763.23297918 C411.89244814 764.6673903 413.46984138 766.10349501 415.04694366 767.53993607 C433.3601398 785.02003946 433.3601398 785.02003946 454.5239563 798.62896729 C455.18460083 798.94929932 455.84524536 799.26963135 456.52590942 799.59967041 C475.73468297 808.47220833 496.58704236 808.49115032 516.44827271 801.3550415 C540.75341707 792.00884299 559.60191093 773.23423757 570.9614563 750.00396729 C579.89345248 729.79950532 581.10219575 708.82123318 573.3598938 688.03912354 C569.45216732 678.33485273 563.91862738 670.13023967 556.66940308 662.62516785 C555.41275224 661.30099368 554.1577777 659.97522733 552.90419769 658.64814568 C552.23493602 657.93985642 551.56567434 657.23156717 550.87613201 656.5018146 C547.1138621 652.4788358 543.43525222 648.38054809 539.74911499 644.28791809 C517.37159674 619.4951736 494.70611035 595.00498272 471.66269465 570.82901803 C468.62656511 567.64312902 465.59320255 564.45461836 462.56155396 561.26446533 C461.95849067 560.62996568 461.35542739 559.99546603 460.73408946 559.34173911 C452.27495303 550.43008207 443.97940332 541.38914188 435.79559964 532.22429614 C421.6405212 516.37281125 407.21619885 500.82628922 392.2270813 485.75787354 C391.64730443 485.17374555 391.06752757 484.58961757 390.4701817 483.98778874 C358.62798036 451.99315615 330.68991278 432.51090591 284.44259265 432.00227342 C260.05898973 431.97097248 235.7176345 434.80916013 211.7739563 439.25396729 Z " fill="#000000" transform="translate(271.2260437011719,41.74603271484375)"/>
</svg>
