<?xml version="1.0" encoding="UTF-8"?>
<svg version="1.1" xmlns="http://www.w3.org/2000/svg" width="1024" height="1024">
<path d="M0 0 C94.05 0 188.1 0 285 0 C285 94.05 285 188.1 285 285 C191.28 285 97.56 285 1 285 C1 378.39 1 471.78 1 568 C-93.05 568 -187.1 568 -284 568 C-284 474.28 -284 380.56 -284 284 C-190.28 284 -96.56 284 0 284 C0 190.28 0 96.56 0 0 Z " fill="#000000" transform="translate(369,371)"/>
<path d="M0 0 C94.05 0 188.1 0 285 0 C285 93.72 285 187.44 285 284 C190.95 284 96.9 284 0 284 C0 190.28 0 96.56 0 0 Z " fill="#000000" transform="translate(654,85)"/>
</svg>
