<?xml version="1.0" encoding="UTF-8"?>
<svg version="1.1" xmlns="http://www.w3.org/2000/svg" width="400" height="400">
<path d="M0 0 C132 0 264 0 400 0 C400 132 400 264 400 400 C268 400 136 400 0 400 C0 268 0 136 0 0 Z " fill="#B5FE5F" transform="translate(0,0)"/>
<path d="M0 0 C14.045625 -0.0928125 14.045625 -0.0928125 28.375 -0.1875 C32.78045166 -0.22846802 32.78045166 -0.22846802 37.27490234 -0.27026367 C39.62857656 -0.27903366 41.98225536 -0.28667638 44.3359375 -0.29296875 C45.53710205 -0.30831665 46.7382666 -0.32366455 47.97583008 -0.33947754 C58.96664956 -0.34286489 68.56744664 1.56709924 77 9 C85.55027642 19.05160975 85.77197029 30.05590415 85.19970703 42.65527344 C84.54745078 50.31330399 81.51607853 56.73465231 76 62 C66.42950426 69.32478731 57.02797343 70.44062803 45.21484375 70.29296875 C44.06407349 70.28994751 42.91330322 70.28692627 41.72766113 70.28381348 C37.46418173 70.26821898 33.20083104 70.22633566 28.9375 70.1875 C14.6134375 70.0946875 14.6134375 70.0946875 0 70 C0 46.9 0 23.8 0 0 Z " fill="#333332" transform="translate(289,165)"/>
<path d="M0 0 C24.09 0 48.18 0 73 0 C73 6.27 73 12.54 73 19 C57.16 19 41.32 19 25 19 C25 21.31 25 23.62 25 26 C40.51 26 56.02 26 72 26 C72 31.94 72 37.88 72 44 C56.49 44 40.98 44 25 44 C25 46.31 25 48.62 25 51 C40.84 51 56.68 51 73 51 C73 57.27 73 63.54 73 70 C48.91 70 24.82 70 0 70 C0 46.9 0 23.8 0 0 Z " fill="#333332" transform="translate(208,165)"/>
<path d="M0 0 C24.09 0 48.18 0 73 0 C73 6.27 73 12.54 73 19 C57.16 19 41.32 19 25 19 C25 21.31 25 23.62 25 26 C40.51 26 56.02 26 72 26 C72 31.94 72 37.88 72 44 C56.49 44 40.98 44 25 44 C25 46.31 25 48.62 25 51 C40.84 51 56.68 51 73 51 C73 57.27 73 63.54 73 70 C48.91 70 24.82 70 0 70 C0 46.9 0 23.8 0 0 Z " fill="#333432" transform="translate(127,165)"/>
<path d="M0 0 C4.43715855 -0.14483042 8.87371277 -0.23391752 13.3125 -0.3125 C14.57513672 -0.35439453 15.83777344 -0.39628906 17.13867188 -0.43945312 C18.34716797 -0.45556641 19.55566406 -0.47167969 20.80078125 -0.48828125 C21.91622314 -0.51446533 23.03166504 -0.54064941 24.1809082 -0.56762695 C27 0 27 0 28.65258789 1.91870117 C30.50657459 6.15844863 32.16753136 10.44402756 33.7578125 14.7890625 C34.1063327 15.72930267 34.45485291 16.66954285 34.81393433 17.63827515 C35.92233836 20.63213147 37.02369479 23.62852605 38.125 26.625 C38.87324781 28.64860399 39.62194089 30.67204339 40.37109375 32.6953125 C41.73850242 36.3930661 43.10458589 40.09129279 44.46533203 43.79150391 C44.73830109 44.53365143 45.01127014 45.27579895 45.29251099 46.04043579 C45.88625508 47.68495556 46.44710061 49.34130184 47 51 C51.89122326 39.72997249 56.02033664 28.19244475 60.21777344 16.65161133 C61.1481621 14.09634846 62.08179141 11.54228672 63.015625 8.98828125 C63.44370453 7.80568474 63.44370453 7.80568474 63.88043213 6.59919739 C65.88715866 1.11284134 65.88715866 1.11284134 67 0 C69.07262076 -0.08767112 71.14820294 -0.10695873 73.22265625 -0.09765625 C74.48271484 -0.09443359 75.74277344 -0.09121094 77.04101562 -0.08789062 C78.38151109 -0.07953403 79.72200588 -0.07106907 81.0625 -0.0625 C82.40689942 -0.0574866 83.7513006 -0.05292342 85.09570312 -0.04882812 C88.39717941 -0.03699488 91.69856803 -0.02050971 95 0 C92.79059128 6.88084377 90.24167709 13.55793408 87.5078125 20.24609375 C87.07999481 21.29724869 86.65217712 22.34840363 86.21139526 23.43141174 C85.31018942 25.64309964 84.4075054 27.85418573 83.50341797 30.06469727 C82.13135074 33.4219606 80.76658213 36.78212716 79.40234375 40.14257812 C78.52127488 42.30226352 77.63977848 44.46177456 76.7578125 46.62109375 C76.3555545 47.61306259 75.95329651 48.60503143 75.53884888 49.62705994 C73.61045145 54.32616362 71.61145161 58.98792754 69.45263672 63.58618164 C69.07791229 64.38842667 68.70318787 65.19067169 68.31710815 66.01722717 C66.76282704 68.35703985 65.62060458 69.0528144 63 70 C58.44038227 70.39993699 53.87587534 70.37161326 49.30102539 70.37060547 C47.07295327 70.37497948 44.84686267 70.41132311 42.61914062 70.44921875 C41.19531924 70.45508754 39.77148849 70.45905652 38.34765625 70.4609375 C37.05867432 70.46915527 35.76969238 70.47737305 34.44165039 70.48583984 C30.30667357 69.90212672 28.82851314 69.04988837 26 66 C24.6932679 63.54136103 23.62699802 61.25579747 22.6171875 58.68359375 C22.32071823 57.96252441 22.02424896 57.24145508 21.71879578 56.49853516 C20.75707586 54.15020587 19.81583961 51.79426314 18.875 49.4375 C18.21600591 47.81533085 17.55575827 46.19367042 16.89428711 44.57250977 C15.55971298 41.2960481 14.2330884 38.01653677 12.91259766 34.734375 C11.16004708 30.38449307 9.37351238 26.0494662 7.57421875 21.71875 C6.56960557 19.29195868 5.56614844 16.86469061 4.5625 14.4375 C4.09634277 13.31593506 3.63018555 12.19437012 3.14990234 11.03881836 C2.73047363 10.01409424 2.31104492 8.98937012 1.87890625 7.93359375 C1.5135376 7.04728271 1.14816895 6.16097168 0.77172852 5.24780273 C0 3 0 3 0 0 Z " fill="#333332" transform="translate(26,165)"/>
<path d="M0 0 C6.249375 -0.0928125 6.249375 -0.0928125 12.625 -0.1875 C13.92775879 -0.21481201 15.23051758 -0.24212402 16.57275391 -0.27026367 C27.62559389 -0.34983591 27.62559389 -0.34983591 32 3 C35.30072741 6.9622656 35.40554951 10.38155657 35.375 15.4375 C35.38660156 17.35369141 35.38660156 17.35369141 35.3984375 19.30859375 C34.96446543 23.32921733 34.27629385 25.66239614 32 29 C26.45810506 33.39116925 19.33056389 32.32808047 12.625 32.1875 C8.45875 32.125625 4.2925 32.06375 0 32 C0 21.44 0 10.88 0 0 Z " fill="#B5FE5F" transform="translate(314,184)"/>
</svg>
