<?xml version="1.0" encoding="UTF-8"?>
<svg version="1.1" xmlns="http://www.w3.org/2000/svg" width="150" height="150">
<path d="M0 0 C13.09201733 11.06112267 22.44321056 27.62340511 24.1328125 44.8203125 C25.60857447 65.52824641 20.89308145 83.30414317 7.31640625 99.52734375 C2.62046465 104.45850246 -2.64474372 108.96598049 -8.8671875 111.8203125 C-7.57866844 108.33517524 -6.03722722 105.41436223 -3.9921875 102.3203125 C2.53999195 91.51339797 5.01259974 79.89187003 2.4375 67.46484375 C-0.85072123 55.67974833 -6.99877395 44.17817034 -17.77294922 37.66894531 C-28.25349304 31.88640747 -38.20386859 27.48624932 -50.40625 30.43359375 C-57.0549156 33.02680181 -61.87956694 37.79853847 -65.03515625 44.18359375 C-67.51342078 52.03724896 -66.47191052 60.09520583 -62.7421875 67.30859375 C-62.4534375 67.80746094 -62.1646875 68.30632812 -61.8671875 68.8203125 C-70.36921538 67.07630678 -76.13126895 60.32356093 -80.7421875 53.3828125 C-87.14750651 42.60349092 -89.19780894 31.39279841 -86.78125 19.00390625 C-83.19397815 6.50977566 -76.27501242 -3.54991005 -64.9375 -10.15234375 C-43.56492877 -20.75797816 -18.09553716 -13.75655277 0 0 Z " fill="#4285F4" transform="translate(118.8671875,22.1796875)"/>
<path d="M0 0 C1.485 0.495 1.485 0.495 3 1 C2.54109375 1.53367187 2.0821875 2.06734375 1.609375 2.6171875 C-2.88292875 8.07212777 -5.83847734 13.27138914 -8 20 C-8.19207031 20.59167969 -8.38414063 21.18335937 -8.58203125 21.79296875 C-11.45760311 36.97706315 -7.50043804 50.38946005 1 63 C1.86625 64.3303125 1.86625 64.3303125 2.75 65.6875 C11.11059126 74.28032991 22.6840487 80.43620669 34.6875 81.25 C40.92066291 81.14395375 47.32622029 79.58633534 52.375 75.8125 C58.05339678 69.72850345 60.33695617 62.88035436 60.30078125 54.64453125 C59.90172279 51.13592639 58.65338111 48.60711799 56.875 45.59375 C56 44 56 44 56 42 C66.34648862 45.44882954 72.34769188 53.17816012 77.359375 62.5390625 C82.15693166 72.93376859 82.92393496 85.75250534 79.03125 96.6015625 C73.9079924 108.51701767 67.44886334 116.58400243 55.4453125 122.03515625 C40.99212355 127.73793208 24.21395697 125.95291575 10.03369141 120.20263672 C-7.46812972 112.46540431 -18.8042502 99.53267216 -26.73828125 82.2734375 C-33.37692012 65.04997195 -31.88303467 45.9009168 -25 29 C-19.62611561 17.03612283 -10.89435546 7.26290364 0 0 Z " fill="#4185F4" transform="translate(38,18)"/>
</svg>
