<?xml version="1.0" encoding="UTF-8"?>
<svg version="1.1" xmlns="http://www.w3.org/2000/svg" width="180" height="180">
<path d="M0 0 C59.4 0 118.8 0 180 0 C180 59.4 180 118.8 180 180 C120.6 180 61.2 180 0 180 C0 120.6 0 61.2 0 0 Z " fill="#03061E" transform="translate(0,0)"/>
<path d="M0 0 C6.45640062 3.70138928 11.28022606 8.89038727 13.625 16 C15.88398946 27.7948876 10.67118826 38.88451356 6.75830078 49.765625 C5.62741182 52.99311681 4.58041276 56.2364703 3.55859375 59.5 C-1.19950536 74.63898478 -5.46454556 86.64178654 -19.0625 95.8125 C-22.97264851 97.8204141 -26.43969691 98.15717543 -30.8125 98.1875 C-31.73933594 98.20167969 -32.66617188 98.21585937 -33.62109375 98.23046875 C-36.55333373 97.98507562 -38.71361389 97.22201577 -41.375 96 C-40.89289063 95.25234375 -40.41078125 94.5046875 -39.9140625 93.734375 C-39.28242187 92.74953125 -38.65078125 91.7646875 -38 90.75 C-37.37351562 89.77546875 -36.74703125 88.8009375 -36.1015625 87.796875 C-34.37385575 85.14933981 -34.37385575 85.14933981 -33.38671875 82.7109375 C-32.375 81 -32.375 81 -28.5625 79.875 C-27.16761962 79.57880943 -25.77182656 79.28687225 -24.375 79 C-21.54424452 78.32006573 -21.54424452 78.32006573 -19.375 77 C-18.65075972 75.35753288 -17.99274504 73.6854119 -17.375 72 C-17.01776855 71.17854492 -16.66053711 70.35708984 -16.29248047 69.51074219 C-12.76099543 61.35619552 -9.92535444 53.04321632 -7.24316406 44.58056641 C-6.49511036 42.23466607 -5.72429066 39.89698279 -4.953125 37.55859375 C-4.46993981 36.04472153 -3.98811965 34.5304128 -3.5078125 33.015625 C-3.27772491 32.32897766 -3.04763733 31.64233032 -2.81057739 30.93487549 C-1.26032953 25.91287686 -1.24421559 22.15847172 -2.375 17 C-5.38863519 14.19661842 -7.37028984 13.14353002 -11.4375 12.5625 C-14.89045247 13.07676952 -16.58917038 13.8952486 -19.375 16 C-20.921917 18.93008573 -20.921917 18.93008573 -21.9375 22.375 C-22.14310547 22.99713379 -22.34871094 23.61926758 -22.56054688 24.26025391 C-23.18477975 26.16725636 -23.78006882 28.08365402 -24.375 30 C-24.71402344 31.0725 -25.05304688 32.145 -25.40234375 33.25 C-26.0588012 35.35910025 -26.70572359 37.47118868 -27.34375 39.5859375 C-28.70282328 44.08529375 -30.10642991 48.57024285 -31.52392578 53.05151367 C-32.50846319 56.17447233 -33.45695767 59.29418139 -34.3359375 62.44921875 C-37.72911682 74.47035402 -42.74401341 87.15822703 -54.09765625 93.52734375 C-62.03900733 97.22647632 -69.04025297 98.78271697 -77.484375 95.9609375 C-88.22164561 91.17991402 -93.24575242 83.64075339 -97.375 73 C-97.81328125 71.90945312 -98.2515625 70.81890625 -98.703125 69.6953125 C-99.45509172 67.82331114 -100.20660404 65.95105945 -100.94018555 64.07177734 C-102.30353762 60.59056761 -103.73786218 57.17086712 -105.31640625 53.78125 C-109.94560314 43.6665819 -112.63800669 34.76047375 -109.73828125 23.53515625 C-107.17313395 17.48790853 -101.80287176 12.64780331 -95.9453125 9.83203125 C-88.40707596 7.39184222 -81.68247222 8.7329045 -74.76171875 12.22265625 C-67.42464763 17.68643262 -64.39686786 24.68639687 -61.16772461 33.10644531 C-60.4355348 35.005096 -59.67163071 36.88875791 -58.90429688 38.7734375 C-58.43185547 39.98257813 -57.95941406 41.19171875 -57.47265625 42.4375 C-57.04476807 43.52933594 -56.61687988 44.62117188 -56.17602539 45.74609375 C-54.779905 51.41738071 -56.30898254 56.4333237 -58.25 61.8125 C-58.57742187 62.74707031 -58.90484375 63.68164062 -59.2421875 64.64453125 C-60.375 67 -60.375 67 -63.375 69 C-63.84808594 67.81148438 -64.32117188 66.62296875 -64.80859375 65.3984375 C-66.20349936 61.89725298 -67.6060025 58.39920055 -69.01171875 54.90234375 C-70.61875429 50.90253629 -72.20079357 46.89387625 -73.76953125 42.87890625 C-74.55434463 40.89830161 -75.3394924 38.91782942 -76.125 36.9375 C-76.48907959 35.99245605 -76.85315918 35.04741211 -77.22827148 34.07373047 C-77.58091064 33.19217285 -77.9335498 32.31061523 -78.296875 31.40234375 C-78.60206055 30.62366943 -78.90724609 29.84499512 -79.22167969 29.04272461 C-80.61358851 26.57741954 -81.93998404 25.42782551 -84.375 24 C-88.50768279 24 -90.63050758 24.40440607 -93.875 27 C-96.20073898 31.65147797 -95.16351766 36.14663133 -93.80258179 41.07138062 C-93.11159113 43.10651418 -92.36038882 45.10522227 -91.57421875 47.10546875 C-91.29657181 47.83316971 -91.01892487 48.56087067 -90.73286438 49.31062317 C-90.14873315 50.83430193 -89.55941343 52.35600106 -88.96508789 53.87573242 C-88.06250971 56.18747514 -87.17957304 58.50603533 -86.29882812 60.82617188 C-85.72510611 62.31554681 -85.15027385 63.80449464 -84.57421875 65.29296875 C-84.31364182 65.97747604 -84.05306488 66.66198334 -83.78459167 67.36723328 C-81.67981472 72.70585448 -79.46699434 77.6053371 -74.5625 80.875 C-69.60754786 82.62380664 -66.14554114 82.79493684 -61.3125 80.625 C-53.6991727 73.82160113 -50.87489443 64.37122725 -48.09765625 54.8359375 C-47.52542442 52.95306155 -46.95316789 51.07019271 -46.37950039 49.18775368 C-44.9864046 44.60058905 -43.6232619 40.00448536 -42.26391602 35.40722656 C-41.49481963 32.80997132 -40.71449687 30.21655749 -39.92271423 27.62612915 C-39.18326221 25.20300067 -38.46088661 22.774572 -37.75856018 20.34042358 C-34.98450175 11.31050791 -31.0771169 5.35584156 -23.25 0 C-15.86103228 -3.7007777 -7.45749482 -3.3371438 0 0 Z " fill="#16AFF9" transform="translate(138.375,42)"/>
<path d="M0 0 C1.65 0 3.3 0 5 0 C8.07094584 4.85407568 9.30619033 8.21825274 10 14 C10.66 14.33 11.32 14.66 12 15 C8.35883 16.66227326 5.49709631 17.2724556 1.5 17.25 C0.5821875 17.25515625 -0.335625 17.2603125 -1.28125 17.265625 C-4.1778282 16.98262598 -6.36375653 16.20350245 -9 15 C-8.51789063 14.25234375 -8.03578125 13.5046875 -7.5390625 12.734375 C-6.90742187 11.74953125 -6.27578125 10.7646875 -5.625 9.75 C-4.99851562 8.77546875 -4.37203125 7.8009375 -3.7265625 6.796875 C-2.34865148 4.56478385 -1.11687358 2.36912578 0 0 Z " fill="#2288F8" transform="translate(106,123)"/>
<path d="M0 0 C0.66 0 1.32 0 2 0 C-1.07769995 11.04479557 -1.07769995 11.04479557 -4 16 C-4.66 16.33 -5.32 16.66 -6 17 C-9 10.375 -9 10.375 -9 7 C-7.36209288 5.95355934 -5.68991979 4.9601817 -4 4 C-2.9171875 2.9171875 -2.9171875 2.9171875 -1.8125 1.8125 C-1.214375 1.214375 -0.61625 0.61625 0 0 Z " fill="#2E9EF5" transform="translate(81,94)"/>
<path d="M0 0 C0.66 0.33 1.32 0.66 2 1 C2.40729228 3.32156597 2.74438677 5.6568787 3 8 C0.69 7.34 -1.62 6.68 -4 6 C-2.68 4.02 -1.36 2.04 0 0 Z " fill="#3A77ED" transform="translate(101,132)"/>
<path d="M0 0 C3 1 3 1 4.6875 4.0625 C5.120625 5.031875 5.55375 6.00125 6 7 C4.68 7 3.36 7 2 7 C1.34 4.69 0.68 2.38 0 0 Z " fill="#3581FB" transform="translate(102,133)"/>
</svg>
